<?xml version="1.0" encoding="UTF-8"?>
<!DOCTYPE svg PUBLIC "-//W3C//DTD SVG 1.1//EN" "http://www.w3.org/Graphics/SVG/1.1/DTD/svg11.dtd">
<svg xmlns="http://www.w3.org/2000/svg" version="1.1" width="1920px" height="1080px" style="shape-rendering:geometricPrecision; text-rendering:geometricPrecision; image-rendering:optimizeQuality; fill-rule:evenodd; clip-rule:evenodd" xmlns:xlink="http://www.w3.org/1999/xlink">
<g><path style="opacity:1" fill="#fea7ac" d="M -0.5,-0.5 C 639.5,-0.5 1279.5,-0.5 1919.5,-0.5C 1919.5,359.5 1919.5,719.5 1919.5,1079.5C 1279.5,1079.5 639.5,1079.5 -0.5,1079.5C -0.5,719.5 -0.5,359.5 -0.5,-0.5 Z"/></g>
<g><path style="opacity:1" fill="#110e0e" d="M 620.5,372.5 C 620.665,375.85 620.498,379.183 620,382.5C 620.03,379.639 619.197,377.305 617.5,375.5C 617.5,372.5 617.5,369.5 617.5,366.5C 553.125,368.906 493.458,386.739 438.5,420C 431.873,425.299 426.706,431.799 423,439.5C 421.412,452.745 427.246,458.412 440.5,456.5C 497.352,453.895 554.185,450.895 611,447.5C 618.813,447.163 626.313,448.496 633.5,451.5C 634.394,454.011 635.394,456.511 636.5,459C 636.43,459.765 636.097,460.265 635.5,460.5C 631.752,457.292 627.418,455.126 622.5,454C 616.333,453.833 610.167,453.667 604,453.5C 549.149,456.325 494.316,459.325 439.5,462.5C 429.434,463.054 421.934,459.054 417,450.5C 416.667,448.167 416.333,445.833 416,443.5C 404.659,413.988 395.493,383.821 388.5,353C 341.813,350.165 295.146,346.998 248.5,343.5C 252.115,352.263 255.281,361.263 258,370.5C 261.697,389.618 265.863,408.618 270.5,427.5C 259.818,438.349 249.318,449.349 239,460.5C 229.449,472.383 220.282,484.55 211.5,497C 264.531,509.743 318.198,518.91 372.5,524.5C 376.618,525.709 380.951,526.376 385.5,526.5C 437.676,532.365 490.009,534.532 542.5,533C 563.359,531.896 583.359,527.229 602.5,519C 614.084,513.792 623.917,506.292 632,496.5C 638.489,487.527 640.989,477.527 639.5,466.5C 640.141,465.518 640.807,464.518 641.5,463.5C 640.295,462.005 640.295,460.672 641.5,459.5C 646.475,469.285 646.641,479.285 642,489.5C 635.167,504.333 624.333,515.167 609.5,522C 589.519,531.245 568.519,536.579 546.5,538C 488.645,540.571 430.979,538.238 373.5,531C 317.078,523.707 261.078,514.041 205.5,502C 204.251,499.79 204.418,497.624 206,495.5C 222.366,470.785 241.366,448.119 263,427.5C 263.667,425.167 263.667,422.833 263,420.5C 259.758,404.796 256.424,389.129 253,373.5C 250.56,362.84 246.56,352.84 241,343.5C 240.257,341.559 240.424,339.726 241.5,338C 285.821,340.624 330.154,343.458 374.5,346.5C 378.634,347.485 382.968,347.818 387.5,347.5C 387.737,346.209 387.404,345.209 386.5,344.5C 382.528,321.257 379.028,297.924 376,274.5C 373.756,258.887 372.422,243.22 372,227.5C 401.689,197.902 436.189,175.735 475.5,161C 511.065,147.848 547.731,139.181 585.5,135C 667.838,127.695 750.171,128.029 832.5,136C 885.48,141.079 936.813,153.079 986.5,172C 1074.52,210.922 1165.52,240.755 1259.5,261.5C 1262.57,209.492 1265.74,157.492 1269,105.5C 1273.04,101.123 1277.88,97.9564 1283.5,96C 1410.22,69.0262 1530.22,86.6929 1643.5,149C 1668.38,163.554 1691.88,180.054 1714,198.5C 1714.71,200.367 1714.21,201.867 1712.5,203C 1692.13,214.006 1671.8,225.006 1651.5,236C 1642.5,241.762 1634.33,248.595 1627,256.5C 1628.1,292.82 1628.93,329.154 1629.5,365.5C 1627.14,365.663 1624.81,365.497 1622.5,365C 1596.66,345.412 1568.32,330.578 1537.5,320.5C 1531.59,350.549 1524.09,380.215 1515,409.5C 1512.24,425.065 1510.24,440.731 1509,456.5C 1507.42,467.679 1505.08,478.679 1502,489.5C 1485.15,497.092 1467.65,502.925 1449.5,507C 1408.55,515.113 1367.21,517.78 1325.5,515C 1227.31,505.37 1130.98,486.37 1036.5,458C 974.963,437.932 913.296,418.265 851.5,399C 788.545,380.006 724.212,369.006 658.5,366C 646.5,365.333 634.5,365.333 622.5,366C 620.75,367.754 620.083,369.921 620.5,372.5 Z"/></g>
<g><path style="opacity:1" fill="#fdfdfd" d="M 1623.5,328.5 C 1623.83,338.348 1623.49,348.014 1622.5,357.5C 1597.21,339.02 1569.54,325.02 1539.5,315.5C 1541.22,302.533 1542.72,289.533 1544,276.5C 1544.67,262.167 1544.67,247.833 1544,233.5C 1543.73,231.671 1542.89,230.171 1541.5,229C 1478.14,193.993 1411.14,168.659 1340.5,153C 1321.78,147.666 1304.45,139.666 1288.5,129C 1283.2,124.701 1279.03,119.534 1276,113.5C 1274.71,109.418 1275.87,106.251 1279.5,104C 1302.69,97.3074 1326.35,92.974 1350.5,91C 1474.25,81.8235 1586.59,112.823 1687.5,184C 1693.98,188.977 1700.31,194.144 1706.5,199.5C 1686.87,210.318 1667.2,221.151 1647.5,232C 1637.98,237.859 1629.48,245.026 1622,253.5C 1621.45,278.52 1621.95,303.52 1623.5,328.5 Z"/></g>
<g><path style="opacity:1" fill="#fdfdfd" d="M 1267.5,263.5 C 1266.55,257.925 1266.21,252.259 1266.5,246.5C 1268.57,204.479 1271.07,162.479 1274,120.5C 1283.2,132.349 1294.7,141.182 1308.5,147C 1320.96,151.892 1333.62,156.225 1346.5,160C 1413.68,175.058 1477.18,199.558 1537,233.5C 1537.74,240.707 1536.08,247.374 1532,253.5C 1516.17,275.271 1494.67,286.771 1467.5,288C 1456.17,288.667 1444.83,288.667 1433.5,288C 1377.7,282.788 1322.37,274.622 1267.5,263.5 Z"/></g>
<g><path style="opacity:1" fill="#fdfdfd" d="M 683.5,134.5 C 744.075,134.088 804.408,137.588 864.5,145C 900.681,150.588 936.015,159.588 970.5,172C 1008.45,187.205 1046.45,202.205 1084.5,217C 1198.32,258.165 1315.65,283.498 1436.5,293C 1464.6,296.697 1490.93,291.697 1515.5,278C 1525.43,271.405 1533.26,262.905 1539,252.5C 1539.23,275.019 1537.23,297.353 1533,319.5C 1526.5,348.849 1518.83,377.849 1510,406.5C 1506.44,432.573 1502.44,458.573 1498,484.5C 1493.19,487.558 1488.03,490.058 1482.5,492C 1431.3,507.54 1378.97,513.207 1325.5,509C 1222.97,499.283 1122.64,478.949 1024.5,448C 951.919,423.188 878.586,400.855 804.5,381C 742.13,365.329 678.797,358.662 614.5,361C 555.902,363.985 500.902,379.318 449.5,407C 436.766,413.734 426.599,423.234 419,435.5C 400.885,387.372 388.885,337.706 383,286.5C 380.729,267.516 379.062,248.516 378,229.5C 412.923,195.78 453.756,171.947 500.5,158C 529.336,149.638 558.67,143.638 588.5,140C 620.273,137.239 651.94,135.405 683.5,134.5 Z"/></g>
<g><path style="opacity:1" fill="#080808" d="M 611.5,242.5 C 616.927,233.885 614.927,227.385 605.5,223C 584.588,219.894 571.422,228.728 566,249.5C 563.918,260.009 564.084,270.343 566.5,280.5C 569.176,292.676 576.509,300.51 588.5,304C 595.861,304.683 603.195,304.517 610.5,303.5C 610.666,295.493 610.5,287.493 610,279.5C 607.017,278.083 603.85,277.25 600.5,277C 599.167,275.333 599.167,273.667 600.5,272C 611.814,272.16 623.147,272.493 634.5,273C 636.684,274.898 637.017,277.064 635.5,279.5C 632.482,279.335 629.482,279.502 626.5,280C 625.667,280.833 624.833,281.667 624,282.5C 623.308,290.517 622.475,298.517 621.5,306.5C 607.825,311.527 593.825,312.694 579.5,310C 560.689,304.575 550.189,292.075 548,272.5C 547.175,265.386 547.675,258.386 549.5,251.5C 554.314,232.578 566.314,221.078 585.5,217C 599.145,214.518 611.812,216.851 623.5,224C 631.677,233.258 631.343,242.258 622.5,251C 616.139,253.882 610.806,252.715 606.5,247.5C 608.394,246.055 610.06,244.388 611.5,242.5 Z"/></g>
<g><path style="opacity:1" fill="#ebebeb" d="M 611.5,242.5 C 611.789,235.895 608.789,231.729 602.5,230C 585.753,228.025 574.586,235.192 569,251.5C 566.806,261.034 565.973,270.7 566.5,280.5C 564.084,270.343 563.918,260.009 566,249.5C 571.422,228.728 584.588,219.894 605.5,223C 614.927,227.385 616.927,233.885 611.5,242.5 Z"/></g>
<g><path style="opacity:1" fill="#080808" d="M 807.5,313.5 C 809.018,310.466 809.851,307.133 810,303.5C 810.807,285.452 811.807,267.452 813,249.5C 801.683,272.802 790.349,296.136 779,319.5C 777,322.167 775,322.167 773,319.5C 764.258,295.105 755.425,270.772 746.5,246.5C 746.44,245.957 746.107,245.624 745.5,245.5C 744.526,247.743 744.192,250.076 744.5,252.5C 743.231,271.159 742.398,289.826 742,308.5C 742.383,309.056 742.883,309.389 743.5,309.5C 745.813,312.917 749.146,314.251 753.5,313.5C 753.66,315.199 753.494,316.866 753,318.5C 730.927,317.85 708.76,316.683 686.5,315C 684.473,313.604 684.14,311.938 685.5,310C 689.233,309.934 692.733,309.101 696,307.5C 696.356,300.549 695.023,293.882 692,287.5C 679.919,285.484 667.752,284.817 655.5,285.5C 652.579,290.93 650.246,296.597 648.5,302.5C 648.529,304.029 649.196,305.196 650.5,306C 654.219,306.388 657.886,307.055 661.5,308C 662.86,309.938 662.527,311.604 660.5,313C 649.624,312.727 638.791,311.893 628,310.5C 627.28,308.888 627.446,307.388 628.5,306C 633.713,306.476 637.88,304.642 641,300.5C 651.667,279.167 662.333,257.833 673,236.5C 673.667,234.833 673.667,233.167 673,231.5C 670.345,229.947 667.512,228.78 664.5,228C 663.594,226.301 663.261,224.467 663.5,222.5C 676.242,220.946 685.075,225.946 690,237.5C 697.667,260.5 705.333,283.5 713,306.5C 715.302,310.626 718.802,312.293 723.5,311.5C 727.807,312.191 731.307,310.857 734,307.5C 736.233,283.868 737.567,260.202 738,236.5C 735.044,233.773 731.544,232.273 727.5,232C 726.167,230.333 726.167,228.667 727.5,227C 737.753,225.687 746.919,228.187 755,234.5C 756.92,237.339 758.587,240.339 760,243.5C 766.803,262.244 773.803,280.911 781,299.5C 791.923,277.987 802.589,256.321 813,234.5C 821.755,233.35 830.588,233.184 839.5,234C 842.167,236 842.167,238 839.5,240C 834.283,239.262 830.45,241.095 828,245.5C 826.45,265.336 824.95,285.169 823.5,305C 821.701,314.098 825.368,318.765 834.5,319C 836.426,322.79 835.26,324.623 831,324.5C 819.872,323.177 808.705,322.344 797.5,322C 796.594,320.301 796.261,318.467 796.5,316.5C 799.187,316.664 801.854,316.497 804.5,316C 805.942,315.623 806.942,314.79 807.5,313.5 Z"/></g>
<g><path style="opacity:1" fill="#0a0a0a" d="M 915.5,309.5 C 913.776,315.556 912.109,321.723 910.5,328C 887.394,328.035 864.394,326.868 841.5,324.5C 840.272,322.99 840.272,321.49 841.5,320C 847.415,320.939 851.582,318.772 854,313.5C 855.689,290.832 857.022,268.166 858,245.5C 855.121,241.812 851.287,240.146 846.5,240.5C 846.34,238.801 846.506,237.134 847,235.5C 847.561,234.978 848.228,234.645 849,234.5C 869.796,236.256 890.629,237.756 911.5,239C 912.796,242.909 913.463,247.075 913.5,251.5C 913.333,255.5 913.167,259.5 913,263.5C 910.413,266.034 907.747,266.034 905,263.5C 904.579,259.128 903.912,254.795 903,250.5C 901.437,247.272 898.937,245.105 895.5,244C 887.869,242.931 880.202,242.431 872.5,242.5C 872.348,254.532 871.681,266.532 870.5,278.5C 879.152,279.133 887.818,279.633 896.5,280C 899.75,284.178 898.75,286.345 893.5,286.5C 885.496,285.789 877.496,285.122 869.5,284.5C 869.642,293.517 869.309,302.517 868.5,311.5C 868.005,314.948 869.005,317.781 871.5,320C 879.346,322.18 887.346,322.846 895.5,322C 898.034,321.484 900.2,320.317 902,318.5C 904.107,314.619 905.941,310.619 907.5,306.5C 909.765,305.353 912.098,305.186 914.5,306C 915.337,307.011 915.67,308.178 915.5,309.5 Z"/></g>
<g><path style="opacity:1" fill="#7f7f7f" d="M 746.5,246.5 C 745.833,248.5 745.167,250.5 744.5,252.5C 744.192,250.076 744.526,247.743 745.5,245.5C 746.107,245.624 746.44,245.957 746.5,246.5 Z"/></g>
<g><path style="opacity:1" fill="#9e9e9e" d="M 1266.5,246.5 C 1266.21,252.259 1266.55,257.925 1267.5,263.5C 1266.19,261.085 1265.52,258.252 1265.5,255C 1265.5,251.979 1265.84,249.146 1266.5,246.5 Z"/></g>
<g><path style="opacity:1" fill="#efefef" d="M 549.5,251.5 C 547.675,258.386 547.175,265.386 548,272.5C 550.189,292.075 560.689,304.575 579.5,310C 593.825,312.694 607.825,311.527 621.5,306.5C 622.475,298.517 623.308,290.517 624,282.5C 624.833,281.667 625.667,280.833 626.5,280C 629.482,279.502 632.482,279.335 635.5,279.5C 635.657,280.873 635.49,282.207 635,283.5C 632.749,285.377 630.249,286.877 627.5,288C 626.874,288.75 626.374,289.584 626,290.5C 625.029,296.022 624.195,301.522 623.5,307C 623.957,307.414 624.291,307.914 624.5,308.5C 623.699,311.133 622.033,312.967 619.5,314C 605.082,319.201 590.415,319.868 575.5,316C 555.183,308.218 545.183,293.384 545.5,271.5C 545.307,265.029 546.14,258.696 548,252.5C 548.383,251.944 548.883,251.611 549.5,251.5 Z"/></g>
<g><path style="opacity:1" fill="#f4f4f4" d="M 688.5,278.5 C 686.052,279.473 683.385,279.806 680.5,279.5C 673.418,279.66 666.418,278.993 659.5,277.5C 665.333,265.833 671.167,254.167 677,242.5C 681.542,254.292 685.375,266.292 688.5,278.5 Z"/></g>
<g><path style="opacity:1" fill="#e9e9e9" d="M 746.5,246.5 C 755.425,270.772 764.258,295.105 773,319.5C 775,322.167 777,322.167 779,319.5C 790.349,296.136 801.683,272.802 813,249.5C 811.807,267.452 810.807,285.452 810,303.5C 809.851,307.133 809.018,310.466 807.5,313.5C 807.897,302.32 808.563,291.154 809.5,280C 809.464,277.906 809.131,275.906 808.5,274C 807.004,273.493 805.837,273.993 805,275.5C 797.272,291.956 789.272,308.289 781,324.5C 775.568,328.47 771.568,327.136 769,320.5C 764,306.833 759,293.167 754,279.5C 752.527,275.221 750.527,271.221 748,267.5C 746.956,268.623 746.29,269.956 746,271.5C 745.03,284.163 744.196,296.829 743.5,309.5C 742.883,309.389 742.383,309.056 742,308.5C 742.398,289.826 743.231,271.159 744.5,252.5C 745.167,250.5 745.833,248.5 746.5,246.5 Z"/></g>
<g><path style="opacity:1" fill="#707070" d="M 688.5,278.5 C 689.043,278.56 689.376,278.893 689.5,279.5C 686.355,280.803 683.355,280.803 680.5,279.5C 683.385,279.806 686.052,279.473 688.5,278.5 Z"/></g>
<g><path style="opacity:1" fill="#efefef" d="M 915.5,309.5 C 916.864,317.518 915.698,325.185 912,332.5C 910.681,334.487 908.848,335.654 906.5,336C 885.809,335.293 865.142,333.959 844.5,332C 842.545,331.047 840.878,329.713 839.5,328C 840.823,327.184 841.489,326.017 841.5,324.5C 864.394,326.868 887.394,328.035 910.5,328C 912.109,321.723 913.776,315.556 915.5,309.5 Z"/></g>
<g><path style="opacity:1" fill="#060606" d="M 1114.5,353.5 C 1116.48,387.251 1100.82,406.251 1067.5,410.5C 1039.58,407.071 1024.91,391.238 1023.5,363C 1023.61,360.116 1023.94,357.282 1024.5,354.5C 1033.4,322.546 1054.06,310.379 1086.5,318C 1102.38,324.709 1111.71,336.542 1114.5,353.5 Z"/></g>
<g><path style="opacity:1" fill="#ececec" d="M 1093.5,382.5 C 1096.3,370.453 1096.13,358.453 1093,346.5C 1086.44,330.301 1074.94,325.134 1058.5,331C 1051.05,336.706 1046.22,344.206 1044,353.5C 1042.34,361.416 1041.51,369.416 1041.5,377.5C 1038.86,363.03 1040.7,349.03 1047,335.5C 1056.15,320.814 1068.65,317.314 1084.5,325C 1094.4,333.69 1099.07,344.69 1098.5,358C 1098.15,366.564 1096.49,374.731 1093.5,382.5 Z"/></g>
<g><path style="opacity:1" fill="#080808" d="M 1277.5,403.5 C 1275.44,409.569 1273.44,415.736 1271.5,422C 1248.85,420.692 1226.19,419.526 1203.5,418.5C 1202.85,416.565 1202.52,414.565 1202.5,412.5C 1205.19,412.664 1207.85,412.497 1210.5,412C 1211.94,411.623 1212.94,410.79 1213.5,409.5C 1214.97,408.653 1215.8,407.32 1216,405.5C 1218,382.853 1219.33,360.186 1220,337.5C 1219.17,336.667 1218.33,335.833 1217.5,335C 1212.25,333.494 1206.92,333.161 1201.5,334C 1199.38,335.122 1197.54,336.622 1196,338.5C 1184.23,363.714 1172.73,389.048 1161.5,414.5C 1158.68,415.971 1156.18,415.637 1154,413.5C 1146.87,387.775 1139.54,362.108 1132,336.5C 1130.34,330.006 1126.17,326.673 1119.5,326.5C 1119.5,324.5 1119.5,322.5 1119.5,320.5C 1126.96,320.624 1133.96,322.457 1140.5,326C 1141.79,327.41 1142.95,328.91 1144,330.5C 1150.67,351.843 1157.34,373.176 1164,394.5C 1172,375.833 1180,357.167 1188,338.5C 1188.81,336.421 1188.64,334.421 1187.5,332.5C 1184.89,331.77 1182.22,331.27 1179.5,331C 1178.17,329.333 1178.17,327.667 1179.5,326C 1211.16,327.967 1242.82,330.3 1274.5,333C 1275.72,334.525 1276.39,336.359 1276.5,338.5C 1275.92,344.493 1275.42,350.493 1275,356.5C 1272.93,358.648 1270.59,358.982 1268,357.5C 1267.38,352.747 1266.38,348.08 1265,343.5C 1263.44,340.272 1260.94,338.105 1257.5,337C 1250.16,336.522 1242.83,336.022 1235.5,335.5C 1234.29,346.642 1233.29,357.809 1232.5,369C 1232.83,369.833 1233.17,370.667 1233.5,371.5C 1242.15,372.274 1250.81,373.108 1259.5,374C 1260.83,375.667 1260.83,377.333 1259.5,379C 1250.13,379.255 1240.8,378.755 1231.5,377.5C 1230.77,388.495 1230.6,399.495 1231,410.5C 1233.73,413.712 1237.23,415.212 1241.5,415C 1247.5,415.667 1253.5,415.667 1259.5,415C 1261.29,414.215 1262.79,413.049 1264,411.5C 1265.98,407.191 1268.15,403.024 1270.5,399C 1274.84,397.524 1277.18,399.024 1277.5,403.5 Z"/></g>
<g><path style="opacity:1" fill="#ededed" d="M 1119.5,326.5 C 1126.17,326.673 1130.34,330.006 1132,336.5C 1139.54,362.108 1146.87,387.775 1154,413.5C 1156.18,415.637 1158.68,415.971 1161.5,414.5C 1172.73,389.048 1184.23,363.714 1196,338.5C 1197.54,336.622 1199.38,335.122 1201.5,334C 1206.92,333.161 1212.25,333.494 1217.5,335C 1218.33,335.833 1219.17,336.667 1220,337.5C 1219.33,360.186 1218,382.853 1216,405.5C 1215.8,407.32 1214.97,408.653 1213.5,409.5C 1215.66,388.213 1216.83,366.88 1217,345.5C 1216.63,344.584 1216.13,343.75 1215.5,343C 1212.35,341.901 1209.18,341.401 1206,341.5C 1203.02,341.657 1200.35,342.657 1198,344.5C 1186.47,368.231 1175.47,392.231 1165,416.5C 1160.66,423.933 1156,424.266 1151,417.5C 1144,393.167 1137,368.833 1130,344.5C 1127.78,338.943 1124.11,334.61 1119,331.5C 1118.36,329.735 1118.53,328.068 1119.5,326.5 Z"/></g>
<g><path style="opacity:1" fill="#fdfdfd" d="M 1093.5,382.5 C 1089,398.084 1078.66,405.251 1062.5,404C 1049.76,399.758 1042.76,390.925 1041.5,377.5C 1041.51,369.416 1042.34,361.416 1044,353.5C 1046.22,344.206 1051.05,336.706 1058.5,331C 1074.94,325.134 1086.44,330.301 1093,346.5C 1096.13,358.453 1096.3,370.453 1093.5,382.5 Z"/></g>
<g><path style="opacity:1" fill="#060606" d="M 1368.5,429.5 C 1355.94,431.464 1345.77,427.464 1338,417.5C 1332.41,407.994 1327.08,398.327 1322,388.5C 1317.91,385.874 1313.41,384.874 1308.5,385.5C 1307.92,395.5 1307.75,405.5 1308,415.5C 1308.38,416.056 1308.88,416.389 1309.5,416.5C 1309.37,417.376 1309.7,418.043 1310.5,418.5C 1313.25,419.813 1316.08,420.813 1319,421.5C 1319.83,424.814 1318.5,426.481 1315,426.5C 1303.55,424.928 1292.05,423.928 1280.5,423.5C 1280.5,421.5 1280.5,419.5 1280.5,417.5C 1283.52,417.665 1286.52,417.498 1289.5,417C 1291.05,415.786 1292.22,414.286 1293,412.5C 1295.12,389.527 1296.46,366.527 1297,343.5C 1294.41,339.952 1290.91,338.618 1286.5,339.5C 1286.5,337.5 1286.5,335.5 1286.5,333.5C 1302.13,335.1 1317.79,336.266 1333.5,337C 1342.62,338.31 1350.45,342.143 1357,348.5C 1364.17,368.137 1357.34,379.804 1336.5,383.5C 1342.08,397.829 1350.08,410.662 1360.5,422C 1362.98,422.96 1365.48,423.793 1368,424.5C 1368.49,426.134 1368.66,427.801 1368.5,429.5 Z"/></g>
<g><path style="opacity:1" fill="#777777" d="M 1623.5,328.5 C 1624.82,338.341 1624.82,348.341 1623.5,358.5C 1622.89,358.376 1622.56,358.043 1622.5,357.5C 1623.49,348.014 1623.83,338.348 1623.5,328.5 Z"/></g>
<g><path style="opacity:1" fill="#fdfdfd" d="M 635.5,460.5 C 636.846,462.537 638.18,464.537 639.5,466.5C 640.989,477.527 638.489,487.527 632,496.5C 623.917,506.292 614.084,513.792 602.5,519C 583.359,527.229 563.359,531.896 542.5,533C 490.009,534.532 437.676,532.365 385.5,526.5C 384.737,525.732 383.737,525.232 382.5,525C 379.183,524.502 375.85,524.335 372.5,524.5C 318.198,518.91 264.531,509.743 211.5,497C 220.282,484.55 229.449,472.383 239,460.5C 249.318,449.349 259.818,438.349 270.5,427.5C 265.863,408.618 261.697,389.618 258,370.5C 255.281,361.263 252.115,352.263 248.5,343.5C 295.146,346.998 341.813,350.165 388.5,353C 395.493,383.821 404.659,413.988 416,443.5C 416.333,445.833 416.667,448.167 417,450.5C 421.934,459.054 429.434,463.054 439.5,462.5C 494.316,459.325 549.149,456.325 604,453.5C 610.167,453.667 616.333,453.833 622.5,454C 627.418,455.126 631.752,457.292 635.5,460.5 Z"/></g>
<g><path style="opacity:1" fill="#774e50" d="M 386.5,344.5 C 387.404,345.209 387.737,346.209 387.5,347.5C 382.968,347.818 378.634,347.485 374.5,346.5C 378.971,347.089 382.971,346.423 386.5,344.5 Z"/></g>
<g><path style="opacity:1" fill="#f8f8f8" d="M 1313.5,380.5 C 1312.79,379.596 1311.79,379.263 1310.5,379.5C 1310.5,377.5 1310.5,375.5 1310.5,373.5C 1310.45,365.135 1310.95,356.802 1312,348.5C 1312.52,345.966 1313.68,343.8 1315.5,342C 1338.69,339.18 1347.85,349.013 1343,371.5C 1340.57,376.266 1336.74,379.1 1331.5,380C 1325.51,380.499 1319.51,380.666 1313.5,380.5 Z"/></g>
<g><path style="opacity:1" fill="#ededed" d="M 1114.5,353.5 C 1120.33,382.009 1110,402.509 1083.5,415C 1051.88,422.115 1031.38,410.281 1022,379.5C 1021.33,372.833 1021.33,366.167 1022,359.5C 1022.05,357.256 1022.88,355.589 1024.5,354.5C 1023.94,357.282 1023.61,360.116 1023.5,363C 1024.91,391.238 1039.58,407.071 1067.5,410.5C 1100.82,406.251 1116.48,387.251 1114.5,353.5 Z"/></g>
<g><path style="opacity:1" fill="#fdfdfd" d="M 617.5,375.5 C 619.68,401.546 625.013,426.88 633.5,451.5C 626.313,448.496 618.813,447.163 611,447.5C 554.185,450.895 497.352,453.895 440.5,456.5C 427.246,458.412 421.412,452.745 423,439.5C 426.706,431.799 431.873,425.299 438.5,420C 493.458,386.739 553.125,368.906 617.5,366.5C 617.5,369.5 617.5,372.5 617.5,375.5 Z"/></g>
<g><path style="opacity:1" fill="#6d6d6d" d="M 1310.5,373.5 C 1310.5,375.5 1310.5,377.5 1310.5,379.5C 1311.79,379.263 1312.79,379.596 1313.5,380.5C 1312.17,380.5 1310.83,380.5 1309.5,380.5C 1309.2,377.941 1309.53,375.607 1310.5,373.5 Z"/></g>
<g><path style="opacity:1" fill="#ebebeb" d="M 1368.5,429.5 C 1368.91,432.368 1367.91,434.535 1365.5,436C 1353.2,437.676 1343.36,433.509 1336,423.5C 1331.08,415.328 1326.41,406.995 1322,398.5C 1320.21,396.042 1317.88,394.376 1315,393.5C 1313.01,394.154 1311.68,395.487 1311,397.5C 1310.23,403.817 1309.73,410.151 1309.5,416.5C 1308.88,416.389 1308.38,416.056 1308,415.5C 1307.75,405.5 1307.92,395.5 1308.5,385.5C 1313.41,384.874 1317.91,385.874 1322,388.5C 1327.08,398.327 1332.41,407.994 1338,417.5C 1345.77,427.464 1355.94,431.464 1368.5,429.5 Z"/></g>
<g><path style="opacity:1" fill="#efefef" d="M 1277.5,403.5 C 1277.93,411.047 1276.93,418.38 1274.5,425.5C 1272.97,426.861 1271.3,428.028 1269.5,429C 1248.47,428.42 1227.47,427.087 1206.5,425C 1202.85,423.792 1201.85,421.625 1203.5,418.5C 1226.19,419.526 1248.85,420.692 1271.5,422C 1273.44,415.736 1275.44,409.569 1277.5,403.5 Z"/></g>
<g><path style="opacity:1" fill="#2e2627" d="M 620.5,372.5 C 622.381,398.362 627.548,423.695 636,448.5C 637.319,452.472 639.153,456.139 641.5,459.5C 640.295,460.672 640.295,462.005 641.5,463.5C 640.807,464.518 640.141,465.518 639.5,466.5C 638.18,464.537 636.846,462.537 635.5,460.5C 636.097,460.265 636.43,459.765 636.5,459C 635.394,456.511 634.394,454.011 633.5,451.5C 625.013,426.88 619.68,401.546 617.5,375.5C 619.197,377.305 620.03,379.639 620,382.5C 620.498,379.183 620.665,375.85 620.5,372.5 Z"/></g>
<g><path style="opacity:1" fill="#b7b7b7" d="M 372.5,524.5 C 375.85,524.335 379.183,524.502 382.5,525C 383.737,525.232 384.737,525.732 385.5,526.5C 380.951,526.376 376.618,525.709 372.5,524.5 Z"/></g>
<g><path style="opacity:1" fill="#0e0909" d="M 961.5,598.5 C 967.678,598.107 973.678,598.94 979.5,601C 985.698,603.538 987.865,608.038 986,614.5C 982.789,620.838 978.622,621.838 973.5,617.5C 979.033,612.216 978.7,607.382 972.5,603C 960.185,601.08 952.685,606.247 950,618.5C 946.946,631.666 950.446,642.5 960.5,651C 969.688,654.496 977.354,652.496 983.5,645C 986.134,644.075 987.301,644.909 987,647.5C 975.764,658.947 963.264,660.447 949.5,652C 940.372,642.67 937.205,631.503 940,618.5C 943.526,607.804 950.693,601.137 961.5,598.5 Z"/></g>
<g><path style="opacity:1" fill="#060404" d="M 524.5,600.5 C 535.172,600.333 545.839,600.5 556.5,601C 567.198,605.526 569.198,612.526 562.5,622C 560.112,623.861 557.446,625.194 554.5,626C 568.197,627.657 572.697,634.824 568,647.5C 563.834,651.999 558.667,654.499 552.5,655C 543.173,655.5 533.839,655.666 524.5,655.5C 524.5,654.5 524.5,653.5 524.5,652.5C 528.499,652.926 530.999,651.259 532,647.5C 532.667,634.167 532.667,620.833 532,607.5C 530.461,604.479 527.961,603.146 524.5,603.5C 524.5,602.5 524.5,601.5 524.5,600.5 Z"/></g>
<g><path style="opacity:1" fill="#0b0707" d="M 615.5,602.5 C 615.5,607.167 615.5,611.833 615.5,616.5C 613.856,616.714 612.356,616.38 611,615.5C 611.212,611.231 609.712,607.731 606.5,605C 601.292,603.603 595.959,603.103 590.5,603.5C 590.5,611.167 590.5,618.833 590.5,626.5C 595.833,626.5 601.167,626.5 606.5,626.5C 607.404,627.209 607.737,628.209 607.5,629.5C 601.833,629.5 596.167,629.5 590.5,629.5C 590.334,636.175 590.5,642.842 591,649.5C 591.5,650 592,650.5 592.5,651C 598.167,651.667 603.833,651.667 609.5,651C 611.761,648.228 613.261,645.062 614,641.5C 615.356,640.62 616.856,640.286 618.5,640.5C 618.435,645.454 617.768,650.287 616.5,655C 602.504,655.5 588.504,655.667 574.5,655.5C 574.5,654.5 574.5,653.5 574.5,652.5C 577.368,652.915 579.535,651.915 581,649.5C 581.667,634.833 581.667,620.167 581,605.5C 579.103,603.984 576.936,603.317 574.5,603.5C 574.5,602.5 574.5,601.5 574.5,600.5C 587.837,600.333 601.171,600.5 614.5,601C 615.056,601.383 615.389,601.883 615.5,602.5 Z"/></g>
<g><path style="opacity:1" fill="#0a0606" d="M 630.5,604.5 C 629.504,604.414 628.671,604.748 628,605.5C 626.154,608.569 625.154,611.902 625,615.5C 623.644,616.38 622.144,616.714 620.5,616.5C 620.5,611.5 620.5,606.5 620.5,601.5C 635.661,600.339 650.994,600.172 666.5,601C 667.471,606.072 667.805,611.238 667.5,616.5C 665.856,616.714 664.356,616.38 663,615.5C 663.159,605.494 658.325,601.494 648.5,603.5C 648.333,618.837 648.5,634.17 649,649.5C 650.509,651.919 652.675,652.919 655.5,652.5C 655.5,653.5 655.5,654.5 655.5,655.5C 647.5,655.5 639.5,655.5 631.5,655.5C 631.5,654.5 631.5,653.5 631.5,652.5C 634.652,653.041 637.152,652.041 639,649.5C 639.5,634.17 639.667,618.837 639.5,603.5C 636.287,603.19 633.287,603.523 630.5,604.5 Z"/></g>
<g><path style="opacity:1" fill="#0d0909" d="M 669.5,600.5 C 684.837,600.333 700.17,600.5 715.5,601C 716.635,605.748 716.802,610.581 716,615.5C 714.333,616.833 712.667,616.833 711,615.5C 711.207,605.546 706.373,601.546 696.5,603.5C 696.333,618.837 696.5,634.17 697,649.5C 698.848,652.041 701.348,653.041 704.5,652.5C 704.5,653.5 704.5,654.5 704.5,655.5C 696.5,655.5 688.5,655.5 680.5,655.5C 680.5,654.5 680.5,653.5 680.5,652.5C 682.936,652.683 685.103,652.016 687,650.5C 687.5,634.837 687.667,619.17 687.5,603.5C 678.331,602.164 673.498,606.164 673,615.5C 671.644,616.38 670.144,616.714 668.5,616.5C 668.218,611.073 668.551,605.74 669.5,600.5 Z"/></g>
<g><path style="opacity:1" fill="#0b0606" d="M 717.5,600.5 C 731.171,600.333 744.837,600.5 758.5,601C 759.635,605.748 759.802,610.581 759,615.5C 757.667,616.833 756.333,616.833 755,615.5C 754.727,611.456 753.227,607.956 750.5,605C 745.292,603.603 739.959,603.103 734.5,603.5C 734.5,611.167 734.5,618.833 734.5,626.5C 740.167,626.5 745.833,626.5 751.5,626.5C 751.5,627.5 751.5,628.5 751.5,629.5C 745.833,629.5 740.167,629.5 734.5,629.5C 734.187,636.755 734.52,643.921 735.5,651C 741.474,652.953 747.474,652.953 753.5,651C 755.375,648.057 756.875,644.89 758,641.5C 760.476,639.937 761.976,640.604 762.5,643.5C 761.818,647.138 761.318,650.805 761,654.5C 746.579,655.49 732.079,655.824 717.5,655.5C 717.33,654.178 717.663,653.011 718.5,652C 721.007,651.907 723.174,651.074 725,649.5C 725.667,635.167 725.667,620.833 725,606.5C 723.152,603.959 720.652,602.959 717.5,603.5C 717.5,602.5 717.5,601.5 717.5,600.5 Z"/></g>
<g><path style="opacity:1" fill="#060404" d="M 765.5,600.5 C 776.172,600.333 786.839,600.5 797.5,601C 808.609,602.433 813.109,608.599 811,619.5C 808.175,624.49 804.008,627.823 798.5,629.5C 802.092,636.354 806.425,642.687 811.5,648.5C 813.642,650.905 816.309,652.238 819.5,652.5C 819.5,653.5 819.5,654.5 819.5,655.5C 814.223,656.069 809.223,655.235 804.5,653C 798.591,645.847 792.925,638.514 787.5,631C 785.527,630.505 783.527,630.338 781.5,630.5C 781.334,636.509 781.501,642.509 782,648.5C 783.325,650.993 785.491,652.16 788.5,652C 789.337,653.011 789.67,654.178 789.5,655.5C 781.5,655.5 773.5,655.5 765.5,655.5C 765.5,654.5 765.5,653.5 765.5,652.5C 769.499,652.926 771.999,651.259 773,647.5C 773.667,634.167 773.667,620.833 773,607.5C 771.461,604.479 768.961,603.146 765.5,603.5C 765.5,602.5 765.5,601.5 765.5,600.5 Z"/></g>
<g><path style="opacity:1" fill="#0f0a0a" d="M 834.5,600.5 C 842.5,600.5 850.5,600.5 858.5,600.5C 858.5,601.5 858.5,602.5 858.5,603.5C 856.064,603.317 853.897,603.984 852,605.5C 851.333,620.5 851.333,635.5 852,650.5C 857.75,651.641 863.584,651.807 869.5,651C 871.938,648.705 873.438,645.872 874,642.5C 876.222,639.697 878.055,639.863 879.5,643C 878.539,646.803 877.706,650.636 877,654.5C 862.912,655.49 848.745,655.824 834.5,655.5C 834.5,654.5 834.5,653.5 834.5,652.5C 837.505,652.747 840.005,651.747 842,649.5C 842.667,635.167 842.667,620.833 842,606.5C 840.152,603.959 837.652,602.959 834.5,603.5C 834.5,602.5 834.5,601.5 834.5,600.5 Z"/></g>
<g><path style="opacity:1" fill="#0d0909" d="M 878.5,600.5 C 886.5,600.5 894.5,600.5 902.5,600.5C 902.5,601.5 902.5,602.5 902.5,603.5C 900.064,603.317 897.897,603.984 896,605.5C 895.333,618.167 895.333,630.833 896,643.5C 897.833,649.929 902.166,652.929 909,652.5C 915.335,652.668 920.002,650.001 923,644.5C 923.667,631.833 923.667,619.167 923,606.5C 921.195,603.961 918.695,602.961 915.5,603.5C 915.5,602.5 915.5,601.5 915.5,600.5C 922.833,600.5 930.167,600.5 937.5,600.5C 937.5,601.5 937.5,602.5 937.5,603.5C 934.03,602.875 931.196,603.875 929,606.5C 928.927,620.222 928.26,633.888 927,647.5C 922.125,654.235 915.458,657.568 907,657.5C 897.467,657.41 890.8,653.076 887,644.5C 886.667,631.833 886.333,619.167 886,606.5C 884.152,603.959 881.652,602.959 878.5,603.5C 878.5,602.5 878.5,601.5 878.5,600.5 Z"/></g>
<g><path style="opacity:1" fill="#0d0808" d="M 990.5,600.5 C 998.5,600.5 1006.5,600.5 1014.5,600.5C 1014.5,601.5 1014.5,602.5 1014.5,603.5C 1011.35,602.959 1008.85,603.959 1007,606.5C 1006.33,613.167 1006.33,619.833 1007,626.5C 1014.63,621.207 1021.29,614.874 1027,607.5C 1026.22,605.27 1025.39,602.937 1024.5,600.5C 1031.17,600.5 1037.83,600.5 1044.5,600.5C 1044.5,601.5 1044.5,602.5 1044.5,603.5C 1040.94,603.408 1037.61,604.241 1034.5,606C 1028.37,611.961 1022.37,618.128 1016.5,624.5C 1026.14,636.138 1036.47,646.472 1047.5,655.5C 1042.49,655.666 1037.49,655.499 1032.5,655C 1025.29,647.463 1018.46,639.629 1012,631.5C 1010.41,630.624 1008.91,629.624 1007.5,628.5C 1006.34,635.476 1006.17,642.476 1007,649.5C 1008.83,651.074 1010.99,651.907 1013.5,652C 1014.34,653.011 1014.67,654.178 1014.5,655.5C 1006.5,655.5 998.5,655.5 990.5,655.5C 990.5,654.5 990.5,653.5 990.5,652.5C 993.368,652.915 995.535,651.915 997,649.5C 997.667,634.833 997.667,620.167 997,605.5C 995.103,603.984 992.936,603.317 990.5,603.5C 990.5,602.5 990.5,601.5 990.5,600.5 Z"/></g>
<g><path style="opacity:1" fill="#0b0707" d="M 1075.5,612.5 C 1075.22,611.711 1074.72,611.044 1074,610.5C 1073.17,623.34 1073.34,636.007 1074.5,648.5C 1074.41,649.496 1074.75,650.329 1075.5,651C 1077.17,651.333 1078.83,651.667 1080.5,652C 1081.34,653.011 1081.67,654.178 1081.5,655.5C 1075.17,655.5 1068.83,655.5 1062.5,655.5C 1062.5,654.167 1062.5,652.833 1062.5,651.5C 1065.04,651.896 1067.21,651.229 1069,649.5C 1069.67,635.167 1069.67,620.833 1069,606.5C 1066.87,604.623 1064.37,603.623 1061.5,603.5C 1061.24,600.266 1062.74,598.932 1066,599.5C 1069.59,599.94 1073.09,600.773 1076.5,602C 1087.43,614.258 1097.59,627.091 1107,640.5C 1107.67,629.167 1107.67,617.833 1107,606.5C 1105.15,603.959 1102.65,602.959 1099.5,603.5C 1099.5,602.5 1099.5,601.5 1099.5,600.5C 1106.17,600.5 1112.83,600.5 1119.5,600.5C 1119.5,601.5 1119.5,602.5 1119.5,603.5C 1116.35,602.959 1113.85,603.959 1112,606.5C 1111.5,622.83 1111.33,639.163 1111.5,655.5C 1108.68,655.919 1106.51,654.919 1105,652.5C 1094.95,639.289 1085.12,625.956 1075.5,612.5 Z"/></g>
<g><path style="opacity:1" fill="#0b0606" d="M 1121.5,600.5 C 1135.17,600.333 1148.84,600.5 1162.5,601C 1163.63,605.748 1163.8,610.581 1163,615.5C 1161.67,616.833 1160.33,616.833 1159,615.5C 1158.73,611.456 1157.23,607.956 1154.5,605C 1149.29,603.603 1143.96,603.103 1138.5,603.5C 1138.5,611.167 1138.5,618.833 1138.5,626.5C 1144.17,626.5 1149.83,626.5 1155.5,626.5C 1155.5,627.5 1155.5,628.5 1155.5,629.5C 1149.83,629.5 1144.17,629.5 1138.5,629.5C 1138.19,636.755 1138.52,643.921 1139.5,651C 1145.47,652.953 1151.47,652.953 1157.5,651C 1159.38,648.057 1160.88,644.89 1162,641.5C 1164.48,639.937 1165.98,640.604 1166.5,643.5C 1165.91,647.195 1165.25,650.862 1164.5,654.5C 1150.18,655.499 1135.85,655.833 1121.5,655.5C 1121.33,654.178 1121.66,653.011 1122.5,652C 1125.01,651.907 1127.17,651.074 1129,649.5C 1129.67,635.167 1129.67,620.833 1129,606.5C 1127.15,603.959 1124.65,602.959 1121.5,603.5C 1121.5,602.5 1121.5,601.5 1121.5,600.5 Z"/></g>
<g><path style="opacity:1" fill="#0b0707" d="M 1167.5,600.5 C 1175.95,599.149 1182.79,601.816 1188,608.5C 1190.33,612.5 1192.67,616.5 1195,620.5C 1198.43,615.967 1201.59,611.3 1204.5,606.5C 1204.39,605.558 1204.06,604.725 1203.5,604C 1201.87,603.506 1200.2,603.34 1198.5,603.5C 1198.5,602.5 1198.5,601.5 1198.5,600.5C 1205.5,600.5 1212.5,600.5 1219.5,600.5C 1219.5,601.5 1219.5,602.5 1219.5,603.5C 1217.01,603.298 1214.68,603.798 1212.5,605C 1206.72,610.747 1202.05,617.247 1198.5,624.5C 1204.05,634.423 1210.72,643.59 1218.5,652C 1219.79,652.49 1221.13,652.657 1222.5,652.5C 1222.5,653.5 1222.5,654.5 1222.5,655.5C 1214.83,655.5 1207.17,655.5 1199.5,655.5C 1199.5,654.5 1199.5,653.5 1199.5,652.5C 1203.33,652.81 1204.83,651.143 1204,647.5C 1200.33,642.334 1196.49,637.334 1192.5,632.5C 1188.12,638.09 1184.12,643.923 1180.5,650C 1180.64,650.772 1180.98,651.439 1181.5,652C 1183.47,652.495 1185.47,652.662 1187.5,652.5C 1187.5,653.5 1187.5,654.5 1187.5,655.5C 1180.5,655.5 1173.5,655.5 1166.5,655.5C 1166.5,654.5 1166.5,653.5 1166.5,652.5C 1170.18,652.409 1173.35,651.076 1176,648.5C 1180.88,641.907 1185.38,635.074 1189.5,628C 1185.72,620.933 1181.55,614.1 1177,607.5C 1174.3,605.098 1171.13,603.765 1167.5,603.5C 1167.5,602.5 1167.5,601.5 1167.5,600.5 Z"/></g>
<g><path style="opacity:1" fill="#040202" d="M 1257.5,604.5 C 1254.71,603.523 1251.71,603.19 1248.5,603.5C 1248.17,618.343 1248.5,633.01 1249.5,647.5C 1250.09,651.316 1252.42,652.983 1256.5,652.5C 1256.5,653.5 1256.5,654.5 1256.5,655.5C 1248.5,655.5 1240.5,655.5 1232.5,655.5C 1232.5,654.5 1232.5,653.5 1232.5,652.5C 1236.5,652.926 1239,651.259 1240,647.5C 1240.5,632.837 1240.67,618.17 1240.5,603.5C 1230.87,601.622 1225.7,605.622 1225,615.5C 1223.67,616.833 1222.33,616.833 1221,615.5C 1220.2,610.581 1220.37,605.748 1221.5,601C 1236.83,600.333 1252.17,600.333 1267.5,601C 1268.63,605.748 1268.8,610.581 1268,615.5C 1266.67,616.833 1265.33,616.833 1264,615.5C 1263.4,612.363 1262.4,609.363 1261,606.5C 1260.18,605.177 1259.02,604.511 1257.5,604.5 Z"/></g>
<g><path style="opacity:1" fill="#040202" d="M 1320.5,604.5 C 1317.71,603.523 1314.71,603.19 1311.5,603.5C 1311.17,618.343 1311.5,633.01 1312.5,647.5C 1313.09,651.316 1315.42,652.983 1319.5,652.5C 1319.5,653.5 1319.5,654.5 1319.5,655.5C 1311.5,655.5 1303.5,655.5 1295.5,655.5C 1295.5,654.5 1295.5,653.5 1295.5,652.5C 1299.5,652.926 1302,651.259 1303,647.5C 1303.5,632.837 1303.67,618.17 1303.5,603.5C 1293.87,601.622 1288.7,605.622 1288,615.5C 1286.67,616.833 1285.33,616.833 1284,615.5C 1283.2,610.581 1283.37,605.748 1284.5,601C 1299.83,600.333 1315.17,600.333 1330.5,601C 1331.63,605.748 1331.8,610.581 1331,615.5C 1329.67,616.833 1328.33,616.833 1327,615.5C 1326.4,612.363 1325.4,609.363 1324,606.5C 1323.18,605.177 1322.02,604.511 1320.5,604.5 Z"/></g>
<g><path style="opacity:1" fill="#040202" d="M 1356.5,603.5 C 1353.68,603.081 1351.51,604.081 1350,606.5C 1349.17,621.006 1349.34,635.339 1350.5,649.5C 1352.03,651.13 1354.03,651.963 1356.5,652C 1357.34,653.011 1357.67,654.178 1357.5,655.5C 1349.5,655.5 1341.5,655.5 1333.5,655.5C 1333.5,654.167 1333.5,652.833 1333.5,651.5C 1335.79,651.756 1337.96,651.423 1340,650.5C 1341.12,642.907 1341.62,635.241 1341.5,627.5C 1341.33,620.833 1341.17,614.167 1341,607.5C 1339.46,604.479 1336.96,603.146 1333.5,603.5C 1333.5,602.5 1333.5,601.5 1333.5,600.5C 1341.5,600.5 1349.5,600.5 1357.5,600.5C 1357.74,601.791 1357.4,602.791 1356.5,603.5 Z"/></g>
<g><path style="opacity:1" fill="#090506" d="M 1429.5,603.5 C 1426.68,603.081 1424.51,604.081 1423,606.5C 1422.17,620.34 1422.34,634.006 1423.5,647.5C 1423.33,648.822 1423.66,649.989 1424.5,651C 1426.43,651.251 1428.27,651.751 1430,652.5C 1430.48,653.448 1430.65,654.448 1430.5,655.5C 1422.5,655.5 1414.5,655.5 1406.5,655.5C 1406.5,654.167 1406.5,652.833 1406.5,651.5C 1408.53,651.662 1410.53,651.495 1412.5,651C 1413.34,649.989 1413.67,648.822 1413.5,647.5C 1414.66,635.34 1414.83,623.007 1414,610.5C 1413.49,611.527 1412.99,612.527 1412.5,613.5C 1407.02,627.141 1401.52,640.808 1396,654.5C 1394.67,655.833 1393.33,655.833 1392,654.5C 1385.94,640.049 1379.61,625.716 1373,611.5C 1372.33,624.167 1372.33,636.833 1373,649.5C 1374.85,652.041 1377.35,653.041 1380.5,652.5C 1380.5,653.5 1380.5,654.5 1380.5,655.5C 1373.83,655.5 1367.17,655.5 1360.5,655.5C 1360.33,654.178 1360.66,653.011 1361.5,652C 1364.01,651.907 1366.17,651.074 1368,649.5C 1368.67,635.167 1368.67,620.833 1368,606.5C 1365.87,604.623 1363.37,603.623 1360.5,603.5C 1360.33,602.178 1360.66,601.011 1361.5,600C 1368.88,598.882 1375.04,601.048 1380,606.5C 1385,618.504 1390.5,630.17 1396.5,641.5C 1402.29,628.297 1407.79,614.964 1413,601.5C 1418.74,600.525 1424.57,600.192 1430.5,600.5C 1430.74,601.791 1430.4,602.791 1429.5,603.5 Z"/></g>
<g><path style="opacity:1" fill="#0b0606" d="M 1433.5,600.5 C 1447.17,600.333 1460.84,600.5 1474.5,601C 1475.63,605.748 1475.8,610.581 1475,615.5C 1473.67,616.833 1472.33,616.833 1471,615.5C 1470.73,611.456 1469.23,607.956 1466.5,605C 1461.29,603.603 1455.96,603.103 1450.5,603.5C 1450.5,611.167 1450.5,618.833 1450.5,626.5C 1456.17,626.5 1461.83,626.5 1467.5,626.5C 1467.5,627.5 1467.5,628.5 1467.5,629.5C 1461.83,629.5 1456.17,629.5 1450.5,629.5C 1450.19,636.755 1450.52,643.921 1451.5,651C 1457.47,652.953 1463.47,652.953 1469.5,651C 1471.38,648.057 1472.88,644.89 1474,641.5C 1476.48,639.937 1477.98,640.604 1478.5,643.5C 1477.82,647.138 1477.32,650.805 1477,654.5C 1462.58,655.49 1448.08,655.824 1433.5,655.5C 1433.33,654.178 1433.66,653.011 1434.5,652C 1437.01,651.907 1439.17,651.074 1441,649.5C 1441.67,635.167 1441.67,620.833 1441,606.5C 1439.15,603.959 1436.65,602.959 1433.5,603.5C 1433.5,602.5 1433.5,601.5 1433.5,600.5 Z"/></g>
<g><path style="opacity:1" fill="#e5979b" d="M 620.5,601.5 C 620.5,606.5 620.5,611.5 620.5,616.5C 622.144,616.714 623.644,616.38 625,615.5C 625.154,611.902 626.154,608.569 628,605.5C 628.671,604.748 629.504,604.414 630.5,604.5C 630.489,606.017 629.823,607.184 628.5,608C 630.709,608.957 630.543,610.124 628,611.5C 627.333,613.5 626.667,615.5 626,617.5C 623.034,620.265 620.367,619.932 618,616.5C 616.067,619.385 613.567,620.052 610.5,618.5C 609.119,614.854 607.452,611.354 605.5,608C 601.186,606.432 596.852,606.265 592.5,607.5C 591.637,613.455 591.303,619.455 591.5,625.5C 596.695,625.179 601.695,625.513 606.5,626.5C 601.167,626.5 595.833,626.5 590.5,626.5C 590.5,618.833 590.5,611.167 590.5,603.5C 595.959,603.103 601.292,603.603 606.5,605C 609.712,607.731 611.212,611.231 611,615.5C 612.356,616.38 613.856,616.714 615.5,616.5C 615.5,611.833 615.5,607.167 615.5,602.5C 616.181,604.158 617.015,605.825 618,607.5C 618.845,605.389 619.678,603.389 620.5,601.5 Z"/></g>
<g><path style="opacity:1" fill="#f4a0a5" d="M 540.5,603.5 C 555.461,601.928 560.127,608.095 554.5,622C 550.116,624.208 545.449,625.041 540.5,624.5C 540.5,617.5 540.5,610.5 540.5,603.5 Z"/></g>
<g><path style="opacity:1" fill="#f5a1a6" d="M 784.5,603.5 C 797.542,602.044 803.375,607.71 802,620.5C 800.5,623.333 798.333,625.5 795.5,627C 790.845,627.499 786.179,627.666 781.5,627.5C 781.334,620.492 781.5,613.492 782,606.5C 783.045,605.627 783.878,604.627 784.5,603.5 Z"/></g>
<g><path style="opacity:1" fill="#ac7175" d="M 1257.5,604.5 C 1254.83,604.5 1252.17,604.5 1249.5,604.5C 1249.5,618.833 1249.5,633.167 1249.5,647.5C 1248.5,633.01 1248.17,618.343 1248.5,603.5C 1251.71,603.19 1254.71,603.523 1257.5,604.5 Z"/></g>
<g><path style="opacity:1" fill="#ac7175" d="M 1320.5,604.5 C 1317.83,604.5 1315.17,604.5 1312.5,604.5C 1312.5,618.833 1312.5,633.167 1312.5,647.5C 1311.5,633.01 1311.17,618.343 1311.5,603.5C 1314.71,603.19 1317.71,603.523 1320.5,604.5 Z"/></g>
<g><path style="opacity:1" fill="#b6787b" d="M 1429.5,603.5 C 1427.26,604.591 1425.42,606.258 1424,608.5C 1423.5,621.496 1423.33,634.496 1423.5,647.5C 1422.34,634.006 1422.17,620.34 1423,606.5C 1424.51,604.081 1426.68,603.081 1429.5,603.5 Z"/></g>
<g><path style="opacity:1" fill="#c68286" d="M 1356.5,603.5 C 1354.26,604.591 1352.42,606.258 1351,608.5C 1350.5,622.163 1350.33,635.829 1350.5,649.5C 1349.34,635.339 1349.17,621.006 1350,606.5C 1351.51,604.081 1353.68,603.081 1356.5,603.5 Z"/></g>
<g><path style="opacity:1" fill="#966366" d="M 1413.5,647.5 C 1413.83,635.988 1413.49,624.654 1412.5,613.5C 1412.99,612.527 1413.49,611.527 1414,610.5C 1414.83,623.007 1414.66,635.34 1413.5,647.5 Z"/></g>
<g><path style="opacity:1" fill="#f6a2a7" d="M 549.5,628.5 C 561.795,631.588 564.461,638.421 557.5,649C 553.211,651.877 548.544,652.877 543.5,652C 542.619,651.292 541.953,650.458 541.5,649.5C 541.5,642.5 541.5,635.5 541.5,628.5C 544.167,628.5 546.833,628.5 549.5,628.5 Z"/></g>
<g><path style="opacity:1" fill="#b4767a" d="M 549.5,628.5 C 546.833,628.5 544.167,628.5 541.5,628.5C 541.5,635.5 541.5,642.5 541.5,649.5C 540.508,642.352 540.175,635.019 540.5,627.5C 543.713,627.19 546.713,627.523 549.5,628.5 Z"/></g>
<g><path style="opacity:1" fill="#b5777a" d="M 1075.5,612.5 C 1074.5,624.322 1074.17,636.322 1074.5,648.5C 1073.34,636.007 1073.17,623.34 1074,610.5C 1074.72,611.044 1075.22,611.711 1075.5,612.5 Z"/></g>
<g><path style="opacity:1" fill="#fbfce7" d="M 850.5,761.5 C 950.167,761.333 1049.83,761.5 1149.5,762C 1180.57,767.734 1200.07,785.901 1208,816.5C 1211.75,850.507 1198.58,875.34 1168.5,891C 1161.98,893.296 1155.31,894.963 1148.5,896C 1047.14,896.986 945.804,896.653 844.5,895C 811.329,885.003 793.995,862.67 792.5,828C 795.71,791.631 815.044,769.464 850.5,761.5 Z"/></g>
<g><path style="opacity:1" fill="#0d0d0c" d="M 851.5,800.5 C 875.864,800.362 886.698,812.362 884,836.5C 879.186,852.642 868.352,860.142 851.5,859C 833.642,852.797 826.475,840.297 830,821.5C 833.776,810.889 840.943,803.889 851.5,800.5 Z"/></g>
<g><path style="opacity:1" fill="#0b0b0a" d="M 1035.5,800.5 C 1051.5,799.581 1062.34,806.581 1068,821.5C 1070.77,840.719 1062.93,853.219 1044.5,859C 1028.96,860.123 1018.79,853.289 1014,838.5C 1010.58,819.651 1017.75,806.984 1035.5,800.5 Z"/></g>
<g><path style="opacity:1" fill="#0d0e0c" d="M 1146.5,800.5 C 1154.55,799.636 1161.72,801.636 1168,806.5C 1170.77,812.969 1168.77,816.969 1162,818.5C 1156.54,817.913 1156.21,816.246 1161,813.5C 1161.94,810.653 1161.44,808.153 1159.5,806C 1153.39,803.39 1147.89,804.224 1143,808.5C 1142.18,811.964 1142.52,815.298 1144,818.5C 1151.62,823.393 1159.45,827.893 1167.5,832C 1175.52,846.291 1171.52,855.291 1155.5,859C 1149.11,860.209 1143.11,859.209 1137.5,856C 1132.88,852.302 1131.72,847.802 1134,842.5C 1137.26,839.076 1140.76,838.743 1144.5,841.5C 1140.12,846.743 1140.79,851.243 1146.5,855C 1153.94,857.245 1159.44,855.078 1163,848.5C 1164.2,844.207 1163.03,840.707 1159.5,838C 1153.26,834.476 1146.92,831.143 1140.5,828C 1134.33,822.306 1132.83,815.473 1136,807.5C 1139,804.262 1142.5,801.929 1146.5,800.5 Z"/></g>
<g><path style="opacity:1" fill="#090908" d="M 972.5,806.5 C 969.713,805.523 966.713,805.19 963.5,805.5C 963.171,820.343 963.504,835.01 964.5,849.5C 965.09,853.316 967.423,854.983 971.5,854.5C 971.5,855.5 971.5,856.5 971.5,857.5C 963.5,857.5 955.5,857.5 947.5,857.5C 947.5,856.5 947.5,855.5 947.5,854.5C 951.577,854.983 953.91,853.316 954.5,849.5C 955.496,835.01 955.829,820.343 955.5,805.5C 951.958,805.187 948.625,805.521 945.5,806.5C 942.259,809.344 940.426,813.01 940,817.5C 938.667,818.833 937.333,818.833 936,817.5C 934.867,826.945 929.701,832.779 920.5,835C 916.179,835.499 911.846,835.666 907.5,835.5C 906.791,834.596 905.791,834.263 904.5,834.5C 904.179,839.695 904.513,844.695 905.5,849.5C 906.187,853.352 908.521,855.019 912.5,854.5C 912.5,855.5 912.5,856.5 912.5,857.5C 904.5,857.5 896.5,857.5 888.5,857.5C 888.33,856.178 888.663,855.011 889.5,854C 892.007,853.907 894.174,853.074 896,851.5C 896.667,837.167 896.667,822.833 896,808.5C 894.152,805.959 891.652,804.959 888.5,805.5C 888.5,804.5 888.5,803.5 888.5,802.5C 898.839,802.334 909.172,802.5 919.5,803C 926.486,803.416 931.653,806.583 935,812.5C 935.212,809.242 935.712,806.076 936.5,803C 951.833,802.333 967.167,802.333 982.5,803C 983.635,807.748 983.802,812.581 983,817.5C 981.667,818.833 980.333,818.833 979,817.5C 978.399,814.363 977.399,811.363 976,808.5C 975.184,807.177 974.017,806.511 972.5,806.5 Z"/></g>
<g><path style="opacity:1" fill="#0c0c0b" d="M 985.5,802.5 C 993.5,802.5 1001.5,802.5 1009.5,802.5C 1009.5,803.5 1009.5,804.5 1009.5,805.5C 1006.35,804.959 1003.85,805.959 1002,808.5C 1001.33,822.833 1001.33,837.167 1002,851.5C 1003.85,854.041 1006.35,855.041 1009.5,854.5C 1009.5,855.5 1009.5,856.5 1009.5,857.5C 1001.5,857.5 993.5,857.5 985.5,857.5C 985.5,856.5 985.5,855.5 985.5,854.5C 988.325,854.919 990.491,853.919 992,851.5C 992.667,836.833 992.667,822.167 992,807.5C 990.103,805.984 987.936,805.317 985.5,805.5C 985.5,804.5 985.5,803.5 985.5,802.5 Z"/></g>
<g><path style="opacity:1" fill="#0c0c0b" d="M 1085.5,813.5 C 1085.44,812.957 1085.11,812.624 1084.5,812.5C 1083.18,824.66 1083.18,836.66 1084.5,848.5C 1084.65,852.98 1086.98,854.98 1091.5,854.5C 1091.5,855.5 1091.5,856.5 1091.5,857.5C 1085.17,857.5 1078.83,857.5 1072.5,857.5C 1072.5,856.5 1072.5,855.5 1072.5,854.5C 1075.96,854.854 1078.46,853.521 1080,850.5C 1080.67,836.5 1080.67,822.5 1080,808.5C 1078,806.253 1075.5,805.253 1072.5,805.5C 1072.5,804.5 1072.5,803.5 1072.5,802.5C 1078.07,801.99 1083.41,802.823 1088.5,805C 1098.33,817.5 1108.17,830 1118,842.5C 1118.67,831.5 1118.67,820.5 1118,809.5C 1116.46,806.479 1113.96,805.146 1110.5,805.5C 1110.5,804.5 1110.5,803.5 1110.5,802.5C 1116.83,802.5 1123.17,802.5 1129.5,802.5C 1129.5,803.5 1129.5,804.5 1129.5,805.5C 1127.06,805.317 1124.9,805.984 1123,807.5C 1122.5,824.163 1122.33,840.83 1122.5,857.5C 1120.53,857.739 1118.7,857.406 1117,856.5C 1106.49,842.137 1095.99,827.804 1085.5,813.5 Z"/></g>
<g><path style="opacity:1" fill="#fafbe6" d="M 851.5,804.5 C 863.57,803.403 871.07,808.736 874,820.5C 874.991,828.646 874.324,836.646 872,844.5C 866.861,854.879 859.028,857.712 848.5,853C 843.715,848.931 840.881,843.764 840,837.5C 838.131,827.45 839.798,818.117 845,809.5C 846.965,807.45 849.132,805.783 851.5,804.5 Z"/></g>
<g><path style="opacity:1" fill="#f9fae5" d="M 1035.5,804.5 C 1047.98,803.468 1055.48,809.134 1058,821.5C 1059.72,831.457 1058.05,840.79 1053,849.5C 1046.17,856.374 1038.67,857.208 1030.5,852C 1027.43,848.703 1025.27,844.869 1024,840.5C 1023.33,833.5 1023.33,826.5 1024,819.5C 1025.47,812.551 1029.3,807.551 1035.5,804.5 Z"/></g>
<g><path style="opacity:1" fill="#f8f9e4" d="M 907.5,805.5 C 924.302,804.789 929.468,812.122 923,827.5C 918.006,831.947 912.34,833.281 906,831.5C 905.333,823.5 905.333,815.5 906,807.5C 906.717,806.956 907.217,806.289 907.5,805.5 Z"/></g>
<g><path style="opacity:1" fill="#afafa0" d="M 945.5,806.5 C 948.625,805.521 951.958,805.187 955.5,805.5C 955.829,820.343 955.496,835.01 954.5,849.5C 954.5,835.167 954.5,820.833 954.5,806.5C 951.5,806.5 948.5,806.5 945.5,806.5 Z"/></g>
<g><path style="opacity:1" fill="#b2b2a4" d="M 972.5,806.5 C 969.833,806.5 967.167,806.5 964.5,806.5C 964.5,820.833 964.5,835.167 964.5,849.5C 963.504,835.01 963.171,820.343 963.5,805.5C 966.713,805.19 969.713,805.523 972.5,806.5 Z"/></g>
<g><path style="opacity:1" fill="#54554d" d="M 907.5,835.5 C 905.564,839.715 904.897,844.381 905.5,849.5C 904.513,844.695 904.179,839.695 904.5,834.5C 905.791,834.263 906.791,834.596 907.5,835.5 Z"/></g>
<g><path style="opacity:1" fill="#464741" d="M 1085.5,813.5 C 1084.51,824.988 1084.17,836.655 1084.5,848.5C 1083.18,836.66 1083.18,824.66 1084.5,812.5C 1085.11,812.624 1085.44,812.957 1085.5,813.5 Z"/></g>
<g><path style="opacity:1" fill="#5cdfe4" d="M 1557.5,925.5 C 1624.17,925.333 1690.83,925.5 1757.5,926C 1786.4,931.562 1805.23,948.395 1814,976.5C 1820.06,1012.55 1806.89,1038.72 1774.5,1055C 1768.26,1057.14 1761.93,1058.81 1755.5,1060C 1690.5,1060.67 1625.5,1060.67 1560.5,1060C 1538.64,1056.83 1521.8,1045.99 1510,1027.5C 1492.28,991.024 1499.45,960.524 1531.5,936C 1539.79,931.191 1548.45,927.691 1557.5,925.5 Z"/></g>
<g><path style="opacity:1" fill="#040909" d="M 1537.5,965.5 C 1545.5,965.5 1553.5,965.5 1561.5,965.5C 1561.5,966.5 1561.5,967.5 1561.5,968.5C 1558.35,967.959 1555.85,968.959 1554,971.5C 1553.33,985.833 1553.33,1000.17 1554,1014.5C 1554.83,1015.33 1555.67,1016.17 1556.5,1017C 1561.92,1017.84 1567.25,1017.51 1572.5,1016C 1574.76,1013.23 1576.26,1010.06 1577,1006.5C 1580.13,1004.83 1581.63,1005.83 1581.5,1009.5C 1580.95,1012.83 1580.45,1016.16 1580,1019.5C 1565.91,1020.49 1551.75,1020.82 1537.5,1020.5C 1537.5,1019.5 1537.5,1018.5 1537.5,1017.5C 1540.37,1017.91 1542.53,1016.91 1544,1014.5C 1544.67,999.833 1544.67,985.167 1544,970.5C 1542.1,968.984 1539.94,968.317 1537.5,968.5C 1537.5,967.5 1537.5,966.5 1537.5,965.5 Z"/></g>
<g><path style="opacity:1" fill="#040808" d="M 1613.5,969.5 C 1608.69,968.513 1603.69,968.179 1598.5,968.5C 1598.5,976.167 1598.5,983.833 1598.5,991.5C 1604.17,991.5 1609.83,991.5 1615.5,991.5C 1615.5,992.5 1615.5,993.5 1615.5,994.5C 1609.83,994.5 1604.17,994.5 1598.5,994.5C 1598.18,1001.02 1598.51,1007.36 1599.5,1013.5C 1599.57,1015.41 1600.57,1016.58 1602.5,1017C 1606.83,1017.67 1611.17,1017.67 1615.5,1017C 1619.51,1015.17 1621.67,1012.01 1622,1007.5C 1624.53,1004.63 1626.37,1004.96 1627.5,1008.5C 1626.73,1011.11 1626.4,1013.78 1626.5,1016.5C 1629.33,1016.84 1631.49,1015.84 1633,1013.5C 1638.67,1000.17 1644.33,986.833 1650,973.5C 1650.68,972.216 1650.52,971.049 1649.5,970C 1647.56,969.187 1645.56,968.687 1643.5,968.5C 1643.5,967.5 1643.5,966.5 1643.5,965.5C 1649.7,964.285 1654.87,965.952 1659,970.5C 1665.33,985.5 1671.67,1000.5 1678,1015.5C 1679.7,1016.41 1681.53,1016.74 1683.5,1016.5C 1683.5,1017.83 1683.5,1019.17 1683.5,1020.5C 1675.83,1020.5 1668.17,1020.5 1660.5,1020.5C 1660.5,1019.17 1660.5,1017.83 1660.5,1016.5C 1662.53,1016.66 1664.53,1016.5 1666.5,1016C 1666.96,1011.67 1665.96,1007.5 1663.5,1003.5C 1656.17,1002.17 1648.83,1002.17 1641.5,1003.5C 1639.09,1007.5 1638.09,1011.67 1638.5,1016C 1640.83,1016.33 1643.17,1016.67 1645.5,1017C 1646.34,1018.01 1646.67,1019.18 1646.5,1020.5C 1625.17,1020.5 1603.83,1020.5 1582.5,1020.5C 1582.33,1019.18 1582.66,1018.01 1583.5,1017C 1586.01,1016.91 1588.17,1016.07 1590,1014.5C 1590.67,1000.17 1590.67,985.833 1590,971.5C 1588.15,968.959 1585.65,967.959 1582.5,968.5C 1582.5,967.5 1582.5,966.5 1582.5,965.5C 1596.17,965.333 1609.84,965.5 1623.5,966C 1624.63,970.748 1624.8,975.581 1624,980.5C 1622.67,981.833 1621.33,981.833 1620,980.5C 1619.4,977.363 1618.4,974.363 1617,971.5C 1616.18,970.177 1615.02,969.511 1613.5,969.5 Z"/></g>
<g><path style="opacity:1" fill="#050a0a" d="M 1679.5,965.5 C 1685.4,964.488 1690.57,965.821 1695,969.5C 1700.59,981.929 1705.59,994.596 1710,1007.5C 1714.55,995.837 1718.72,984.004 1722.5,972C 1722.41,970.893 1722.08,969.893 1721.5,969C 1719.87,968.506 1718.2,968.34 1716.5,968.5C 1716.5,967.5 1716.5,966.5 1716.5,965.5C 1736.17,965.333 1755.84,965.5 1775.5,966C 1776.63,970.748 1776.8,975.581 1776,980.5C 1774.67,981.833 1773.33,981.833 1772,980.5C 1772.21,976.231 1770.71,972.731 1767.5,970C 1762.29,968.603 1756.96,968.103 1751.5,968.5C 1751.5,976.167 1751.5,983.833 1751.5,991.5C 1757.17,991.5 1762.83,991.5 1768.5,991.5C 1768.5,992.5 1768.5,993.5 1768.5,994.5C 1762.83,994.5 1757.17,994.5 1751.5,994.5C 1751.33,1001.17 1751.5,1007.84 1752,1014.5C 1752.5,1015 1753,1015.5 1753.5,1016C 1759.17,1016.67 1764.83,1016.67 1770.5,1016C 1772.76,1013.23 1774.26,1010.06 1775,1006.5C 1776.36,1005.62 1777.86,1005.29 1779.5,1005.5C 1779.44,1010.45 1778.77,1015.29 1777.5,1020C 1763.5,1020.5 1749.5,1020.67 1735.5,1020.5C 1735.5,1019.5 1735.5,1018.5 1735.5,1017.5C 1738.37,1017.91 1740.53,1016.91 1742,1014.5C 1742.82,999.592 1742.66,984.759 1741.5,970C 1736.64,967.671 1732.14,968.171 1728,971.5C 1721.78,986.615 1716.11,1001.95 1711,1017.5C 1709.79,1021.46 1707.79,1022.13 1705,1019.5C 1699.39,1003.34 1693.39,987.345 1687,971.5C 1684.87,969.623 1682.37,968.623 1679.5,968.5C 1679.5,967.5 1679.5,966.5 1679.5,965.5 Z"/></g>
<g><path style="opacity:1" fill="#307679" d="M 1613.5,969.5 C 1608.83,969.5 1604.17,969.5 1599.5,969.5C 1599.5,976.5 1599.5,983.5 1599.5,990.5C 1605.03,990.179 1610.36,990.512 1615.5,991.5C 1609.83,991.5 1604.17,991.5 1598.5,991.5C 1598.5,983.833 1598.5,976.167 1598.5,968.5C 1603.69,968.179 1608.69,968.513 1613.5,969.5 Z"/></g>
<g><path style="opacity:1" fill="#57d4d9" d="M 1651.5,977.5 C 1653.34,978.122 1654.5,979.456 1655,981.5C 1657.17,987.167 1659.33,992.833 1661.5,998.5C 1655.5,999.833 1649.5,999.833 1643.5,998.5C 1646.57,991.621 1649.24,984.621 1651.5,977.5 Z"/></g>
<g><path style="opacity:1" fill="#31787b" d="M 1615.5,994.5 C 1610.36,995.488 1605.03,995.821 1599.5,995.5C 1599.5,1001.5 1599.5,1007.5 1599.5,1013.5C 1598.51,1007.36 1598.18,1001.02 1598.5,994.5C 1604.17,994.5 1609.83,994.5 1615.5,994.5 Z"/></g>
</svg>
