<?xml version="1.0" encoding="UTF-8"?>
<!DOCTYPE svg PUBLIC "-//W3C//DTD SVG 1.1//EN" "http://www.w3.org/Graphics/SVG/1.1/DTD/svg11.dtd">
<svg xmlns="http://www.w3.org/2000/svg" version="1.1" width="1920px" height="1080px" style="shape-rendering:geometricPrecision; text-rendering:geometricPrecision; image-rendering:optimizeQuality; fill-rule:evenodd; clip-rule:evenodd" xmlns:xlink="http://www.w3.org/1999/xlink">
<g><path style="opacity:1" fill="#fea7ac" d="M -0.5,-0.5 C 639.5,-0.5 1279.5,-0.5 1919.5,-0.5C 1919.5,359.5 1919.5,719.5 1919.5,1079.5C 1279.5,1079.5 639.5,1079.5 -0.5,1079.5C -0.5,719.5 -0.5,359.5 -0.5,-0.5 Z"/></g>
<g><path style="opacity:1" fill="#0a0606" d="M 128.5,74.5 C 155.347,73.8461 168.18,86.8461 167,113.5C 164.287,129.213 155.121,138.713 139.5,142C 119.669,143.185 107.503,134.018 103,114.5C 101.65,94.863 110.15,81.5296 128.5,74.5 Z"/></g>
<g><path style="opacity:1" fill="#0a0606" d="M 253.5,74.5 C 274.02,72.8896 286.854,81.8896 292,101.5C 293.313,129.186 280.147,142.686 252.5,142C 234.121,135.267 225.954,122.1 228,102.5C 231.821,88.8482 240.321,79.5149 253.5,74.5 Z"/></g>
<g><path style="opacity:1" fill="#0a0606" d="M 455.5,131.5 C 457.95,128.4 458.117,125.066 456,121.5C 454.5,120 453,118.5 451.5,117C 443.014,113.26 435.014,108.76 427.5,103.5C 424.007,99.1584 422.673,94.1584 423.5,88.5C 425.203,81.1123 429.87,76.6123 437.5,75C 444.816,73.8591 451.816,74.8591 458.5,78C 463.22,81.2985 464.72,85.7985 463,91.5C 459.187,96.001 455.021,96.501 450.5,93C 457.417,87.543 456.75,82.8763 448.5,79C 437.608,77.2359 432.441,81.7359 433,92.5C 433.785,94.286 434.951,95.786 436.5,97C 443.342,100.922 450.342,104.588 457.5,108C 469.989,117.24 470.656,127.24 459.5,138C 448.949,143.47 438.282,143.803 427.5,139C 420.252,132.848 419.919,126.515 426.5,120C 430.109,118.928 433.109,119.761 435.5,122.5C 430.673,126.161 430.173,130.494 434,135.5C 440.048,139.287 446.215,139.454 452.5,136C 454.141,134.871 455.141,133.371 455.5,131.5 Z"/></g>
<g><path style="opacity:1" fill="#090506" d="M 45.5,76.5 C 57.1714,76.3335 68.8381,76.5001 80.5,77C 94.2412,81.8881 96.9079,90.2214 88.5,102C 85.7846,103.908 82.7846,105.241 79.5,106C 87.7384,106.693 93.9051,110.526 98,117.5C 99.2322,128.624 94.3989,135.79 83.5,139C 70.5461,140.377 57.5461,140.877 44.5,140.5C 44.5,139.167 44.5,137.833 44.5,136.5C 47.9705,137.125 50.8038,136.125 53,133.5C 53.6667,116.833 53.6667,100.167 53,83.5C 50.8038,80.8748 47.9705,79.8748 44.5,80.5C 44.4326,79.0413 44.7659,77.7079 45.5,76.5 Z"/></g>
<g><path style="opacity:1" fill="#0b0606" d="M 363.5,80.5 C 360.03,79.8748 357.196,80.8748 355,83.5C 354.5,102.497 354.333,121.497 354.5,140.5C 351.956,140.896 349.789,140.229 348,138.5C 335.667,121.833 323.333,105.167 311,88.5C 310.172,103.672 310.339,118.672 311.5,133.5C 313.391,136.172 316.058,137.172 319.5,136.5C 319.5,137.833 319.5,139.167 319.5,140.5C 312.159,140.666 304.826,140.5 297.5,140C 297.043,139.586 296.709,139.086 296.5,138.5C 299.504,137.245 302.337,135.579 305,133.5C 305.667,116.833 305.667,100.167 305,83.5C 302.808,81.7647 300.308,80.598 297.5,80C 296.663,78.9887 296.33,77.8221 296.5,76.5C 306.598,74.4748 314.764,77.4748 321,85.5C 330.09,98.0127 339.424,110.346 349,122.5C 349.667,109.5 349.667,96.5 349,83.5C 346.804,80.8748 343.97,79.8748 340.5,80.5C 340.33,79.1779 340.663,78.0113 341.5,77C 348.5,76.3333 355.5,76.3333 362.5,77C 363.337,78.0113 363.67,79.1779 363.5,80.5 Z"/></g>
<g><path style="opacity:1" fill="#090606" d="M 374.5,132.5 C 375.661,116.672 375.828,100.672 375,84.5C 373.188,81.1788 370.355,79.8454 366.5,80.5C 366.5,79.1667 366.5,77.8333 366.5,76.5C 382.17,76.3334 397.837,76.5001 413.5,77C 414.641,82.7504 414.807,88.5837 414,94.5C 412.333,95.8333 410.667,95.8333 409,94.5C 408.877,89.7943 407.377,85.6276 404.5,82C 398.285,80.5845 391.952,80.0845 385.5,80.5C 385.5,89.1667 385.5,97.8333 385.5,106.5C 391.833,106.5 398.167,106.5 404.5,106.5C 404.5,107.833 404.5,109.167 404.5,110.5C 398.167,110.5 391.833,110.5 385.5,110.5C 385.334,118.174 385.5,125.841 386,133.5C 386.308,134.308 386.808,134.975 387.5,135.5C 393.448,136.624 399.448,136.79 405.5,136C 409.291,133.599 411.458,130.099 412,125.5C 414.536,122.687 416.703,122.854 418.5,126C 417.268,130.461 416.268,134.961 415.5,139.5C 399.18,140.499 382.847,140.833 366.5,140.5C 366.5,139.167 366.5,137.833 366.5,136.5C 370.39,137.223 373.056,135.89 374.5,132.5 Z"/></g>
<g><path style="opacity:1" fill="#0a0606" d="M 219.5,93.5 C 219.274,82.2855 213.607,77.9522 202.5,80.5C 202.17,98.3412 202.503,116.008 203.5,133.5C 205.391,136.172 208.058,137.172 211.5,136.5C 211.5,137.833 211.5,139.167 211.5,140.5C 202.167,140.5 192.833,140.5 183.5,140.5C 183.5,139.167 183.5,137.833 183.5,136.5C 186.97,137.125 189.804,136.125 192,133.5C 192.5,115.836 192.667,98.1698 192.5,80.5C 181.829,78.3418 176.329,82.6752 176,93.5C 174.556,95.1554 172.722,95.822 170.5,95.5C 170.19,89.2424 170.524,83.0758 171.5,77C 188.833,76.3333 206.167,76.3333 223.5,77C 224.776,79.724 225.442,82.724 225.5,86C 225.333,88.8333 225.167,91.6667 225,94.5C 222.765,95.9802 220.932,95.6469 219.5,93.5 Z"/></g>
<g><path style="opacity:1" fill="#110f0f" d="M 732.5,306.5 C 731.842,305.602 731.176,304.602 730.5,303.5C 729.614,304.325 729.281,305.325 729.5,306.5C 678.726,309.082 631.393,322.915 587.5,348C 579.628,353.206 573.961,360.206 570.5,369C 571.984,377.927 577.317,381.761 586.5,380.5C 632.341,377.934 678.174,375.268 724,372.5C 730.057,372.307 735.89,373.307 741.5,375.5C 743.849,377.525 744.516,379.858 743.5,382.5C 740.806,380.486 737.806,378.986 734.5,378C 729.333,377.833 724.167,377.667 719,377.5C 671.856,380.378 624.689,382.544 577.5,384C 572.726,382.702 569.226,379.868 567,375.5C 557.681,349.382 549.848,322.882 543.5,296C 507.157,293.595 470.824,291.095 434.5,288.5C 432.833,288.833 431.167,289.167 429.5,289.5C 432.693,296.245 435.193,303.245 437,310.5C 440.184,325.921 443.684,341.255 447.5,356.5C 429.496,373.668 413.496,392.501 399.5,413C 487.936,433.762 577.603,443.429 668.5,442C 690.362,441.045 710.696,435.045 729.5,424C 742.544,415.745 748.544,403.911 747.5,388.5C 747.953,387.542 748.619,386.708 749.5,386C 747.935,384.494 747.601,382.994 748.5,381.5C 752.752,387.998 753.585,394.998 751,402.5C 747.754,412.484 741.92,420.651 733.5,427C 713.589,439.066 691.922,445.733 668.5,447C 575.943,448.211 484.609,438.211 394.5,417C 393.328,415.132 393.495,413.298 395,411.5C 408.451,391.705 423.784,373.371 441,356.5C 438.742,335.308 434.075,314.641 427,294.5C 425.92,292.004 424.586,289.67 423,287.5C 422.316,286.216 422.483,285.049 423.5,284C 463.195,285.868 502.862,288.368 542.5,291.5C 536.251,259.09 532.084,226.423 530,193.5C 567.786,157.355 612.619,134.522 664.5,125C 689.906,119.696 715.573,116.362 741.5,115C 795.25,113.366 848.917,114.699 902.5,119C 942.944,122.821 982.277,131.488 1020.5,145C 1081.23,171.577 1143.57,193.577 1207.5,211C 1222.49,214.564 1237.49,218.064 1252.5,221.5C 1254.37,179.155 1256.53,136.822 1259,94.5C 1262.41,90.8737 1266.57,88.3737 1271.5,87C 1389.4,62.3115 1498.07,83.6449 1597.5,151C 1605.62,156.785 1613.45,162.952 1621,169.5C 1621.72,171.112 1621.55,172.612 1620.5,174C 1600.06,183.719 1580.39,194.719 1561.5,207C 1557.91,210.05 1554.41,213.216 1551,216.5C 1551.8,246.164 1552.47,275.83 1553,305.5C 1551.27,306.576 1549.44,306.743 1547.5,306C 1526.84,289.504 1503.84,277.504 1478.5,270C 1473.17,294.004 1467,317.837 1460,341.5C 1457.28,363.137 1453.78,384.637 1449.5,406C 1448.56,407.477 1447.22,408.477 1445.5,409C 1409.94,422.565 1373.11,429.065 1335,428.5C 1278.15,426.141 1221.99,418.641 1166.5,406C 1143.37,400.8 1120.37,395.134 1097.5,389C 1040.32,371.606 983.316,353.606 926.5,335C 876.923,319.848 826.257,310.515 774.5,307C 760.504,306.5 746.504,306.333 732.5,306.5 Z"/></g>
<g><path style="opacity:1" fill="#e29499" d="M 219.5,93.5 C 216.734,90.8363 214.067,88.003 211.5,85C 208.653,84.0561 206.153,84.5561 204,86.5C 203.5,102.163 203.333,117.83 203.5,133.5C 202.503,116.008 202.17,98.3412 202.5,80.5C 213.607,77.9522 219.274,82.2855 219.5,93.5 Z"/></g>
<g><path style="opacity:1" fill="#fdfdfd" d="M 1334.5,81.5 C 1430,76.8137 1517,101.314 1595.5,155C 1602.17,160.333 1608.83,165.667 1615.5,171C 1600.13,179.348 1584.8,187.681 1569.5,196C 1561.02,201.665 1553.19,208.165 1546,215.5C 1547.03,243.82 1547.69,272.154 1548,300.5C 1527.32,284.743 1504.49,273.076 1479.5,265.5C 1483.35,242.928 1484.51,220.261 1483,197.5C 1482.63,196.584 1482.13,195.75 1481.5,195C 1429.9,166.464 1375.24,145.797 1317.5,133C 1299.74,128.37 1283.9,120.203 1270,108.5C 1267.8,105.605 1266.3,102.439 1265.5,99C 1265.65,95.1799 1267.65,92.8465 1271.5,92C 1292.41,87.1139 1313.41,83.6139 1334.5,81.5 Z"/></g>
<g><path style="opacity:1" fill="#faa4a9" d="M 128.5,79.5 C 143.272,77.4271 152.105,83.7604 155,98.5C 156.283,108.1 155.283,117.433 152,126.5C 143.576,140.274 133.243,141.941 121,131.5C 114.016,119.154 112.683,106.154 117,92.5C 119.3,86.7063 123.133,82.373 128.5,79.5 Z"/></g>
<g><path style="opacity:1" fill="#faa4a9" d="M 253.5,79.5 C 268.272,77.4271 277.105,83.7604 280,98.5C 281.283,108.1 280.283,117.433 277,126.5C 268.576,140.274 258.243,141.941 246,131.5C 239.016,119.154 237.683,106.154 242,92.5C 244.3,86.7063 248.133,82.373 253.5,79.5 Z"/></g>
<g><path style="opacity:1" fill="#f7a2a7" d="M 63.5,80.5 C 77.8456,77.7086 84.0123,83.3753 82,97.5C 80.8783,99.6238 79.3783,101.457 77.5,103C 72.964,104.379 68.2973,104.879 63.5,104.5C 63.5,96.5 63.5,88.5 63.5,80.5 Z"/></g>
<g><path style="opacity:1" fill="#e8999e" d="M 363.5,80.5 C 364.652,81.625 365.652,81.625 366.5,80.5C 370.355,79.8454 373.188,81.1788 375,84.5C 375.828,100.672 375.661,116.672 374.5,132.5C 374.667,117.83 374.5,103.163 374,88.5C 371.051,87.0556 368.218,85.3889 365.5,83.5C 363.167,84.6667 360.833,85.8333 358.5,87C 356.996,88.4907 356.163,90.324 356,92.5C 355.667,109.167 355.333,125.833 355,142.5C 352.142,146.352 349.142,146.352 346,142.5C 335.881,127.919 325.048,113.919 313.5,100.5C 312.808,101.025 312.308,101.692 312,102.5C 311.5,112.828 311.334,123.161 311.5,133.5C 310.339,118.672 310.172,103.672 311,88.5C 323.333,105.167 335.667,121.833 348,138.5C 349.789,140.229 351.956,140.896 354.5,140.5C 354.333,121.497 354.5,102.497 355,83.5C 357.196,80.8748 360.03,79.8748 363.5,80.5 Z"/></g>
<g><path style="opacity:1" fill="#e3959a" d="M 423.5,88.5 C 422.673,94.1584 424.007,99.1584 427.5,103.5C 435.014,108.76 443.014,113.26 451.5,117C 453,118.5 454.5,120 456,121.5C 458.117,125.066 457.95,128.4 455.5,131.5C 456.231,127.397 455.231,123.897 452.5,121C 446.779,117.473 440.779,114.473 434.5,112C 430.568,108.547 426.568,105.381 422.5,102.5C 422.181,97.6367 422.514,92.97 423.5,88.5 Z"/></g>
<g><path style="opacity:1" fill="#fdfdfd" d="M 1264.5,107.5 C 1275.07,119.469 1288.07,127.969 1303.5,133C 1363.3,146.401 1420.3,167.401 1474.5,196C 1478.01,197.907 1479.18,200.74 1478,204.5C 1472.19,220.974 1461.03,232.141 1444.5,238C 1428.89,243.04 1412.89,244.707 1396.5,243C 1350.06,239.279 1304.06,232.612 1258.5,223C 1257.85,218.414 1257.51,213.747 1257.5,209C 1258.89,177.146 1260.56,145.313 1262.5,113.5C 1263.17,111.5 1263.83,109.5 1264.5,107.5 Z"/></g>
<g><path style="opacity:1" fill="#606060" d="M 1264.5,107.5 C 1263.83,109.5 1263.17,111.5 1262.5,113.5C 1262.19,111.076 1262.53,108.743 1263.5,106.5C 1264.11,106.624 1264.44,106.957 1264.5,107.5 Z"/></g>
<g><path style="opacity:1" fill="#f8a4a8" d="M 63.5,108.5 C 68.5658,108.34 73.5658,108.84 78.5,110C 85.6935,113.22 88.5268,118.72 87,126.5C 82.629,134.637 75.7957,137.804 66.5,136C 65.6667,135.167 64.8333,134.333 64,133.5C 63.5003,125.173 63.3336,116.84 63.5,108.5 Z"/></g>
<g><path style="opacity:1" fill="#fdfdfd" d="M 752.5,118.5 C 798.547,117.878 844.547,119.044 890.5,122C 930.044,125.368 968.711,133.034 1006.5,145C 1042.5,159 1078.5,173 1114.5,187C 1208.63,220.612 1305.63,240.779 1405.5,247.5C 1427.54,248.999 1447.54,243.499 1465.5,231C 1470.6,225.959 1475.1,220.459 1479,214.5C 1479.32,232.664 1477.65,250.664 1474,268.5C 1467.97,294.984 1461.3,321.317 1454,347.5C 1452.18,366.181 1449.35,384.681 1445.5,403C 1445.09,403.945 1444.43,404.612 1443.5,405C 1401.55,420.453 1358.22,426.453 1313.5,423C 1227.28,415.689 1142.94,399.022 1060.5,373C 1000.76,352.641 940.425,334.308 879.5,318C 823.273,303.767 766.273,299.1 708.5,304C 662.663,308.389 620.33,322.723 581.5,347C 576.254,351.575 571.754,356.742 568,362.5C 558.03,337.589 550.696,311.922 546,285.5C 540.211,255.726 536.544,225.726 535,195.5C 561.491,169.161 592.658,150.327 628.5,139C 669.089,126.931 710.423,120.098 752.5,118.5 Z"/></g>
<g><path style="opacity:1" fill="#090909" d="M 724.5,205.5 C 725.117,205.389 725.617,205.056 726,204.5C 728.22,197.563 726.053,192.73 719.5,190C 705.832,186.917 695.999,191.75 690,204.5C 686.527,214.078 685.693,223.745 687.5,233.5C 688.916,245.088 695.249,252.588 706.5,256C 712.204,256.687 717.87,256.521 723.5,255.5C 723.821,249.151 723.987,242.818 724,236.5C 721.404,234.98 718.571,234.147 715.5,234C 714.167,232.667 714.167,231.333 715.5,230C 724.811,230.15 734.144,230.484 743.5,231C 744.38,232.356 744.714,233.856 744.5,235.5C 741.193,235.063 738.193,235.73 735.5,237.5C 733.984,244.274 732.984,251.107 732.5,258C 721.743,261.324 710.743,262.324 699.5,261C 683.583,257.007 674.75,246.84 673,230.5C 672.501,226.514 672.334,222.514 672.5,218.5C 678.025,193.901 693.359,182.735 718.5,185C 727.7,185.507 734.533,189.674 739,197.5C 740.448,209.386 735.281,214.552 723.5,213C 722.5,212 721.5,211 720.5,210C 722.041,208.629 723.375,207.129 724.5,205.5 Z"/></g>
<g><path style="opacity:1" fill="#0c0c0c" d="M 886.5,244.5 C 887.559,234.329 888.059,223.995 888,213.5C 878.744,231.679 869.744,250.013 861,268.5C 859.612,269.554 858.112,269.72 856.5,269C 849.202,248.773 841.702,228.606 834,208.5C 832.833,222.992 831.667,237.492 830.5,252C 830.667,254.5 830.833,257 831,259.5C 831.278,260.416 831.778,261.082 832.5,261.5C 834.744,262.93 837.244,263.93 840,264.5C 840.86,267.478 839.693,268.812 836.5,268.5C 819.532,266.921 802.532,265.754 785.5,265C 784.167,263.333 784.167,261.667 785.5,260C 787.473,259.505 789.473,259.338 791.5,259.5C 793.722,259.441 794.722,258.275 794.5,256C 793.059,251.179 791.726,246.346 790.5,241.5C 780.489,240.552 770.489,240.552 760.5,241.5C 757.209,246.051 755.709,251.051 756,256.5C 756.383,257.056 756.883,257.389 757.5,257.5C 759.948,258.473 762.615,258.806 765.5,258.5C 765.5,260.167 765.5,261.833 765.5,263.5C 756.848,262.867 748.182,262.367 739.5,262C 738.594,260.301 738.261,258.467 738.5,256.5C 742.909,257.382 746.409,256.048 749,252.5C 757.667,235.167 766.333,217.833 775,200.5C 775.711,198.633 775.211,197.133 773.5,196C 771.341,195.088 769.175,194.255 767,193.5C 766.058,190.77 767.058,189.437 770,189.5C 776.507,189.329 781.84,191.663 786,196.5C 793.728,217.015 801.061,237.682 808,258.5C 811.845,261.92 816.345,263.087 821.5,262C 823.886,260.113 825.053,257.613 825,254.5C 826.025,238.488 827.191,222.488 828.5,206.5C 828.49,200.639 825.49,197.639 819.5,197.5C 818.571,196.311 818.238,194.978 818.5,193.5C 828.055,192.257 836.222,194.923 843,201.5C 849.6,218.466 856.1,235.466 862.5,252.5C 871.423,234.987 880.09,217.321 888.5,199.5C 895.811,198.335 903.144,198.169 910.5,199C 911.38,200.356 911.714,201.856 911.5,203.5C 907.091,202.618 903.591,203.952 901,207.5C 899.274,226.48 898.274,245.48 898,264.5C 900.196,267.125 903.03,268.125 906.5,267.5C 906.5,269.167 906.5,270.833 906.5,272.5C 896.185,271.733 885.852,271.399 875.5,271.5C 875.5,269.833 875.5,268.167 875.5,266.5C 882.518,267.577 886.018,264.577 886,257.5C 886.499,253.179 886.666,248.846 886.5,244.5 Z"/></g>
<g><path style="opacity:1" fill="#e8e8e8" d="M 724.5,205.5 C 724.968,199.129 721.968,195.629 715.5,195C 702.747,194.392 694.247,200.225 690,212.5C 688.012,219.361 687.178,226.361 687.5,233.5C 685.693,223.745 686.527,214.078 690,204.5C 695.999,191.75 705.832,186.917 719.5,190C 726.053,192.73 728.22,197.563 726,204.5C 725.617,205.056 725.117,205.389 724.5,205.5 Z"/></g>
<g><path style="opacity:1" fill="#0d0d0d" d="M 916.5,199.5 C 933.799,201.057 951.133,202.224 968.5,203C 969.786,206.233 970.453,209.733 970.5,213.5C 970.167,216.833 969.833,220.167 969.5,223.5C 967.629,224.767 965.796,224.767 964,223.5C 963.957,218.147 962.457,213.314 959.5,209C 957.913,208.138 956.246,207.471 954.5,207C 948.843,206.501 943.176,206.334 937.5,206.5C 936.803,216.159 936.137,225.825 935.5,235.5C 942.826,236.022 950.159,236.522 957.5,237C 958.833,238.333 958.833,239.667 957.5,241C 949.822,241.477 942.155,241.31 934.5,240.5C 934.334,249.506 934.5,258.506 935,267.5C 935.903,268.701 937.069,269.535 938.5,270C 945.167,270.667 951.833,270.667 958.5,270C 962.107,266.528 964.607,262.361 966,257.5C 969.447,255.647 971.28,256.647 971.5,260.5C 970.545,265.571 969.378,270.571 968,275.5C 966.262,276.127 964.429,276.46 962.5,276.5C 945.854,275.062 929.188,273.895 912.5,273C 911.62,271.644 911.286,270.144 911.5,268.5C 913.857,268.663 916.19,268.497 918.5,268C 920.333,267.5 921.5,266.333 922,264.5C 923.407,245.502 924.407,226.502 925,207.5C 922.656,205.226 919.822,204.059 916.5,204C 915.272,202.51 915.272,201.01 916.5,199.5 Z"/></g>
<g><path style="opacity:1" fill="#dedede" d="M 775.5,235.5 C 778.572,235.817 781.572,235.484 784.5,234.5C 782.568,229.204 780.735,223.871 779,218.5C 778.439,217.978 777.772,217.645 777,217.5C 773.466,222.727 770.3,228.227 767.5,234C 768.737,234.232 769.737,234.732 770.5,235.5C 768.076,235.808 765.743,235.474 763.5,234.5C 768.063,225.041 772.896,215.708 778,206.5C 781.892,216.176 785.392,226.009 788.5,236C 783.98,236.814 779.646,236.647 775.5,235.5 Z"/></g>
<g><path style="opacity:1" fill="#fcfcfc" d="M 775.5,235.5 C 773.833,235.5 772.167,235.5 770.5,235.5C 769.737,234.732 768.737,234.232 767.5,234C 770.3,228.227 773.466,222.727 777,217.5C 777.772,217.645 778.439,217.978 779,218.5C 780.735,223.871 782.568,229.204 784.5,234.5C 781.572,235.484 778.572,235.817 775.5,235.5 Z"/></g>
<g><path style="opacity:1" fill="#ebebeb" d="M 672.5,218.5 C 672.334,222.514 672.501,226.514 673,230.5C 674.75,246.84 683.583,257.007 699.5,261C 710.743,262.324 721.743,261.324 732.5,258C 732.984,251.107 733.984,244.274 735.5,237.5C 738.193,235.73 741.193,235.063 744.5,235.5C 744.74,239.578 742.74,241.744 738.5,242C 737.299,242.903 736.465,244.069 736,245.5C 735.552,250.53 734.886,255.53 734,260.5C 733.535,261.931 732.701,263.097 731.5,264C 715.16,269.705 699.494,268.372 684.5,260C 672.336,248.506 668.336,234.673 672.5,218.5 Z"/></g>
<g><path style="opacity:1" fill="#e5e5e5" d="M 886.5,244.5 C 886.839,239.07 886.339,233.736 885,228.5C 876.885,242.396 869.552,256.729 863,271.5C 858.82,275.792 855.487,275.126 853,269.5C 847.844,254.191 842.01,239.191 835.5,224.5C 834.749,225.376 834.249,226.376 834,227.5C 832.968,238.811 832.468,250.145 832.5,261.5C 831.778,261.082 831.278,260.416 831,259.5C 830.833,257 830.667,254.5 830.5,252C 831.667,237.492 832.833,222.992 834,208.5C 841.702,228.606 849.202,248.773 856.5,269C 858.112,269.72 859.612,269.554 861,268.5C 869.744,250.013 878.744,231.679 888,213.5C 888.059,223.995 887.559,234.329 886.5,244.5 Z"/></g>
<g><path style="opacity:1" fill="#ededed" d="M 791.5,259.5 C 791.653,255.125 790.32,251.292 787.5,248C 780.167,247.001 772.834,246.168 765.5,245.5C 760.388,247.687 757.722,251.687 757.5,257.5C 756.883,257.389 756.383,257.056 756,256.5C 755.709,251.051 757.209,246.051 760.5,241.5C 770.489,240.552 780.489,240.552 790.5,241.5C 791.726,246.346 793.059,251.179 794.5,256C 794.722,258.275 793.722,259.441 791.5,259.5 Z"/></g>
<g><path style="opacity:1" fill="#090909" d="M 1134.5,301.5 C 1132.66,326.169 1119.5,339.836 1095,342.5C 1070.83,339.152 1059,325.152 1059.5,300.5C 1063.31,279.69 1075.64,267.69 1096.5,264.5C 1119.69,266.085 1132.36,278.419 1134.5,301.5 Z"/></g>
<g><path style="opacity:1" fill="#0b0b0b" d="M 1265.5,292.5 C 1264.69,294.631 1264.19,296.964 1264,299.5C 1261.73,300.935 1259.73,300.602 1258,298.5C 1258.51,292.697 1256.68,287.864 1252.5,284C 1245.6,282.4 1238.6,281.567 1231.5,281.5C 1230.95,289.822 1230.61,298.156 1230.5,306.5C 1229.55,307.919 1229.22,309.585 1229.5,311.5C 1231.17,311.5 1232.83,311.5 1234.5,311.5C 1240.23,311.283 1245.9,311.783 1251.5,313C 1252.52,314.049 1252.68,315.216 1252,316.5C 1244.58,317 1237.08,317 1229.5,316.5C 1228.52,325.481 1228.36,334.481 1229,343.5C 1230.17,344.893 1231.67,345.727 1233.5,346C 1239.5,346.667 1245.5,346.667 1251.5,346C 1253.29,345.215 1254.79,344.049 1256,342.5C 1257.14,339.417 1258.47,336.417 1260,333.5C 1262.82,331.916 1264.99,332.582 1266.5,335.5C 1265.11,340.853 1263.61,346.187 1262,351.5C 1260.6,352.116 1259.1,352.449 1257.5,352.5C 1240.53,350.954 1223.53,349.788 1206.5,349C 1205.17,347.333 1205.17,345.667 1206.5,344C 1210.26,344.194 1213.43,343.027 1216,340.5C 1217.05,332.198 1217.55,323.865 1217.5,315.5C 1218.62,305.31 1219.45,294.977 1220,284.5C 1218.89,282.185 1217.06,280.685 1214.5,280C 1208.62,278.347 1203.79,279.847 1200,284.5C 1189.99,304.846 1180.82,325.512 1172.5,346.5C 1169.92,346.917 1167.75,346.25 1166,344.5C 1160.16,323.455 1154.16,302.455 1148,281.5C 1145.9,277.03 1142.4,274.363 1137.5,273.5C 1137.33,272.178 1137.66,271.011 1138.5,270C 1146.3,269.156 1152.8,271.656 1158,277.5C 1163.33,294.817 1168.67,312.15 1174,329.5C 1180.93,313.535 1187.77,297.535 1194.5,281.5C 1194.39,280.558 1194.06,279.725 1193.5,279C 1191.19,278.503 1188.86,278.337 1186.5,278.5C 1186.5,276.833 1186.5,275.167 1186.5,273.5C 1212.1,275.867 1237.77,277.7 1263.5,279C 1264,279.5 1264.5,280 1265,280.5C 1265.5,284.486 1265.67,288.486 1265.5,292.5 Z"/></g>
<g><path style="opacity:1" fill="#e9e9e9" d="M 1118.5,314.5 C 1119.28,304.879 1118.12,295.546 1115,286.5C 1107.7,275.632 1098.2,273.132 1086.5,279C 1080.81,283.881 1077.31,290.048 1076,297.5C 1074.81,303.778 1074.31,310.112 1074.5,316.5C 1070.97,300.775 1074.31,286.608 1084.5,274C 1099.28,265.814 1110.44,269.314 1118,284.5C 1121.07,294.556 1121.24,304.556 1118.5,314.5 Z"/></g>
<g><path style="opacity:1" fill="#e7e7e7" d="M 1137.5,273.5 C 1142.4,274.363 1145.9,277.03 1148,281.5C 1154.16,302.455 1160.16,323.455 1166,344.5C 1167.75,346.25 1169.92,346.917 1172.5,346.5C 1180.82,325.512 1189.99,304.846 1200,284.5C 1203.79,279.847 1208.62,278.347 1214.5,280C 1217.06,280.685 1218.89,282.185 1220,284.5C 1219.45,294.977 1218.62,305.31 1217.5,315.5C 1217.33,308.475 1217.66,301.475 1218.5,294.5C 1218.64,288.392 1215.64,285.725 1209.5,286.5C 1207.04,286.478 1204.7,286.978 1202.5,288C 1199.62,292.258 1197.12,296.758 1195,301.5C 1187.94,317.952 1180.61,334.285 1173,350.5C 1168.14,353.411 1164.8,352.078 1163,346.5C 1157.47,325.238 1151.13,304.238 1144,283.5C 1141.37,281.874 1139.04,279.874 1137,277.5C 1136.81,276.181 1136.97,274.847 1137.5,273.5 Z"/></g>
<g><path style="opacity:1" fill="#fdfdfd" d="M 1118.5,314.5 C 1113.7,335.401 1101.7,341.568 1082.5,333C 1077.83,328.493 1075.16,322.993 1074.5,316.5C 1074.31,310.112 1074.81,303.778 1076,297.5C 1077.31,290.048 1080.81,283.881 1086.5,279C 1098.2,273.132 1107.7,275.632 1115,286.5C 1118.12,295.546 1119.28,304.879 1118.5,314.5 Z"/></g>
<g><path style="opacity:1" fill="#090909" d="M 1274.5,279.5 C 1288.83,280.902 1303.17,282.402 1317.5,284C 1329.27,287.082 1334.77,294.582 1334,306.5C 1329.97,314.691 1323.47,319.691 1314.5,321.5C 1319.24,331.327 1324.74,340.661 1331,349.5C 1333.65,352.076 1336.82,353.409 1340.5,353.5C 1340.5,355.167 1340.5,356.833 1340.5,358.5C 1328.79,359.897 1319.96,355.564 1314,345.5C 1310.41,339.325 1307.08,332.991 1304,326.5C 1300.69,322.648 1296.69,321.648 1292,323.5C 1291.33,331.5 1291.33,339.5 1292,347.5C 1294.2,350.125 1297.03,351.125 1300.5,350.5C 1301.26,354.24 1299.76,355.907 1296,355.5C 1287.22,354.108 1278.39,353.274 1269.5,353C 1268.62,351.644 1268.29,350.144 1268.5,348.5C 1271.93,348.893 1275.1,348.227 1278,346.5C 1279.2,342.284 1279.87,337.951 1280,333.5C 1281.51,318.191 1282.18,302.857 1282,287.5C 1279.7,285.07 1276.86,284.07 1273.5,284.5C 1273.37,282.708 1273.7,281.042 1274.5,279.5 Z"/></g>
<g><path style="opacity:1" fill="#e8e8e8" d="M 1265.5,292.5 C 1265.67,295.85 1265.5,299.183 1265,302.5C 1262.89,305.929 1260.39,306.262 1257.5,303.5C 1256.18,299.886 1255.01,296.22 1254,292.5C 1253.17,291.667 1252.33,290.833 1251.5,290C 1245.94,287.942 1240.27,287.442 1234.5,288.5C 1233.75,289.376 1233.25,290.376 1233,291.5C 1232.44,297.835 1231.94,304.168 1231.5,310.5C 1230.57,309.432 1230.23,308.099 1230.5,306.5C 1230.61,298.156 1230.95,289.822 1231.5,281.5C 1238.6,281.567 1245.6,282.4 1252.5,284C 1256.68,287.864 1258.51,292.697 1258,298.5C 1259.73,300.602 1261.73,300.935 1264,299.5C 1264.19,296.964 1264.69,294.631 1265.5,292.5 Z"/></g>
<g><path style="opacity:1" fill="#fdfdfd" d="M 743.5,382.5 C 744.846,384.537 746.18,386.537 747.5,388.5C 748.544,403.911 742.544,415.745 729.5,424C 710.696,435.045 690.362,441.045 668.5,442C 577.603,443.429 487.936,433.762 399.5,413C 413.496,392.501 429.496,373.668 447.5,356.5C 443.684,341.255 440.184,325.921 437,310.5C 435.193,303.245 432.693,296.245 429.5,289.5C 431.167,289.167 432.833,288.833 434.5,288.5C 470.824,291.095 507.157,293.595 543.5,296C 549.848,322.882 557.681,349.382 567,375.5C 569.226,379.868 572.726,382.702 577.5,384C 624.689,382.544 671.856,380.378 719,377.5C 724.167,377.667 729.333,377.833 734.5,378C 737.806,378.986 740.806,380.486 743.5,382.5 Z"/></g>
<g><path style="opacity:1" fill="#f6f6f6" d="M 1297.5,286.5 C 1317.09,285.242 1324.26,293.909 1319,312.5C 1315.06,317.039 1310.06,319.039 1304,318.5C 1300.15,318.243 1296.32,317.909 1292.5,317.5C 1292.95,308.468 1293.78,299.468 1295,290.5C 1295.66,289.016 1296.5,287.683 1297.5,286.5 Z"/></g>
<g><path style="opacity:1" fill="#eeeeee" d="M 1059.5,300.5 C 1059,325.152 1070.83,339.152 1095,342.5C 1119.5,339.836 1132.66,326.169 1134.5,301.5C 1136.75,321.121 1129.08,335.621 1111.5,345C 1092.93,351.957 1077.43,347.79 1065,332.5C 1058.73,322.456 1056.9,311.789 1059.5,300.5 Z"/></g>
<g><path style="opacity:1" fill="#fcfcfc" d="M 729.5,306.5 C 730.24,329.865 734.573,352.532 742.5,374.5C 742.376,375.107 742.043,375.44 741.5,375.5C 735.89,373.307 730.057,372.307 724,372.5C 678.174,375.268 632.341,377.934 586.5,380.5C 577.317,381.761 571.984,377.927 570.5,369C 573.961,360.206 579.628,353.206 587.5,348C 631.393,322.915 678.726,309.082 729.5,306.5 Z"/></g>
<g><path style="opacity:1" fill="#8d8d8d" d="M 1230.5,306.5 C 1230.23,308.099 1230.57,309.432 1231.5,310.5C 1232.79,310.263 1233.79,310.596 1234.5,311.5C 1232.83,311.5 1231.17,311.5 1229.5,311.5C 1229.22,309.585 1229.55,307.919 1230.5,306.5 Z"/></g>
<g><path style="opacity:1" fill="#2e2728" d="M 732.5,306.5 C 732.802,332.674 738.136,357.674 748.5,381.5C 747.601,382.994 747.935,384.494 749.5,386C 748.619,386.708 747.953,387.542 747.5,388.5C 746.18,386.537 744.846,384.537 743.5,382.5C 744.516,379.858 743.849,377.525 741.5,375.5C 742.043,375.44 742.376,375.107 742.5,374.5C 734.573,352.532 730.24,329.865 729.5,306.5C 729.281,305.325 729.614,304.325 730.5,303.5C 731.176,304.602 731.842,305.602 732.5,306.5 Z"/></g>
<g><path style="opacity:1" fill="#0d0808" d="M 973.5,493.5 C 980.81,492.673 987.643,494.006 994,497.5C 995.483,500.702 995.817,504.036 995,507.5C 992.04,510.971 988.874,511.304 985.5,508.5C 989.795,504.136 989.462,500.303 984.5,497C 974.65,495.492 968.484,499.659 966,509.5C 963.477,519.57 965.977,528.07 973.5,535C 981.295,539.194 987.962,537.86 993.5,531C 994.448,530.517 995.448,530.351 996.5,530.5C 993.595,538.132 987.929,541.465 979.5,540.5C 968.516,540.355 961.349,535.022 958,524.5C 954.739,509.687 959.906,499.353 973.5,493.5 Z"/></g>
<g><path style="opacity:1" fill="#0f0a0a" d="M 619.5,494.5 C 627.84,494.334 636.173,494.5 644.5,495C 652.577,496.645 655.411,501.479 653,509.5C 651.039,512.135 648.539,513.969 645.5,515C 655.614,517.079 659.114,522.913 656,532.5C 653.9,535.467 651.066,537.3 647.5,538C 638.21,539.72 628.877,539.887 619.5,538.5C 621.566,537.094 623.732,535.76 626,534.5C 626.667,522.833 626.667,511.167 626,499.5C 624.211,497.771 622.044,497.104 619.5,497.5C 619.5,496.5 619.5,495.5 619.5,494.5 Z"/></g>
<g><path style="opacity:1" fill="#0e0909" d="M 660.5,494.5 C 671.505,494.333 682.505,494.5 693.5,495C 694.464,499.066 694.797,503.233 694.5,507.5C 692.856,507.714 691.356,507.38 690,506.5C 690.135,503.062 688.968,500.228 686.5,498C 682.179,497.501 677.846,497.334 673.5,497.5C 673.5,503.5 673.5,509.5 673.5,515.5C 678.167,515.5 682.833,515.5 687.5,515.5C 687.5,516.5 687.5,517.5 687.5,518.5C 682.833,518.5 678.167,518.5 673.5,518.5C 673.334,523.844 673.501,529.177 674,534.5C 674.5,535 675,535.5 675.5,536C 679.833,536.667 684.167,536.667 688.5,536C 690.732,534.011 692.232,531.511 693,528.5C 694.011,527.663 695.178,527.33 696.5,527.5C 696.713,531.516 696.046,535.35 694.5,539C 683.172,539.5 671.838,539.667 660.5,539.5C 660.5,538.5 660.5,537.5 660.5,536.5C 662.722,536.822 664.556,536.155 666,534.5C 666.667,522.833 666.667,511.167 666,499.5C 664.556,497.845 662.722,497.178 660.5,497.5C 660.5,496.5 660.5,495.5 660.5,494.5 Z"/></g>
<g><path style="opacity:1" fill="#090505" d="M 777.5,494.5 C 788.5,494.5 799.5,494.5 810.5,494.5C 810.5,498.833 810.5,503.167 810.5,507.5C 809.178,507.67 808.011,507.337 807,506.5C 806.79,503.766 805.956,501.266 804.5,499C 799.964,497.621 795.297,497.121 790.5,497.5C 790.5,503.5 790.5,509.5 790.5,515.5C 795.167,515.5 799.833,515.5 804.5,515.5C 804.5,516.5 804.5,517.5 804.5,518.5C 799.833,518.5 795.167,518.5 790.5,518.5C 790.334,523.844 790.501,529.177 791,534.5C 791.5,535 792,535.5 792.5,536C 796.833,536.667 801.167,536.667 805.5,536C 807.788,534.041 809.121,531.541 809.5,528.5C 810.689,527.571 812.022,527.238 813.5,527.5C 813.155,531.422 812.488,535.255 811.5,539C 800.172,539.5 788.838,539.667 777.5,539.5C 777.5,538.5 777.5,537.5 777.5,536.5C 779.722,536.822 781.556,536.155 783,534.5C 783.667,522.833 783.667,511.167 783,499.5C 781.556,497.845 779.722,497.178 777.5,497.5C 777.5,496.5 777.5,495.5 777.5,494.5 Z"/></g>
<g><path style="opacity:1" fill="#0e0909" d="M 816.5,494.5 C 824.84,494.334 833.173,494.5 841.5,495C 854.237,497.789 856.904,504.455 849.5,515C 847.158,516.171 844.824,517.338 842.5,518.5C 845.471,523.303 848.638,527.97 852,532.5C 854.642,534.893 857.475,536.893 860.5,538.5C 856.417,539.857 852.417,539.691 848.5,538C 843.108,532.543 838.442,526.543 834.5,520C 832.866,519.506 831.199,519.34 829.5,519.5C 829.334,524.844 829.501,530.177 830,535.5C 831.699,536.406 833.533,536.739 835.5,536.5C 835.5,537.5 835.5,538.5 835.5,539.5C 828.8,539.83 822.134,539.497 815.5,538.5C 817.566,537.094 819.732,535.76 822,534.5C 822.667,522.833 822.667,511.167 822,499.5C 820.556,497.845 818.722,497.178 816.5,497.5C 816.5,496.5 816.5,495.5 816.5,494.5 Z"/></g>
<g><path style="opacity:1" fill="#0b0707" d="M 872.5,494.5 C 878.833,494.5 885.167,494.5 891.5,494.5C 891.5,495.5 891.5,496.5 891.5,497.5C 889.278,497.178 887.444,497.845 886,499.5C 885.333,511.167 885.333,522.833 886,534.5C 886.5,535 887,535.5 887.5,536C 891.833,536.667 896.167,536.667 900.5,536C 902.737,533.97 904.237,531.47 905,528.5C 906.011,527.663 907.178,527.33 908.5,527.5C 908.314,531.448 907.648,535.281 906.5,539C 895.172,539.5 883.838,539.667 872.5,539.5C 872.5,538.5 872.5,537.5 872.5,536.5C 874.722,536.822 876.556,536.155 878,534.5C 878.667,522.833 878.667,511.167 878,499.5C 876.556,497.845 874.722,497.178 872.5,497.5C 872.5,496.5 872.5,495.5 872.5,494.5 Z"/></g>
<g><path style="opacity:1" fill="#0e0909" d="M 908.5,494.5 C 914.833,494.5 921.167,494.5 927.5,494.5C 927.5,495.5 927.5,496.5 927.5,497.5C 925.278,497.178 923.444,497.845 922,499.5C 921.333,509.5 921.333,519.5 922,529.5C 923.572,534.704 927.072,537.037 932.5,536.5C 937.748,537.039 941.581,535.039 944,530.5C 944.667,519.833 944.667,509.167 944,498.5C 941.959,497.577 939.792,497.244 937.5,497.5C 937.5,496.5 937.5,495.5 937.5,494.5C 943.5,494.5 949.5,494.5 955.5,494.5C 955.5,495.5 955.5,496.5 955.5,497.5C 952.453,496.855 950.287,497.855 949,500.5C 948.956,511.597 948.289,522.597 947,533.5C 940.938,540.095 933.438,542.262 924.5,540C 919.572,538.073 916.406,534.573 915,529.5C 914.667,519.5 914.333,509.5 914,499.5C 912.556,497.845 910.722,497.178 908.5,497.5C 908.5,496.5 908.5,495.5 908.5,494.5 Z"/></g>
<g><path style="opacity:1" fill="#100b0b" d="M 1013.5,518.5 C 1013.44,517.957 1013.11,517.624 1012.5,517.5C 1011.19,522.986 1011.19,528.32 1012.5,533.5C 1012.41,534.496 1012.75,535.329 1013.5,536C 1015.13,536.494 1016.8,536.66 1018.5,536.5C 1018.5,537.5 1018.5,538.5 1018.5,539.5C 1011.83,539.5 1005.17,539.5 998.5,539.5C 998.5,538.5 998.5,537.5 998.5,536.5C 1000.47,536.739 1002.3,536.406 1004,535.5C 1004.67,523.167 1004.67,510.833 1004,498.5C 1002.3,497.594 1000.47,497.261 998.5,497.5C 998.5,496.5 998.5,495.5 998.5,494.5C 1005.17,494.5 1011.83,494.5 1018.5,494.5C 1018.5,495.5 1018.5,496.5 1018.5,497.5C 1015.45,496.855 1013.29,497.855 1012,500.5C 1011.17,505.533 1011.34,510.533 1012.5,515.5C 1018.45,511.054 1023.95,506.054 1029,500.5C 1029.48,499.552 1029.65,498.552 1029.5,497.5C 1028.5,497.5 1027.5,497.5 1026.5,497.5C 1026.5,496.5 1026.5,495.5 1026.5,494.5C 1032.17,494.5 1037.83,494.5 1043.5,494.5C 1043.5,495.5 1043.5,496.5 1043.5,497.5C 1039.87,497.16 1036.54,497.994 1033.5,500C 1028.79,504.378 1024.45,509.044 1020.5,514C 1026.42,521.92 1033.08,529.253 1040.5,536C 1042.62,536.098 1044.29,536.931 1045.5,538.5C 1041.54,539.66 1037.54,539.827 1033.5,539C 1027.41,533.304 1021.91,527.137 1017,520.5C 1016.18,519.177 1015.02,518.511 1013.5,518.5 Z"/></g>
<g><path style="opacity:1" fill="#080505" d="M 1068.5,505.5 C 1068.22,504.711 1067.72,504.044 1067,503.5C 1066.17,514.008 1066.34,524.342 1067.5,534.5C 1068.64,536.213 1070.3,536.88 1072.5,536.5C 1072.5,537.5 1072.5,538.5 1072.5,539.5C 1067.5,539.5 1062.5,539.5 1057.5,539.5C 1057.5,538.5 1057.5,537.5 1057.5,536.5C 1059.72,536.822 1061.56,536.155 1063,534.5C 1063.67,522.833 1063.67,511.167 1063,499.5C 1061.56,497.845 1059.72,497.178 1057.5,497.5C 1057.5,496.5 1057.5,495.5 1057.5,494.5C 1062.08,494.113 1066.41,494.947 1070.5,497C 1078.72,506.881 1086.55,517.048 1094,527.5C 1094.67,518.167 1094.67,508.833 1094,499.5C 1092.56,497.845 1090.72,497.178 1088.5,497.5C 1088.5,496.5 1088.5,495.5 1088.5,494.5C 1093.5,494.5 1098.5,494.5 1103.5,494.5C 1103.5,495.5 1103.5,496.5 1103.5,497.5C 1101.28,497.178 1099.44,497.845 1098,499.5C 1097.5,512.829 1097.33,526.163 1097.5,539.5C 1094.74,539.256 1092.57,537.923 1091,535.5C 1083.64,525.316 1076.14,515.316 1068.5,505.5 Z"/></g>
<g><path style="opacity:1" fill="#0e0909" d="M 1106.5,494.5 C 1117.5,494.5 1128.5,494.5 1139.5,494.5C 1139.5,498.833 1139.5,503.167 1139.5,507.5C 1138.18,507.67 1137.01,507.337 1136,506.5C 1135.65,503.461 1134.48,500.795 1132.5,498.5C 1128.24,497.561 1123.9,497.228 1119.5,497.5C 1119.5,503.5 1119.5,509.5 1119.5,515.5C 1123.83,515.5 1128.17,515.5 1132.5,515.5C 1132.5,516.5 1132.5,517.5 1132.5,518.5C 1128.17,518.5 1123.83,518.5 1119.5,518.5C 1119.19,524.425 1119.53,530.259 1120.5,536C 1125.17,536.667 1129.83,536.667 1134.5,536C 1136.6,533.958 1137.77,531.458 1138,528.5C 1139.64,527.151 1141.14,527.318 1142.5,529C 1141.39,531.737 1141.22,534.571 1142,537.5C 1143.73,536.751 1145.57,536.251 1147.5,536C 1152.36,529.975 1157.03,523.809 1161.5,517.5C 1157.91,510.13 1153.25,503.63 1147.5,498C 1146.21,497.51 1144.87,497.343 1143.5,497.5C 1143.5,496.5 1143.5,495.5 1143.5,494.5C 1150.43,493.601 1155.93,495.934 1160,501.5C 1161.63,504.632 1163.47,507.632 1165.5,510.5C 1169.45,506.938 1172.11,502.605 1173.5,497.5C 1171.83,497.5 1170.17,497.5 1168.5,497.5C 1168.5,496.5 1168.5,495.5 1168.5,494.5C 1173.83,494.5 1179.17,494.5 1184.5,494.5C 1184.5,495.5 1184.5,496.5 1184.5,497.5C 1182.35,497.372 1180.35,497.872 1178.5,499C 1174.83,504 1171.17,509 1167.5,514C 1172.83,521.333 1178.17,528.667 1183.5,536C 1185.13,536.494 1186.8,536.66 1188.5,536.5C 1188.5,537.5 1188.5,538.5 1188.5,539.5C 1181.8,539.83 1175.13,539.497 1168.5,538.5C 1170.17,537.167 1171.83,535.833 1173.5,534.5C 1170.55,529.555 1167.22,524.888 1163.5,520.5C 1160.33,524.833 1157.17,529.167 1154,533.5C 1153.52,534.448 1153.35,535.448 1153.5,536.5C 1155.5,536.5 1157.5,536.5 1159.5,536.5C 1159.5,537.5 1159.5,538.5 1159.5,539.5C 1141.57,539.466 1123.57,539.132 1105.5,538.5C 1107.57,537.094 1109.73,535.76 1112,534.5C 1112.67,522.833 1112.67,511.167 1112,499.5C 1110.56,497.845 1108.72,497.178 1106.5,497.5C 1106.5,496.5 1106.5,495.5 1106.5,494.5 Z"/></g>
<g><path style="opacity:1" fill="#0f0a0a" d="M 1277.5,494.5 C 1284.17,494.5 1290.83,494.5 1297.5,494.5C 1297.5,495.5 1297.5,496.5 1297.5,497.5C 1295.53,497.261 1293.7,497.594 1292,498.5C 1291.33,510.833 1291.33,523.167 1292,535.5C 1293.7,536.406 1295.53,536.739 1297.5,536.5C 1297.5,537.5 1297.5,538.5 1297.5,539.5C 1290.8,539.83 1284.13,539.497 1277.5,538.5C 1279.57,537.094 1281.73,535.76 1284,534.5C 1284.67,522.833 1284.67,511.167 1284,499.5C 1282.21,497.771 1280.04,497.104 1277.5,497.5C 1277.5,496.5 1277.5,495.5 1277.5,494.5 Z"/></g>
<g><path style="opacity:1" fill="#0b0607" d="M 1311.5,506.5 C 1311.01,505.527 1310.51,504.527 1310,503.5C 1309.17,514.008 1309.34,524.342 1310.5,534.5C 1311.64,536.213 1313.3,536.88 1315.5,536.5C 1315.5,537.5 1315.5,538.5 1315.5,539.5C 1310.5,539.5 1305.5,539.5 1300.5,539.5C 1300.5,538.5 1300.5,537.5 1300.5,536.5C 1302.72,536.822 1304.56,536.155 1306,534.5C 1306.67,522.833 1306.67,511.167 1306,499.5C 1304.56,497.845 1302.72,497.178 1300.5,497.5C 1300.5,496.5 1300.5,495.5 1300.5,494.5C 1305.95,493.779 1310.78,495.112 1315,498.5C 1319.66,508.465 1324.33,518.465 1329,528.5C 1333.92,517.646 1338.59,506.646 1343,495.5C 1347.4,494.533 1351.9,494.2 1356.5,494.5C 1356.5,495.5 1356.5,496.5 1356.5,497.5C 1354.28,497.178 1352.44,497.845 1351,499.5C 1350.33,511.167 1350.33,522.833 1351,534.5C 1352.44,536.155 1354.28,536.822 1356.5,536.5C 1356.5,537.5 1356.5,538.5 1356.5,539.5C 1350.17,539.5 1343.83,539.5 1337.5,539.5C 1337.5,538.5 1337.5,537.5 1337.5,536.5C 1339.72,536.822 1341.56,536.155 1343,534.5C 1343.67,524.5 1343.67,514.5 1343,504.5C 1338.33,515.833 1333.67,527.167 1329,538.5C 1327.99,539.337 1326.82,539.67 1325.5,539.5C 1321.22,528.344 1316.56,517.344 1311.5,506.5 Z"/></g>
<g><path style="opacity:1" fill="#0e0809" d="M 1360.5,494.5 C 1371.5,494.5 1382.5,494.5 1393.5,494.5C 1393.5,498.833 1393.5,503.167 1393.5,507.5C 1392.18,507.67 1391.01,507.337 1390,506.5C 1389.65,503.461 1388.48,500.795 1386.5,498.5C 1382.24,497.561 1377.9,497.228 1373.5,497.5C 1373.5,503.5 1373.5,509.5 1373.5,515.5C 1377.83,515.5 1382.17,515.5 1386.5,515.5C 1386.5,516.5 1386.5,517.5 1386.5,518.5C 1382.17,518.5 1377.83,518.5 1373.5,518.5C 1373.19,524.425 1373.53,530.259 1374.5,536C 1379.17,536.667 1383.83,536.667 1388.5,536C 1390.6,533.958 1391.77,531.458 1392,528.5C 1393.64,527.151 1395.14,527.318 1396.5,529C 1395.71,532.076 1395.21,535.242 1395,538.5C 1383.23,539.82 1371.4,539.82 1359.5,538.5C 1361.57,537.094 1363.73,535.76 1366,534.5C 1366.67,522.833 1366.67,511.167 1366,499.5C 1364.56,497.845 1362.72,497.178 1360.5,497.5C 1360.5,496.5 1360.5,495.5 1360.5,494.5 Z"/></g>
<g><path style="opacity:1" fill="#130d0d" d="M 698.5,494.5 C 723.832,495.665 749.165,495.831 774.5,495C 775.464,499.066 775.797,503.233 775.5,507.5C 774.167,507.5 772.833,507.5 771.5,507.5C 771.787,499.125 767.787,495.792 759.5,497.5C 759.333,509.505 759.5,521.505 760,533.5C 760.374,534.416 760.874,535.25 761.5,536C 763.619,536.098 765.286,536.931 766.5,538.5C 759.866,539.497 753.2,539.83 746.5,539.5C 746.5,538.5 746.5,537.5 746.5,536.5C 748.467,536.739 750.301,536.406 752,535.5C 752.5,522.838 752.667,510.171 752.5,497.5C 744.824,496.009 740.824,499.175 740.5,507C 737.854,507.497 735.187,507.664 732.5,507.5C 732.787,499.125 728.787,495.792 720.5,497.5C 720.333,509.505 720.5,521.505 721,533.5C 721.374,534.416 721.874,535.25 722.5,536C 724.619,536.098 726.286,536.931 727.5,538.5C 720.866,539.497 714.2,539.83 707.5,539.5C 707.5,538.5 707.5,537.5 707.5,536.5C 709.467,536.739 711.301,536.406 713,535.5C 713.5,522.838 713.667,510.171 713.5,497.5C 706,495.834 702.167,498.834 702,506.5C 700.644,507.38 699.144,507.714 697.5,507.5C 697.231,503.069 697.564,498.735 698.5,494.5 Z"/></g>
<g><path style="opacity:1" fill="#110c0c" d="M 1186.5,494.5 C 1199.17,494.5 1211.83,494.5 1224.5,494.5C 1224.5,498.833 1224.5,503.167 1224.5,507.5C 1223.18,507.67 1222.01,507.337 1221,506.5C 1220.83,498.834 1217,495.834 1209.5,497.5C 1209.33,510.171 1209.5,522.838 1210,535.5C 1211.7,536.406 1213.53,536.739 1215.5,536.5C 1215.5,537.5 1215.5,538.5 1215.5,539.5C 1208.8,539.83 1202.13,539.497 1195.5,538.5C 1196.71,536.931 1198.38,536.098 1200.5,536C 1201.13,535.25 1201.63,534.416 1202,533.5C 1202.5,521.505 1202.67,509.505 1202.5,497.5C 1194.51,495.339 1190.34,498.339 1190,506.5C 1188.99,507.337 1187.82,507.67 1186.5,507.5C 1186.5,503.167 1186.5,498.833 1186.5,494.5 Z"/></g>
<g><path style="opacity:1" fill="#0d0808" d="M 1238.5,494.5 C 1250.84,494.333 1263.17,494.5 1275.5,495C 1276.46,499.066 1276.8,503.233 1276.5,507.5C 1275.17,507.5 1273.83,507.5 1272.5,507.5C 1272.46,499.468 1268.46,496.134 1260.5,497.5C 1260.33,509.838 1260.5,522.171 1261,534.5C 1262.44,536.155 1264.28,536.822 1266.5,536.5C 1266.5,537.5 1266.5,538.5 1266.5,539.5C 1260.17,539.5 1253.83,539.5 1247.5,539.5C 1247.5,538.5 1247.5,537.5 1247.5,536.5C 1249.72,536.822 1251.56,536.155 1253,534.5C 1253.5,522.171 1253.67,509.838 1253.5,497.5C 1245.55,496.115 1241.55,499.448 1241.5,507.5C 1240.17,507.5 1238.83,507.5 1237.5,507.5C 1237.23,503.069 1237.56,498.735 1238.5,494.5 Z"/></g>
<g><path style="opacity:1" fill="#654345" d="M 633.5,497.5 C 633.5,502.833 633.5,508.167 633.5,513.5C 636.167,513.5 638.833,513.5 641.5,513.5C 638.713,514.477 635.713,514.81 632.5,514.5C 632.178,508.642 632.511,502.975 633.5,497.5 Z"/></g>
<g><path style="opacity:1" fill="#f7a2a7" d="M 633.5,497.5 C 643.157,495.992 647.323,499.992 646,509.5C 645.252,511.751 643.752,513.084 641.5,513.5C 638.833,513.5 636.167,513.5 633.5,513.5C 633.5,508.167 633.5,502.833 633.5,497.5 Z"/></g>
<g><path style="opacity:1" fill="#f8a3a8" d="M 830.5,497.5 C 835.08,497.113 839.414,497.947 843.5,500C 847.636,505.314 847.302,510.314 842.5,515C 838.3,516.367 833.967,516.867 829.5,516.5C 829.209,510.077 829.542,503.744 830.5,497.5 Z"/></g>
<g><path style="opacity:1" fill="#a96f72" d="M 1311.5,506.5 C 1310.51,515.652 1310.17,524.985 1310.5,534.5C 1309.34,524.342 1309.17,514.008 1310,503.5C 1310.51,504.527 1311.01,505.527 1311.5,506.5 Z"/></g>
<g><path style="opacity:1" fill="#faa5aa" d="M 633.5,517.5 C 639.652,516.408 644.818,518.075 649,522.5C 650.216,533.949 645.216,538.282 634,535.5C 633.501,529.509 633.334,523.509 633.5,517.5 Z"/></g>
<g><path style="opacity:1" fill="#7c5254" d="M 1013.5,518.5 C 1012.51,523.305 1012.18,528.305 1012.5,533.5C 1011.19,528.32 1011.19,522.986 1012.5,517.5C 1013.11,517.624 1013.44,517.957 1013.5,518.5 Z"/></g>
<g><path style="opacity:1" fill="#a86e71" d="M 1068.5,505.5 C 1067.51,514.986 1067.17,524.652 1067.5,534.5C 1066.34,524.342 1066.17,514.008 1067,503.5C 1067.72,504.044 1068.22,504.711 1068.5,505.5 Z"/></g>
<g><path style="opacity:1" fill="#fcdfd3" d="M 331.5,571.5 C 455.5,571.333 579.5,571.5 703.5,572C 743.574,578.742 768.074,601.908 777,641.5C 781.27,683.472 764.77,713.972 727.5,733C 719.732,735.942 711.732,737.942 703.5,739C 576.465,739.991 449.465,739.658 322.5,738C 288.927,728.76 267.76,707.26 259,673.5C 252.866,627.257 271.033,594.757 313.5,576C 319.553,574.153 325.553,572.653 331.5,571.5 Z"/></g>
<g><path style="opacity:1" fill="#0a0908" d="M 331.5,620.5 C 359.955,620.121 373.788,634.121 373,662.5C 369.727,678.441 360.227,688.607 344.5,693C 324.791,695.395 311.625,687.228 305,668.5C 300.551,645.058 309.384,629.058 331.5,620.5 Z"/></g>
<g><path style="opacity:1" fill="#090807" d="M 560.5,620.5 C 590.68,619.845 604.513,634.512 602,664.5C 595.919,685.896 581.753,695.396 559.5,693C 539.356,685.569 530.856,671.069 534,649.5C 537.465,634.871 546.298,625.204 560.5,620.5 Z"/></g>
<g><path style="opacity:1" fill="#0a0908" d="M 699.5,620.5 C 708.284,619.647 716.618,621.147 724.5,625C 729.833,630.667 729.833,636.333 724.5,642C 720.558,644.507 717.225,644.007 714.5,640.5C 721.098,635.673 721.098,630.84 714.5,626C 706.105,622.619 699.605,624.786 695,632.5C 693.953,640.142 697.119,645.309 704.5,648C 711.446,650.806 718.112,654.139 724.5,658C 735.434,668.808 735.101,679.141 723.5,689C 712.294,694.542 700.961,694.876 689.5,690C 684.084,685.754 682.251,680.254 684,673.5C 688.032,669.073 692.532,668.406 697.5,671.5C 691.484,678.912 692.817,684.746 701.5,689C 710.666,691 717.166,687.833 721,679.5C 722.445,674.277 720.945,670.11 716.5,667C 707.617,662.708 698.95,658.041 690.5,653C 680.101,638.296 683.101,627.463 699.5,620.5 Z"/></g>
<g><path style="opacity:1" fill="#010101" d="M 498.5,622.5 C 508.5,622.5 518.5,622.5 528.5,622.5C 528.5,623.833 528.5,625.167 528.5,626.5C 524.112,625.943 520.945,627.61 519,631.5C 518.333,648.5 518.333,665.5 519,682.5C 520.701,686.875 523.867,688.542 528.5,687.5C 528.5,688.833 528.5,690.167 528.5,691.5C 518.5,691.5 508.5,691.5 498.5,691.5C 498.5,690.167 498.5,688.833 498.5,687.5C 502.426,687.953 505.592,686.62 508,683.5C 508.667,665.833 508.667,648.167 508,630.5C 505.592,627.38 502.426,626.047 498.5,626.5C 498.5,625.167 498.5,623.833 498.5,622.5 Z"/></g>
<g><path style="opacity:1" fill="#080606" d="M 607.5,622.5 C 618.474,620.442 627.308,623.775 634,632.5C 644,645.833 654,659.167 664,672.5C 664.667,658.167 664.667,643.833 664,629.5C 661.358,626.971 658.192,625.971 654.5,626.5C 654.33,625.178 654.663,624.011 655.5,623C 663.167,622.333 670.833,622.333 678.5,623C 679.337,624.011 679.67,625.178 679.5,626.5C 675.406,625.705 672.239,627.038 670,630.5C 669.5,650.831 669.333,671.164 669.5,691.5C 666.956,691.896 664.789,691.229 663,689.5C 649.667,671.5 636.333,653.5 623,635.5C 622.333,651.5 622.333,667.5 623,683.5C 625.15,686.963 628.316,688.296 632.5,687.5C 632.67,688.822 632.337,689.989 631.5,691C 623.507,691.5 615.507,691.666 607.5,691.5C 607.5,690.167 607.5,688.833 607.5,687.5C 611.594,688.295 614.761,686.962 617,683.5C 617.667,665.833 617.667,648.167 617,630.5C 614.592,627.38 611.426,626.047 607.5,626.5C 607.5,625.167 607.5,623.833 607.5,622.5 Z"/></g>
<g><path style="opacity:1" fill="#0a0808" d="M 481.5,627.5 C 478.375,626.521 475.042,626.187 471.5,626.5C 471.17,645.674 471.503,664.674 472.5,683.5C 474.425,687.008 477.425,688.341 481.5,687.5C 481.5,688.833 481.5,690.167 481.5,691.5C 471.5,691.5 461.5,691.5 451.5,691.5C 451.5,690.167 451.5,688.833 451.5,687.5C 454.862,687.93 457.695,686.93 460,684.5C 460.5,665.17 460.667,645.836 460.5,626.5C 456.033,626.133 451.7,626.633 447.5,628C 444.385,631.936 442.552,636.436 442,641.5C 440.301,642.406 438.467,642.739 436.5,642.5C 434.563,653.941 427.896,661.108 416.5,664C 410.78,664.788 405.114,664.621 399.5,663.5C 398.336,670.142 398.169,676.808 399,683.5C 401.15,686.963 404.316,688.296 408.5,687.5C 408.67,688.822 408.337,689.989 407.5,691C 397.833,691.667 388.167,691.667 378.5,691C 377.663,689.989 377.33,688.822 377.5,687.5C 381.684,688.296 384.85,686.963 387,683.5C 387.667,665.833 387.667,648.167 387,630.5C 384.805,627.037 381.639,625.704 377.5,626.5C 377.33,625.178 377.663,624.011 378.5,623C 390.5,622.333 402.5,622.333 414.5,623C 421.366,623.951 427.533,626.451 433,630.5C 434,632.5 435,634.5 436,636.5C 436.197,631.914 436.697,627.414 437.5,623C 456.5,622.333 475.5,622.333 494.5,623C 495,623.5 495.5,624 496,624.5C 496.667,630.167 496.667,635.833 496,641.5C 494,642.833 492,642.833 490,641.5C 489.743,637.623 488.743,633.957 487,630.5C 485.736,628.393 483.903,627.393 481.5,627.5 Z"/></g>
<g><path style="opacity:1" fill="#fbded3" d="M 331.5,625.5 C 348.08,623.574 357.58,630.907 360,647.5C 361.123,657.853 359.789,667.853 356,677.5C 349.006,688.608 339.506,691.442 327.5,686C 321.516,680.867 318.016,674.367 317,666.5C 315.07,654.886 316.737,643.886 322,633.5C 324.772,630.217 327.939,627.55 331.5,625.5 Z"/></g>
<g><path style="opacity:1" fill="#faded2" d="M 560.5,625.5 C 575.737,623.238 585.237,629.572 589,644.5C 591.677,657.104 590.01,669.104 584,680.5C 576.575,688.86 567.742,690.693 557.5,686C 549.21,677.811 545.21,667.811 545.5,656C 545.113,642.942 550.113,632.776 560.5,625.5 Z"/></g>
<g><path style="opacity:1" fill="#f9dcd1" d="M 400.5,626.5 C 409.364,625.583 416.864,628.25 423,634.5C 426.317,653.686 418.15,662.019 398.5,659.5C 398.334,649.161 398.5,638.828 399,628.5C 399.717,627.956 400.217,627.289 400.5,626.5 Z"/></g>
<g><path style="opacity:1" fill="#c0aaa1" d="M 481.5,627.5 C 478.5,627.5 475.5,627.5 472.5,627.5C 472.5,646.167 472.5,664.833 472.5,683.5C 471.503,664.674 471.17,645.674 471.5,626.5C 475.042,626.187 478.375,626.521 481.5,627.5 Z"/></g>
<g><path style="opacity:1" fill="#151212" d="M 289.5,797.5 C 292.687,798.806 296.02,798.806 299.5,797.5C 299.376,796.893 299.043,796.56 298.5,796.5C 290.8,790.981 282.467,786.481 273.5,783C 272.594,781.301 272.261,779.467 272.5,777.5C 274.564,777.687 276.564,778.187 278.5,779C 285.711,782.852 293.044,786.519 300.5,790C 305.117,793.273 308.117,797.606 309.5,803C 309.01,805.503 307.677,807.503 305.5,809C 299.361,811.602 293.028,813.602 286.5,815C 282.5,817.333 278.5,819.667 274.5,822C 271.333,822.833 270.167,821.667 271,818.5C 278.11,811.393 286.61,806.893 296.5,805C 254.034,798.853 223.868,776.353 206,737.5C 196.607,716.473 192.607,694.473 194,671.5C 195.844,659.683 201.677,650.516 211.5,644C 216.142,642.968 217.308,644.468 215,648.5C 200.091,662.117 195.425,678.784 201,698.5C 206.323,734.686 223.49,763.519 252.5,785C 263.786,792.262 276.12,796.429 289.5,797.5 Z"/></g>
<g><path style="opacity:1" fill="#946265" d="M 404.5,750.5 C 508.526,750.015 612.526,750.515 716.5,752C 744.386,762.265 755.886,782.099 751,811.5C 744.951,832.551 731.117,844.718 709.5,848C 607.833,848.667 506.167,848.667 404.5,848C 380.072,840.832 367.072,824.499 365.5,799C 366.004,782.186 373.004,768.852 386.5,759C 392.198,755.316 398.198,752.482 404.5,750.5 Z"/></g>
<g><path style="opacity:1" fill="#0a0606" d="M 599.5,779.5 C 605.262,779.149 610.928,779.649 616.5,781C 622.219,784.592 622.886,788.926 618.5,794C 616.5,794.667 614.5,794.667 612.5,794C 612.043,793.586 611.709,793.086 611.5,792.5C 616.164,786.154 614.497,782.488 606.5,781.5C 599.293,782.871 594.793,787.205 593,794.5C 590.913,804.593 594.08,812.426 602.5,818C 606.167,818.667 609.833,818.667 613.5,818C 614.622,814.591 614.789,811.091 614,807.5C 611.824,807.012 609.991,806.012 608.5,804.5C 614.167,803.167 619.833,803.167 625.5,804.5C 624.009,806.012 622.176,807.012 620,807.5C 619.501,811.486 619.334,815.486 619.5,819.5C 594.066,826.55 583.233,817.216 587,791.5C 589.744,785.921 593.911,781.921 599.5,779.5 Z"/></g>
<g><path style="opacity:1" fill="#0e0909" d="M 392.5,780.5 C 400.507,780.334 408.507,780.5 416.5,781C 424.426,782.247 427.593,786.747 426,794.5C 424.098,799.4 420.598,802.567 415.5,804C 411.848,804.499 408.182,804.665 404.5,804.5C 404.334,808.514 404.501,812.514 405,816.5C 406.356,817.38 407.856,817.714 409.5,817.5C 409.5,818.5 409.5,819.5 409.5,820.5C 403.833,820.5 398.167,820.5 392.5,820.5C 392.5,819.5 392.5,818.5 392.5,817.5C 394.144,817.714 395.644,817.38 397,816.5C 397.832,805.485 397.666,794.485 396.5,783.5C 394.517,783.185 393.184,782.185 392.5,780.5 Z"/></g>
<g><path style="opacity:1" fill="#090505" d="M 470.5,779.5 C 474.422,779.069 477.922,780.069 481,782.5C 485.942,793.384 490.609,804.384 495,815.5C 496.11,817.037 497.61,817.703 499.5,817.5C 499.5,818.5 499.5,819.5 499.5,820.5C 493.794,820.829 488.128,820.495 482.5,819.5C 483.668,817.783 485.335,817.116 487.5,817.5C 487.6,814.333 486.933,811.333 485.5,808.5C 480.198,807.337 474.864,807.171 469.5,808C 467.596,810.877 466.596,814.044 466.5,817.5C 468.5,817.5 470.5,817.5 472.5,817.5C 472.5,818.5 472.5,819.5 472.5,820.5C 457.5,820.5 442.5,820.5 427.5,820.5C 427.5,819.5 427.5,818.5 427.5,817.5C 429.766,817.859 431.599,817.192 433,815.5C 433.667,805.167 433.667,794.833 433,784.5C 431.4,783.134 429.567,782.134 427.5,781.5C 433.5,780.167 439.5,780.167 445.5,781.5C 443.433,782.134 441.6,783.134 440,784.5C 439.18,795.41 439.347,806.243 440.5,817C 444.833,817.667 449.167,817.667 453.5,817C 454.786,814.978 455.786,812.811 456.5,810.5C 457.325,809.614 458.325,809.281 459.5,809.5C 459.187,812.247 459.52,814.914 460.5,817.5C 461.478,817.023 462.311,816.357 463,815.5C 466.61,806.003 470.61,796.669 475,787.5C 475.832,783.857 474.332,782.19 470.5,782.5C 470.5,781.5 470.5,780.5 470.5,779.5 Z"/></g>
<g><path style="opacity:1" fill="#0a0606" d="M 496.5,780.5 C 502.386,779.343 507.219,781.01 511,785.5C 513.333,790.167 515.667,794.833 518,799.5C 521.609,794.285 524.109,788.619 525.5,782.5C 524.022,782.762 522.689,782.429 521.5,781.5C 526.5,780.167 531.5,780.167 536.5,781.5C 533.737,782.104 531.403,783.438 529.5,785.5C 526.079,791.342 522.912,797.342 520,803.5C 519.333,807.833 519.333,812.167 520,816.5C 522.176,816.988 524.009,817.988 525.5,819.5C 519.537,820.496 513.537,820.829 507.5,820.5C 507.5,819.5 507.5,818.5 507.5,817.5C 509.766,817.859 511.599,817.192 513,815.5C 513.667,811.5 513.667,807.5 513,803.5C 510.333,798.167 507.667,792.833 505,787.5C 502.184,784.898 499.351,782.565 496.5,780.5 Z"/></g>
<g><path style="opacity:1" fill="#0c0707" d="M 556.5,779.5 C 560.422,779.069 563.922,780.069 567,782.5C 571.942,793.384 576.609,804.384 581,815.5C 582.11,817.037 583.61,817.703 585.5,817.5C 585.5,818.5 585.5,819.5 585.5,820.5C 579.794,820.829 574.128,820.495 568.5,819.5C 569.668,817.783 571.335,817.116 573.5,817.5C 573.6,814.333 572.933,811.333 571.5,808.5C 566.198,807.337 560.864,807.171 555.5,808C 553.596,810.877 552.596,814.044 552.5,817.5C 554.5,817.5 556.5,817.5 558.5,817.5C 558.5,818.5 558.5,819.5 558.5,820.5C 553.5,820.5 548.5,820.5 543.5,820.5C 543.5,819.5 543.5,818.5 543.5,817.5C 545.722,817.822 547.556,817.155 549,815.5C 552.61,806.003 556.61,796.669 561,787.5C 561.832,783.857 560.332,782.19 556.5,782.5C 556.5,781.5 556.5,780.5 556.5,779.5 Z"/></g>
<g><path style="opacity:1" fill="#080505" d="M 636.5,779.5 C 640.505,779.557 644.005,780.89 647,783.5C 651.472,794.582 656.138,805.582 661,816.5C 664.275,818.091 667.275,817.758 670,815.5C 670.667,805.167 670.667,794.833 670,784.5C 668.4,783.134 666.567,782.134 664.5,781.5C 670.5,780.167 676.5,780.167 682.5,781.5C 680.433,782.134 678.6,783.134 677,784.5C 676.333,795.167 676.333,805.833 677,816.5C 679.176,816.988 681.009,817.988 682.5,819.5C 671.186,820.499 659.853,820.832 648.5,820.5C 648.5,819.5 648.5,818.5 648.5,817.5C 650.167,817.5 651.833,817.5 653.5,817.5C 653.105,814.314 652.105,811.314 650.5,808.5C 645.198,807.337 639.864,807.171 634.5,808C 632.777,810.943 631.777,814.11 631.5,817.5C 633.5,817.5 635.5,817.5 637.5,817.5C 637.5,818.5 637.5,819.5 637.5,820.5C 632.5,820.5 627.5,820.5 622.5,820.5C 622.5,819.5 622.5,818.5 622.5,817.5C 624.722,817.822 626.556,817.155 628,815.5C 632,806.167 636,796.833 640,787.5C 640.781,786.056 640.614,784.723 639.5,783.5C 638.069,783.023 636.736,782.357 635.5,781.5C 635.863,780.817 636.196,780.15 636.5,779.5 Z"/></g>
<g><path style="opacity:1" fill="#0b0707" d="M 684.5,780.5 C 689.121,779.993 693.454,780.826 697.5,783C 704,791.5 710.5,800 717,808.5C 717.832,800.147 717.665,791.813 716.5,783.5C 715.069,783.023 713.736,782.357 712.5,781.5C 717.167,780.167 721.833,780.167 726.5,781.5C 724.433,782.134 722.6,783.134 721,784.5C 720.5,796.495 720.333,808.495 720.5,820.5C 719.178,820.67 718.011,820.337 717,819.5C 709.333,809.167 701.667,798.833 694,788.5C 693.333,797.833 693.333,807.167 694,816.5C 695.356,817.38 696.856,817.714 698.5,817.5C 698.5,818.5 698.5,819.5 698.5,820.5C 693.786,820.827 689.12,820.493 684.5,819.5C 686.805,818.769 688.638,817.436 690,815.5C 690.667,805.167 690.667,794.833 690,784.5C 688.559,783.74 687.059,783.074 685.5,782.5C 684.702,782.043 684.369,781.376 684.5,780.5 Z"/></g>
<g><path style="opacity:1" fill="#926063" d="M 405.5,782.5 C 415.534,781.393 420.034,785.726 419,795.5C 415.731,800.947 410.898,802.947 404.5,801.5C 404.209,795.077 404.542,788.744 405.5,782.5 Z"/></g>
<g><path style="opacity:1" fill="#885a5d" d="M 476.5,789.5 C 478.136,790.749 479.303,792.416 480,794.5C 481.674,798.021 482.84,801.687 483.5,805.5C 479.116,805.826 474.783,805.492 470.5,804.5C 472.79,799.591 474.79,794.591 476.5,789.5 Z"/></g>
<g><path style="opacity:1" fill="#885a5d" d="M 562.5,789.5 C 564.136,790.749 565.303,792.416 566,794.5C 567.674,798.021 568.84,801.687 569.5,805.5C 565.116,805.826 560.783,805.492 556.5,804.5C 558.79,799.591 560.79,794.591 562.5,789.5 Z"/></g>
<g><path style="opacity:1" fill="#885a5c" d="M 641.5,789.5 C 642.75,789.577 643.583,790.244 644,791.5C 646.013,796.037 647.513,800.704 648.5,805.5C 644.116,805.826 639.783,805.492 635.5,804.5C 637.901,799.624 639.901,794.624 641.5,789.5 Z"/></g>
<g><path style="opacity:1" fill="#7a5355" d="M 298.5,796.5 C 299.043,796.56 299.376,796.893 299.5,797.5C 296.02,798.806 292.687,798.806 289.5,797.5C 292.713,797.81 295.713,797.477 298.5,796.5 Z"/></g>
<g><path style="opacity:1" fill="#151212" d="M 338.5,818.5 C 340.977,818.051 342.977,818.717 344.5,820.5C 341.559,824.944 338.059,828.944 334,832.5C 326.881,844.549 324.547,857.549 327,871.5C 331.813,907.295 347.313,937.462 373.5,962C 390.535,976.347 410.202,983.014 432.5,982C 428.341,978.753 424.008,975.753 419.5,973C 414.221,971.027 409.221,968.527 404.5,965.5C 403.002,962.867 403.835,961.534 407,961.5C 418.368,965.85 429.034,971.517 439,978.5C 440.333,980.5 441.667,982.5 443,984.5C 444.292,988.627 443.125,991.794 439.5,994C 432.764,997.101 425.764,999.435 418.5,1001C 415.228,1002.61 412.228,1004.61 409.5,1007C 407.553,1007.99 405.553,1008.32 403.5,1008C 402.446,1006.61 402.28,1005.11 403,1003.5C 410.884,996.475 420.051,991.975 430.5,990C 375.71,981.885 340.877,951.052 326,897.5C 322.391,884.739 320.225,871.739 319.5,858.5C 319.432,841.975 325.765,828.642 338.5,818.5 Z"/></g>
<g><path style="opacity:1" fill="#82575a" d="M 535.5,902.5 C 671.5,902.333 807.5,902.5 943.5,903C 980.861,911.361 1004.03,934.194 1013,971.5C 1017.26,1010.49 1002.76,1039.99 969.5,1060C 959.639,1064.62 949.306,1067.62 938.5,1069C 803.465,1069.99 668.465,1069.66 533.5,1068C 491.706,1056.09 469.372,1028.43 466.5,985C 468.866,946.582 487.866,920.249 523.5,906C 527.709,905.119 531.709,903.953 535.5,902.5 Z"/></g>
<g><path style="opacity:1" fill="#ecbcbe" d="M 1596.5,934.5 C 1662.83,934.333 1729.17,934.5 1795.5,935C 1826.8,939.972 1846.3,957.805 1854,988.5C 1857.94,1029.81 1840.11,1056.31 1800.5,1068C 1733.53,1069.65 1666.53,1069.98 1599.5,1069C 1568.88,1063.38 1549.38,1045.54 1541,1015.5C 1536.74,972.625 1555.24,945.625 1596.5,934.5 Z"/></g>
<g><path style="opacity:1" fill="#090505" d="M 553.5,936.5 C 557.846,936.334 562.179,936.501 566.5,937C 572.019,938.504 574.186,942.004 573,947.5C 570.379,950.933 567.546,951.266 564.5,948.5C 568.021,946.056 568.355,943.222 565.5,940C 562.167,939.333 558.833,939.333 555.5,940C 551.895,943.315 551.561,946.982 554.5,951C 561.073,953.867 567.239,957.367 573,961.5C 578.172,970.93 575.672,977.43 565.5,981C 561.167,981.667 556.833,981.667 552.5,981C 545.773,978.836 543.773,974.503 546.5,968C 548.677,966.798 551.011,966.298 553.5,966.5C 549.729,975.447 552.729,979.613 562.5,979C 568.155,977.125 569.989,973.292 568,967.5C 562.999,963.597 557.499,960.431 551.5,958C 546.789,953.86 545.289,948.694 547,942.5C 549.063,940.266 551.229,938.266 553.5,936.5 Z"/></g>
<g><path style="opacity:1" fill="#080505" d="M 823.5,936.5 C 829.262,936.149 834.928,936.649 840.5,938C 846.455,940.573 847.955,944.739 845,950.5C 841.96,952.934 838.794,953.1 835.5,951C 840.403,947.728 840.737,944.061 836.5,940C 827.026,937.445 820.859,940.945 818,950.5C 816.603,958.231 817.603,965.564 821,972.5C 825.701,978.41 831.534,979.91 838.5,977C 841.102,974.869 843.768,973.035 846.5,971.5C 844.098,979.195 838.765,982.528 830.5,981.5C 819.424,981.589 812.59,976.256 810,965.5C 807.021,952.133 811.521,942.466 823.5,936.5 Z"/></g>
<g><path style="opacity:1" fill="#090505" d="M 588.5,937.5 C 593.447,936.628 597.613,937.961 601,941.5C 605.667,952.833 610.333,964.167 615,975.5C 618.369,978.091 621.703,978.091 625,975.5C 625.667,964.167 625.667,952.833 625,941.5C 622.824,941.012 620.991,940.012 619.5,938.5C 624.994,936.642 629.827,937.642 634,941.5C 638.244,950.986 642.744,960.32 647.5,969.5C 652.104,959.29 656.438,948.957 660.5,938.5C 665.167,937.167 669.833,937.167 674.5,938.5C 673.009,940.012 671.176,941.012 669,941.5C 668.333,953.167 668.333,964.833 669,976.5C 671.176,976.988 673.009,977.988 674.5,979.5C 668.202,980.496 661.868,980.83 655.5,980.5C 655.5,979.5 655.5,978.5 655.5,977.5C 657.722,977.822 659.556,977.155 661,975.5C 661.667,965.5 661.667,955.5 661,945.5C 655.999,957.006 651.499,968.673 647.5,980.5C 646.178,980.67 645.011,980.337 644,979.5C 639,968.167 634,956.833 629,945.5C 628.333,955.5 628.333,965.5 629,975.5C 630.444,977.155 632.278,977.822 634.5,977.5C 634.5,978.5 634.5,979.5 634.5,980.5C 623.48,980.832 612.48,980.499 601.5,979.5C 603.766,978.284 605.766,976.784 607.5,975C 606.528,972.889 605.695,970.722 605,968.5C 602.276,967.224 599.276,966.558 596,966.5C 593.167,966.667 590.333,966.833 587.5,967C 585.387,970.173 584.387,973.673 584.5,977.5C 586.5,977.5 588.5,977.5 590.5,977.5C 590.5,978.5 590.5,979.5 590.5,980.5C 585.167,980.5 579.833,980.5 574.5,980.5C 574.5,979.5 574.5,978.5 574.5,977.5C 576.722,977.822 578.556,977.155 580,975.5C 585.65,964.212 590.15,952.545 593.5,940.5C 590.715,941.084 589.048,940.084 588.5,937.5 Z"/></g>
<g><path style="opacity:1" fill="#080505" d="M 676.5,937.5 C 687.172,937.333 697.839,937.5 708.5,938C 709.46,941.73 709.793,945.563 709.5,949.5C 708.167,949.5 706.833,949.5 705.5,949.5C 705.497,946.325 704.497,943.492 702.5,941C 698.179,940.501 693.846,940.334 689.5,940.5C 689.5,946.167 689.5,951.833 689.5,957.5C 693.833,957.5 698.167,957.5 702.5,957.5C 702.5,958.5 702.5,959.5 702.5,960.5C 698.167,960.5 693.833,960.5 689.5,960.5C 689.215,965.897 689.549,971.23 690.5,976.5C 695.131,977.662 699.798,977.828 704.5,977C 706.08,974.061 707.747,971.228 709.5,968.5C 710.991,969.348 711.658,970.681 711.5,972.5C 710.905,975.14 710.572,977.807 710.5,980.5C 699.147,980.832 687.814,980.499 676.5,979.5C 677.991,977.988 679.824,976.988 682,976.5C 682.667,964.833 682.667,953.167 682,941.5C 680.601,940.773 679.101,940.273 677.5,940C 676.748,939.329 676.414,938.496 676.5,937.5 Z"/></g>
<g><path style="opacity:1" fill="#070404" d="M 725.5,937.5 C 735.224,937.141 744.891,937.641 754.5,939C 766.982,944.802 771.149,954.302 767,967.5C 763.824,974.669 758.324,978.836 750.5,980C 742.173,980.5 733.84,980.666 725.5,980.5C 725.5,979.5 725.5,978.5 725.5,977.5C 727.766,977.859 729.599,977.192 731,975.5C 731.667,964.167 731.667,952.833 731,941.5C 729.301,940.594 727.467,940.261 725.5,940.5C 725.5,939.5 725.5,938.5 725.5,937.5 Z"/></g>
<g><path style="opacity:1" fill="#080505" d="M 771.5,937.5 C 782.172,937.333 792.839,937.5 803.5,938C 804.46,941.73 804.793,945.563 804.5,949.5C 803.167,949.5 801.833,949.5 800.5,949.5C 800.497,946.325 799.497,943.492 797.5,941C 793.179,940.501 788.846,940.334 784.5,940.5C 784.5,946.167 784.5,951.833 784.5,957.5C 788.833,957.5 793.167,957.5 797.5,957.5C 797.5,958.5 797.5,959.5 797.5,960.5C 793.167,960.5 788.833,960.5 784.5,960.5C 784.215,965.897 784.549,971.23 785.5,976.5C 790.131,977.662 794.798,977.828 799.5,977C 801.08,974.061 802.747,971.228 804.5,968.5C 805.991,969.348 806.658,970.681 806.5,972.5C 805.905,975.14 805.572,977.807 805.5,980.5C 794.147,980.832 782.814,980.499 771.5,979.5C 772.991,977.988 774.824,976.988 777,976.5C 777.667,964.833 777.667,953.167 777,941.5C 775.601,940.773 774.101,940.273 772.5,940C 771.748,939.329 771.414,938.496 771.5,937.5 Z"/></g>
<g><path style="opacity:1" fill="#060303" d="M 849.5,937.5 C 855.5,937.5 861.5,937.5 867.5,937.5C 867.5,938.5 867.5,939.5 867.5,940.5C 865.278,940.178 863.444,940.845 862,942.5C 861.171,947.533 861.338,952.533 862.5,957.5C 868.48,953.354 873.646,948.354 878,942.5C 877.848,940.924 877.015,939.591 875.5,938.5C 880.792,937.505 886.125,937.172 891.5,937.5C 891.5,938.5 891.5,939.5 891.5,940.5C 888.68,940.248 886.014,940.748 883.5,942C 878.651,946.681 873.985,951.515 869.5,956.5C 875.351,962.517 881.017,968.683 886.5,975C 888.441,976.903 890.774,977.736 893.5,977.5C 893.5,978.5 893.5,979.5 893.5,980.5C 889.445,980.824 885.445,980.491 881.5,979.5C 875.62,972.409 869.286,965.742 862.5,959.5C 861.337,964.802 861.171,970.136 862,975.5C 863.444,977.155 865.278,977.822 867.5,977.5C 867.5,978.5 867.5,979.5 867.5,980.5C 861.5,980.5 855.5,980.5 849.5,980.5C 849.5,979.5 849.5,978.5 849.5,977.5C 851.722,977.822 853.556,977.155 855,975.5C 855.667,964.5 855.667,953.5 855,942.5C 853.556,940.845 851.722,940.178 849.5,940.5C 849.5,939.5 849.5,938.5 849.5,937.5 Z"/></g>
<g><path style="opacity:1" fill="#815659" d="M 738.5,939.5 C 755.136,939.638 762.303,947.972 760,964.5C 757.546,976.231 750.546,980.231 739,976.5C 738.5,964.171 738.333,951.838 738.5,939.5 Z"/></g>
<g><path style="opacity:1" fill="#7e5457" d="M 595.5,946.5 C 598.198,951.566 600.532,956.9 602.5,962.5C 598.217,963.492 593.884,963.826 589.5,963.5C 591.214,957.737 593.214,952.07 595.5,946.5 Z"/></g>
<g><path style="opacity:1" fill="#050303" d="M 500.5,950.5 C 510.156,949.042 514.989,953.042 515,962.5C 512.528,969.321 507.694,971.821 500.5,970C 492.551,963.453 492.551,956.953 500.5,950.5 Z"/></g>
<g><path style="opacity:1" fill="#060505" d="M 1576.5,974.5 C 1584.5,974.5 1592.5,974.5 1600.5,974.5C 1600.5,975.5 1600.5,976.5 1600.5,977.5C 1597.35,976.959 1594.85,977.959 1593,980.5C 1592.33,994.833 1592.33,1009.17 1593,1023.5C 1593.5,1024 1594,1024.5 1594.5,1025C 1600.17,1025.67 1605.83,1025.67 1611.5,1025C 1613.76,1022.23 1615.26,1019.06 1616,1015.5C 1617.36,1014.62 1618.86,1014.29 1620.5,1014.5C 1620.44,1019.45 1619.77,1024.29 1618.5,1029C 1604.5,1029.5 1590.5,1029.67 1576.5,1029.5C 1576.5,1028.5 1576.5,1027.5 1576.5,1026.5C 1580.5,1026.93 1583,1025.26 1584,1021.5C 1584.67,1008.17 1584.67,994.833 1584,981.5C 1582.46,978.479 1579.96,977.146 1576.5,977.5C 1576.5,976.5 1576.5,975.5 1576.5,974.5 Z"/></g>
<g><path style="opacity:1" fill="#0b0909" d="M 1652.5,978.5 C 1647.69,977.513 1642.69,977.179 1637.5,977.5C 1637.5,985.167 1637.5,992.833 1637.5,1000.5C 1643.17,1000.5 1648.83,1000.5 1654.5,1000.5C 1655.4,1001.21 1655.74,1002.21 1655.5,1003.5C 1649.83,1003.5 1644.17,1003.5 1638.5,1003.5C 1638.33,1010.17 1638.5,1016.84 1639,1023.5C 1639.31,1024.31 1639.81,1024.97 1640.5,1025.5C 1646.2,1026.9 1651.87,1026.73 1657.5,1025C 1659.38,1022.06 1660.88,1018.89 1662,1015.5C 1664.48,1013.94 1665.98,1014.6 1666.5,1017.5C 1665.73,1020.11 1665.4,1022.78 1665.5,1025.5C 1667.47,1025.74 1669.3,1025.41 1671,1024.5C 1677.19,1010.92 1683.19,997.25 1689,983.5C 1689.72,981.888 1689.55,980.388 1688.5,979C 1686.56,978.187 1684.56,977.687 1682.5,977.5C 1682.5,976.5 1682.5,975.5 1682.5,974.5C 1687.73,973.835 1692.57,974.835 1697,977.5C 1703.92,993.021 1710.59,1008.69 1717,1024.5C 1718.58,1025.86 1720.42,1026.53 1722.5,1026.5C 1722.5,1027.5 1722.5,1028.5 1722.5,1029.5C 1714.83,1029.5 1707.17,1029.5 1699.5,1029.5C 1699.35,1028.45 1699.52,1027.45 1700,1026.5C 1701.73,1025.75 1703.57,1025.25 1705.5,1025C 1706.06,1024.28 1706.39,1023.44 1706.5,1022.5C 1705.48,1019.14 1704.48,1015.81 1703.5,1012.5C 1695.8,1012.17 1688.14,1012.5 1680.5,1013.5C 1678.27,1017.2 1677.27,1021.2 1677.5,1025.5C 1679.86,1025.34 1682.19,1025.5 1684.5,1026C 1685.34,1027.01 1685.67,1028.18 1685.5,1029.5C 1664.17,1029.5 1642.83,1029.5 1621.5,1029.5C 1621.33,1028.18 1621.66,1027.01 1622.5,1026C 1625.01,1025.91 1627.17,1025.07 1629,1023.5C 1629.67,1009.17 1629.67,994.833 1629,980.5C 1627.15,977.959 1624.65,976.959 1621.5,977.5C 1621.5,976.5 1621.5,975.5 1621.5,974.5C 1635.17,974.333 1648.84,974.5 1662.5,975C 1663.63,979.748 1663.8,984.581 1663,989.5C 1661.67,990.833 1660.33,990.833 1659,989.5C 1658.75,986.246 1657.75,983.246 1656,980.5C 1655.18,979.177 1654.02,978.511 1652.5,978.5 Z"/></g>
<g><path style="opacity:1" fill="#080607" d="M 1804.5,978.5 C 1800.03,977.514 1795.36,977.181 1790.5,977.5C 1790.5,985.167 1790.5,992.833 1790.5,1000.5C 1796.17,1000.5 1801.83,1000.5 1807.5,1000.5C 1807.5,1001.5 1807.5,1002.5 1807.5,1003.5C 1801.83,1003.5 1796.17,1003.5 1790.5,1003.5C 1790.18,1010.35 1790.51,1017.02 1791.5,1023.5C 1791.61,1024.12 1791.94,1024.62 1792.5,1025C 1798.17,1025.67 1803.83,1025.67 1809.5,1025C 1812.01,1022.33 1813.68,1019.16 1814.5,1015.5C 1816.83,1014 1818.5,1014.5 1819.5,1017C 1818.39,1021.01 1817.39,1025.01 1816.5,1029C 1802.5,1029.5 1788.5,1029.67 1774.5,1029.5C 1774.5,1028.5 1774.5,1027.5 1774.5,1026.5C 1778.5,1026.93 1781,1025.26 1782,1021.5C 1782.67,1008.17 1782.67,994.833 1782,981.5C 1781.53,980.069 1780.7,978.903 1779.5,978C 1772.38,976.142 1767.55,978.642 1765,985.5C 1759.32,1000.37 1754.16,1015.37 1749.5,1030.5C 1747.83,1030.5 1746.17,1030.5 1744.5,1030.5C 1739.23,1013.52 1733.06,996.855 1726,980.5C 1724.45,979.034 1722.61,978.034 1720.5,977.5C 1719.61,976.675 1719.28,975.675 1719.5,974.5C 1725.65,973.408 1730.82,975.075 1735,979.5C 1739.94,991.494 1744.77,1003.49 1749.5,1015.5C 1754.13,1003.79 1758.46,991.958 1762.5,980C 1762.36,979.228 1762.02,978.561 1761.5,978C 1759.53,977.505 1757.53,977.338 1755.5,977.5C 1755.5,976.5 1755.5,975.5 1755.5,974.5C 1775.5,974.5 1795.5,974.5 1815.5,974.5C 1815.5,979.833 1815.5,985.167 1815.5,990.5C 1813.86,990.714 1812.36,990.38 1811,989.5C 1810.8,986.308 1809.97,983.308 1808.5,980.5C 1807.42,979.295 1806.09,978.628 1804.5,978.5 Z"/></g>
<g><path style="opacity:1" fill="#5d4a4b" d="M 1652.5,978.5 C 1647.83,978.5 1643.17,978.5 1638.5,978.5C 1638.5,985.5 1638.5,992.5 1638.5,999.5C 1644.03,999.179 1649.36,999.512 1654.5,1000.5C 1648.83,1000.5 1643.17,1000.5 1637.5,1000.5C 1637.5,992.833 1637.5,985.167 1637.5,977.5C 1642.69,977.179 1647.69,977.513 1652.5,978.5 Z"/></g>
<g><path style="opacity:1" fill="#9e7e80" d="M 1804.5,978.5 C 1800.17,978.5 1795.83,978.5 1791.5,978.5C 1791.5,985.5 1791.5,992.5 1791.5,999.5C 1797.03,999.179 1802.36,999.512 1807.5,1000.5C 1801.83,1000.5 1796.17,1000.5 1790.5,1000.5C 1790.5,992.833 1790.5,985.167 1790.5,977.5C 1795.36,977.181 1800.03,977.514 1804.5,978.5 Z"/></g>
<g><path style="opacity:1" fill="#e1b4b6" d="M 1691.5,986.5 C 1695.55,993.291 1698.55,1000.62 1700.5,1008.5C 1694.46,1008.83 1688.46,1008.5 1682.5,1007.5C 1685.7,1000.55 1688.7,993.553 1691.5,986.5 Z"/></g>
<g><path style="opacity:1" fill="#080505" d="M 559.5,991.5 C 565.262,991.149 570.928,991.649 576.5,993C 582.455,995.573 583.955,999.739 581,1005.5C 577.96,1007.93 574.794,1008.1 571.5,1006C 576.403,1002.73 576.737,999.061 572.5,995C 563.026,992.445 556.859,995.945 554,1005.5C 552.603,1013.23 553.603,1020.56 557,1027.5C 561.701,1033.41 567.534,1034.91 574.5,1032C 577.102,1029.87 579.768,1028.04 582.5,1026.5C 580.098,1034.19 574.765,1037.53 566.5,1036.5C 555.424,1036.59 548.59,1031.26 546,1020.5C 543.021,1007.13 547.521,997.466 559.5,991.5 Z"/></g>
<g><path style="opacity:1" fill="#060303" d="M 738.5,991.5 C 744.245,991.211 749.912,991.711 755.5,993C 760.069,995.541 761.569,999.375 760,1004.5C 757.04,1007.97 753.874,1008.3 750.5,1005.5C 754.927,1000.8 754.26,996.965 748.5,994C 738.801,993.285 732.968,997.785 731,1007.5C 728.791,1016.63 730.958,1024.46 737.5,1031C 741.894,1033.37 746.56,1034.04 751.5,1033C 752.733,1031.3 753.4,1029.3 753.5,1027C 753.333,1025.17 753.167,1023.33 753,1021.5C 750.824,1021.01 748.991,1020.01 747.5,1018.5C 753.5,1017.17 759.5,1017.17 765.5,1018.5C 764.009,1020.01 762.176,1021.01 760,1021.5C 759.8,1025.75 759.3,1029.92 758.5,1034C 732.375,1041.86 720.875,1032.36 724,1005.5C 726.832,998.684 731.665,994.017 738.5,991.5 Z"/></g>
<g><path style="opacity:1" fill="#060404" d="M 913.5,991.5 C 920.042,990.989 926.376,991.822 932.5,994C 936.5,998.333 936.5,1002.67 932.5,1007C 929.947,1007.85 927.614,1007.52 925.5,1006C 930.572,999.222 928.905,995.056 920.5,993.5C 913.25,994.915 908.75,999.249 907,1006.5C 904.465,1017.92 907.965,1026.76 917.5,1033C 921.295,1033.84 924.961,1033.5 928.5,1032C 930.35,1029.98 932.35,1028.15 934.5,1026.5C 936.101,1027.03 936.601,1028.03 936,1029.5C 929.894,1036.09 922.394,1038.26 913.5,1036C 902.998,1032.01 897.998,1024.35 898.5,1013C 899.187,1002.78 904.187,995.618 913.5,991.5 Z"/></g>
<g><path style="opacity:1" fill="#080505" d="M 584.5,992.5 C 590.833,992.5 597.167,992.5 603.5,992.5C 603.5,993.5 603.5,994.5 603.5,995.5C 601.278,995.178 599.444,995.845 598,997.5C 597.501,1002.49 597.334,1007.49 597.5,1012.5C 604.5,1012.5 611.5,1012.5 618.5,1012.5C 618.666,1007.16 618.499,1001.82 618,996.5C 615.824,996.012 613.991,995.012 612.5,993.5C 618.798,992.504 625.132,992.17 631.5,992.5C 631.5,993.5 631.5,994.5 631.5,995.5C 629.278,995.178 627.444,995.845 626,997.5C 625.333,1008.5 625.333,1019.5 626,1030.5C 629.333,1033.17 632.667,1033.17 636,1030.5C 641.65,1019.21 646.15,1007.55 649.5,995.5C 647.335,995.884 645.668,995.217 644.5,993.5C 649.394,991.629 653.561,992.629 657,996.5C 661.667,1007.83 666.333,1019.17 671,1030.5C 674.369,1033.09 677.703,1033.09 681,1030.5C 681.667,1019.17 681.667,1007.83 681,996.5C 678.824,996.012 676.991,995.012 675.5,993.5C 679.55,992.227 683.55,992.394 687.5,994C 695.333,1003.83 703.167,1013.67 711,1023.5C 711.667,1014.83 711.667,1006.17 711,997.5C 709.556,995.845 707.722,995.178 705.5,995.5C 705.5,994.5 705.5,993.5 705.5,992.5C 710.5,992.5 715.5,992.5 720.5,992.5C 720.5,993.5 720.5,994.5 720.5,995.5C 718.533,995.261 716.699,995.594 715,996.5C 714.5,1009.5 714.333,1022.5 714.5,1035.5C 713.022,1035.76 711.689,1035.43 710.5,1034.5C 702.192,1023.03 693.692,1011.69 685,1000.5C 684.333,1010.5 684.333,1020.5 685,1030.5C 686.444,1032.16 688.278,1032.82 690.5,1032.5C 690.5,1033.5 690.5,1034.5 690.5,1035.5C 679.48,1035.83 668.48,1035.5 657.5,1034.5C 659.766,1033.28 661.766,1031.78 663.5,1030C 662.528,1027.89 661.695,1025.72 661,1023.5C 658.276,1022.22 655.276,1021.56 652,1021.5C 649.167,1021.67 646.333,1021.83 643.5,1022C 641.387,1025.17 640.387,1028.67 640.5,1032.5C 642.5,1032.5 644.5,1032.5 646.5,1032.5C 646.5,1033.5 646.5,1034.5 646.5,1035.5C 635.147,1035.83 623.814,1035.5 612.5,1034.5C 613.991,1032.99 615.824,1031.99 618,1031.5C 618.499,1026.18 618.666,1020.84 618.5,1015.5C 611.5,1015.5 604.5,1015.5 597.5,1015.5C 597.334,1020.51 597.501,1025.51 598,1030.5C 599.444,1032.16 601.278,1032.82 603.5,1032.5C 603.5,1033.5 603.5,1034.5 603.5,1035.5C 597.132,1035.83 590.798,1035.5 584.5,1034.5C 585.991,1032.99 587.824,1031.99 590,1031.5C 590.667,1019.83 590.667,1008.17 590,996.5C 588.601,995.773 587.101,995.273 585.5,995C 584.748,994.329 584.414,993.496 584.5,992.5 Z"/></g>
<g><path style="opacity:1" fill="#040203" d="M 766.5,992.5 C 776.839,992.334 787.172,992.5 797.5,993C 798.46,996.73 798.793,1000.56 798.5,1004.5C 797.167,1004.5 795.833,1004.5 794.5,1004.5C 794.93,1001.14 793.93,998.305 791.5,996C 787.179,995.501 782.846,995.334 778.5,995.5C 778.5,1001.17 778.5,1006.83 778.5,1012.5C 782.833,1012.5 787.167,1012.5 791.5,1012.5C 791.5,1013.5 791.5,1014.5 791.5,1015.5C 787.167,1015.5 782.833,1015.5 778.5,1015.5C 778.334,1020.51 778.501,1025.51 779,1030.5C 779.5,1031 780,1031.5 780.5,1032C 784.833,1032.67 789.167,1032.67 793.5,1032C 795.604,1029.96 796.771,1027.46 797,1024.5C 798.011,1023.66 799.178,1023.33 800.5,1023.5C 800.354,1027.52 800.021,1031.52 799.5,1035.5C 788.5,1035.5 777.5,1035.5 766.5,1035.5C 766.5,1034.5 766.5,1033.5 766.5,1032.5C 768.722,1032.82 770.556,1032.16 772,1030.5C 772.667,1019.5 772.667,1008.5 772,997.5C 770.556,995.845 768.722,995.178 766.5,995.5C 766.5,994.5 766.5,993.5 766.5,992.5 Z"/></g>
<g><path style="opacity:1" fill="#070404" d="M 815.5,992.5 C 824.173,992.334 832.84,992.5 841.5,993C 857.184,999.201 861.684,1010.03 855,1025.5C 851.32,1030.27 846.487,1033.43 840.5,1035C 832.173,1035.5 823.84,1035.67 815.5,1035.5C 815.5,1034.5 815.5,1033.5 815.5,1032.5C 817.722,1032.82 819.556,1032.16 821,1030.5C 821.667,1019.5 821.667,1008.5 821,997.5C 819.556,995.845 817.722,995.178 815.5,995.5C 815.5,994.5 815.5,993.5 815.5,992.5 Z"/></g>
<g><path style="opacity:1" fill="#040203" d="M 861.5,992.5 C 871.839,992.334 882.172,992.5 892.5,993C 893.46,996.73 893.793,1000.56 893.5,1004.5C 892.167,1004.5 890.833,1004.5 889.5,1004.5C 889.93,1001.14 888.93,998.305 886.5,996C 882.179,995.501 877.846,995.334 873.5,995.5C 873.5,1001.17 873.5,1006.83 873.5,1012.5C 877.833,1012.5 882.167,1012.5 886.5,1012.5C 886.5,1013.5 886.5,1014.5 886.5,1015.5C 882.167,1015.5 877.833,1015.5 873.5,1015.5C 873.334,1020.51 873.501,1025.51 874,1030.5C 874.5,1031 875,1031.5 875.5,1032C 879.833,1032.67 884.167,1032.67 888.5,1032C 890.604,1029.96 891.771,1027.46 892,1024.5C 893.011,1023.66 894.178,1023.33 895.5,1023.5C 895.354,1027.52 895.021,1031.52 894.5,1035.5C 883.5,1035.5 872.5,1035.5 861.5,1035.5C 861.5,1034.5 861.5,1033.5 861.5,1032.5C 863.722,1032.82 865.556,1032.16 867,1030.5C 867.667,1019.5 867.667,1008.5 867,997.5C 865.556,995.845 863.722,995.178 861.5,995.5C 861.5,994.5 861.5,993.5 861.5,992.5 Z"/></g>
<g><path style="opacity:1" fill="#090506" d="M 938.5,992.5 C 944.868,992.17 951.202,992.504 957.5,993.5C 956.009,995.012 954.176,996.012 952,996.5C 951.333,1001.83 951.333,1007.17 952,1012.5C 958.02,1007.98 963.187,1002.65 967.5,996.5C 966.147,995.476 965.48,994.143 965.5,992.5C 970.875,992.172 976.208,992.505 981.5,993.5C 981.291,994.086 980.957,994.586 980.5,995C 977.711,995.241 975.044,995.908 972.5,997C 967.651,1001.68 962.985,1006.51 958.5,1011.5C 964.985,1018.49 971.652,1025.32 978.5,1032C 979.793,1032.49 981.127,1032.66 982.5,1032.5C 982.5,1033.5 982.5,1034.5 982.5,1035.5C 978.818,1035.67 975.152,1035.5 971.5,1035C 965.31,1027.81 958.81,1020.98 952,1014.5C 951.333,1020.17 951.333,1025.83 952,1031.5C 954.176,1031.99 956.009,1032.99 957.5,1034.5C 951.202,1035.5 944.868,1035.83 938.5,1035.5C 938.5,1034.5 938.5,1033.5 938.5,1032.5C 940.722,1032.82 942.556,1032.16 944,1030.5C 944.667,1019.5 944.667,1008.5 944,997.5C 942.556,995.845 940.722,995.178 938.5,995.5C 938.5,994.5 938.5,993.5 938.5,992.5 Z"/></g>
<g><path style="opacity:1" fill="#7f5558" d="M 827.5,994.5 C 845.547,994.528 852.713,1003.53 849,1021.5C 846.193,1031.35 839.693,1034.85 829.5,1032C 829,1031.5 828.5,1031 828,1030.5C 827.5,1018.5 827.333,1006.5 827.5,994.5 Z"/></g>
<g><path style="opacity:1" fill="#7e5457" d="M 651.5,1001.5 C 654.198,1006.57 656.532,1011.9 658.5,1017.5C 654.217,1018.49 649.884,1018.83 645.5,1018.5C 647.214,1012.74 649.214,1007.07 651.5,1001.5 Z"/></g>
<g><path style="opacity:1" fill="#040202" d="M 500.5,1004.5 C 511.655,1003.81 516.155,1008.81 514,1019.5C 505.237,1028.35 498.737,1026.85 494.5,1015C 495.078,1013.19 495.578,1011.36 496,1009.5C 497.707,1007.96 499.207,1006.3 500.5,1004.5 Z"/></g>
<g><path style="opacity:1" fill="#a48385" d="M 1807.5,1003.5 C 1802.36,1004.49 1797.03,1004.82 1791.5,1004.5C 1791.5,1010.83 1791.5,1017.17 1791.5,1023.5C 1791.5,1017.17 1791.5,1010.83 1791.5,1004.5C 1797.03,1004.82 1802.36,1004.49 1807.5,1003.5 Z"/></g>
</svg>
