<?xml version="1.0" encoding="UTF-8"?>
<!DOCTYPE svg PUBLIC "-//W3C//DTD SVG 1.1//EN" "http://www.w3.org/Graphics/SVG/1.1/DTD/svg11.dtd">
<svg xmlns="http://www.w3.org/2000/svg" version="1.1" width="1920px" height="1080px" style="shape-rendering:geometricPrecision; text-rendering:geometricPrecision; image-rendering:optimizeQuality; fill-rule:evenodd; clip-rule:evenodd" xmlns:xlink="http://www.w3.org/1999/xlink">
<g><path style="opacity:1" fill="#660626" d="M -0.5,-0.5 C 639.5,-0.5 1279.5,-0.5 1919.5,-0.5C 1919.5,359.5 1919.5,719.5 1919.5,1079.5C 1279.5,1079.5 639.5,1079.5 -0.5,1079.5C -0.5,719.5 -0.5,359.5 -0.5,-0.5 Z"/></g>
<g><path style="opacity:1" fill="#faf9e5" d="M 1268.5,109.5 C 1275.84,109.334 1283.17,109.5 1290.5,110C 1282.01,129.318 1274.01,148.818 1266.5,168.5C 1261.49,168.666 1256.49,168.499 1251.5,168C 1257.47,148.598 1263.13,129.098 1268.5,109.5 Z"/></g>
<g><path style="opacity:1" fill="#fafae6" d="M 695.5,114.5 C 725.394,113.876 744.894,127.876 754,156.5C 759.047,172.45 762.047,188.783 763,205.5C 764.36,234.264 763.36,262.931 760,291.5C 757.435,310.211 750.768,327.211 740,342.5C 724.427,357.573 706.094,362.239 685,356.5C 672.582,352.081 663.249,344.081 657,332.5C 647.088,310.947 641.755,288.28 641,264.5C 636.941,227.873 639.941,191.873 650,156.5C 655.107,138.758 665.941,125.924 682.5,118C 686.86,116.417 691.194,115.25 695.5,114.5 Z"/></g>
<g><path style="opacity:1" fill="#fbfbe6" d="M 1329.5,114.5 C 1350.63,113.797 1365.47,123.131 1374,142.5C 1374.78,143.944 1374.61,145.277 1373.5,146.5C 1368.04,148.931 1362.54,151.264 1357,153.5C 1353.62,148.439 1349.79,143.605 1345.5,139C 1330.3,132.473 1320.47,137.306 1316,153.5C 1314.34,169.196 1318.01,183.53 1327,196.5C 1337.95,210.453 1349.95,223.453 1363,235.5C 1385.7,260.335 1392.37,289.001 1383,321.5C 1370.94,351.785 1348.77,363.618 1316.5,357C 1301.8,351.307 1290.47,341.64 1282.5,328C 1288.27,324.699 1294.1,321.532 1300,318.5C 1303.8,321.97 1307.3,325.803 1310.5,330C 1319.99,337.166 1330.66,339.499 1342.5,337C 1354.07,333.758 1361.24,326.258 1364,314.5C 1369.87,291.668 1365.21,271.335 1350,253.5C 1339.7,242.196 1329.03,231.196 1318,220.5C 1299.78,199.849 1292.45,175.849 1296,148.5C 1300.74,130.576 1311.91,119.242 1329.5,114.5 Z"/></g>
<g><path style="opacity:1" fill="#fcfce8" d="M 598.5,191.5 C 598.783,192.289 599.283,192.956 600,193.5C 600.5,168.836 600.667,144.169 600.5,119.5C 607.167,119.5 613.833,119.5 620.5,119.5C 620.5,198.167 620.5,276.833 620.5,355.5C 613.833,355.5 607.167,355.5 600.5,355.5C 600.667,311.832 600.5,268.165 600,224.5C 579.998,200.334 559.832,176.334 539.5,152.5C 539.44,151.957 539.107,151.624 538.5,151.5C 537.5,219.497 537.167,287.497 537.5,355.5C 530.833,355.5 524.167,355.5 517.5,355.5C 517.5,280.167 517.5,204.833 517.5,129.5C 517.5,126.167 517.5,122.833 517.5,119.5C 524.508,119.334 531.508,119.5 538.5,120C 558.365,144.024 578.365,167.857 598.5,191.5 Z"/></g>
<g><path style="opacity:1" fill="#fcfce8" d="M 962.5,129.5 C 962.5,204.833 962.5,280.167 962.5,355.5C 955.833,355.5 949.167,355.5 942.5,355.5C 942.667,287.833 942.5,220.166 942,152.5C 924.833,176.833 907.667,201.167 890.5,225.5C 873.418,201.758 856.752,177.758 840.5,153.5C 840.44,152.957 840.107,152.624 839.5,152.5C 838.5,220.163 838.167,287.83 838.5,355.5C 831.833,355.5 825.167,355.5 818.5,355.5C 818.5,280.167 818.5,204.833 818.5,129.5C 818.5,126.167 818.5,122.833 818.5,119.5C 826.196,119.169 833.862,119.503 841.5,120.5C 857.806,143.972 874.306,167.305 891,190.5C 907.746,167.342 924.246,144.009 940.5,120.5C 947.803,119.503 955.137,119.169 962.5,119.5C 962.5,122.833 962.5,126.167 962.5,129.5 Z"/></g>
<g><path style="opacity:1" fill="#fbfae6" d="M 1031.5,119.5 C 1040.17,119.5 1048.83,119.5 1057.5,119.5C 1073.96,198.211 1090.63,276.878 1107.5,355.5C 1100.5,355.5 1093.5,355.5 1086.5,355.5C 1084.45,343.096 1081.95,330.763 1079,318.5C 1061.04,298.2 1042.7,278.2 1024,258.5C 1016.93,289.942 1010.6,321.609 1005,353.5C 1001.77,354.786 998.267,355.453 994.5,355.5C 991.167,355.167 987.833,354.833 984.5,354.5C 1001.06,276.35 1016.73,198.017 1031.5,119.5 Z"/></g>
<g><path style="opacity:1" fill="#fcfce8" d="M 1209.5,191.5 C 1209.78,192.289 1210.28,192.956 1211,193.5C 1211.5,168.836 1211.67,144.169 1211.5,119.5C 1218.17,119.5 1224.83,119.5 1231.5,119.5C 1231.5,198.167 1231.5,276.833 1231.5,355.5C 1224.83,355.5 1218.17,355.5 1211.5,355.5C 1211.67,311.832 1211.5,268.165 1211,224.5C 1191,200.334 1170.83,176.334 1150.5,152.5C 1150.44,151.957 1150.11,151.624 1149.5,151.5C 1148.5,219.497 1148.17,287.497 1148.5,355.5C 1141.83,355.5 1135.17,355.5 1128.5,355.5C 1128.5,280.167 1128.5,204.833 1128.5,129.5C 1128.5,126.167 1128.5,122.833 1128.5,119.5C 1135.51,119.334 1142.51,119.5 1149.5,120C 1169.36,144.024 1189.36,167.857 1209.5,191.5 Z"/></g>
<g><path style="opacity:1" fill="#650725" d="M 517.5,129.5 C 517.5,204.833 517.5,280.167 517.5,355.5C 524.167,355.5 530.833,355.5 537.5,355.5C 538.167,287.833 538.833,220.167 539.5,152.5C 559.832,176.334 579.998,200.334 600,224.5C 600.5,268.165 600.667,311.832 600.5,355.5C 607.167,355.5 613.833,355.5 620.5,355.5C 621.333,280.668 621.833,205.668 622,130.5C 625.517,133.704 627.517,137.704 628,142.5C 628.984,215.869 628.651,289.203 627,362.5C 621.584,373.752 613.084,376.918 601.5,372C 596.219,368.278 593.386,363.112 593,356.5C 592.969,318.461 592.303,280.461 591,242.5C 589.435,238.6 587.435,234.934 585,231.5C 574.874,219.038 564.374,206.872 553.5,195C 550.472,193.86 548.305,194.694 547,197.5C 546.961,251.522 546.294,305.522 545,359.5C 543.103,368.729 537.436,373.729 528,374.5C 515.514,372.666 509.514,365.333 510,352.5C 509.333,284.167 509.333,215.833 510,147.5C 510.388,143.781 511.055,140.114 512,136.5C 512.935,133.405 514.769,131.071 517.5,129.5 Z"/></g>
<g><path style="opacity:1" fill="#660a26" d="M 818.5,129.5 C 818.5,204.833 818.5,280.167 818.5,355.5C 825.167,355.5 831.833,355.5 838.5,355.5C 839.167,288.167 839.833,220.833 840.5,153.5C 856.752,177.758 873.418,201.758 890.5,225.5C 907.667,201.167 924.833,176.833 942,152.5C 942.5,220.166 942.667,287.833 942.5,355.5C 949.167,355.5 955.833,355.5 962.5,355.5C 962.5,280.167 962.5,204.833 962.5,129.5C 967.38,133.604 969.88,138.937 970,145.5C 970.667,215.167 970.667,284.833 970,354.5C 967.682,372.573 958.182,378.073 941.5,371C 938.15,367.468 935.984,363.301 935,358.5C 934.667,309.167 934.333,259.833 934,210.5C 933.444,198.861 929.444,197.528 922,206.5C 915.869,215.93 909.369,225.097 902.5,234C 895.077,240.688 887.41,241.022 879.5,235C 871.966,225.433 864.8,215.599 858,205.5C 855.791,201.886 852.791,200.553 849,201.5C 847.855,206.083 847.189,210.749 847,215.5C 846.667,263.5 846.333,311.5 846,359.5C 842.288,371.941 834.121,376.441 821.5,373C 814.187,368.208 810.687,361.375 811,352.5C 810.333,284.167 810.333,215.833 811,147.5C 810.701,140.204 813.201,134.204 818.5,129.5 Z"/></g>
<g><path style="opacity:1" fill="#640725" d="M 1128.5,129.5 C 1128.5,204.833 1128.5,280.167 1128.5,355.5C 1135.17,355.5 1141.83,355.5 1148.5,355.5C 1149.17,287.833 1149.83,220.167 1150.5,152.5C 1170.83,176.334 1191,200.334 1211,224.5C 1211.5,268.165 1211.67,311.832 1211.5,355.5C 1218.17,355.5 1224.83,355.5 1231.5,355.5C 1232.33,280.668 1232.83,205.668 1233,130.5C 1236.52,133.704 1238.52,137.704 1239,142.5C 1239.98,215.869 1239.65,289.203 1238,362.5C 1232.58,373.752 1224.08,376.918 1212.5,372C 1207.22,368.278 1204.39,363.112 1204,356.5C 1203.97,318.461 1203.3,280.461 1202,242.5C 1200.43,238.6 1198.43,234.934 1196,231.5C 1185.87,219.038 1175.37,206.872 1164.5,195C 1161.47,193.86 1159.31,194.694 1158,197.5C 1157.96,251.522 1157.29,305.522 1156,359.5C 1154.1,368.729 1148.44,373.729 1139,374.5C 1126.51,372.666 1120.51,365.333 1121,352.5C 1120.33,284.167 1120.33,215.833 1121,147.5C 1121.39,143.781 1122.06,140.114 1123,136.5C 1123.94,133.405 1125.77,131.071 1128.5,129.5 Z"/></g>
<g><path style="opacity:1" fill="#894355" d="M 1211.5,119.5 C 1211.67,144.169 1211.5,168.836 1211,193.5C 1210.28,192.956 1209.78,192.289 1209.5,191.5C 1210.17,167.5 1210.83,143.5 1211.5,119.5 Z"/></g>
<g><path style="opacity:1" fill="#d0b6b0" d="M 539.5,152.5 C 538.833,220.167 538.167,287.833 537.5,355.5C 537.167,287.497 537.5,219.497 538.5,151.5C 539.107,151.624 539.44,151.957 539.5,152.5 Z"/></g>
<g><path style="opacity:1" fill="#8a4557" d="M 600.5,119.5 C 600.667,144.169 600.5,168.836 600,193.5C 599.283,192.956 598.783,192.289 598.5,191.5C 599.167,167.5 599.833,143.5 600.5,119.5 Z"/></g>
<g><path style="opacity:1" fill="#d1b8b1" d="M 1150.5,152.5 C 1149.83,220.167 1149.17,287.833 1148.5,355.5C 1148.17,287.497 1148.5,219.497 1149.5,151.5C 1150.11,151.624 1150.44,151.957 1150.5,152.5 Z"/></g>
<g><path style="opacity:1" fill="#c9aba7" d="M 840.5,153.5 C 839.833,220.833 839.167,288.167 838.5,355.5C 838.167,287.83 838.5,220.163 839.5,152.5C 840.107,152.624 840.44,152.957 840.5,153.5 Z"/></g>
<g><path style="opacity:1" fill="#660726" d="M 694.5,134.5 C 707.651,132.665 718.151,136.999 726,147.5C 735.677,164.867 741.01,183.534 742,203.5C 742.667,223.167 742.667,242.833 742,262.5C 741.877,284.392 736.877,305.058 727,324.5C 715.823,339.754 701.99,342.921 685.5,334C 679.84,328.674 675.34,322.508 672,315.5C 668.238,305.452 665.571,295.118 664,284.5C 660.476,253.847 660.143,223.18 663,192.5C 664.509,174.968 670.176,158.968 680,144.5C 684.325,140.268 689.158,136.935 694.5,134.5 Z"/></g>
<g><path style="opacity:1" fill="#660b27" d="M 1044.5,150.5 C 1052.76,186.941 1060.59,223.607 1068,260.5C 1069.79,267.432 1070.79,274.432 1071,281.5C 1057.37,266.199 1043.37,251.199 1029,236.5C 1033.19,207.703 1038.36,179.036 1044.5,150.5 Z"/></g>
<g><path style="opacity:1" fill="#fcfee8" d="M 754.5,389.5 C 754.5,461.5 754.5,533.5 754.5,605.5C 773.833,605.5 793.167,605.5 812.5,605.5C 812.5,611.833 812.5,618.167 812.5,624.5C 786.5,624.5 760.5,624.5 734.5,624.5C 734.5,546.167 734.5,467.833 734.5,389.5C 741.167,389.5 747.833,389.5 754.5,389.5 Z"/></g>
<g><path style="opacity:1" fill="#fbfbe6" d="M 936.5,623.5 C 930.021,624.491 923.354,624.824 916.5,624.5C 914.107,612.153 911.607,599.819 909,587.5C 890.333,567.5 871.667,547.5 853,527.5C 846.252,559.739 840.085,592.072 834.5,624.5C 827.833,624.5 821.167,624.5 814.5,624.5C 829.169,550.156 843.835,475.823 858.5,401.5C 859.611,397.984 860.611,394.317 861.5,390.5C 870.141,389.502 878.808,389.169 887.5,389.5C 903.825,467.482 920.158,545.482 936.5,623.5 Z"/></g>
<g><path style="opacity:1" fill="#fcfce8" d="M 958.5,389.5 C 965.508,389.334 972.508,389.5 979.5,390C 999.698,414.357 1020.03,438.524 1040.5,462.5C 1041.5,438.339 1041.83,414.006 1041.5,389.5C 1047.83,389.5 1054.17,389.5 1060.5,389.5C 1060.5,467.833 1060.5,546.167 1060.5,624.5C 1053.83,624.5 1047.17,624.5 1040.5,624.5C 1040.67,580.832 1040.5,537.165 1040,493.5C 1020.3,469.643 1000.47,445.976 980.5,422.5C 980.217,421.711 979.717,421.044 979,420.5C 978.5,488.499 978.333,556.499 978.5,624.5C 971.833,624.5 965.167,624.5 958.5,624.5C 958.5,546.167 958.5,467.833 958.5,389.5 Z"/></g>
<g><path style="opacity:1" fill="#faf9e5" d="M 1095.5,389.5 C 1144.82,382.719 1177.32,402.719 1193,449.5C 1204.47,492.489 1202.47,534.822 1187,576.5C 1168.78,615.201 1138.28,631.201 1095.5,624.5C 1095.5,546.167 1095.5,467.833 1095.5,389.5 Z"/></g>
<g><path style="opacity:1" fill="#660b27" d="M 958.5,389.5 C 958.5,467.833 958.5,546.167 958.5,624.5C 965.167,624.5 971.833,624.5 978.5,624.5C 979.167,557.167 979.833,489.833 980.5,422.5C 1000.47,445.976 1020.3,469.643 1040,493.5C 1040.5,537.165 1040.67,580.832 1040.5,624.5C 1047.17,624.5 1053.83,624.5 1060.5,624.5C 1061.5,549.335 1061.83,474.002 1061.5,398.5C 1067.04,404.282 1069.54,411.282 1069,419.5C 1069.67,486.167 1069.67,552.833 1069,619.5C 1069.43,627.196 1067.27,634.029 1062.5,640C 1054.83,644.667 1047.17,644.667 1039.5,640C 1034.73,634.029 1032.57,627.196 1033,619.5C 1032.67,584.167 1032.33,548.833 1032,513.5C 1028.93,505.695 1024.6,498.695 1019,492.5C 1013.62,486.792 1008.62,480.792 1004,474.5C 1000.25,470.244 996.084,466.578 991.5,463.5C 988.334,464.174 986.834,466.174 987,469.5C 986.667,521.5 986.333,573.5 986,625.5C 983.229,641.97 974.062,647.136 958.5,641C 954.051,637.603 951.551,633.103 951,627.5C 950.333,555.5 950.333,483.5 951,411.5C 951.483,406.704 953.483,402.704 957,399.5C 957.179,395.975 957.679,392.641 958.5,389.5 Z"/></g>
<g><path style="opacity:1" fill="#d7c1b9" d="M 1061.5,398.5 C 1061.83,474.002 1061.5,549.335 1060.5,624.5C 1060.5,546.167 1060.5,467.833 1060.5,389.5C 1054.17,389.5 1047.83,389.5 1041.5,389.5C 1041.83,414.006 1041.5,438.339 1040.5,462.5C 1040.5,437.833 1040.5,413.167 1040.5,388.5C 1047.5,388.5 1054.5,388.5 1061.5,388.5C 1061.5,391.833 1061.5,395.167 1061.5,398.5 Z"/></g>
<g><path style="opacity:1" fill="#80354a" d="M 980.5,422.5 C 979.833,489.833 979.167,557.167 978.5,624.5C 978.333,556.499 978.5,488.499 979,420.5C 979.717,421.044 980.217,421.711 980.5,422.5 Z"/></g>
<g><path style="opacity:1" fill="#660726" d="M 1116.5,408.5 C 1136.34,408.169 1151.84,416.169 1163,432.5C 1174.77,454.31 1180.27,477.643 1179.5,502.5C 1179.75,524.695 1176.58,546.361 1170,567.5C 1160.89,592.315 1143.06,604.648 1116.5,604.5C 1116.5,539.167 1116.5,473.833 1116.5,408.5 Z"/></g>
<g><path style="opacity:1" fill="#660a27" d="M 873.5,421.5 C 874.117,421.611 874.617,421.944 875,422.5C 884.066,465.495 892.732,508.495 901,551.5C 887,536.167 873,520.833 859,505.5C 858.333,502.5 858.333,499.5 859,496.5C 864.157,471.551 868.99,446.551 873.5,421.5 Z"/></g>
<g><path style="opacity:1" fill="#650d28" d="M 858.5,401.5 C 843.835,475.823 829.169,550.156 814.5,624.5C 821.167,624.5 827.833,624.5 834.5,624.5C 840.085,592.072 846.252,559.739 853,527.5C 871.667,547.5 890.333,567.5 909,587.5C 911.607,599.819 914.107,612.153 916.5,624.5C 923.354,624.824 930.021,624.491 936.5,623.5C 937.043,623.56 937.376,623.893 937.5,624.5C 936.5,625.167 935.5,625.833 934.5,626.5C 932.457,634.855 927.457,637.355 919.5,634C 916.894,632.062 915.061,629.562 914,626.5C 912.046,616.347 908.713,606.68 904,597.5C 892.24,583.069 879.74,569.236 866.5,556C 858.549,550.219 853.049,552.052 850,561.5C 845.744,581.448 841.744,601.448 838,621.5C 836.777,628.885 832.61,633.552 825.5,635.5C 824.558,635.392 823.725,635.059 823,634.5C 822.71,636.044 822.044,637.377 821,638.5C 819.414,637.624 817.914,636.624 816.5,635.5C 815.667,636.5 814.833,637.5 814,638.5C 813.167,637.5 812.333,636.5 811.5,635.5C 810.167,636.5 808.833,637.5 807.5,638.5C 806.672,637.585 805.672,636.919 804.5,636.5C 802.5,637 800.5,637.5 798.5,638C 781.833,638.667 765.167,638.667 748.5,638C 740.024,637.356 735.357,632.856 734.5,624.5C 760.5,624.5 786.5,624.5 812.5,624.5C 812.5,618.167 812.5,611.833 812.5,605.5C 812.5,605.167 812.5,604.833 812.5,604.5C 825.167,543.335 837.667,482.002 850,420.5C 851.157,413.693 853.49,407.36 857,401.5C 857.69,400.262 858.19,400.262 858.5,401.5 Z"/></g>
<g><path style="opacity:1" fill="#c09b9a" d="M 754.5,389.5 C 755.499,460.998 755.833,532.665 755.5,604.5C 774.5,604.5 793.5,604.5 812.5,604.5C 812.5,604.833 812.5,605.167 812.5,605.5C 793.167,605.5 773.833,605.5 754.5,605.5C 754.5,533.5 754.5,461.5 754.5,389.5 Z"/></g>
<g><path style="opacity:1" fill="#6fab4f" d="M 864.5,795.5 C 927.501,795.333 990.501,795.5 1053.5,796C 1089,803.17 1111.17,824.336 1120,859.5C 1125.26,899.481 1110.43,929.314 1075.5,949C 1069.36,951.602 1063.03,953.602 1056.5,955C 993.527,956.641 930.527,956.974 867.5,956C 831.559,949.062 808.726,927.895 799,892.5C 793.784,855.445 806.618,826.612 837.5,806C 846.189,801.387 855.189,797.887 864.5,795.5 Z"/></g>
<g><path style="opacity:1" fill="#f7fae2" d="M 843.5,844.5 C 855.838,844.333 868.171,844.5 880.5,845C 895.81,846.306 901.976,854.472 899,869.5C 895.285,876.881 889.451,881.715 881.5,884C 875.78,884.788 870.114,884.621 864.5,883.5C 863.336,890.142 863.169,896.808 864,903.5C 866.196,906.125 869.03,907.125 872.5,906.5C 872.5,907.833 872.5,909.167 872.5,910.5C 862.833,910.5 853.167,910.5 843.5,910.5C 843.5,909.167 843.5,907.833 843.5,906.5C 846.862,906.93 849.695,905.93 852,903.5C 852.667,886.167 852.667,868.833 852,851.5C 849.695,849.07 846.862,848.07 843.5,848.5C 843.5,847.167 843.5,845.833 843.5,844.5 Z"/></g>
<g><path style="opacity:1" fill="#f8fbe4" d="M 973.5,843.5 C 979.804,842.781 985.304,844.447 990,848.5C 998,867.167 1006,885.833 1014,904.5C 1015.9,906.016 1018.06,906.683 1020.5,906.5C 1020.5,907.833 1020.5,909.167 1020.5,910.5C 1011.17,910.5 1001.83,910.5 992.5,910.5C 992.5,909.167 992.5,907.833 992.5,906.5C 995.206,906.425 997.873,906.092 1000.5,905.5C 1000.65,900.125 999.317,895.125 996.5,890.5C 987.853,889.335 979.186,889.168 970.5,890C 967.665,894.482 966.165,899.315 966,904.5C 968.826,906.34 971.993,907.006 975.5,906.5C 975.5,907.833 975.5,909.167 975.5,910.5C 950.833,910.5 926.167,910.5 901.5,910.5C 901.5,909.167 901.5,907.833 901.5,906.5C 904.862,906.93 907.695,905.93 910,903.5C 910.667,886.167 910.667,868.833 910,851.5C 907.695,849.07 904.862,848.07 901.5,848.5C 901.5,847.167 901.5,845.833 901.5,844.5C 911.167,844.5 920.833,844.5 930.5,844.5C 930.5,845.833 930.5,847.167 930.5,848.5C 927.03,847.875 924.196,848.875 922,851.5C 921.333,868.5 921.333,885.5 922,902.5C 922.465,903.931 923.299,905.097 924.5,906C 929.833,906.667 935.167,906.667 940.5,906C 945.61,903.983 948.443,900.15 949,894.5C 952.492,891.41 954.658,892.077 955.5,896.5C 954.83,899.846 954.163,903.179 953.5,906.5C 955.903,906.607 957.736,905.607 959,903.5C 966,887.167 973,870.833 980,854.5C 980.667,853.167 980.667,851.833 980,850.5C 977.787,849.198 975.454,848.198 973,847.5C 972.421,846.072 972.588,844.738 973.5,843.5 Z"/></g>
<g><path style="opacity:1" fill="#f9fbe4" d="M 1016.5,843.5 C 1026.56,842.625 1034.4,846.292 1040,854.5C 1043.14,862.112 1046.81,869.446 1051,876.5C 1055.3,868.061 1059.47,859.561 1063.5,851C 1063.36,850.228 1063.02,849.561 1062.5,849C 1060.19,848.503 1057.86,848.337 1055.5,848.5C 1055.5,847.167 1055.5,845.833 1055.5,844.5C 1064.17,844.5 1072.83,844.5 1081.5,844.5C 1081.5,845.833 1081.5,847.167 1081.5,848.5C 1075.73,847.634 1071.23,849.634 1068,854.5C 1063,864.167 1058,873.833 1053,883.5C 1052.33,889.5 1052.33,895.5 1053,901.5C 1054.7,905.875 1057.87,907.542 1062.5,906.5C 1062.5,907.833 1062.5,909.167 1062.5,910.5C 1052.83,910.5 1043.17,910.5 1033.5,910.5C 1033.5,909.167 1033.5,907.833 1033.5,906.5C 1037.35,907.155 1040.19,905.821 1042,902.5C 1042.67,896.167 1042.67,889.833 1042,883.5C 1037.33,871.981 1031.49,861.148 1024.5,851C 1021.65,849.829 1018.82,848.662 1016,847.5C 1015.42,846.072 1015.59,844.738 1016.5,843.5 Z"/></g>
<g><path style="opacity:1" fill="#6eaa4e" d="M 865.5,848.5 C 884.167,846.656 891,854.656 886,872.5C 879.899,878.929 872.399,881.262 863.5,879.5C 863.334,869.828 863.5,860.161 864,850.5C 864.717,849.956 865.217,849.289 865.5,848.5 Z"/></g>
<g><path style="opacity:1" fill="#6faa50" d="M 993.5,883.5 C 986.833,884.833 980.167,884.833 973.5,883.5C 976.435,875.033 979.768,866.7 983.5,858.5C 987.229,866.688 990.562,875.022 993.5,883.5 Z"/></g>
<g><path style="opacity:1" fill="#bbd7a2" d="M 973.5,883.5 C 980.167,884.833 986.833,884.833 993.5,883.5C 994.043,883.56 994.376,883.893 994.5,884.5C 987.167,885.833 979.833,885.833 972.5,884.5C 972.624,883.893 972.957,883.56 973.5,883.5 Z"/></g>
</svg>
