<?xml version="1.0" encoding="UTF-8"?>
<!DOCTYPE svg PUBLIC "-//W3C//DTD SVG 1.1//EN" "http://www.w3.org/Graphics/SVG/1.1/DTD/svg11.dtd">
<svg xmlns="http://www.w3.org/2000/svg" version="1.1" width="1920px" height="1080px" style="shape-rendering:geometricPrecision; text-rendering:geometricPrecision; image-rendering:optimizeQuality; fill-rule:evenodd; clip-rule:evenodd" xmlns:xlink="http://www.w3.org/1999/xlink">
<g><path style="opacity:1" fill="#117aca" d="M -0.5,-0.5 C 341.5,-0.5 683.5,-0.5 1025.5,-0.5C 1025.5,2.16667 1025.5,4.83333 1025.5,7.5C 1026.83,7.5 1028.17,7.5 1029.5,7.5C 1029.5,4.83333 1029.5,2.16667 1029.5,-0.5C 1326.17,-0.5 1622.83,-0.5 1919.5,-0.5C 1919.5,359.5 1919.5,719.5 1919.5,1079.5C 1622.83,1079.5 1326.17,1079.5 1029.5,1079.5C 1029.5,1075.5 1029.5,1071.5 1029.5,1067.5C 1028.17,1067.5 1026.83,1067.5 1025.5,1067.5C 1025.5,1071.5 1025.5,1075.5 1025.5,1079.5C 683.5,1079.5 341.5,1079.5 -0.5,1079.5C -0.5,900.167 -0.5,720.833 -0.5,541.5C 3.5,541.5 7.5,541.5 11.5,541.5C 11.5,540.167 11.5,538.833 11.5,537.5C 7.5,537.5 3.5,537.5 -0.5,537.5C -0.5,358.167 -0.5,178.833 -0.5,-0.5 Z"/></g>
<g><path style="opacity:1" fill="#0a0f17" d="M 1025.5,-0.5 C 1026.83,-0.5 1028.17,-0.5 1029.5,-0.5C 1029.5,2.16667 1029.5,4.83333 1029.5,7.5C 1028.17,7.5 1026.83,7.5 1025.5,7.5C 1025.5,4.83333 1025.5,2.16667 1025.5,-0.5 Z"/></g>
<g><path style="opacity:1" fill="#0a0f17" d="M 1025.5,11.5 C 1026.83,11.5 1028.17,11.5 1029.5,11.5C 1029.5,15.5 1029.5,19.5 1029.5,23.5C 1028.17,23.5 1026.83,23.5 1025.5,23.5C 1025.5,19.5 1025.5,15.5 1025.5,11.5 Z"/></g>
<g><path style="opacity:1" fill="#0a0f17" d="M 1025.5,27.5 C 1026.83,27.5 1028.17,27.5 1029.5,27.5C 1029.5,31.5 1029.5,35.5 1029.5,39.5C 1028.17,39.5 1026.83,39.5 1025.5,39.5C 1025.5,35.5 1025.5,31.5 1025.5,27.5 Z"/></g>
<g><path style="opacity:1" fill="#010080" d="M 1503.5,35.5 C 1591.17,35.3333 1678.83,35.5 1766.5,36C 1791.56,40.1003 1806.39,54.6003 1811,79.5C 1811.67,200.833 1811.67,322.167 1811,443.5C 1806.46,465.71 1793.29,479.876 1771.5,486C 1680.5,486.667 1589.5,486.667 1498.5,486C 1477.27,479.434 1464.43,465.267 1460,443.5C 1459.33,321.833 1459.33,200.167 1460,78.5C 1465.76,55.2391 1480.26,40.9057 1503.5,35.5 Z"/></g>
<g><path style="opacity:1" fill="#0a0f17" d="M 1025.5,43.5 C 1026.83,43.5 1028.17,43.5 1029.5,43.5C 1029.5,47.5 1029.5,51.5 1029.5,55.5C 1028.17,55.5 1026.83,55.5 1025.5,55.5C 1025.5,51.5 1025.5,47.5 1025.5,43.5 Z"/></g>
<g><path style="opacity:1" fill="#0a0f17" d="M 1025.5,59.5 C 1026.83,59.5 1028.17,59.5 1029.5,59.5C 1029.5,63.5 1029.5,67.5 1029.5,71.5C 1028.17,71.5 1026.83,71.5 1025.5,71.5C 1025.5,67.5 1025.5,63.5 1025.5,59.5 Z"/></g>
<g><path style="opacity:1" fill="#0a0f17" d="M 1025.5,75.5 C 1026.83,75.5 1028.17,75.5 1029.5,75.5C 1029.5,79.5 1029.5,83.5 1029.5,87.5C 1028.17,87.5 1026.83,87.5 1025.5,87.5C 1025.5,83.5 1025.5,79.5 1025.5,75.5 Z"/></g>
<g><path style="opacity:1" fill="#0a0f17" d="M 1025.5,91.5 C 1026.83,91.5 1028.17,91.5 1029.5,91.5C 1029.5,95.5 1029.5,99.5 1029.5,103.5C 1028.17,103.5 1026.83,103.5 1025.5,103.5C 1025.5,99.5 1025.5,95.5 1025.5,91.5 Z"/></g>
<g><path style="opacity:1" fill="#010180" d="M 60.5,107.5 C 269.5,107.333 478.5,107.5 687.5,108C 697.035,110.868 703.202,117.035 706,126.5C 706.667,184.833 706.667,243.167 706,301.5C 703.386,312.448 696.552,318.948 685.5,321C 476.466,321.995 267.466,321.661 58.5,320C 50.9107,316.745 45.7441,311.245 43,303.5C 42.3333,243.833 42.3333,184.167 43,124.5C 46.5934,116.467 52.4267,110.8 60.5,107.5 Z"/></g>
<g><path style="opacity:1" fill="#0a0f17" d="M 1025.5,107.5 C 1026.83,107.5 1028.17,107.5 1029.5,107.5C 1029.5,111.5 1029.5,115.5 1029.5,119.5C 1028.17,119.5 1026.83,119.5 1025.5,119.5C 1025.5,115.5 1025.5,111.5 1025.5,107.5 Z"/></g>
<g><path style="opacity:1" fill="#0a0f17" d="M 1025.5,123.5 C 1026.83,123.5 1028.17,123.5 1029.5,123.5C 1029.5,127.5 1029.5,131.5 1029.5,135.5C 1028.17,135.5 1026.83,135.5 1025.5,135.5C 1025.5,131.5 1025.5,127.5 1025.5,123.5 Z"/></g>
<g><path style="opacity:1" fill="#0a0f17" d="M 1025.5,139.5 C 1026.83,139.5 1028.17,139.5 1029.5,139.5C 1029.5,143.5 1029.5,147.5 1029.5,151.5C 1028.17,151.5 1026.83,151.5 1025.5,151.5C 1025.5,147.5 1025.5,143.5 1025.5,139.5 Z"/></g>
<g><path style="opacity:1" fill="#0a0f17" d="M 1025.5,155.5 C 1026.83,155.5 1028.17,155.5 1029.5,155.5C 1029.5,159.5 1029.5,163.5 1029.5,167.5C 1028.17,167.5 1026.83,167.5 1025.5,167.5C 1025.5,163.5 1025.5,159.5 1025.5,155.5 Z"/></g>
<g><path style="opacity:1" fill="#f1f1e4" d="M 1658.5,158.5 C 1667.69,157.377 1676.35,158.877 1684.5,163C 1687.36,166.681 1688.19,170.848 1687,175.5C 1683.45,181.946 1678.95,182.946 1673.5,178.5C 1677.24,175.324 1678.41,171.324 1677,166.5C 1674.46,163.234 1671.13,161.9 1667,162.5C 1656.87,163.624 1650.87,169.291 1649,179.5C 1647.7,188.468 1648.7,197.135 1652,205.5C 1658.73,215.298 1667.57,217.798 1678.5,213C 1680.35,211.316 1682.02,209.483 1683.5,207.5C 1688.08,205.908 1689.24,207.241 1687,211.5C 1679.5,219.34 1670.33,222.173 1659.5,220C 1648.76,216.929 1641.6,210.096 1638,199.5C 1633.75,179.996 1640.58,166.329 1658.5,158.5 Z"/></g>
<g><path style="opacity:1" fill="#f3f3e4" d="M 1523.5,159.5 C 1534.17,159.333 1544.84,159.5 1555.5,160C 1578.94,166.037 1586.77,180.537 1579,203.5C 1572.86,212.326 1564.36,217.159 1553.5,218C 1543.51,218.5 1533.51,218.666 1523.5,218.5C 1523.5,217.167 1523.5,215.833 1523.5,214.5C 1525.53,214.662 1527.53,214.495 1529.5,214C 1530.19,212.933 1530.69,211.766 1531,210.5C 1531.67,195.833 1531.67,181.167 1531,166.5C 1529.15,163.959 1526.65,162.959 1523.5,163.5C 1523.5,162.167 1523.5,160.833 1523.5,159.5 Z"/></g>
<g><path style="opacity:1" fill="#f2f3e4" d="M 1586.5,159.5 C 1600.5,159.333 1614.5,159.5 1628.5,160C 1629.77,162.554 1630.44,165.387 1630.5,168.5C 1630.33,171.167 1630.17,173.833 1630,176.5C 1628.06,177.86 1626.4,177.527 1625,175.5C 1624.62,171.442 1623.12,167.942 1620.5,165C 1614.93,163.649 1609.26,163.149 1603.5,163.5C 1603.5,171.5 1603.5,179.5 1603.5,187.5C 1609.5,187.5 1615.5,187.5 1621.5,187.5C 1621.5,188.833 1621.5,190.167 1621.5,191.5C 1615.5,191.5 1609.5,191.5 1603.5,191.5C 1603.33,198.508 1603.5,205.508 1604,212.5C 1604.5,213 1605,213.5 1605.5,214C 1611.17,214.667 1616.83,214.667 1622.5,214C 1623.42,213.626 1624.25,213.126 1625,212.5C 1626.2,209.911 1627.2,207.244 1628,204.5C 1631.19,201.507 1633.02,202.174 1633.5,206.5C 1632.92,210.155 1632.42,213.822 1632,217.5C 1616.67,218.833 1601.33,218.833 1586,217.5C 1585.38,216.551 1585.55,215.718 1586.5,215C 1589.61,215.053 1592.11,213.886 1594,211.5C 1594.67,196.5 1594.67,181.5 1594,166.5C 1592,164.253 1589.5,163.253 1586.5,163.5C 1586.5,162.167 1586.5,160.833 1586.5,159.5 Z"/></g>
<g><path style="opacity:1" fill="#f4f5e5" d="M 1691.5,159.5 C 1699.83,159.5 1708.17,159.5 1716.5,159.5C 1716.5,160.833 1716.5,162.167 1716.5,163.5C 1713.35,162.959 1710.85,163.959 1709,166.5C 1708.17,173.524 1708.34,180.524 1709.5,187.5C 1717.7,181.467 1724.7,174.301 1730.5,166C 1727.8,164.575 1727.14,162.575 1728.5,160C 1735.17,159.333 1741.83,159.333 1748.5,160C 1749.34,161.011 1749.67,162.178 1749.5,163.5C 1744.19,162.99 1739.52,164.49 1735.5,168C 1730.06,174.191 1724.4,180.191 1718.5,186C 1727.17,196 1736.5,205.333 1746.5,214C 1748.13,214.494 1749.8,214.66 1751.5,214.5C 1751.5,215.833 1751.5,217.167 1751.5,218.5C 1746.16,218.666 1740.82,218.499 1735.5,218C 1727.87,208.703 1719.87,199.703 1711.5,191C 1710.55,190.517 1709.55,190.351 1708.5,190.5C 1708.33,197.508 1708.5,204.508 1709,211.5C 1709.37,212.416 1709.87,213.25 1710.5,214C 1712.47,214.495 1714.47,214.662 1716.5,214.5C 1716.5,215.833 1716.5,217.167 1716.5,218.5C 1708.16,218.666 1699.83,218.5 1691.5,218C 1691.04,217.586 1690.71,217.086 1690.5,216.5C 1693.5,215.245 1696.34,213.579 1699,211.5C 1699.67,196.5 1699.67,181.5 1699,166.5C 1697,164.253 1694.5,163.253 1691.5,163.5C 1691.5,162.167 1691.5,160.833 1691.5,159.5 Z"/></g>
<g><path style="opacity:1" fill="#090480" d="M 1540.5,163.5 C 1555.06,161.354 1564.89,167.02 1570,180.5C 1571.55,190.286 1570.21,199.619 1566,208.5C 1559.52,214.114 1552.02,215.948 1543.5,214C 1542.3,213.097 1541.47,211.931 1541,210.5C 1540.5,194.837 1540.33,179.17 1540.5,163.5 Z"/></g>
<g><path style="opacity:1" fill="#0a0f17" d="M 1025.5,171.5 C 1026.83,171.5 1028.17,171.5 1029.5,171.5C 1029.5,175.5 1029.5,179.5 1029.5,183.5C 1028.17,183.5 1026.83,183.5 1025.5,183.5C 1025.5,179.5 1025.5,175.5 1025.5,171.5 Z"/></g>
<g><path style="opacity:1" fill="#f5f5e5" d="M 116.5,174.5 C 131.837,174.333 147.17,174.5 162.5,175C 184.786,179.073 190.953,191.24 181,211.5C 169.804,223.17 156.304,226.837 140.5,222.5C 140.13,230.903 140.63,239.236 142,247.5C 144.984,250.1 148.484,251.1 152.5,250.5C 152.714,252.144 152.38,253.644 151.5,255C 139.838,255.5 128.171,255.667 116.5,255.5C 116.5,253.833 116.5,252.167 116.5,250.5C 119.607,250.649 122.607,250.149 125.5,249C 126.126,248.25 126.626,247.416 127,246.5C 127.667,225.167 127.667,203.833 127,182.5C 124.242,180.357 121.076,179.19 117.5,179C 116.62,177.644 116.286,176.144 116.5,174.5 Z"/></g>
<g><path style="opacity:1" fill="#f7f8e6" d="M 275.5,173.5 C 283.371,172.182 290.205,174.182 296,179.5C 306.2,201.905 315.867,224.571 325,247.5C 327.344,249.774 330.178,250.941 333.5,251C 334.833,252.333 334.833,253.667 333.5,255C 322.172,255.5 310.838,255.667 299.5,255.5C 299.5,253.833 299.5,252.167 299.5,250.5C 302.836,250.533 306.003,249.866 309,248.5C 308.809,241.92 306.976,235.753 303.5,230C 292.839,229.5 282.172,229.333 271.5,229.5C 270.64,232.911 269.474,236.244 268,239.5C 264.625,249.298 268.125,252.964 278.5,250.5C 278.5,252.167 278.5,253.833 278.5,255.5C 248.26,255.829 218.093,255.495 188,254.5C 187.316,253.216 187.483,252.049 188.5,251C 192.076,250.81 195.242,249.643 198,247.5C 199.121,236.388 199.621,225.221 199.5,214C 199.333,204.167 199.167,194.333 199,184.5C 198.535,183.069 197.701,181.903 196.5,181C 193.899,180.08 191.232,179.413 188.5,179C 187.483,177.951 187.316,176.784 188,175.5C 199.753,174.512 211.586,174.179 223.5,174.5C 223.714,176.144 223.38,177.644 222.5,179C 220.5,179.333 218.5,179.667 216.5,180C 214.667,180.5 213.5,181.667 213,183.5C 212.333,204.5 212.333,225.5 213,246.5C 213.5,248.333 214.667,249.5 216.5,250C 223.914,250.89 231.247,250.557 238.5,249C 239.931,248.535 241.097,247.701 242,246.5C 243.862,242.581 245.529,238.581 247,234.5C 249,233.167 251,233.167 253,234.5C 253.251,239.501 253.084,244.501 252.5,249.5C 254.484,249.617 256.15,248.95 257.5,247.5C 266.913,226.507 275.913,205.34 284.5,184C 284.241,182.739 283.574,181.739 282.5,181C 280.02,180.04 277.52,179.207 275,178.5C 274.36,176.735 274.527,175.068 275.5,173.5 Z"/></g>
<g><path style="opacity:1" fill="#f8f9e6" d="M 430.5,179.5 C 429.505,190.321 429.172,201.321 429.5,212.5C 437.5,212.5 445.5,212.5 453.5,212.5C 455.582,213.585 455.916,215.085 454.5,217C 446.507,217.5 438.507,217.666 430.5,217.5C 430.334,227.172 430.5,236.839 431,246.5C 431.374,247.416 431.874,248.25 432.5,249C 440.061,250.598 447.728,250.931 455.5,250C 457.624,248.878 459.457,247.378 461,245.5C 462.136,241.757 463.47,238.09 465,234.5C 468.427,232.714 470.927,233.548 472.5,237C 471.16,243.036 469.827,249.036 468.5,255C 447.594,255.826 426.76,255.66 406,254.5C 405.316,253.216 405.483,252.049 406.5,251C 410.076,250.81 413.242,249.643 416,247.5C 417.121,236.388 417.621,225.221 417.5,214C 417.333,204.167 417.167,194.333 417,184.5C 414.505,180.546 410.839,178.879 406,179.5C 400.671,179.331 396.338,181.331 393,185.5C 386.667,197.5 380.333,209.5 374,221.5C 373.333,229.5 373.333,237.5 374,245.5C 376.09,249.824 379.59,251.657 384.5,251C 385.517,252.049 385.684,253.216 385,254.5C 373.247,255.488 361.414,255.821 349.5,255.5C 349.5,253.833 349.5,252.167 349.5,250.5C 353.676,250.832 357.176,249.498 360,246.5C 360.667,238.167 360.667,229.833 360,221.5C 354.861,209.888 349.194,198.554 343,187.5C 339.493,182.494 334.66,179.66 328.5,179C 327.446,177.612 327.28,176.112 328,174.5C 336.435,172.64 344.268,174.14 351.5,179C 352.88,180.925 354.38,182.759 356,184.5C 360.745,194.324 365.745,203.99 371,213.5C 376.696,203.44 381.863,193.107 386.5,182.5C 386.392,181.558 386.059,180.725 385.5,180C 382.833,179.667 380.167,179.333 377.5,179C 376.62,177.644 376.286,176.144 376.5,174.5C 406.502,174.333 436.502,174.5 466.5,175C 467.646,182.086 467.812,189.253 467,196.5C 464.667,197.833 462.333,197.833 460,196.5C 459.922,190.37 457.756,185.204 453.5,181C 445.946,179.568 438.279,179.068 430.5,179.5 Z"/></g>
<g><path style="opacity:1" fill="#f7f8e6" d="M 476.5,174.5 C 491.837,174.333 507.17,174.5 522.5,175C 539.809,177.151 546.642,186.651 543,203.5C 538.221,209.976 532.054,214.642 524.5,217.5C 530.529,228.029 537.529,237.862 545.5,247C 548.376,249.437 551.71,250.77 555.5,251C 556.833,252.333 556.833,253.667 555.5,255C 541.743,258.037 531.243,253.537 524,241.5C 519.893,234.396 515.393,227.562 510.5,221C 507.312,219.684 503.978,219.184 500.5,219.5C 500.334,228.506 500.5,237.506 501,246.5C 503.546,250.05 507.046,251.383 511.5,250.5C 511.5,252.167 511.5,253.833 511.5,255.5C 499.586,255.821 487.753,255.488 476,254.5C 475.316,253.216 475.483,252.049 476.5,251C 480.076,250.81 483.242,249.643 486,247.5C 487.121,236.388 487.621,225.221 487.5,214C 487.333,204.167 487.167,194.333 487,184.5C 486.535,183.069 485.701,181.903 484.5,181C 481.899,180.08 479.232,179.413 476.5,179C 475.272,177.51 475.272,176.01 476.5,174.5 Z"/></g>
<g><path style="opacity:1" fill="#0a0480" d="M 143.5,179.5 C 153.453,177.875 161.953,180.541 169,187.5C 174.549,201.532 170.383,211.365 156.5,217C 151.249,217.804 146.082,217.637 141,216.5C 140.333,205.5 140.333,194.5 141,183.5C 141.662,182.016 142.496,180.683 143.5,179.5 Z"/></g>
<g><path style="opacity:1" fill="#9493bb" d="M 430.5,179.5 C 430.5,190.167 430.5,200.833 430.5,211.5C 438.352,211.175 446.018,211.508 453.5,212.5C 445.5,212.5 437.5,212.5 429.5,212.5C 429.172,201.321 429.505,190.321 430.5,179.5 Z"/></g>
<g><path style="opacity:1" fill="#04017f" d="M 503.5,179.5 C 525.579,177.064 533.745,186.397 528,207.5C 524.984,211.092 521.151,213.258 516.5,214C 511.177,214.499 505.844,214.666 500.5,214.5C 500.333,203.828 500.5,193.161 501,182.5C 502.045,181.627 502.878,180.627 503.5,179.5 Z"/></g>
<g><path style="opacity:1" fill="#fafbe7" d="M 604.5,186.5 C 605.822,186.33 606.989,186.663 608,187.5C 608.036,207.231 608.703,226.898 610,246.5C 611.214,248.049 612.714,249.215 614.5,250C 618.486,250.499 622.486,250.666 626.5,250.5C 626.5,252.167 626.5,253.833 626.5,255.5C 610.833,255.5 595.167,255.5 579.5,255.5C 579.5,253.833 579.5,252.167 579.5,250.5C 585.061,251.198 590.227,250.198 595,247.5C 595.667,246.167 596.333,244.833 597,243.5C 597.667,229.833 597.667,216.167 597,202.5C 595.833,201.333 594.667,200.167 593.5,199C 589.167,198.667 584.833,198.333 580.5,198C 579.446,196.612 579.28,195.112 580,193.5C 588.697,192.786 596.864,190.453 604.5,186.5 Z"/></g>
<g><path style="opacity:1" fill="#0a0f17" d="M 1025.5,187.5 C 1026.83,187.5 1028.17,187.5 1029.5,187.5C 1029.5,191.5 1029.5,195.5 1029.5,199.5C 1028.17,199.5 1026.83,199.5 1025.5,199.5C 1025.5,195.5 1025.5,191.5 1025.5,187.5 Z"/></g>
<g><path style="opacity:1" fill="#07037e" d="M 300.5,222.5 C 292.167,223.833 283.833,223.833 275.5,222.5C 279.654,212.188 283.821,201.855 288,191.5C 292.715,201.598 296.881,211.932 300.5,222.5 Z"/></g>
<g><path style="opacity:1" fill="#0a0f17" d="M 1025.5,203.5 C 1026.83,203.5 1028.17,203.5 1029.5,203.5C 1029.5,207.5 1029.5,211.5 1029.5,215.5C 1028.17,215.5 1026.83,215.5 1025.5,215.5C 1025.5,211.5 1025.5,207.5 1025.5,203.5 Z"/></g>
<g><path style="opacity:1" fill="#0a0f17" d="M 1025.5,219.5 C 1026.83,219.5 1028.17,219.5 1029.5,219.5C 1029.5,223.5 1029.5,227.5 1029.5,231.5C 1028.17,231.5 1026.83,231.5 1025.5,231.5C 1025.5,227.5 1025.5,223.5 1025.5,219.5 Z"/></g>
<g><path style="opacity:1" fill="#5758a2" d="M 275.5,222.5 C 283.833,223.833 292.167,223.833 300.5,222.5C 301.043,222.56 301.376,222.893 301.5,223.5C 292.5,224.833 283.5,224.833 274.5,223.5C 274.624,222.893 274.957,222.56 275.5,222.5 Z"/></g>
<g><path style="opacity:1" fill="#f3f4e4" d="M 1606.5,232.5 C 1625.57,230.113 1637.74,238.113 1643,256.5C 1644.8,276.084 1636.3,288.584 1617.5,294C 1599.14,295.059 1587.97,286.559 1584,268.5C 1582.65,250.855 1590.15,238.855 1606.5,232.5 Z"/></g>
<g><path style="opacity:1" fill="#f4f4e5" d="M 1647.5,233.5 C 1660.84,233.333 1674.17,233.5 1687.5,234C 1688.64,239.416 1688.81,244.916 1688,250.5C 1686.67,251.833 1685.33,251.833 1684,250.5C 1683.48,246.228 1681.98,242.395 1679.5,239C 1674.6,237.675 1669.6,237.175 1664.5,237.5C 1664.5,245.5 1664.5,253.5 1664.5,261.5C 1670.18,261.334 1675.84,261.501 1681.5,262C 1682.34,263.011 1682.67,264.178 1682.5,265.5C 1676.5,265.5 1670.5,265.5 1664.5,265.5C 1664.33,272.175 1664.5,278.842 1665,285.5C 1665.37,286.416 1665.87,287.25 1666.5,288C 1668.47,288.495 1670.47,288.662 1672.5,288.5C 1672.5,289.833 1672.5,291.167 1672.5,292.5C 1664.16,292.666 1655.83,292.5 1647.5,292C 1647.04,291.586 1646.71,291.086 1646.5,290.5C 1649.5,289.245 1652.34,287.579 1655,285.5C 1655.67,270.5 1655.67,255.5 1655,240.5C 1653,238.253 1650.5,237.253 1647.5,237.5C 1647.5,236.167 1647.5,234.833 1647.5,233.5 Z"/></g>
<g><path style="opacity:1" fill="#0a0f17" d="M 1025.5,235.5 C 1026.83,235.5 1028.17,235.5 1029.5,235.5C 1029.5,239.5 1029.5,243.5 1029.5,247.5C 1028.17,247.5 1026.83,247.5 1025.5,247.5C 1025.5,243.5 1025.5,239.5 1025.5,235.5 Z"/></g>
<g><path style="opacity:1" fill="#090380" d="M 1607.5,236.5 C 1621.32,235.48 1629.48,241.813 1632,255.5C 1632.94,265.785 1630.94,275.451 1626,284.5C 1617,292.708 1608.33,292.375 1600,283.5C 1593.29,270.626 1592.95,257.626 1599,244.5C 1601.16,241.024 1603.99,238.357 1607.5,236.5 Z"/></g>
<g><path style="opacity:1" fill="#0a0f17" d="M 1025.5,251.5 C 1026.83,251.5 1028.17,251.5 1029.5,251.5C 1029.5,255.5 1029.5,259.5 1029.5,263.5C 1028.17,263.5 1026.83,263.5 1025.5,263.5C 1025.5,259.5 1025.5,255.5 1025.5,251.5 Z"/></g>
<g><path style="opacity:1" fill="#0a0f17" d="M 1025.5,267.5 C 1026.83,267.5 1028.17,267.5 1029.5,267.5C 1029.5,271.5 1029.5,275.5 1029.5,279.5C 1028.17,279.5 1026.83,279.5 1025.5,279.5C 1025.5,275.5 1025.5,271.5 1025.5,267.5 Z"/></g>
<g><path style="opacity:1" fill="#0a0f17" d="M 1025.5,283.5 C 1026.83,283.5 1028.17,283.5 1029.5,283.5C 1029.5,287.5 1029.5,291.5 1029.5,295.5C 1028.17,295.5 1026.83,295.5 1025.5,295.5C 1025.5,291.5 1025.5,287.5 1025.5,283.5 Z"/></g>
<g><path style="opacity:1" fill="#0a0f17" d="M 1025.5,299.5 C 1026.83,299.5 1028.17,299.5 1029.5,299.5C 1029.5,303.5 1029.5,307.5 1029.5,311.5C 1028.17,311.5 1026.83,311.5 1025.5,311.5C 1025.5,307.5 1025.5,303.5 1025.5,299.5 Z"/></g>
<g><path style="opacity:1" fill="#f1f2e4" d="M 1520.5,306.5 C 1526.51,306.334 1532.51,306.501 1538.5,307C 1549.65,309.794 1552.82,316.294 1548,326.5C 1544.18,329.87 1540.18,330.203 1536,327.5C 1537.95,324.939 1539.45,321.939 1540.5,318.5C 1540.06,314.793 1538.06,312.293 1534.5,311C 1522.95,308.693 1515.45,313.193 1512,324.5C 1509.49,334.865 1510.49,344.865 1515,354.5C 1522.6,364.25 1531.77,366.084 1542.5,360C 1544.21,358.622 1545.55,356.955 1546.5,355C 1549.67,354.167 1550.83,355.333 1550,358.5C 1542.57,367.642 1533.07,370.809 1521.5,368C 1503.87,361.248 1496.7,348.415 1500,329.5C 1502.85,318.153 1509.69,310.487 1520.5,306.5 Z"/></g>
<g><path style="opacity:1" fill="#f3f4e4" d="M 1743.5,306.5 C 1751.21,305.665 1758.54,306.831 1765.5,310C 1768.83,314.137 1769.33,318.637 1767,323.5C 1763.29,326.323 1759.79,326.157 1756.5,323C 1760.29,320.947 1761.46,317.781 1760,313.5C 1759.1,312.299 1757.93,311.465 1756.5,311C 1752.83,310.333 1749.17,310.333 1745.5,311C 1740.39,314.366 1739.22,318.866 1742,324.5C 1743.56,326.359 1745.39,327.859 1747.5,329C 1753.78,331.473 1759.78,334.473 1765.5,338C 1771.62,344.122 1773.12,351.288 1770,359.5C 1760.34,368.879 1749.17,371.046 1736.5,366C 1729.48,360.528 1728.81,354.528 1734.5,348C 1735.67,347.833 1736.83,347.667 1738,347.5C 1742.9,347.625 1743.57,349.292 1740,352.5C 1738.76,357.853 1740.59,361.686 1745.5,364C 1756.87,366.279 1762.37,361.779 1762,350.5C 1760.88,348.376 1759.38,346.543 1757.5,345C 1751.5,342 1745.5,339 1739.5,336C 1732.69,331.302 1730.19,324.802 1732,316.5C 1734.57,311.645 1738.4,308.311 1743.5,306.5 Z"/></g>
<g><path style="opacity:1" fill="#f1f2e4" d="M 1568.5,307.5 C 1574,306.64 1578.83,307.973 1583,311.5C 1590.38,327.635 1597.38,343.968 1604,360.5C 1605.82,362.045 1607.99,362.712 1610.5,362.5C 1613.01,362.712 1615.18,362.045 1617,360.5C 1617.67,345.167 1617.67,329.833 1617,314.5C 1615.15,311.959 1612.65,310.959 1609.5,311.5C 1609.33,310.178 1609.66,309.011 1610.5,308C 1621.17,307.333 1631.83,307.333 1642.5,308C 1653.8,309.285 1659.3,315.452 1659,326.5C 1656.01,332.82 1651.18,336.987 1644.5,339C 1648.3,345.426 1652.46,351.593 1657,357.5C 1661.14,362.211 1666.31,363.711 1672.5,362C 1673.33,361.167 1674.17,360.333 1675,359.5C 1675.67,344.5 1675.67,329.5 1675,314.5C 1673,312.253 1670.5,311.253 1667.5,311.5C 1667.5,310.167 1667.5,308.833 1667.5,307.5C 1679.55,307.109 1691.55,307.609 1703.5,309C 1724.42,317.066 1730.59,331.566 1722,352.5C 1716.74,359.89 1709.57,364.39 1700.5,366C 1685.17,366.667 1669.83,366.667 1654.5,366C 1652.33,364.5 1650.17,363 1648,361.5C 1643.5,355 1639,348.5 1634.5,342C 1632.32,340.798 1629.99,340.298 1627.5,340.5C 1627.33,347.175 1627.5,353.842 1628,360.5C 1629.83,362.074 1631.99,362.907 1634.5,363C 1635.34,364.011 1635.67,365.178 1635.5,366.5C 1618.83,366.5 1602.17,366.5 1585.5,366.5C 1585.33,365.178 1585.66,364.011 1586.5,363C 1592.05,363.296 1593.88,360.796 1592,355.5C 1590.59,353.35 1589.76,351.016 1589.5,348.5C 1581.47,348.169 1573.47,348.502 1565.5,349.5C 1563.12,353.512 1562.12,357.845 1562.5,362.5C 1565.17,362.5 1567.83,362.5 1570.5,362.5C 1570.5,363.833 1570.5,365.167 1570.5,366.5C 1563.17,366.5 1555.83,366.5 1548.5,366.5C 1548.5,365.167 1548.5,363.833 1548.5,362.5C 1551.16,362.838 1553.49,362.171 1555.5,360.5C 1561.76,346.208 1567.93,331.874 1574,317.5C 1574.67,316.167 1574.67,314.833 1574,313.5C 1572.09,312.308 1570.09,311.308 1568,310.5C 1567.53,309.423 1567.7,308.423 1568.5,307.5 Z"/></g>
<g><path style="opacity:1" fill="#0a0f17" d="M 1025.5,315.5 C 1026.83,315.5 1028.17,315.5 1029.5,315.5C 1029.5,319.5 1029.5,323.5 1029.5,327.5C 1028.17,327.5 1026.83,327.5 1025.5,327.5C 1025.5,323.5 1025.5,319.5 1025.5,315.5 Z"/></g>
<g><path style="opacity:1" fill="#04027f" d="M 1629.5,311.5 C 1637.1,310.417 1643.27,312.751 1648,318.5C 1649.76,325.009 1648.26,330.509 1643.5,335C 1638.26,336.339 1632.93,336.839 1627.5,336.5C 1627.33,328.826 1627.5,321.159 1628,313.5C 1628.72,312.956 1629.22,312.289 1629.5,311.5 Z"/></g>
<g><path style="opacity:1" fill="#02017f" d="M 1684.5,311.5 C 1709.3,311.697 1718.8,324.03 1713,348.5C 1710.41,358.075 1704.08,362.741 1694,362.5C 1691.83,362.333 1689.67,362.167 1687.5,362C 1686.57,361.612 1685.91,360.945 1685.5,360C 1684.52,343.869 1684.19,327.702 1684.5,311.5 Z"/></g>
<g><path style="opacity:1" fill="#0a047f" d="M 1586.5,343.5 C 1580.31,343.823 1574.31,343.49 1568.5,342.5C 1571.23,335.375 1574.23,328.375 1577.5,321.5C 1581.05,328.597 1584.05,335.93 1586.5,343.5 Z"/></g>
<g><path style="opacity:1" fill="#0a0f17" d="M 1025.5,331.5 C 1026.83,331.5 1028.17,331.5 1029.5,331.5C 1029.5,335.5 1029.5,339.5 1029.5,343.5C 1028.17,343.5 1026.83,343.5 1025.5,343.5C 1025.5,339.5 1025.5,335.5 1025.5,331.5 Z"/></g>
<g><path style="opacity:1" fill="#9292bb" d="M 1568.5,342.5 C 1574.31,343.49 1580.31,343.823 1586.5,343.5C 1580.32,344.817 1573.99,344.817 1567.5,343.5C 1567.62,342.893 1567.96,342.56 1568.5,342.5 Z"/></g>
<g><path style="opacity:1" fill="#0a0f17" d="M 1025.5,347.5 C 1026.83,347.5 1028.17,347.5 1029.5,347.5C 1029.5,351.5 1029.5,355.5 1029.5,359.5C 1028.17,359.5 1026.83,359.5 1025.5,359.5C 1025.5,355.5 1025.5,351.5 1025.5,347.5 Z"/></g>
<g><path style="opacity:1" fill="#0a0f17" d="M 1025.5,363.5 C 1026.83,363.5 1028.17,363.5 1029.5,363.5C 1029.5,367.5 1029.5,371.5 1029.5,375.5C 1028.17,375.5 1026.83,375.5 1025.5,375.5C 1025.5,371.5 1025.5,367.5 1025.5,363.5 Z"/></g>
<g><path style="opacity:1" fill="#0a0f17" d="M 1025.5,379.5 C 1026.83,379.5 1028.17,379.5 1029.5,379.5C 1029.5,383.5 1029.5,387.5 1029.5,391.5C 1028.17,391.5 1026.83,391.5 1025.5,391.5C 1025.5,387.5 1025.5,383.5 1025.5,379.5 Z"/></g>
<g><path style="opacity:1" fill="#0a0f17" d="M 1025.5,395.5 C 1026.83,395.5 1028.17,395.5 1029.5,395.5C 1029.5,399.5 1029.5,403.5 1029.5,407.5C 1028.17,407.5 1026.83,407.5 1025.5,407.5C 1025.5,403.5 1025.5,399.5 1025.5,395.5 Z"/></g>
<g><path style="opacity:1" fill="#0a0f17" d="M 1025.5,411.5 C 1026.83,411.5 1028.17,411.5 1029.5,411.5C 1029.5,415.5 1029.5,419.5 1029.5,423.5C 1028.17,423.5 1026.83,423.5 1025.5,423.5C 1025.5,419.5 1025.5,415.5 1025.5,411.5 Z"/></g>
<g><path style="opacity:1" fill="#0a0f17" d="M 1025.5,427.5 C 1026.83,427.5 1028.17,427.5 1029.5,427.5C 1029.5,431.5 1029.5,435.5 1029.5,439.5C 1028.17,439.5 1026.83,439.5 1025.5,439.5C 1025.5,435.5 1025.5,431.5 1025.5,427.5 Z"/></g>
<g><path style="opacity:1" fill="#0a0f17" d="M 1025.5,443.5 C 1026.83,443.5 1028.17,443.5 1029.5,443.5C 1029.5,447.5 1029.5,451.5 1029.5,455.5C 1028.17,455.5 1026.83,455.5 1025.5,455.5C 1025.5,451.5 1025.5,447.5 1025.5,443.5 Z"/></g>
<g><path style="opacity:1" fill="#0a0f17" d="M 1025.5,459.5 C 1026.83,459.5 1028.17,459.5 1029.5,459.5C 1029.5,463.5 1029.5,467.5 1029.5,471.5C 1028.17,471.5 1026.83,471.5 1025.5,471.5C 1025.5,467.5 1025.5,463.5 1025.5,459.5 Z"/></g>
<g><path style="opacity:1" fill="#0a0f17" d="M 1025.5,475.5 C 1026.83,475.5 1028.17,475.5 1029.5,475.5C 1029.5,479.5 1029.5,483.5 1029.5,487.5C 1028.17,487.5 1026.83,487.5 1025.5,487.5C 1025.5,483.5 1025.5,479.5 1025.5,475.5 Z"/></g>
<g><path style="opacity:1" fill="#0a0f17" d="M 1025.5,491.5 C 1026.83,491.5 1028.17,491.5 1029.5,491.5C 1029.5,495.5 1029.5,499.5 1029.5,503.5C 1028.17,503.5 1026.83,503.5 1025.5,503.5C 1025.5,499.5 1025.5,495.5 1025.5,491.5 Z"/></g>
<g><path style="opacity:1" fill="#0a0f17" d="M 1025.5,507.5 C 1026.83,507.5 1028.17,507.5 1029.5,507.5C 1029.5,511.5 1029.5,515.5 1029.5,519.5C 1028.17,519.5 1026.83,519.5 1025.5,519.5C 1025.5,515.5 1025.5,511.5 1025.5,507.5 Z"/></g>
<g><path style="opacity:1" fill="#0a0f17" d="M 1025.5,523.5 C 1026.83,523.5 1028.17,523.5 1029.5,523.5C 1029.5,527.5 1029.5,531.5 1029.5,535.5C 1028.17,535.5 1026.83,535.5 1025.5,535.5C 1025.5,531.5 1025.5,527.5 1025.5,523.5 Z"/></g>
<g><path style="opacity:1" fill="#000000" d="M -0.5,537.5 C 3.5,537.5 7.5,537.5 11.5,537.5C 11.5,538.833 11.5,540.167 11.5,541.5C 7.5,541.5 3.5,541.5 -0.5,541.5C -0.5,540.167 -0.5,538.833 -0.5,537.5 Z"/></g>
<g><path style="opacity:1" fill="#000000" d="M 15.5,537.5 C 19.5,537.5 23.5,537.5 27.5,537.5C 27.5,538.833 27.5,540.167 27.5,541.5C 23.5,541.5 19.5,541.5 15.5,541.5C 15.5,540.167 15.5,538.833 15.5,537.5 Z"/></g>
<g><path style="opacity:1" fill="#000000" d="M 31.5,537.5 C 35.5,537.5 39.5,537.5 43.5,537.5C 43.5,538.833 43.5,540.167 43.5,541.5C 39.5,541.5 35.5,541.5 31.5,541.5C 31.5,540.167 31.5,538.833 31.5,537.5 Z"/></g>
<g><path style="opacity:1" fill="#000000" d="M 47.5,537.5 C 51.5,537.5 55.5,537.5 59.5,537.5C 59.5,538.833 59.5,540.167 59.5,541.5C 55.5,541.5 51.5,541.5 47.5,541.5C 47.5,540.167 47.5,538.833 47.5,537.5 Z"/></g>
<g><path style="opacity:1" fill="#000000" d="M 63.5,537.5 C 67.5,537.5 71.5,537.5 75.5,537.5C 75.5,538.833 75.5,540.167 75.5,541.5C 71.5,541.5 67.5,541.5 63.5,541.5C 63.5,540.167 63.5,538.833 63.5,537.5 Z"/></g>
<g><path style="opacity:1" fill="#000000" d="M 79.5,537.5 C 83.5,537.5 87.5,537.5 91.5,537.5C 91.5,538.833 91.5,540.167 91.5,541.5C 87.5,541.5 83.5,541.5 79.5,541.5C 79.5,540.167 79.5,538.833 79.5,537.5 Z"/></g>
<g><path style="opacity:1" fill="#000000" d="M 95.5,537.5 C 99.5,537.5 103.5,537.5 107.5,537.5C 107.5,538.833 107.5,540.167 107.5,541.5C 103.5,541.5 99.5,541.5 95.5,541.5C 95.5,540.167 95.5,538.833 95.5,537.5 Z"/></g>
<g><path style="opacity:1" fill="#000000" d="M 111.5,537.5 C 115.5,537.5 119.5,537.5 123.5,537.5C 123.5,538.833 123.5,540.167 123.5,541.5C 119.5,541.5 115.5,541.5 111.5,541.5C 111.5,540.167 111.5,538.833 111.5,537.5 Z"/></g>
<g><path style="opacity:1" fill="#000000" d="M 127.5,537.5 C 131.5,537.5 135.5,537.5 139.5,537.5C 139.5,538.833 139.5,540.167 139.5,541.5C 135.5,541.5 131.5,541.5 127.5,541.5C 127.5,540.167 127.5,538.833 127.5,537.5 Z"/></g>
<g><path style="opacity:1" fill="#000000" d="M 143.5,537.5 C 147.5,537.5 151.5,537.5 155.5,537.5C 155.5,538.833 155.5,540.167 155.5,541.5C 151.5,541.5 147.5,541.5 143.5,541.5C 143.5,540.167 143.5,538.833 143.5,537.5 Z"/></g>
<g><path style="opacity:1" fill="#000000" d="M 159.5,537.5 C 163.5,537.5 167.5,537.5 171.5,537.5C 171.5,538.833 171.5,540.167 171.5,541.5C 167.5,541.5 163.5,541.5 159.5,541.5C 159.5,540.167 159.5,538.833 159.5,537.5 Z"/></g>
<g><path style="opacity:1" fill="#000000" d="M 175.5,537.5 C 179.5,537.5 183.5,537.5 187.5,537.5C 187.5,538.833 187.5,540.167 187.5,541.5C 183.5,541.5 179.5,541.5 175.5,541.5C 175.5,540.167 175.5,538.833 175.5,537.5 Z"/></g>
<g><path style="opacity:1" fill="#000000" d="M 191.5,537.5 C 195.5,537.5 199.5,537.5 203.5,537.5C 203.5,538.833 203.5,540.167 203.5,541.5C 199.5,541.5 195.5,541.5 191.5,541.5C 191.5,540.167 191.5,538.833 191.5,537.5 Z"/></g>
<g><path style="opacity:1" fill="#000000" d="M 207.5,537.5 C 211.5,537.5 215.5,537.5 219.5,537.5C 219.5,538.833 219.5,540.167 219.5,541.5C 215.5,541.5 211.5,541.5 207.5,541.5C 207.5,540.167 207.5,538.833 207.5,537.5 Z"/></g>
<g><path style="opacity:1" fill="#000000" d="M 223.5,537.5 C 227.5,537.5 231.5,537.5 235.5,537.5C 235.5,538.833 235.5,540.167 235.5,541.5C 231.5,541.5 227.5,541.5 223.5,541.5C 223.5,540.167 223.5,538.833 223.5,537.5 Z"/></g>
<g><path style="opacity:1" fill="#000000" d="M 239.5,537.5 C 243.5,537.5 247.5,537.5 251.5,537.5C 251.5,538.833 251.5,540.167 251.5,541.5C 247.5,541.5 243.5,541.5 239.5,541.5C 239.5,540.167 239.5,538.833 239.5,537.5 Z"/></g>
<g><path style="opacity:1" fill="#000000" d="M 255.5,537.5 C 259.5,537.5 263.5,537.5 267.5,537.5C 267.5,538.833 267.5,540.167 267.5,541.5C 263.5,541.5 259.5,541.5 255.5,541.5C 255.5,540.167 255.5,538.833 255.5,537.5 Z"/></g>
<g><path style="opacity:1" fill="#000000" d="M 271.5,537.5 C 275.5,537.5 279.5,537.5 283.5,537.5C 283.5,538.833 283.5,540.167 283.5,541.5C 279.5,541.5 275.5,541.5 271.5,541.5C 271.5,540.167 271.5,538.833 271.5,537.5 Z"/></g>
<g><path style="opacity:1" fill="#000000" d="M 287.5,537.5 C 291.5,537.5 295.5,537.5 299.5,537.5C 299.5,538.833 299.5,540.167 299.5,541.5C 295.5,541.5 291.5,541.5 287.5,541.5C 287.5,540.167 287.5,538.833 287.5,537.5 Z"/></g>
<g><path style="opacity:1" fill="#000000" d="M 303.5,537.5 C 307.5,537.5 311.5,537.5 315.5,537.5C 315.5,538.833 315.5,540.167 315.5,541.5C 311.5,541.5 307.5,541.5 303.5,541.5C 303.5,540.167 303.5,538.833 303.5,537.5 Z"/></g>
<g><path style="opacity:1" fill="#000000" d="M 319.5,537.5 C 323.5,537.5 327.5,537.5 331.5,537.5C 331.5,538.833 331.5,540.167 331.5,541.5C 327.5,541.5 323.5,541.5 319.5,541.5C 319.5,540.167 319.5,538.833 319.5,537.5 Z"/></g>
<g><path style="opacity:1" fill="#000000" d="M 335.5,537.5 C 339.5,537.5 343.5,537.5 347.5,537.5C 347.5,538.833 347.5,540.167 347.5,541.5C 343.5,541.5 339.5,541.5 335.5,541.5C 335.5,540.167 335.5,538.833 335.5,537.5 Z"/></g>
<g><path style="opacity:1" fill="#000000" d="M 351.5,537.5 C 355.5,537.5 359.5,537.5 363.5,537.5C 363.5,538.833 363.5,540.167 363.5,541.5C 359.5,541.5 355.5,541.5 351.5,541.5C 351.5,540.167 351.5,538.833 351.5,537.5 Z"/></g>
<g><path style="opacity:1" fill="#000000" d="M 367.5,537.5 C 371.5,537.5 375.5,537.5 379.5,537.5C 379.5,538.833 379.5,540.167 379.5,541.5C 375.5,541.5 371.5,541.5 367.5,541.5C 367.5,540.167 367.5,538.833 367.5,537.5 Z"/></g>
<g><path style="opacity:1" fill="#000000" d="M 383.5,537.5 C 387.5,537.5 391.5,537.5 395.5,537.5C 395.5,538.833 395.5,540.167 395.5,541.5C 391.5,541.5 387.5,541.5 383.5,541.5C 383.5,540.167 383.5,538.833 383.5,537.5 Z"/></g>
<g><path style="opacity:1" fill="#000000" d="M 399.5,537.5 C 403.5,537.5 407.5,537.5 411.5,537.5C 411.5,538.833 411.5,540.167 411.5,541.5C 407.5,541.5 403.5,541.5 399.5,541.5C 399.5,540.167 399.5,538.833 399.5,537.5 Z"/></g>
<g><path style="opacity:1" fill="#000000" d="M 415.5,537.5 C 419.5,537.5 423.5,537.5 427.5,537.5C 427.5,538.833 427.5,540.167 427.5,541.5C 423.5,541.5 419.5,541.5 415.5,541.5C 415.5,540.167 415.5,538.833 415.5,537.5 Z"/></g>
<g><path style="opacity:1" fill="#000000" d="M 431.5,537.5 C 435.5,537.5 439.5,537.5 443.5,537.5C 443.5,538.833 443.5,540.167 443.5,541.5C 439.5,541.5 435.5,541.5 431.5,541.5C 431.5,540.167 431.5,538.833 431.5,537.5 Z"/></g>
<g><path style="opacity:1" fill="#000000" d="M 447.5,537.5 C 451.5,537.5 455.5,537.5 459.5,537.5C 459.5,538.833 459.5,540.167 459.5,541.5C 455.5,541.5 451.5,541.5 447.5,541.5C 447.5,540.167 447.5,538.833 447.5,537.5 Z"/></g>
<g><path style="opacity:1" fill="#000000" d="M 463.5,537.5 C 467.5,537.5 471.5,537.5 475.5,537.5C 475.5,538.833 475.5,540.167 475.5,541.5C 471.5,541.5 467.5,541.5 463.5,541.5C 463.5,540.167 463.5,538.833 463.5,537.5 Z"/></g>
<g><path style="opacity:1" fill="#000000" d="M 479.5,537.5 C 483.5,537.5 487.5,537.5 491.5,537.5C 491.5,538.833 491.5,540.167 491.5,541.5C 487.5,541.5 483.5,541.5 479.5,541.5C 479.5,540.167 479.5,538.833 479.5,537.5 Z"/></g>
<g><path style="opacity:1" fill="#000000" d="M 495.5,537.5 C 499.5,537.5 503.5,537.5 507.5,537.5C 507.5,538.833 507.5,540.167 507.5,541.5C 503.5,541.5 499.5,541.5 495.5,541.5C 495.5,540.167 495.5,538.833 495.5,537.5 Z"/></g>
<g><path style="opacity:1" fill="#000000" d="M 511.5,537.5 C 515.5,537.5 519.5,537.5 523.5,537.5C 523.5,538.833 523.5,540.167 523.5,541.5C 519.5,541.5 515.5,541.5 511.5,541.5C 511.5,540.167 511.5,538.833 511.5,537.5 Z"/></g>
<g><path style="opacity:1" fill="#000000" d="M 527.5,537.5 C 531.5,537.5 535.5,537.5 539.5,537.5C 539.5,538.833 539.5,540.167 539.5,541.5C 535.5,541.5 531.5,541.5 527.5,541.5C 527.5,540.167 527.5,538.833 527.5,537.5 Z"/></g>
<g><path style="opacity:1" fill="#000000" d="M 543.5,537.5 C 547.5,537.5 551.5,537.5 555.5,537.5C 555.5,538.833 555.5,540.167 555.5,541.5C 551.5,541.5 547.5,541.5 543.5,541.5C 543.5,540.167 543.5,538.833 543.5,537.5 Z"/></g>
<g><path style="opacity:1" fill="#000000" d="M 559.5,537.5 C 563.5,537.5 567.5,537.5 571.5,537.5C 571.5,538.833 571.5,540.167 571.5,541.5C 567.5,541.5 563.5,541.5 559.5,541.5C 559.5,540.167 559.5,538.833 559.5,537.5 Z"/></g>
<g><path style="opacity:1" fill="#000000" d="M 575.5,537.5 C 579.5,537.5 583.5,537.5 587.5,537.5C 587.5,538.833 587.5,540.167 587.5,541.5C 583.5,541.5 579.5,541.5 575.5,541.5C 575.5,540.167 575.5,538.833 575.5,537.5 Z"/></g>
<g><path style="opacity:1" fill="#000000" d="M 591.5,537.5 C 595.5,537.5 599.5,537.5 603.5,537.5C 603.5,538.833 603.5,540.167 603.5,541.5C 599.5,541.5 595.5,541.5 591.5,541.5C 591.5,540.167 591.5,538.833 591.5,537.5 Z"/></g>
<g><path style="opacity:1" fill="#000000" d="M 607.5,537.5 C 611.5,537.5 615.5,537.5 619.5,537.5C 619.5,538.833 619.5,540.167 619.5,541.5C 615.5,541.5 611.5,541.5 607.5,541.5C 607.5,540.167 607.5,538.833 607.5,537.5 Z"/></g>
<g><path style="opacity:1" fill="#000000" d="M 623.5,537.5 C 627.5,537.5 631.5,537.5 635.5,537.5C 635.5,538.833 635.5,540.167 635.5,541.5C 631.5,541.5 627.5,541.5 623.5,541.5C 623.5,540.167 623.5,538.833 623.5,537.5 Z"/></g>
<g><path style="opacity:1" fill="#000000" d="M 639.5,537.5 C 643.5,537.5 647.5,537.5 651.5,537.5C 651.5,538.833 651.5,540.167 651.5,541.5C 647.5,541.5 643.5,541.5 639.5,541.5C 639.5,540.167 639.5,538.833 639.5,537.5 Z"/></g>
<g><path style="opacity:1" fill="#000000" d="M 655.5,537.5 C 659.5,537.5 663.5,537.5 667.5,537.5C 667.5,538.833 667.5,540.167 667.5,541.5C 663.5,541.5 659.5,541.5 655.5,541.5C 655.5,540.167 655.5,538.833 655.5,537.5 Z"/></g>
<g><path style="opacity:1" fill="#000000" d="M 671.5,537.5 C 675.5,537.5 679.5,537.5 683.5,537.5C 683.5,538.833 683.5,540.167 683.5,541.5C 679.5,541.5 675.5,541.5 671.5,541.5C 671.5,540.167 671.5,538.833 671.5,537.5 Z"/></g>
<g><path style="opacity:1" fill="#000000" d="M 687.5,537.5 C 691.5,537.5 695.5,537.5 699.5,537.5C 699.5,538.833 699.5,540.167 699.5,541.5C 695.5,541.5 691.5,541.5 687.5,541.5C 687.5,540.167 687.5,538.833 687.5,537.5 Z"/></g>
<g><path style="opacity:1" fill="#000000" d="M 703.5,537.5 C 707.5,537.5 711.5,537.5 715.5,537.5C 715.5,538.833 715.5,540.167 715.5,541.5C 711.5,541.5 707.5,541.5 703.5,541.5C 703.5,540.167 703.5,538.833 703.5,537.5 Z"/></g>
<g><path style="opacity:1" fill="#000000" d="M 719.5,537.5 C 723.5,537.5 727.5,537.5 731.5,537.5C 731.5,538.833 731.5,540.167 731.5,541.5C 727.5,541.5 723.5,541.5 719.5,541.5C 719.5,540.167 719.5,538.833 719.5,537.5 Z"/></g>
<g><path style="opacity:1" fill="#000000" d="M 735.5,537.5 C 739.5,537.5 743.5,537.5 747.5,537.5C 747.5,538.833 747.5,540.167 747.5,541.5C 743.5,541.5 739.5,541.5 735.5,541.5C 735.5,540.167 735.5,538.833 735.5,537.5 Z"/></g>
<g><path style="opacity:1" fill="#000000" d="M 751.5,537.5 C 755.5,537.5 759.5,537.5 763.5,537.5C 763.5,538.833 763.5,540.167 763.5,541.5C 759.5,541.5 755.5,541.5 751.5,541.5C 751.5,540.167 751.5,538.833 751.5,537.5 Z"/></g>
<g><path style="opacity:1" fill="#000000" d="M 767.5,537.5 C 771.5,537.5 775.5,537.5 779.5,537.5C 779.5,538.833 779.5,540.167 779.5,541.5C 775.5,541.5 771.5,541.5 767.5,541.5C 767.5,540.167 767.5,538.833 767.5,537.5 Z"/></g>
<g><path style="opacity:1" fill="#000000" d="M 783.5,537.5 C 787.5,537.5 791.5,537.5 795.5,537.5C 795.5,538.833 795.5,540.167 795.5,541.5C 791.5,541.5 787.5,541.5 783.5,541.5C 783.5,540.167 783.5,538.833 783.5,537.5 Z"/></g>
<g><path style="opacity:1" fill="#000000" d="M 799.5,537.5 C 803.5,537.5 807.5,537.5 811.5,537.5C 811.5,538.833 811.5,540.167 811.5,541.5C 807.5,541.5 803.5,541.5 799.5,541.5C 799.5,540.167 799.5,538.833 799.5,537.5 Z"/></g>
<g><path style="opacity:1" fill="#000000" d="M 815.5,537.5 C 819.5,537.5 823.5,537.5 827.5,537.5C 827.5,538.833 827.5,540.167 827.5,541.5C 823.5,541.5 819.5,541.5 815.5,541.5C 815.5,540.167 815.5,538.833 815.5,537.5 Z"/></g>
<g><path style="opacity:1" fill="#000000" d="M 831.5,537.5 C 835.5,537.5 839.5,537.5 843.5,537.5C 843.5,538.833 843.5,540.167 843.5,541.5C 839.5,541.5 835.5,541.5 831.5,541.5C 831.5,540.167 831.5,538.833 831.5,537.5 Z"/></g>
<g><path style="opacity:1" fill="#000000" d="M 847.5,537.5 C 851.5,537.5 855.5,537.5 859.5,537.5C 859.5,538.833 859.5,540.167 859.5,541.5C 855.5,541.5 851.5,541.5 847.5,541.5C 847.5,540.167 847.5,538.833 847.5,537.5 Z"/></g>
<g><path style="opacity:1" fill="#000000" d="M 863.5,537.5 C 867.5,537.5 871.5,537.5 875.5,537.5C 875.5,538.833 875.5,540.167 875.5,541.5C 871.5,541.5 867.5,541.5 863.5,541.5C 863.5,540.167 863.5,538.833 863.5,537.5 Z"/></g>
<g><path style="opacity:1" fill="#000000" d="M 879.5,537.5 C 883.5,537.5 887.5,537.5 891.5,537.5C 891.5,538.833 891.5,540.167 891.5,541.5C 887.5,541.5 883.5,541.5 879.5,541.5C 879.5,540.167 879.5,538.833 879.5,537.5 Z"/></g>
<g><path style="opacity:1" fill="#000000" d="M 895.5,537.5 C 899.5,537.5 903.5,537.5 907.5,537.5C 907.5,538.833 907.5,540.167 907.5,541.5C 903.5,541.5 899.5,541.5 895.5,541.5C 895.5,540.167 895.5,538.833 895.5,537.5 Z"/></g>
<g><path style="opacity:1" fill="#000000" d="M 911.5,537.5 C 915.5,537.5 919.5,537.5 923.5,537.5C 923.5,538.833 923.5,540.167 923.5,541.5C 919.5,541.5 915.5,541.5 911.5,541.5C 911.5,540.167 911.5,538.833 911.5,537.5 Z"/></g>
<g><path style="opacity:1" fill="#000000" d="M 927.5,537.5 C 931.5,537.5 935.5,537.5 939.5,537.5C 939.5,538.833 939.5,540.167 939.5,541.5C 935.5,541.5 931.5,541.5 927.5,541.5C 927.5,540.167 927.5,538.833 927.5,537.5 Z"/></g>
<g><path style="opacity:1" fill="#000000" d="M 943.5,537.5 C 947.5,537.5 951.5,537.5 955.5,537.5C 955.5,538.833 955.5,540.167 955.5,541.5C 951.5,541.5 947.5,541.5 943.5,541.5C 943.5,540.167 943.5,538.833 943.5,537.5 Z"/></g>
<g><path style="opacity:1" fill="#000000" d="M 959.5,537.5 C 963.5,537.5 967.5,537.5 971.5,537.5C 971.5,538.833 971.5,540.167 971.5,541.5C 967.5,541.5 963.5,541.5 959.5,541.5C 959.5,540.167 959.5,538.833 959.5,537.5 Z"/></g>
<g><path style="opacity:1" fill="#000000" d="M 975.5,537.5 C 979.5,537.5 983.5,537.5 987.5,537.5C 987.5,538.833 987.5,540.167 987.5,541.5C 983.5,541.5 979.5,541.5 975.5,541.5C 975.5,540.167 975.5,538.833 975.5,537.5 Z"/></g>
<g><path style="opacity:1" fill="#000000" d="M 991.5,537.5 C 995.5,537.5 999.5,537.5 1003.5,537.5C 1003.5,538.833 1003.5,540.167 1003.5,541.5C 999.5,541.5 995.5,541.5 991.5,541.5C 991.5,540.167 991.5,538.833 991.5,537.5 Z"/></g>
<g><path style="opacity:1" fill="#000000" d="M 1007.5,537.5 C 1011.5,537.5 1015.5,537.5 1019.5,537.5C 1019.5,538.833 1019.5,540.167 1019.5,541.5C 1015.5,541.5 1011.5,541.5 1007.5,541.5C 1007.5,540.167 1007.5,538.833 1007.5,537.5 Z"/></g>
<g><path style="opacity:1" fill="#05080e" d="M 1023.5,537.5 C 1027.5,537.5 1031.5,537.5 1035.5,537.5C 1035.5,538.833 1035.5,540.167 1035.5,541.5C 1033.5,541.5 1031.5,541.5 1029.5,541.5C 1029.5,544.833 1029.5,548.167 1029.5,551.5C 1028.17,551.5 1026.83,551.5 1025.5,551.5C 1025.6,546.694 1024.94,542.028 1023.5,537.5 Z"/></g>
<g><path style="opacity:1" fill="#000000" d="M 1039.5,537.5 C 1043.5,537.5 1047.5,537.5 1051.5,537.5C 1051.5,538.833 1051.5,540.167 1051.5,541.5C 1047.5,541.5 1043.5,541.5 1039.5,541.5C 1039.5,540.167 1039.5,538.833 1039.5,537.5 Z"/></g>
<g><path style="opacity:1" fill="#000000" d="M 1055.5,537.5 C 1059.5,537.5 1063.5,537.5 1067.5,537.5C 1067.5,538.833 1067.5,540.167 1067.5,541.5C 1063.5,541.5 1059.5,541.5 1055.5,541.5C 1055.5,540.167 1055.5,538.833 1055.5,537.5 Z"/></g>
<g><path style="opacity:1" fill="#000000" d="M 1071.5,537.5 C 1075.5,537.5 1079.5,537.5 1083.5,537.5C 1083.5,538.833 1083.5,540.167 1083.5,541.5C 1079.5,541.5 1075.5,541.5 1071.5,541.5C 1071.5,540.167 1071.5,538.833 1071.5,537.5 Z"/></g>
<g><path style="opacity:1" fill="#000000" d="M 1087.5,537.5 C 1091.5,537.5 1095.5,537.5 1099.5,537.5C 1099.5,538.833 1099.5,540.167 1099.5,541.5C 1095.5,541.5 1091.5,541.5 1087.5,541.5C 1087.5,540.167 1087.5,538.833 1087.5,537.5 Z"/></g>
<g><path style="opacity:1" fill="#000000" d="M 1103.5,537.5 C 1107.5,537.5 1111.5,537.5 1115.5,537.5C 1115.5,538.833 1115.5,540.167 1115.5,541.5C 1111.5,541.5 1107.5,541.5 1103.5,541.5C 1103.5,540.167 1103.5,538.833 1103.5,537.5 Z"/></g>
<g><path style="opacity:1" fill="#000000" d="M 1119.5,537.5 C 1123.5,537.5 1127.5,537.5 1131.5,537.5C 1131.5,538.833 1131.5,540.167 1131.5,541.5C 1127.5,541.5 1123.5,541.5 1119.5,541.5C 1119.5,540.167 1119.5,538.833 1119.5,537.5 Z"/></g>
<g><path style="opacity:1" fill="#000000" d="M 1135.5,537.5 C 1139.5,537.5 1143.5,537.5 1147.5,537.5C 1147.5,538.833 1147.5,540.167 1147.5,541.5C 1143.5,541.5 1139.5,541.5 1135.5,541.5C 1135.5,540.167 1135.5,538.833 1135.5,537.5 Z"/></g>
<g><path style="opacity:1" fill="#000000" d="M 1151.5,537.5 C 1155.5,537.5 1159.5,537.5 1163.5,537.5C 1163.5,538.833 1163.5,540.167 1163.5,541.5C 1159.5,541.5 1155.5,541.5 1151.5,541.5C 1151.5,540.167 1151.5,538.833 1151.5,537.5 Z"/></g>
<g><path style="opacity:1" fill="#000000" d="M 1167.5,537.5 C 1171.5,537.5 1175.5,537.5 1179.5,537.5C 1179.5,538.833 1179.5,540.167 1179.5,541.5C 1175.5,541.5 1171.5,541.5 1167.5,541.5C 1167.5,540.167 1167.5,538.833 1167.5,537.5 Z"/></g>
<g><path style="opacity:1" fill="#000000" d="M 1183.5,537.5 C 1187.5,537.5 1191.5,537.5 1195.5,537.5C 1195.5,538.833 1195.5,540.167 1195.5,541.5C 1191.5,541.5 1187.5,541.5 1183.5,541.5C 1183.5,540.167 1183.5,538.833 1183.5,537.5 Z"/></g>
<g><path style="opacity:1" fill="#000000" d="M 1199.5,537.5 C 1203.5,537.5 1207.5,537.5 1211.5,537.5C 1211.5,538.833 1211.5,540.167 1211.5,541.5C 1207.5,541.5 1203.5,541.5 1199.5,541.5C 1199.5,540.167 1199.5,538.833 1199.5,537.5 Z"/></g>
<g><path style="opacity:1" fill="#000000" d="M 1215.5,537.5 C 1219.5,537.5 1223.5,537.5 1227.5,537.5C 1227.5,538.833 1227.5,540.167 1227.5,541.5C 1223.5,541.5 1219.5,541.5 1215.5,541.5C 1215.5,540.167 1215.5,538.833 1215.5,537.5 Z"/></g>
<g><path style="opacity:1" fill="#000000" d="M 1231.5,537.5 C 1235.5,537.5 1239.5,537.5 1243.5,537.5C 1243.5,538.833 1243.5,540.167 1243.5,541.5C 1239.5,541.5 1235.5,541.5 1231.5,541.5C 1231.5,540.167 1231.5,538.833 1231.5,537.5 Z"/></g>
<g><path style="opacity:1" fill="#000000" d="M 1247.5,537.5 C 1251.5,537.5 1255.5,537.5 1259.5,537.5C 1259.5,538.833 1259.5,540.167 1259.5,541.5C 1255.5,541.5 1251.5,541.5 1247.5,541.5C 1247.5,540.167 1247.5,538.833 1247.5,537.5 Z"/></g>
<g><path style="opacity:1" fill="#000000" d="M 1263.5,537.5 C 1267.5,537.5 1271.5,537.5 1275.5,537.5C 1275.5,538.833 1275.5,540.167 1275.5,541.5C 1271.5,541.5 1267.5,541.5 1263.5,541.5C 1263.5,540.167 1263.5,538.833 1263.5,537.5 Z"/></g>
<g><path style="opacity:1" fill="#000000" d="M 1279.5,537.5 C 1283.5,537.5 1287.5,537.5 1291.5,537.5C 1291.5,538.833 1291.5,540.167 1291.5,541.5C 1287.5,541.5 1283.5,541.5 1279.5,541.5C 1279.5,540.167 1279.5,538.833 1279.5,537.5 Z"/></g>
<g><path style="opacity:1" fill="#000000" d="M 1295.5,537.5 C 1299.5,537.5 1303.5,537.5 1307.5,537.5C 1307.5,538.833 1307.5,540.167 1307.5,541.5C 1303.5,541.5 1299.5,541.5 1295.5,541.5C 1295.5,540.167 1295.5,538.833 1295.5,537.5 Z"/></g>
<g><path style="opacity:1" fill="#000000" d="M 1311.5,537.5 C 1315.5,537.5 1319.5,537.5 1323.5,537.5C 1323.5,538.833 1323.5,540.167 1323.5,541.5C 1319.5,541.5 1315.5,541.5 1311.5,541.5C 1311.5,540.167 1311.5,538.833 1311.5,537.5 Z"/></g>
<g><path style="opacity:1" fill="#000000" d="M 1327.5,537.5 C 1331.5,537.5 1335.5,537.5 1339.5,537.5C 1339.5,538.833 1339.5,540.167 1339.5,541.5C 1335.5,541.5 1331.5,541.5 1327.5,541.5C 1327.5,540.167 1327.5,538.833 1327.5,537.5 Z"/></g>
<g><path style="opacity:1" fill="#000000" d="M 1343.5,537.5 C 1347.5,537.5 1351.5,537.5 1355.5,537.5C 1355.5,538.833 1355.5,540.167 1355.5,541.5C 1351.5,541.5 1347.5,541.5 1343.5,541.5C 1343.5,540.167 1343.5,538.833 1343.5,537.5 Z"/></g>
<g><path style="opacity:1" fill="#000000" d="M 1359.5,537.5 C 1363.5,537.5 1367.5,537.5 1371.5,537.5C 1371.5,538.833 1371.5,540.167 1371.5,541.5C 1367.5,541.5 1363.5,541.5 1359.5,541.5C 1359.5,540.167 1359.5,538.833 1359.5,537.5 Z"/></g>
<g><path style="opacity:1" fill="#000000" d="M 1375.5,537.5 C 1379.5,537.5 1383.5,537.5 1387.5,537.5C 1387.5,538.833 1387.5,540.167 1387.5,541.5C 1383.5,541.5 1379.5,541.5 1375.5,541.5C 1375.5,540.167 1375.5,538.833 1375.5,537.5 Z"/></g>
<g><path style="opacity:1" fill="#000000" d="M 1391.5,537.5 C 1395.5,537.5 1399.5,537.5 1403.5,537.5C 1403.5,538.833 1403.5,540.167 1403.5,541.5C 1399.5,541.5 1395.5,541.5 1391.5,541.5C 1391.5,540.167 1391.5,538.833 1391.5,537.5 Z"/></g>
<g><path style="opacity:1" fill="#000000" d="M 1407.5,537.5 C 1411.5,537.5 1415.5,537.5 1419.5,537.5C 1419.5,538.833 1419.5,540.167 1419.5,541.5C 1415.5,541.5 1411.5,541.5 1407.5,541.5C 1407.5,540.167 1407.5,538.833 1407.5,537.5 Z"/></g>
<g><path style="opacity:1" fill="#000000" d="M 1423.5,537.5 C 1427.5,537.5 1431.5,537.5 1435.5,537.5C 1435.5,538.833 1435.5,540.167 1435.5,541.5C 1431.5,541.5 1427.5,541.5 1423.5,541.5C 1423.5,540.167 1423.5,538.833 1423.5,537.5 Z"/></g>
<g><path style="opacity:1" fill="#000000" d="M 1439.5,537.5 C 1443.5,537.5 1447.5,537.5 1451.5,537.5C 1451.5,538.833 1451.5,540.167 1451.5,541.5C 1447.5,541.5 1443.5,541.5 1439.5,541.5C 1439.5,540.167 1439.5,538.833 1439.5,537.5 Z"/></g>
<g><path style="opacity:1" fill="#000000" d="M 1455.5,537.5 C 1459.5,537.5 1463.5,537.5 1467.5,537.5C 1467.5,538.833 1467.5,540.167 1467.5,541.5C 1463.5,541.5 1459.5,541.5 1455.5,541.5C 1455.5,540.167 1455.5,538.833 1455.5,537.5 Z"/></g>
<g><path style="opacity:1" fill="#000000" d="M 1471.5,537.5 C 1475.5,537.5 1479.5,537.5 1483.5,537.5C 1483.5,538.833 1483.5,540.167 1483.5,541.5C 1479.5,541.5 1475.5,541.5 1471.5,541.5C 1471.5,540.167 1471.5,538.833 1471.5,537.5 Z"/></g>
<g><path style="opacity:1" fill="#000000" d="M 1487.5,537.5 C 1491.5,537.5 1495.5,537.5 1499.5,537.5C 1499.5,538.833 1499.5,540.167 1499.5,541.5C 1495.5,541.5 1491.5,541.5 1487.5,541.5C 1487.5,540.167 1487.5,538.833 1487.5,537.5 Z"/></g>
<g><path style="opacity:1" fill="#000000" d="M 1503.5,537.5 C 1507.5,537.5 1511.5,537.5 1515.5,537.5C 1515.5,538.833 1515.5,540.167 1515.5,541.5C 1511.5,541.5 1507.5,541.5 1503.5,541.5C 1503.5,540.167 1503.5,538.833 1503.5,537.5 Z"/></g>
<g><path style="opacity:1" fill="#000000" d="M 1519.5,537.5 C 1523.5,537.5 1527.5,537.5 1531.5,537.5C 1531.5,538.833 1531.5,540.167 1531.5,541.5C 1527.5,541.5 1523.5,541.5 1519.5,541.5C 1519.5,540.167 1519.5,538.833 1519.5,537.5 Z"/></g>
<g><path style="opacity:1" fill="#000000" d="M 1535.5,537.5 C 1539.5,537.5 1543.5,537.5 1547.5,537.5C 1547.5,538.833 1547.5,540.167 1547.5,541.5C 1543.5,541.5 1539.5,541.5 1535.5,541.5C 1535.5,540.167 1535.5,538.833 1535.5,537.5 Z"/></g>
<g><path style="opacity:1" fill="#000000" d="M 1551.5,537.5 C 1555.5,537.5 1559.5,537.5 1563.5,537.5C 1563.5,538.833 1563.5,540.167 1563.5,541.5C 1559.5,541.5 1555.5,541.5 1551.5,541.5C 1551.5,540.167 1551.5,538.833 1551.5,537.5 Z"/></g>
<g><path style="opacity:1" fill="#000000" d="M 1567.5,537.5 C 1571.5,537.5 1575.5,537.5 1579.5,537.5C 1579.5,538.833 1579.5,540.167 1579.5,541.5C 1575.5,541.5 1571.5,541.5 1567.5,541.5C 1567.5,540.167 1567.5,538.833 1567.5,537.5 Z"/></g>
<g><path style="opacity:1" fill="#000000" d="M 1583.5,537.5 C 1587.5,537.5 1591.5,537.5 1595.5,537.5C 1595.5,538.833 1595.5,540.167 1595.5,541.5C 1591.5,541.5 1587.5,541.5 1583.5,541.5C 1583.5,540.167 1583.5,538.833 1583.5,537.5 Z"/></g>
<g><path style="opacity:1" fill="#000000" d="M 1599.5,537.5 C 1603.5,537.5 1607.5,537.5 1611.5,537.5C 1611.5,538.833 1611.5,540.167 1611.5,541.5C 1607.5,541.5 1603.5,541.5 1599.5,541.5C 1599.5,540.167 1599.5,538.833 1599.5,537.5 Z"/></g>
<g><path style="opacity:1" fill="#000000" d="M 1615.5,537.5 C 1619.5,537.5 1623.5,537.5 1627.5,537.5C 1627.5,538.833 1627.5,540.167 1627.5,541.5C 1623.5,541.5 1619.5,541.5 1615.5,541.5C 1615.5,540.167 1615.5,538.833 1615.5,537.5 Z"/></g>
<g><path style="opacity:1" fill="#000000" d="M 1631.5,537.5 C 1635.5,537.5 1639.5,537.5 1643.5,537.5C 1643.5,538.833 1643.5,540.167 1643.5,541.5C 1639.5,541.5 1635.5,541.5 1631.5,541.5C 1631.5,540.167 1631.5,538.833 1631.5,537.5 Z"/></g>
<g><path style="opacity:1" fill="#000000" d="M 1647.5,537.5 C 1651.5,537.5 1655.5,537.5 1659.5,537.5C 1659.5,538.833 1659.5,540.167 1659.5,541.5C 1655.5,541.5 1651.5,541.5 1647.5,541.5C 1647.5,540.167 1647.5,538.833 1647.5,537.5 Z"/></g>
<g><path style="opacity:1" fill="#000000" d="M 1663.5,537.5 C 1667.5,537.5 1671.5,537.5 1675.5,537.5C 1675.5,538.833 1675.5,540.167 1675.5,541.5C 1671.5,541.5 1667.5,541.5 1663.5,541.5C 1663.5,540.167 1663.5,538.833 1663.5,537.5 Z"/></g>
<g><path style="opacity:1" fill="#000000" d="M 1679.5,537.5 C 1683.5,537.5 1687.5,537.5 1691.5,537.5C 1691.5,538.833 1691.5,540.167 1691.5,541.5C 1687.5,541.5 1683.5,541.5 1679.5,541.5C 1679.5,540.167 1679.5,538.833 1679.5,537.5 Z"/></g>
<g><path style="opacity:1" fill="#000000" d="M 1695.5,537.5 C 1699.5,537.5 1703.5,537.5 1707.5,537.5C 1707.5,538.833 1707.5,540.167 1707.5,541.5C 1703.5,541.5 1699.5,541.5 1695.5,541.5C 1695.5,540.167 1695.5,538.833 1695.5,537.5 Z"/></g>
<g><path style="opacity:1" fill="#000000" d="M 1711.5,537.5 C 1715.5,537.5 1719.5,537.5 1723.5,537.5C 1723.5,538.833 1723.5,540.167 1723.5,541.5C 1719.5,541.5 1715.5,541.5 1711.5,541.5C 1711.5,540.167 1711.5,538.833 1711.5,537.5 Z"/></g>
<g><path style="opacity:1" fill="#000000" d="M 1727.5,537.5 C 1731.5,537.5 1735.5,537.5 1739.5,537.5C 1739.5,538.833 1739.5,540.167 1739.5,541.5C 1735.5,541.5 1731.5,541.5 1727.5,541.5C 1727.5,540.167 1727.5,538.833 1727.5,537.5 Z"/></g>
<g><path style="opacity:1" fill="#000000" d="M 1743.5,537.5 C 1747.5,537.5 1751.5,537.5 1755.5,537.5C 1755.5,538.833 1755.5,540.167 1755.5,541.5C 1751.5,541.5 1747.5,541.5 1743.5,541.5C 1743.5,540.167 1743.5,538.833 1743.5,537.5 Z"/></g>
<g><path style="opacity:1" fill="#000000" d="M 1759.5,537.5 C 1763.5,537.5 1767.5,537.5 1771.5,537.5C 1771.5,538.833 1771.5,540.167 1771.5,541.5C 1767.5,541.5 1763.5,541.5 1759.5,541.5C 1759.5,540.167 1759.5,538.833 1759.5,537.5 Z"/></g>
<g><path style="opacity:1" fill="#000000" d="M 1775.5,537.5 C 1779.5,537.5 1783.5,537.5 1787.5,537.5C 1787.5,538.833 1787.5,540.167 1787.5,541.5C 1783.5,541.5 1779.5,541.5 1775.5,541.5C 1775.5,540.167 1775.5,538.833 1775.5,537.5 Z"/></g>
<g><path style="opacity:1" fill="#000000" d="M 1791.5,537.5 C 1795.5,537.5 1799.5,537.5 1803.5,537.5C 1803.5,538.833 1803.5,540.167 1803.5,541.5C 1799.5,541.5 1795.5,541.5 1791.5,541.5C 1791.5,540.167 1791.5,538.833 1791.5,537.5 Z"/></g>
<g><path style="opacity:1" fill="#000000" d="M 1807.5,537.5 C 1811.5,537.5 1815.5,537.5 1819.5,537.5C 1819.5,538.833 1819.5,540.167 1819.5,541.5C 1815.5,541.5 1811.5,541.5 1807.5,541.5C 1807.5,540.167 1807.5,538.833 1807.5,537.5 Z"/></g>
<g><path style="opacity:1" fill="#000000" d="M 1823.5,537.5 C 1827.5,537.5 1831.5,537.5 1835.5,537.5C 1835.5,538.833 1835.5,540.167 1835.5,541.5C 1831.5,541.5 1827.5,541.5 1823.5,541.5C 1823.5,540.167 1823.5,538.833 1823.5,537.5 Z"/></g>
<g><path style="opacity:1" fill="#000000" d="M 1839.5,537.5 C 1843.5,537.5 1847.5,537.5 1851.5,537.5C 1851.5,538.833 1851.5,540.167 1851.5,541.5C 1847.5,541.5 1843.5,541.5 1839.5,541.5C 1839.5,540.167 1839.5,538.833 1839.5,537.5 Z"/></g>
<g><path style="opacity:1" fill="#000000" d="M 1855.5,537.5 C 1859.5,537.5 1863.5,537.5 1867.5,537.5C 1867.5,538.833 1867.5,540.167 1867.5,541.5C 1863.5,541.5 1859.5,541.5 1855.5,541.5C 1855.5,540.167 1855.5,538.833 1855.5,537.5 Z"/></g>
<g><path style="opacity:1" fill="#000000" d="M 1871.5,537.5 C 1875.5,537.5 1879.5,537.5 1883.5,537.5C 1883.5,538.833 1883.5,540.167 1883.5,541.5C 1879.5,541.5 1875.5,541.5 1871.5,541.5C 1871.5,540.167 1871.5,538.833 1871.5,537.5 Z"/></g>
<g><path style="opacity:1" fill="#000000" d="M 1887.5,537.5 C 1891.5,537.5 1895.5,537.5 1899.5,537.5C 1899.5,538.833 1899.5,540.167 1899.5,541.5C 1895.5,541.5 1891.5,541.5 1887.5,541.5C 1887.5,540.167 1887.5,538.833 1887.5,537.5 Z"/></g>
<g><path style="opacity:1" fill="#000000" d="M 1903.5,537.5 C 1907.5,537.5 1911.5,537.5 1915.5,537.5C 1915.5,538.833 1915.5,540.167 1915.5,541.5C 1911.5,541.5 1907.5,541.5 1903.5,541.5C 1903.5,540.167 1903.5,538.833 1903.5,537.5 Z"/></g>
<g><path style="opacity:1" fill="#0a0f17" d="M 1025.5,555.5 C 1026.83,555.5 1028.17,555.5 1029.5,555.5C 1029.5,559.5 1029.5,563.5 1029.5,567.5C 1028.17,567.5 1026.83,567.5 1025.5,567.5C 1025.5,563.5 1025.5,559.5 1025.5,555.5 Z"/></g>
<g><path style="opacity:1" fill="#0a0f17" d="M 1025.5,571.5 C 1026.83,571.5 1028.17,571.5 1029.5,571.5C 1029.5,575.5 1029.5,579.5 1029.5,583.5C 1028.17,583.5 1026.83,583.5 1025.5,583.5C 1025.5,579.5 1025.5,575.5 1025.5,571.5 Z"/></g>
<g><path style="opacity:1" fill="#0a0f17" d="M 1025.5,587.5 C 1026.83,587.5 1028.17,587.5 1029.5,587.5C 1029.5,591.5 1029.5,595.5 1029.5,599.5C 1028.17,599.5 1026.83,599.5 1025.5,599.5C 1025.5,595.5 1025.5,591.5 1025.5,587.5 Z"/></g>
<g><path style="opacity:1" fill="#010080" d="M 1499.5,587.5 C 1590.17,587.333 1680.83,587.5 1771.5,588C 1792.84,594.01 1806.01,607.843 1811,629.5C 1811.67,750.833 1811.67,872.167 1811,993.5C 1806.92,1018.49 1792.42,1033.32 1767.5,1038C 1678.83,1038.67 1590.17,1038.67 1501.5,1038C 1478.33,1031.83 1464.5,1017 1460,993.5C 1459.33,872.833 1459.33,752.167 1460,631.5C 1464.27,608.733 1477.44,594.066 1499.5,587.5 Z"/></g>
<g><path style="opacity:1" fill="#0a0f17" d="M 1025.5,603.5 C 1026.83,603.5 1028.17,603.5 1029.5,603.5C 1029.5,607.5 1029.5,611.5 1029.5,615.5C 1028.17,615.5 1026.83,615.5 1025.5,615.5C 1025.5,611.5 1025.5,607.5 1025.5,603.5 Z"/></g>
<g><path style="opacity:1" fill="#0a0f17" d="M 1025.5,619.5 C 1026.83,619.5 1028.17,619.5 1029.5,619.5C 1029.5,623.5 1029.5,627.5 1029.5,631.5C 1028.17,631.5 1026.83,631.5 1025.5,631.5C 1025.5,627.5 1025.5,623.5 1025.5,619.5 Z"/></g>
<g><path style="opacity:1" fill="#0a0f17" d="M 1025.5,635.5 C 1026.83,635.5 1028.17,635.5 1029.5,635.5C 1029.5,639.5 1029.5,643.5 1029.5,647.5C 1028.17,647.5 1026.83,647.5 1025.5,647.5C 1025.5,643.5 1025.5,639.5 1025.5,635.5 Z"/></g>
<g><path style="opacity:1" fill="#0a0f17" d="M 1025.5,651.5 C 1026.83,651.5 1028.17,651.5 1029.5,651.5C 1029.5,655.5 1029.5,659.5 1029.5,663.5C 1028.17,663.5 1026.83,663.5 1025.5,663.5C 1025.5,659.5 1025.5,655.5 1025.5,651.5 Z"/></g>
<g><path style="opacity:1" fill="#0a0f17" d="M 1025.5,667.5 C 1026.83,667.5 1028.17,667.5 1029.5,667.5C 1029.5,671.5 1029.5,675.5 1029.5,679.5C 1028.17,679.5 1026.83,679.5 1025.5,679.5C 1025.5,675.5 1025.5,671.5 1025.5,667.5 Z"/></g>
<g><path style="opacity:1" fill="#0a0f17" d="M 1025.5,683.5 C 1026.83,683.5 1028.17,683.5 1029.5,683.5C 1029.5,687.5 1029.5,691.5 1029.5,695.5C 1028.17,695.5 1026.83,695.5 1025.5,695.5C 1025.5,691.5 1025.5,687.5 1025.5,683.5 Z"/></g>
<g><path style="opacity:1" fill="#f1f1e4" d="M 1658.5,689.5 C 1667.69,688.377 1676.35,689.877 1684.5,694C 1687.36,697.681 1688.19,701.848 1687,706.5C 1683.45,712.946 1678.95,713.946 1673.5,709.5C 1677.24,706.324 1678.41,702.324 1677,697.5C 1674.46,694.234 1671.13,692.9 1667,693.5C 1656.87,694.624 1650.87,700.291 1649,710.5C 1647.7,719.468 1648.7,728.135 1652,736.5C 1658.73,746.298 1667.57,748.798 1678.5,744C 1680.35,742.316 1682.02,740.483 1683.5,738.5C 1688.08,736.908 1689.24,738.241 1687,742.5C 1679.5,750.34 1670.33,753.173 1659.5,751C 1648.76,747.929 1641.6,741.096 1638,730.5C 1633.75,710.996 1640.58,697.329 1658.5,689.5 Z"/></g>
<g><path style="opacity:1" fill="#f3f3e4" d="M 1523.5,690.5 C 1534.17,690.333 1544.84,690.5 1555.5,691C 1578.94,697.037 1586.77,711.537 1579,734.5C 1572.86,743.326 1564.36,748.159 1553.5,749C 1543.51,749.5 1533.51,749.666 1523.5,749.5C 1523.5,748.167 1523.5,746.833 1523.5,745.5C 1525.53,745.662 1527.53,745.495 1529.5,745C 1530.19,743.933 1530.69,742.766 1531,741.5C 1531.67,726.833 1531.67,712.167 1531,697.5C 1529.15,694.959 1526.65,693.959 1523.5,694.5C 1523.5,693.167 1523.5,691.833 1523.5,690.5 Z"/></g>
<g><path style="opacity:1" fill="#f2f3e4" d="M 1586.5,690.5 C 1600.5,690.333 1614.5,690.5 1628.5,691C 1629.77,693.554 1630.44,696.387 1630.5,699.5C 1630.33,702.167 1630.17,704.833 1630,707.5C 1628.06,708.86 1626.4,708.527 1625,706.5C 1624.62,702.442 1623.12,698.942 1620.5,696C 1614.93,694.649 1609.26,694.149 1603.5,694.5C 1603.5,702.5 1603.5,710.5 1603.5,718.5C 1609.5,718.5 1615.5,718.5 1621.5,718.5C 1621.5,719.833 1621.5,721.167 1621.5,722.5C 1615.5,722.5 1609.5,722.5 1603.5,722.5C 1603.33,729.508 1603.5,736.508 1604,743.5C 1604.5,744 1605,744.5 1605.5,745C 1611.17,745.667 1616.83,745.667 1622.5,745C 1623.42,744.626 1624.25,744.126 1625,743.5C 1626.2,740.911 1627.2,738.244 1628,735.5C 1631.19,732.507 1633.02,733.174 1633.5,737.5C 1632.92,741.155 1632.42,744.822 1632,748.5C 1616.67,749.833 1601.33,749.833 1586,748.5C 1585.38,747.551 1585.55,746.718 1586.5,746C 1589.61,746.053 1592.11,744.886 1594,742.5C 1594.67,727.5 1594.67,712.5 1594,697.5C 1592,695.253 1589.5,694.253 1586.5,694.5C 1586.5,693.167 1586.5,691.833 1586.5,690.5 Z"/></g>
<g><path style="opacity:1" fill="#f4f5e5" d="M 1691.5,690.5 C 1699.83,690.5 1708.17,690.5 1716.5,690.5C 1716.5,691.833 1716.5,693.167 1716.5,694.5C 1713.35,693.959 1710.85,694.959 1709,697.5C 1708.17,704.524 1708.34,711.524 1709.5,718.5C 1717.7,712.467 1724.7,705.301 1730.5,697C 1727.8,695.575 1727.14,693.575 1728.5,691C 1735.17,690.333 1741.83,690.333 1748.5,691C 1749.34,692.011 1749.67,693.178 1749.5,694.5C 1744.19,693.99 1739.52,695.49 1735.5,699C 1730.06,705.191 1724.4,711.191 1718.5,717C 1727.17,727 1736.5,736.333 1746.5,745C 1748.13,745.494 1749.8,745.66 1751.5,745.5C 1751.5,746.833 1751.5,748.167 1751.5,749.5C 1746.16,749.666 1740.82,749.499 1735.5,749C 1727.87,739.703 1719.87,730.703 1711.5,722C 1710.55,721.517 1709.55,721.351 1708.5,721.5C 1708.33,728.508 1708.5,735.508 1709,742.5C 1709.37,743.416 1709.87,744.25 1710.5,745C 1712.47,745.495 1714.47,745.662 1716.5,745.5C 1716.5,746.833 1716.5,748.167 1716.5,749.5C 1708.16,749.666 1699.83,749.5 1691.5,749C 1691.04,748.586 1690.71,748.086 1690.5,747.5C 1693.5,746.245 1696.34,744.579 1699,742.5C 1699.67,727.5 1699.67,712.5 1699,697.5C 1697,695.253 1694.5,694.253 1691.5,694.5C 1691.5,693.167 1691.5,691.833 1691.5,690.5 Z"/></g>
<g><path style="opacity:1" fill="#090480" d="M 1540.5,694.5 C 1555.06,692.354 1564.89,698.02 1570,711.5C 1571.55,721.286 1570.21,730.619 1566,739.5C 1559.52,745.114 1552.02,746.948 1543.5,745C 1542.3,744.097 1541.47,742.931 1541,741.5C 1540.5,725.837 1540.33,710.17 1540.5,694.5 Z"/></g>
<g><path style="opacity:1" fill="#0a0f17" d="M 1025.5,699.5 C 1026.83,699.5 1028.17,699.5 1029.5,699.5C 1029.5,703.5 1029.5,707.5 1029.5,711.5C 1028.17,711.5 1026.83,711.5 1025.5,711.5C 1025.5,707.5 1025.5,703.5 1025.5,699.5 Z"/></g>
<g><path style="opacity:1" fill="#0a0f17" d="M 1025.5,715.5 C 1026.83,715.5 1028.17,715.5 1029.5,715.5C 1029.5,719.5 1029.5,723.5 1029.5,727.5C 1028.17,727.5 1026.83,727.5 1025.5,727.5C 1025.5,723.5 1025.5,719.5 1025.5,715.5 Z"/></g>
<g><path style="opacity:1" fill="#0a0f17" d="M 1025.5,731.5 C 1026.83,731.5 1028.17,731.5 1029.5,731.5C 1029.5,735.5 1029.5,739.5 1029.5,743.5C 1028.17,743.5 1026.83,743.5 1025.5,743.5C 1025.5,739.5 1025.5,735.5 1025.5,731.5 Z"/></g>
<g><path style="opacity:1" fill="#052697" d="M 61.5,738.5 C 270.5,738.333 479.5,738.5 688.5,739C 697.026,742.192 702.859,748.026 706,756.5C 706.667,815.167 706.667,873.833 706,932.5C 703.362,941.313 697.862,947.479 689.5,951C 479.5,951.667 269.5,951.667 59.5,951C 50.9035,948.071 45.4035,942.237 43,933.5C 42.3333,874.167 42.3333,814.833 43,755.5C 46.4389,746.723 52.6055,741.057 61.5,738.5 Z"/></g>
<g><path style="opacity:1" fill="#0a0f17" d="M 1025.5,747.5 C 1026.83,747.5 1028.17,747.5 1029.5,747.5C 1029.5,751.5 1029.5,755.5 1029.5,759.5C 1028.17,759.5 1026.83,759.5 1025.5,759.5C 1025.5,755.5 1025.5,751.5 1025.5,747.5 Z"/></g>
<g><path style="opacity:1" fill="#0a0f17" d="M 1025.5,763.5 C 1026.83,763.5 1028.17,763.5 1029.5,763.5C 1029.5,767.5 1029.5,771.5 1029.5,775.5C 1028.17,775.5 1026.83,775.5 1025.5,775.5C 1025.5,771.5 1025.5,767.5 1025.5,763.5 Z"/></g>
<g><path style="opacity:1" fill="#f3f4e4" d="M 1606.5,763.5 C 1625.57,761.113 1637.74,769.113 1643,787.5C 1644.8,807.084 1636.3,819.584 1617.5,825C 1599.14,826.059 1587.97,817.559 1584,799.5C 1582.65,781.855 1590.15,769.855 1606.5,763.5 Z"/></g>
<g><path style="opacity:1" fill="#f4f4e5" d="M 1647.5,764.5 C 1660.84,764.333 1674.17,764.5 1687.5,765C 1688.64,770.416 1688.81,775.916 1688,781.5C 1686.67,782.833 1685.33,782.833 1684,781.5C 1683.48,777.228 1681.98,773.395 1679.5,770C 1674.6,768.675 1669.6,768.175 1664.5,768.5C 1664.5,776.5 1664.5,784.5 1664.5,792.5C 1670.18,792.334 1675.84,792.501 1681.5,793C 1682.34,794.011 1682.67,795.178 1682.5,796.5C 1676.5,796.5 1670.5,796.5 1664.5,796.5C 1664.33,803.175 1664.5,809.842 1665,816.5C 1665.37,817.416 1665.87,818.25 1666.5,819C 1668.47,819.495 1670.47,819.662 1672.5,819.5C 1672.5,820.833 1672.5,822.167 1672.5,823.5C 1664.16,823.666 1655.83,823.5 1647.5,823C 1647.04,822.586 1646.71,822.086 1646.5,821.5C 1649.5,820.245 1652.34,818.579 1655,816.5C 1655.67,801.5 1655.67,786.5 1655,771.5C 1653,769.253 1650.5,768.253 1647.5,768.5C 1647.5,767.167 1647.5,765.833 1647.5,764.5 Z"/></g>
<g><path style="opacity:1" fill="#090380" d="M 1607.5,767.5 C 1621.32,766.48 1629.48,772.813 1632,786.5C 1632.94,796.785 1630.94,806.451 1626,815.5C 1617,823.708 1608.33,823.375 1600,814.5C 1593.29,801.626 1592.95,788.626 1599,775.5C 1601.16,772.024 1603.99,769.357 1607.5,767.5 Z"/></g>
<g><path style="opacity:1" fill="#0a0f17" d="M 1025.5,779.5 C 1026.83,779.5 1028.17,779.5 1029.5,779.5C 1029.5,783.5 1029.5,787.5 1029.5,791.5C 1028.17,791.5 1026.83,791.5 1025.5,791.5C 1025.5,787.5 1025.5,783.5 1025.5,779.5 Z"/></g>
<g><path style="opacity:1" fill="#0a0f17" d="M 1025.5,795.5 C 1026.83,795.5 1028.17,795.5 1029.5,795.5C 1029.5,799.5 1029.5,803.5 1029.5,807.5C 1028.17,807.5 1026.83,807.5 1025.5,807.5C 1025.5,803.5 1025.5,799.5 1025.5,795.5 Z"/></g>
<g><path style="opacity:1" fill="#f5f6e6" d="M 112.5,806.5 C 127.837,806.333 143.17,806.5 158.5,807C 180.786,811.073 186.953,823.24 177,843.5C 165.804,855.17 152.304,858.837 136.5,854.5C 136.13,862.903 136.63,871.236 138,879.5C 140.984,882.1 144.484,883.1 148.5,882.5C 148.714,884.144 148.38,885.644 147.5,887C 135.838,887.5 124.171,887.667 112.5,887.5C 112.5,885.833 112.5,884.167 112.5,882.5C 115.607,882.649 118.607,882.149 121.5,881C 122.126,880.25 122.626,879.416 123,878.5C 123.667,857.167 123.667,835.833 123,814.5C 120.016,811.9 116.516,810.9 112.5,811.5C 112.5,809.833 112.5,808.167 112.5,806.5 Z"/></g>
<g><path style="opacity:1" fill="#f7f8e7" d="M 271.5,805.5 C 284.075,803.7 292.575,808.7 297,820.5C 304.837,841 313.337,861.167 322.5,881C 324.715,882.044 327.048,882.71 329.5,883C 330.833,884.333 330.833,885.667 329.5,887C 318.172,887.5 306.838,887.667 295.5,887.5C 295.5,885.833 295.5,884.167 295.5,882.5C 298.93,882.893 302.096,882.227 305,880.5C 304.809,873.92 302.976,867.753 299.5,862C 288.839,861.5 278.172,861.333 267.5,861.5C 266.64,864.911 265.474,868.244 264,871.5C 260.625,881.298 264.125,884.964 274.5,882.5C 274.5,884.167 274.5,885.833 274.5,887.5C 244.26,887.829 214.093,887.495 184,886.5C 183.316,885.216 183.483,884.049 184.5,883C 188.076,882.81 191.242,881.643 194,879.5C 195.121,868.388 195.621,857.221 195.5,846C 195.333,836.167 195.167,826.333 195,816.5C 194.535,815.069 193.701,813.903 192.5,813C 189.899,812.08 187.232,811.413 184.5,811C 183.483,809.951 183.316,808.784 184,807.5C 195.753,806.512 207.586,806.179 219.5,806.5C 219.714,808.144 219.38,809.644 218.5,811C 216.5,811.333 214.5,811.667 212.5,812C 210.667,812.5 209.5,813.667 209,815.5C 208.333,836.5 208.333,857.5 209,878.5C 209.5,880.333 210.667,881.5 212.5,882C 219.914,882.89 227.247,882.557 234.5,881C 238.916,877.676 241.416,873.176 242,867.5C 244.075,865.352 246.408,865.018 249,866.5C 249.251,871.501 249.084,876.501 248.5,881.5C 250.484,881.617 252.15,880.95 253.5,879.5C 262.913,858.507 271.913,837.34 280.5,816C 280.241,814.739 279.574,813.739 278.5,813C 276.02,812.04 273.52,811.207 271,810.5C 270.36,808.735 270.527,807.068 271.5,805.5 Z"/></g>
<g><path style="opacity:1" fill="#f7f9e7" d="M 426.5,811.5 C 425.505,822.321 425.172,833.321 425.5,844.5C 433.5,844.5 441.5,844.5 449.5,844.5C 451.582,845.585 451.916,847.085 450.5,849C 442.507,849.5 434.507,849.666 426.5,849.5C 426.334,859.172 426.5,868.839 427,878.5C 427.374,879.416 427.874,880.25 428.5,881C 436.061,882.598 443.728,882.931 451.5,882C 453.624,880.878 455.457,879.378 457,877.5C 458.136,873.757 459.47,870.09 461,866.5C 464.427,864.714 466.927,865.548 468.5,869C 467.16,875.036 465.827,881.036 464.5,887C 443.594,887.826 422.76,887.66 402,886.5C 401.316,885.216 401.483,884.049 402.5,883C 406.076,882.81 409.242,881.643 412,879.5C 413.121,868.388 413.621,857.221 413.5,846C 413.333,836.167 413.167,826.333 413,816.5C 410.505,812.546 406.839,810.879 402,811.5C 396.671,811.331 392.338,813.331 389,817.5C 382.157,829.184 375.824,841.184 370,853.5C 369.333,861.5 369.333,869.5 370,877.5C 372.061,881.981 375.561,883.648 380.5,882.5C 380.5,884.167 380.5,885.833 380.5,887.5C 368.586,887.821 356.753,887.488 345,886.5C 344.316,885.216 344.483,884.049 345.5,883C 348.232,882.587 350.899,881.92 353.5,881C 354.701,880.097 355.535,878.931 356,877.5C 356.667,869.833 356.667,862.167 356,854.5C 350.527,842.221 344.527,830.221 338,818.5C 334.603,814.051 330.103,811.551 324.5,811C 322.75,806.079 324.584,804.245 330,805.5C 340.042,805.686 347.709,810.02 353,818.5C 357.412,827.657 362.078,836.657 367,845.5C 372.318,835.031 377.485,824.531 382.5,814C 382.095,813.055 381.428,812.388 380.5,812C 377.854,811.503 375.187,811.336 372.5,811.5C 372.5,809.833 372.5,808.167 372.5,806.5C 402.502,806.333 432.502,806.5 462.5,807C 463.646,814.086 463.812,821.253 463,828.5C 460.667,829.833 458.333,829.833 456,828.5C 455.922,822.37 453.756,817.204 449.5,813C 441.946,811.568 434.279,811.068 426.5,811.5 Z"/></g>
<g><path style="opacity:1" fill="#f7f9e7" d="M 472.5,806.5 C 487.837,806.333 503.17,806.5 518.5,807C 535.809,809.151 542.642,818.651 539,835.5C 534.58,842.462 528.413,847.128 520.5,849.5C 526.529,860.029 533.529,869.862 541.5,879C 544.376,881.437 547.71,882.77 551.5,883C 552.833,884.333 552.833,885.667 551.5,887C 537.743,890.037 527.243,885.537 520,873.5C 515.893,866.396 511.393,859.562 506.5,853C 503.312,851.684 499.978,851.184 496.5,851.5C 496.334,860.506 496.5,869.506 497,878.5C 499.546,882.05 503.046,883.383 507.5,882.5C 507.5,884.167 507.5,885.833 507.5,887.5C 495.586,887.821 483.753,887.488 472,886.5C 471.316,885.216 471.483,884.049 472.5,883C 476.076,882.81 479.242,881.643 482,879.5C 483.121,868.388 483.621,857.221 483.5,846C 483.333,836.167 483.167,826.333 483,816.5C 482.535,815.069 481.701,813.903 480.5,813C 477.899,812.08 475.232,811.413 472.5,811C 471.272,809.51 471.272,808.01 472.5,806.5 Z"/></g>
<g><path style="opacity:1" fill="#95a3c5" d="M 426.5,811.5 C 426.5,822.167 426.5,832.833 426.5,843.5C 434.352,843.175 442.018,843.508 449.5,844.5C 441.5,844.5 433.5,844.5 425.5,844.5C 425.172,833.321 425.505,822.321 426.5,811.5 Z"/></g>
<g><path style="opacity:1" fill="#0a0f17" d="M 1025.5,811.5 C 1026.83,811.5 1028.17,811.5 1029.5,811.5C 1029.5,815.5 1029.5,819.5 1029.5,823.5C 1028.17,823.5 1026.83,823.5 1025.5,823.5C 1025.5,819.5 1025.5,815.5 1025.5,811.5 Z"/></g>
<g><path style="opacity:1" fill="#0e2897" d="M 139.5,811.5 C 146.784,810.965 153.784,812.132 160.5,815C 168.403,822.84 169.57,831.674 164,841.5C 156.463,849.256 147.463,851.589 137,848.5C 136.333,837.5 136.333,826.5 137,815.5C 137.662,814.016 138.496,812.683 139.5,811.5 Z"/></g>
<g><path style="opacity:1" fill="#072696" d="M 499.5,811.5 C 506.877,810.689 513.877,811.856 520.5,815C 528.439,824.303 528.439,833.637 520.5,843C 512.817,846.005 504.817,847.171 496.5,846.5C 496.333,835.828 496.5,825.161 497,814.5C 498.045,813.627 498.878,812.627 499.5,811.5 Z"/></g>
<g><path style="opacity:1" fill="#f6f7e6" d="M 587.5,876.5 C 586.711,876.783 586.044,877.283 585.5,878C 597.829,878.5 610.162,878.667 622.5,878.5C 625.136,878.491 626.469,879.825 626.5,882.5C 626.61,884.374 625.944,885.874 624.5,887C 608.5,887.667 592.5,887.667 576.5,887C 574.556,884.847 574.056,882.347 575,879.5C 581.218,874.281 587.718,869.448 594.5,865C 602.565,859.025 607.732,851.192 610,841.5C 611.666,828.168 605.833,822.668 592.5,825C 585.404,829.318 584.737,834.484 590.5,840.5C 590.023,841.478 589.357,842.311 588.5,843C 578.333,844.156 574.499,839.656 577,829.5C 584.973,819.956 595.14,816.79 607.5,820C 619.248,823.004 624.415,830.504 623,842.5C 620.867,850.586 616.367,857.086 609.5,862C 602.31,867.092 594.976,871.926 587.5,876.5 Z"/></g>
<g><path style="opacity:1" fill="#0a0f17" d="M 1025.5,827.5 C 1026.83,827.5 1028.17,827.5 1029.5,827.5C 1029.5,831.5 1029.5,835.5 1029.5,839.5C 1028.17,839.5 1026.83,839.5 1025.5,839.5C 1025.5,835.5 1025.5,831.5 1025.5,827.5 Z"/></g>
<g><path style="opacity:1" fill="#112995" d="M 296.5,854.5 C 288.167,855.833 279.833,855.833 271.5,854.5C 275.654,844.188 279.821,833.855 284,823.5C 288.715,833.598 292.881,843.932 296.5,854.5 Z"/></g>
<g><path style="opacity:1" fill="#f1f2e4" d="M 1520.5,837.5 C 1526.51,837.334 1532.51,837.501 1538.5,838C 1549.65,840.794 1552.82,847.294 1548,857.5C 1544.18,860.87 1540.18,861.203 1536,858.5C 1537.95,855.939 1539.45,852.939 1540.5,849.5C 1540.06,845.793 1538.06,843.293 1534.5,842C 1522.95,839.693 1515.45,844.193 1512,855.5C 1509.49,865.865 1510.49,875.865 1515,885.5C 1522.6,895.25 1531.77,897.084 1542.5,891C 1544.21,889.622 1545.55,887.955 1546.5,886C 1549.67,885.167 1550.83,886.333 1550,889.5C 1542.57,898.642 1533.07,901.809 1521.5,899C 1503.87,892.248 1496.7,879.415 1500,860.5C 1502.85,849.153 1509.69,841.487 1520.5,837.5 Z"/></g>
<g><path style="opacity:1" fill="#f3f4e4" d="M 1743.5,837.5 C 1751.21,836.665 1758.54,837.831 1765.5,841C 1768.83,845.137 1769.33,849.637 1767,854.5C 1763.29,857.323 1759.79,857.157 1756.5,854C 1760.29,851.947 1761.46,848.781 1760,844.5C 1759.1,843.299 1757.93,842.465 1756.5,842C 1752.83,841.333 1749.17,841.333 1745.5,842C 1740.39,845.366 1739.22,849.866 1742,855.5C 1743.56,857.359 1745.39,858.859 1747.5,860C 1753.78,862.473 1759.78,865.473 1765.5,869C 1771.62,875.122 1773.12,882.288 1770,890.5C 1760.34,899.879 1749.17,902.046 1736.5,897C 1729.48,891.528 1728.81,885.528 1734.5,879C 1735.67,878.833 1736.83,878.667 1738,878.5C 1742.9,878.625 1743.57,880.292 1740,883.5C 1738.76,888.853 1740.59,892.686 1745.5,895C 1756.87,897.279 1762.37,892.779 1762,881.5C 1760.88,879.376 1759.38,877.543 1757.5,876C 1751.5,873 1745.5,870 1739.5,867C 1732.69,862.302 1730.19,855.802 1732,847.5C 1734.57,842.645 1738.4,839.311 1743.5,837.5 Z"/></g>
<g><path style="opacity:1" fill="#f1f2e4" d="M 1568.5,838.5 C 1574,837.64 1578.83,838.973 1583,842.5C 1590.38,858.635 1597.38,874.968 1604,891.5C 1605.82,893.045 1607.99,893.712 1610.5,893.5C 1613.01,893.712 1615.18,893.045 1617,891.5C 1617.67,876.167 1617.67,860.833 1617,845.5C 1615.15,842.959 1612.65,841.959 1609.5,842.5C 1609.33,841.178 1609.66,840.011 1610.5,839C 1621.17,838.333 1631.83,838.333 1642.5,839C 1653.8,840.285 1659.3,846.452 1659,857.5C 1656.01,863.82 1651.18,867.987 1644.5,870C 1648.3,876.426 1652.46,882.593 1657,888.5C 1661.14,893.211 1666.31,894.711 1672.5,893C 1673.33,892.167 1674.17,891.333 1675,890.5C 1675.67,875.5 1675.67,860.5 1675,845.5C 1673,843.253 1670.5,842.253 1667.5,842.5C 1667.5,841.167 1667.5,839.833 1667.5,838.5C 1679.55,838.109 1691.55,838.609 1703.5,840C 1724.42,848.066 1730.59,862.566 1722,883.5C 1716.74,890.89 1709.57,895.39 1700.5,897C 1685.17,897.667 1669.83,897.667 1654.5,897C 1652.33,895.5 1650.17,894 1648,892.5C 1643.5,886 1639,879.5 1634.5,873C 1632.32,871.798 1629.99,871.298 1627.5,871.5C 1627.33,878.175 1627.5,884.842 1628,891.5C 1629.83,893.074 1631.99,893.907 1634.5,894C 1635.34,895.011 1635.67,896.178 1635.5,897.5C 1618.83,897.5 1602.17,897.5 1585.5,897.5C 1585.33,896.178 1585.66,895.011 1586.5,894C 1592.05,894.296 1593.88,891.796 1592,886.5C 1590.59,884.35 1589.76,882.016 1589.5,879.5C 1581.47,879.169 1573.47,879.502 1565.5,880.5C 1563.12,884.512 1562.12,888.845 1562.5,893.5C 1565.17,893.5 1567.83,893.5 1570.5,893.5C 1570.5,894.833 1570.5,896.167 1570.5,897.5C 1563.17,897.5 1555.83,897.5 1548.5,897.5C 1548.5,896.167 1548.5,894.833 1548.5,893.5C 1551.16,893.838 1553.49,893.171 1555.5,891.5C 1561.76,877.208 1567.93,862.874 1574,848.5C 1574.67,847.167 1574.67,845.833 1574,844.5C 1572.09,843.308 1570.09,842.308 1568,841.5C 1567.53,840.423 1567.7,839.423 1568.5,838.5 Z"/></g>
<g><path style="opacity:1" fill="#0a0f17" d="M 1025.5,843.5 C 1026.83,843.5 1028.17,843.5 1029.5,843.5C 1029.5,847.5 1029.5,851.5 1029.5,855.5C 1028.17,855.5 1026.83,855.5 1025.5,855.5C 1025.5,851.5 1025.5,847.5 1025.5,843.5 Z"/></g>
<g><path style="opacity:1" fill="#04027f" d="M 1629.5,842.5 C 1637.1,841.417 1643.27,843.751 1648,849.5C 1649.76,856.009 1648.26,861.509 1643.5,866C 1638.26,867.339 1632.93,867.839 1627.5,867.5C 1627.33,859.826 1627.5,852.159 1628,844.5C 1628.72,843.956 1629.22,843.289 1629.5,842.5 Z"/></g>
<g><path style="opacity:1" fill="#02017f" d="M 1684.5,842.5 C 1709.3,842.697 1718.8,855.03 1713,879.5C 1710.41,889.075 1704.08,893.741 1694,893.5C 1691.83,893.333 1689.67,893.167 1687.5,893C 1686.57,892.612 1685.91,891.945 1685.5,891C 1684.52,874.869 1684.19,858.702 1684.5,842.5 Z"/></g>
<g><path style="opacity:1" fill="#5a70b2" d="M 271.5,854.5 C 279.833,855.833 288.167,855.833 296.5,854.5C 297.043,854.56 297.376,854.893 297.5,855.5C 288.5,856.833 279.5,856.833 270.5,855.5C 270.624,854.893 270.957,854.56 271.5,854.5 Z"/></g>
<g><path style="opacity:1" fill="#0a0f17" d="M 1025.5,859.5 C 1026.83,859.5 1028.17,859.5 1029.5,859.5C 1029.5,863.5 1029.5,867.5 1029.5,871.5C 1028.17,871.5 1026.83,871.5 1025.5,871.5C 1025.5,867.5 1025.5,863.5 1025.5,859.5 Z"/></g>
<g><path style="opacity:1" fill="#0a047f" d="M 1586.5,874.5 C 1580.31,874.823 1574.31,874.49 1568.5,873.5C 1571.23,866.375 1574.23,859.375 1577.5,852.5C 1581.05,859.597 1584.05,866.93 1586.5,874.5 Z"/></g>
<g><path style="opacity:1" fill="#9292bb" d="M 1568.5,873.5 C 1574.31,874.49 1580.31,874.823 1586.5,874.5C 1580.32,875.817 1573.99,875.817 1567.5,874.5C 1567.62,873.893 1567.96,873.56 1568.5,873.5 Z"/></g>
<g><path style="opacity:1" fill="#0a0f17" d="M 1025.5,875.5 C 1026.83,875.5 1028.17,875.5 1029.5,875.5C 1029.5,879.5 1029.5,883.5 1029.5,887.5C 1028.17,887.5 1026.83,887.5 1025.5,887.5C 1025.5,883.5 1025.5,879.5 1025.5,875.5 Z"/></g>
<g><path style="opacity:1" fill="#3751a6" d="M 587.5,876.5 C 599.167,877.167 610.833,877.833 622.5,878.5C 610.162,878.667 597.829,878.5 585.5,878C 586.044,877.283 586.711,876.783 587.5,876.5 Z"/></g>
<g><path style="opacity:1" fill="#0a0f17" d="M 1025.5,891.5 C 1026.83,891.5 1028.17,891.5 1029.5,891.5C 1029.5,895.5 1029.5,899.5 1029.5,903.5C 1028.17,903.5 1026.83,903.5 1025.5,903.5C 1025.5,899.5 1025.5,895.5 1025.5,891.5 Z"/></g>
<g><path style="opacity:1" fill="#0a0f17" d="M 1025.5,907.5 C 1026.83,907.5 1028.17,907.5 1029.5,907.5C 1029.5,911.5 1029.5,915.5 1029.5,919.5C 1028.17,919.5 1026.83,919.5 1025.5,919.5C 1025.5,915.5 1025.5,911.5 1025.5,907.5 Z"/></g>
<g><path style="opacity:1" fill="#0a0f17" d="M 1025.5,923.5 C 1026.83,923.5 1028.17,923.5 1029.5,923.5C 1029.5,927.5 1029.5,931.5 1029.5,935.5C 1028.17,935.5 1026.83,935.5 1025.5,935.5C 1025.5,931.5 1025.5,927.5 1025.5,923.5 Z"/></g>
<g><path style="opacity:1" fill="#0a0f17" d="M 1025.5,939.5 C 1026.83,939.5 1028.17,939.5 1029.5,939.5C 1029.5,943.5 1029.5,947.5 1029.5,951.5C 1028.17,951.5 1026.83,951.5 1025.5,951.5C 1025.5,947.5 1025.5,943.5 1025.5,939.5 Z"/></g>
<g><path style="opacity:1" fill="#0a0f17" d="M 1025.5,955.5 C 1026.83,955.5 1028.17,955.5 1029.5,955.5C 1029.5,959.5 1029.5,963.5 1029.5,967.5C 1028.17,967.5 1026.83,967.5 1025.5,967.5C 1025.5,963.5 1025.5,959.5 1025.5,955.5 Z"/></g>
<g><path style="opacity:1" fill="#0a0f17" d="M 1025.5,971.5 C 1026.83,971.5 1028.17,971.5 1029.5,971.5C 1029.5,975.5 1029.5,979.5 1029.5,983.5C 1028.17,983.5 1026.83,983.5 1025.5,983.5C 1025.5,979.5 1025.5,975.5 1025.5,971.5 Z"/></g>
<g><path style="opacity:1" fill="#0a0f17" d="M 1025.5,987.5 C 1026.83,987.5 1028.17,987.5 1029.5,987.5C 1029.5,991.5 1029.5,995.5 1029.5,999.5C 1028.17,999.5 1026.83,999.5 1025.5,999.5C 1025.5,995.5 1025.5,991.5 1025.5,987.5 Z"/></g>
<g><path style="opacity:1" fill="#0a0f17" d="M 1025.5,1003.5 C 1026.83,1003.5 1028.17,1003.5 1029.5,1003.5C 1029.5,1007.5 1029.5,1011.5 1029.5,1015.5C 1028.17,1015.5 1026.83,1015.5 1025.5,1015.5C 1025.5,1011.5 1025.5,1007.5 1025.5,1003.5 Z"/></g>
<g><path style="opacity:1" fill="#0a0f17" d="M 1025.5,1019.5 C 1026.83,1019.5 1028.17,1019.5 1029.5,1019.5C 1029.5,1023.5 1029.5,1027.5 1029.5,1031.5C 1028.17,1031.5 1026.83,1031.5 1025.5,1031.5C 1025.5,1027.5 1025.5,1023.5 1025.5,1019.5 Z"/></g>
<g><path style="opacity:1" fill="#0a0f17" d="M 1025.5,1035.5 C 1026.83,1035.5 1028.17,1035.5 1029.5,1035.5C 1029.5,1039.5 1029.5,1043.5 1029.5,1047.5C 1028.17,1047.5 1026.83,1047.5 1025.5,1047.5C 1025.5,1043.5 1025.5,1039.5 1025.5,1035.5 Z"/></g>
<g><path style="opacity:1" fill="#0a0f17" d="M 1025.5,1051.5 C 1026.83,1051.5 1028.17,1051.5 1029.5,1051.5C 1029.5,1055.5 1029.5,1059.5 1029.5,1063.5C 1028.17,1063.5 1026.83,1063.5 1025.5,1063.5C 1025.5,1059.5 1025.5,1055.5 1025.5,1051.5 Z"/></g>
<g><path style="opacity:1" fill="#0a0f17" d="M 1029.5,1079.5 C 1028.17,1079.5 1026.83,1079.5 1025.5,1079.5C 1025.5,1075.5 1025.5,1071.5 1025.5,1067.5C 1026.83,1067.5 1028.17,1067.5 1029.5,1067.5C 1029.5,1071.5 1029.5,1075.5 1029.5,1079.5 Z"/></g>
</svg>
