<?xml version="1.0" encoding="UTF-8"?>
<!DOCTYPE svg PUBLIC "-//W3C//DTD SVG 1.1//EN" "http://www.w3.org/Graphics/SVG/1.1/DTD/svg11.dtd">
<svg xmlns="http://www.w3.org/2000/svg" version="1.1" width="518px" height="767px" style="shape-rendering:geometricPrecision; text-rendering:geometricPrecision; image-rendering:optimizeQuality; fill-rule:evenodd; clip-rule:evenodd" xmlns:xlink="http://www.w3.org/1999/xlink">
<g><path style="opacity:1" fill="#f7f4f2" d="M -0.5,-0.5 C 2.16667,-0.5 4.83333,-0.5 7.5,-0.5C 4.5,1.83333 1.83333,4.5 -0.5,7.5C -0.5,4.83333 -0.5,2.16667 -0.5,-0.5 Z"/></g>
<g><path style="opacity:1" fill="#763b16" d="M 7.5,-0.5 C 174.167,-0.5 340.833,-0.5 507.5,-0.5C 511.316,0.509906 514.149,2.84324 516,6.5C 516.667,257.5 516.667,508.5 516,759.5C 514.74,762.428 512.573,764.261 509.5,765C 341.833,765.667 174.167,765.667 6.5,765C 2.84324,763.149 0.509906,760.316 -0.5,756.5C -0.5,506.833 -0.5,257.167 -0.5,7.5C 1.83333,4.5 4.5,1.83333 7.5,-0.5 Z"/></g>
<g><path style="opacity:1" fill="#dbccc2" d="M 507.5,-0.5 C 510.833,-0.5 514.167,-0.5 517.5,-0.5C 517.5,255.167 517.5,510.833 517.5,766.5C 344.833,766.5 172.167,766.5 -0.5,766.5C -0.5,763.167 -0.5,759.833 -0.5,756.5C 0.509906,760.316 2.84324,763.149 6.5,765C 174.167,765.667 341.833,765.667 509.5,765C 512.573,764.261 514.74,762.428 516,759.5C 516.667,508.5 516.667,257.5 516,6.5C 514.149,2.84324 511.316,0.509906 507.5,-0.5 Z"/></g>
<g><path style="opacity:1" fill="#a67455" d="M 259.5,18.5 C 264.863,21.0216 269.197,24.855 272.5,30C 269.031,34.6361 265.031,38.8027 260.5,42.5C 255.969,38.8027 251.969,34.6361 248.5,30C 251.684,25.6505 255.351,21.8171 259.5,18.5 Z"/></g>
<g><path style="opacity:1" fill="#9b6646" d="M 257.5,15.5 C 259.527,15.3379 261.527,15.5045 263.5,16C 267.333,19.8333 271.167,23.6667 275,27.5C 275.667,29.5 275.667,31.5 275,33.5C 271.318,37.349 267.485,41.0156 263.5,44.5C 263.167,44.3333 262.833,44.1667 262.5,44C 267.088,39.9189 271.088,35.4189 274.5,30.5C 270.833,24.8333 266.167,20.1667 260.5,16.5C 255.581,19.9125 251.081,23.9125 247,28.5C 246.333,27.8333 246.333,27.1667 247,26.5C 250.704,22.9643 254.204,19.2976 257.5,15.5 Z"/></g>
<g><path style="opacity:1" fill="#a06c4c" d="M 24.5,23.5 C 28.5138,23.3345 32.5138,23.5012 36.5,24C 38.5,24.6667 39.8333,26 40.5,28C 106.167,28.3333 171.833,28.6667 237.5,29C 238.833,30 238.833,31 237.5,32C 171.833,32.3333 106.167,32.6667 40.5,33C 38.4914,36.753 35.3248,38.253 31,37.5C 25.0721,37.0797 19.7388,35.0797 15,31.5C 14.2506,30.365 14.4173,29.365 15.5,28.5C 18.4791,26.6333 21.4791,24.9667 24.5,23.5 Z"/></g>
<g><path style="opacity:1" fill="#793f1a" d="M 27.5,26.5 C 30.6492,26.2114 33.6492,26.7114 36.5,28C 37.7415,32.4433 35.9082,34.6099 31,34.5C 27.6129,34.2043 24.4463,33.2043 21.5,31.5C 20.2888,30.7261 20.2888,29.8928 21.5,29C 23.7226,28.4338 25.7226,27.6005 27.5,26.5 Z"/></g>
<g><path style="opacity:1" fill="#a06c4c" d="M 484.5,23.5 C 491.184,22.8487 497.517,24.0154 503.5,27C 504.99,27.7455 505.99,28.9121 506.5,30.5C 500.375,36.3774 493.042,38.544 484.5,37C 483.167,35.6667 481.833,34.3333 480.5,33C 414.833,32.6667 349.167,32.3333 283.5,32C 282.167,31 282.167,30 283.5,29C 349.167,28.6667 414.833,28.3333 480.5,28C 481.357,25.9812 482.691,24.4812 484.5,23.5 Z"/></g>
<g><path style="opacity:1" fill="#783d19" d="M 485.5,26.5 C 491.145,25.8324 496.145,27.1658 500.5,30.5C 496.262,33.4134 491.595,34.58 486.5,34C 484.285,31.7585 483.952,29.2585 485.5,26.5 Z"/></g>
<g><path style="opacity:1" fill="#d7d7d7" d="M 344.5,57.5 C 344.919,60.3245 343.919,62.4912 341.5,64C 319.564,71.8674 297.564,79.5341 275.5,87C 272.522,87.696 269.522,88.196 266.5,88.5C 263.076,89.5095 259.743,90.5095 256.5,91.5C 250.245,92.7263 243.912,93.5596 237.5,94C 217.169,94.5 196.836,94.6666 176.5,94.5C 175.167,94.5 173.833,94.5 172.5,94.5C 151.167,94.5 129.833,94.5 108.5,94.5C 85.1643,94.6666 61.831,94.5 38.5,94C 37.5838,93.6258 36.7504,93.1258 36,92.5C 35.5045,90.5273 35.3379,88.5273 35.5,86.5C 36.2899,85.2058 37.2899,84.0391 38.5,83C 59.4248,75.4694 80.4248,68.1361 101.5,61C 110.695,58.3681 120.028,56.3681 129.5,55C 200.149,53.3699 270.815,53.0366 341.5,54C 342.636,55.1451 343.636,56.3117 344.5,57.5 Z"/></g>
<g><path style="opacity:1" fill="#a4a4a4" d="M 344.5,57.5 C 392.834,57.3333 441.168,57.5 489.5,58C 502.062,63.5563 504.895,72.3897 498,84.5C 494.901,87.8123 491.067,89.479 486.5,89.5C 463.5,89.5 440.5,89.5 417.5,89.5C 390.167,89.5 362.833,89.5 335.5,89.5C 312.327,89.8308 289.327,89.4975 266.5,88.5C 269.522,88.196 272.522,87.696 275.5,87C 297.564,79.5341 319.564,71.8674 341.5,64C 343.919,62.4912 344.919,60.3245 344.5,57.5 Z"/></g>
<g><path style="opacity:1" fill="#2c2c2c" d="M 408.5,62.5 C 410.337,62.6395 410.67,63.3061 409.5,64.5C 408.702,64.0431 408.369,63.3764 408.5,62.5 Z"/></g>
<g><path style="opacity:1" fill="#141414" d="M 440.5,62.5 C 442.337,62.6395 442.67,63.3061 441.5,64.5C 440.702,64.0431 440.369,63.3764 440.5,62.5 Z"/></g>
<g><path style="opacity:1" fill="#131313" d="M 129.5,64.5 C 131.436,68.7147 132.103,73.3814 131.5,78.5C 132.978,78.238 134.311,78.5713 135.5,79.5C 132.167,80.8333 128.833,80.8333 125.5,79.5C 126.689,78.5713 128.022,78.238 129.5,78.5C 129.666,74.4862 129.499,70.4862 129,66.5C 128.189,67.9597 127.355,68.293 126.5,67.5C 127.34,66.265 128.34,65.265 129.5,64.5 Z"/></g>
<g><path style="opacity:1" fill="#272727" d="M 144.5,64.5 C 148.884,64.1744 153.217,64.5078 157.5,65.5C 154.232,66.487 150.898,66.8204 147.5,66.5C 147.5,68.1667 147.5,69.8333 147.5,71.5C 159.5,72.1667 159.5,72.8333 147.5,73.5C 147.5,75.1667 147.5,76.8333 147.5,78.5C 150.898,78.1796 154.232,78.513 157.5,79.5C 153.217,80.4922 148.884,80.8256 144.5,80.5C 144.5,75.1667 144.5,69.8333 144.5,64.5 Z"/></g>
<g><path style="opacity:1" fill="#3d3d3d" d="M 206.5,63.5 C 208.337,63.6395 208.67,64.3061 207.5,65.5C 206.702,65.0431 206.369,64.3764 206.5,63.5 Z"/></g>
<g><path style="opacity:1" fill="#101010" d="M 367.5,63.5 C 372.214,63.1734 376.88,63.5067 381.5,64.5C 379.604,65.4656 377.604,65.7989 375.5,65.5C 374.833,84.1667 374.167,84.1667 373.5,65.5C 370.918,65.9746 368.918,65.3079 367.5,63.5 Z"/></g>
<g><path style="opacity:1" fill="#272727" d="M 414.5,64.5 C 415.931,65.4458 417.264,66.6125 418.5,68C 417.28,69.5253 416.613,71.3587 416.5,73.5C 416.613,75.6413 417.28,77.4747 418.5,79C 416.888,79.7203 415.388,79.5536 414,78.5C 413.793,74.9106 413.293,71.4106 412.5,68C 413.973,67.2904 414.64,66.1238 414.5,64.5 Z"/></g>
<g><path style="opacity:1" fill="#151515" d="M 408.5,67.5 C 409.794,69.0478 410.461,71.0478 410.5,73.5C 410.167,75.5 409.833,77.5 409.5,79.5C 408.509,75.5546 408.176,71.5546 408.5,67.5 Z"/></g>
<g><path style="opacity:1" fill="#020202" d="M 440.5,67.5 C 441.794,69.0478 442.461,71.0478 442.5,73.5C 442.167,75.5 441.833,77.5 441.5,79.5C 440.509,75.5546 440.176,71.5546 440.5,67.5 Z"/></g>
<g><path style="opacity:1" fill="#0d0d0d" d="M 163.5,69.5 C 162.9,73.1295 162.233,76.7961 161.5,80.5C 160.167,76.5 160.167,72.5 161.5,68.5C 162.183,68.8627 162.85,69.1961 163.5,69.5 Z"/></g>
<g><path style="opacity:1" fill="#202020" d="M 186.5,68.5 C 188.199,68.3398 189.866,68.5065 191.5,69C 190.333,69.5 189.5,70.3333 189,71.5C 188.821,74.5535 188.321,77.5535 187.5,80.5C 186.509,76.5546 186.176,72.5546 186.5,68.5 Z"/></g>
<g><path style="opacity:1" fill="#1b1b1b" d="M 206.5,68.5 C 207.794,70.0478 208.461,72.0478 208.5,74.5C 208.167,76.5 207.833,78.5 207.5,80.5C 206.509,76.5546 206.176,72.5546 206.5,68.5 Z"/></g>
<g><path style="opacity:1" fill="#0d0d0d" d="M 393.5,67.5 C 395.39,68.1799 397.39,68.3466 399.5,68C 398.069,68.4652 396.903,69.2986 396,70.5C 395.821,73.5535 395.321,76.5535 394.5,79.5C 393.509,75.5546 393.176,71.5546 393.5,67.5 Z"/></g>
<g><path style="opacity:1" fill="#282828" d="M 401.5,67.5 C 403.288,67.2148 404.955,67.5481 406.5,68.5C 405.675,69.3857 404.675,69.719 403.5,69.5C 403.82,72.8984 403.487,76.2317 402.5,79.5C 401.509,75.5546 401.176,71.5546 401.5,67.5 Z"/></g>
<g><path style="opacity:1" fill="#282828" d="M 433.5,67.5 C 435.288,67.2148 436.955,67.5481 438.5,68.5C 437.675,69.3857 436.675,69.719 435.5,69.5C 435.82,72.8984 435.487,76.2317 434.5,79.5C 433.509,75.5546 433.176,71.5546 433.5,67.5 Z"/></g>
<g><path style="opacity:1" fill="#1c1c1c" d="M 163.5,69.5 C 165.56,68.1888 167.726,68.1888 170,69.5C 170.825,73.2113 170.659,76.878 169.5,80.5C 168.676,77.2152 168.176,73.8818 168,70.5C 166.644,69.6198 165.144,69.2865 163.5,69.5 Z"/></g>
<g><path style="opacity:1" fill="#161616" d="M 195.5,68.5 C 198.011,68.838 200.345,68.838 202.5,68.5C 202.833,70.8333 203.167,73.1667 203.5,75.5C 203.704,78.9058 203.038,82.0724 201.5,85C 198.86,85.839 196.527,85.339 194.5,83.5C 196.343,83.2448 198.343,83.0781 200.5,83C 202.141,79.5654 201.307,78.7321 198,80.5C 196.289,80.5607 194.956,79.8941 194,78.5C 193.037,74.8513 193.537,71.518 195.5,68.5 Z"/></g>
<g><path style="opacity:1" fill="#181818" d="M 174.5,68.5 C 180.07,67.006 183.07,69.006 183.5,74.5C 180.5,74.5 177.5,74.5 174.5,74.5C 175.144,79.5743 177.477,80.5743 181.5,77.5C 182.476,79.8704 181.476,80.8704 178.5,80.5C 172.905,79.4216 171.072,76.0883 173,70.5C 173.717,69.9558 174.217,69.2891 174.5,68.5 Z"/></g>
<g><path style="opacity:1" fill="#d0d0d0" d="M 196.5,69.5 C 201.383,70.4655 202.717,73.2988 200.5,78C 198.888,78.7203 197.388,78.5536 196,77.5C 195.278,74.7395 195.445,72.0728 196.5,69.5 Z"/></g>
<g><path style="opacity:1" fill="#0b0b0b" d="M 382.5,67.5 C 387.836,66.1845 390.503,68.1845 390.5,73.5C 387.833,73.5 385.167,73.5 382.5,73.5C 382.297,75.3904 382.963,76.8904 384.5,78C 386.655,78.116 388.655,77.7827 390.5,77C 387.474,80.0887 384.307,80.2554 381,77.5C 380.037,73.8513 380.537,70.518 382.5,67.5 Z"/></g>
<g><path style="opacity:1" fill="#141414" d="M 422.5,67.5 C 430.574,67.9532 432.574,71.7866 428.5,79C 419.096,79.141 417.096,75.3076 422.5,67.5 Z"/></g>
<g><path style="opacity:1" fill="#959595" d="M 423.5,68.5 C 428.151,69.1742 429.651,71.8408 428,76.5C 423.96,79.513 421.793,78.3463 421.5,73C 421.519,71.167 422.185,69.667 423.5,68.5 Z"/></g>
<g><path style="opacity:1" fill="#131313" d="M 213.5,68.5 C 216.119,68.2317 218.619,68.565 221,69.5C 221.333,72.5 221.667,75.5 222,78.5C 222.5,79 223,79.5 223.5,80C 219.893,80.2514 216.226,80.0848 212.5,79.5C 211.047,77.3561 211.38,75.5227 213.5,74C 215.473,73.5045 217.473,73.3379 219.5,73.5C 218.872,69.1716 216.872,68.505 213.5,71.5C 212.438,70.5754 212.438,69.5754 213.5,68.5 Z"/></g>
<g><path style="opacity:1" fill="#848484" d="M 383.5,68.5 C 386.95,67.7564 388.616,69.0897 388.5,72.5C 386.5,72.5 384.5,72.5 382.5,72.5C 382.433,71.0413 382.766,69.7079 383.5,68.5 Z"/></g>
<g><path style="opacity:1" fill="#151515" d="M 447.5,67.5 C 455.003,66.8526 457.503,70.186 455,77.5C 446.96,81.1421 443.96,78.4754 446,69.5C 446.717,68.9558 447.217,68.2891 447.5,67.5 Z"/></g>
<g><path style="opacity:1" fill="#9b9b9b" d="M 449.5,68.5 C 452.893,68.3753 454.226,70.042 453.5,73.5C 451.211,80.2067 449.211,80.04 447.5,73C 447.759,71.2134 448.425,69.7134 449.5,68.5 Z"/></g>
<g><path style="opacity:1" fill="#aaaaaa" d="M 176.5,69.5 C 178.912,69.244 180.579,70.244 181.5,72.5C 179.167,73.8333 176.833,73.8333 174.5,72.5C 175.193,71.4822 175.859,70.4822 176.5,69.5 Z"/></g>
<g><path style="opacity:1" fill="#c4c4c4" d="M 214.5,74.5 C 216.167,74.5 217.833,74.5 219.5,74.5C 219.707,77.1268 218.54,78.7935 216,79.5C 213.389,78.5001 212.889,76.8334 214.5,74.5 Z"/></g>
<g><path style="opacity:1" fill="#d0d0d0" d="M 266.5,88.5 C 289.327,89.4975 312.327,89.8308 335.5,89.5C 322.006,90.3311 308.339,90.8311 294.5,91C 293.531,92.7583 292.364,93.2583 291,92.5C 289.242,93.4695 288.742,94.6361 289.5,96C 288.747,97.487 287.914,97.6537 287,96.5C 285.519,97.4709 284.685,98.8042 284.5,100.5C 283.609,99.7387 282.942,98.7387 282.5,97.5C 280.647,96.2404 278.814,96.2404 277,97.5C 272.89,106.719 269.057,116.053 265.5,125.5C 266.833,126.833 268.167,126.833 269.5,125.5C 270.305,123.085 271.305,120.751 272.5,118.5C 277.131,117.338 281.798,117.172 286.5,118C 287.948,120.876 289.281,123.709 290.5,126.5C 290.611,127.117 290.944,127.617 291.5,128C 287.833,131.667 284.167,135.333 280.5,139C 257.836,139.5 235.169,139.667 212.5,139.5C 213.598,138.603 213.598,137.77 212.5,137C 213.469,135.242 214.636,134.742 216,135.5C 217.487,134.747 217.654,133.914 216.5,133C 217.469,131.242 218.636,130.742 220,131.5C 219.822,129.56 220.822,127.893 223,126.5C 225.274,127.811 227.44,127.811 229.5,126.5C 230.885,125.053 230.552,124.053 228.5,123.5C 229.598,122.603 229.598,121.77 228.5,121C 229.566,118.988 230.9,118.488 232.5,119.5C 236.27,126.523 241.937,128.356 249.5,125C 255.097,117.491 254.763,110.325 248.5,103.5C 249.598,102.603 249.598,101.77 248.5,101C 249.469,99.2417 250.636,98.7417 252,99.5C 251.822,97.5596 252.822,95.893 255,94.5C 255.914,95.6537 256.747,95.487 257.5,94C 257.116,93.0494 256.783,92.2161 256.5,91.5C 259.743,90.5095 263.076,89.5095 266.5,88.5 Z"/></g>
<g><path style="opacity:1" fill="#dddddb" d="M 335.5,89.5 C 362.833,89.5 390.167,89.5 417.5,89.5C 412.684,90.3261 407.684,90.8261 402.5,91C 400.875,91.8525 400.542,92.8525 401.5,94C 398.819,97.4225 395.819,99.7559 392.5,101C 393.056,101.383 393.389,101.883 393.5,102.5C 387.972,101.916 384.638,104.249 383.5,109.5C 386.245,109.627 388.245,108.46 389.5,106C 394.69,105.021 397.356,107.187 397.5,112.5C 393.818,112.335 390.152,112.501 386.5,113C 384.973,114.032 383.64,115.199 382.5,116.5C 381.001,114.198 379.668,114.531 378.5,117.5C 374.33,114.443 369.664,112.276 364.5,111C 363.168,107.474 364.501,105.641 368.5,105.5C 371.292,105.814 373.792,106.814 376,108.5C 376.5,108.167 377,107.833 377.5,107.5C 376.687,106.186 375.687,105.019 374.5,104C 370.833,103.333 367.167,103.333 363.5,104C 360.71,106.21 359.877,109.044 361,112.5C 364.794,115.101 368.961,116.934 373.5,118C 375.434,122.411 373.934,124.244 369,123.5C 367.5,123.333 366,123.167 364.5,123C 363.228,120.739 361.562,120.239 359.5,121.5C 361.751,125.947 365.417,127.614 370.5,126.5C 367.972,127.508 365.805,129.174 364,131.5C 363.667,131.167 363.333,130.833 363,130.5C 361.929,133.65 359.762,136.483 356.5,139C 379.164,139.5 401.831,139.667 424.5,139.5C 437.011,139.171 449.345,139.505 461.5,140.5C 326.167,140.5 190.833,140.5 55.5,140.5C 59.6344,139.515 63.9677,139.182 68.5,139.5C 91.1667,139.5 113.833,139.5 136.5,139.5C 161.833,139.5 187.167,139.5 212.5,139.5C 235.169,139.667 257.836,139.5 280.5,139C 284.167,135.333 287.833,131.667 291.5,128C 290.944,127.617 290.611,127.117 290.5,126.5C 291.873,126.657 293.207,126.49 294.5,126C 290.475,117.758 287.142,109.258 284.5,100.5C 284.685,98.8042 285.519,97.4709 287,96.5C 287.914,97.6537 288.747,97.487 289.5,96C 288.742,94.6361 289.242,93.4695 291,92.5C 292.364,93.2583 293.531,92.7583 294.5,91C 308.339,90.8311 322.006,90.3311 335.5,89.5 Z"/></g>
<g><path style="opacity:1" fill="#e9e9e9" d="M 417.5,89.5 C 440.5,89.5 463.5,89.5 486.5,89.5C 486.5,89.8333 486.5,90.1667 486.5,90.5C 481.821,90.3342 477.155,90.5008 472.5,91C 468.833,94.6667 465.167,98.3333 461.5,102C 462.094,102.464 462.761,102.631 463.5,102.5C 462.343,104.138 461.176,105.804 460,107.5C 459.51,106.207 459.343,104.873 459.5,103.5C 458.5,103.5 457.5,103.5 456.5,103.5C 456.5,111.167 456.5,118.833 456.5,126.5C 455.672,120.681 455.172,114.681 455,108.5C 453.961,109.71 452.794,110.71 451.5,111.5C 448.769,103.531 443.436,101.031 435.5,104C 430.789,108.14 429.289,113.306 431,119.5C 431.967,122.621 433.8,124.954 436.5,126.5C 432.897,130.467 428.897,134.8 424.5,139.5C 401.831,139.667 379.164,139.5 356.5,139C 359.762,136.483 361.929,133.65 363,130.5C 363.333,130.833 363.667,131.167 364,131.5C 365.805,129.174 367.972,127.508 370.5,126.5C 376.166,126.167 378.833,123.167 378.5,117.5C 379.668,114.531 381.001,114.198 382.5,116.5C 381.164,124.665 384.497,127.831 392.5,126C 394.286,125.215 395.786,124.049 397,122.5C 398.318,125.941 400.818,127.275 404.5,126.5C 404.5,125.5 404.5,124.5 404.5,123.5C 403.5,123.5 402.5,123.5 401.5,123.5C 401.666,118.156 401.499,112.823 401,107.5C 399.114,104.758 396.614,103.091 393.5,102.5C 393.389,101.883 393.056,101.383 392.5,101C 395.819,99.7559 398.819,97.4225 401.5,94C 400.542,92.8525 400.875,91.8525 402.5,91C 407.684,90.8261 412.684,90.3261 417.5,89.5 Z"/></g>
<g><path style="opacity:1" fill="#f6f6f6" d="M 486.5,90.5 C 486.5,107.833 486.5,125.167 486.5,142.5C 485.5,142.5 484.5,142.5 483.5,142.5C 478.5,142.5 473.5,142.5 468.5,142.5C 466.393,141.532 464.059,141.198 461.5,141.5C 461.5,141.167 461.5,140.833 461.5,140.5C 449.345,139.505 437.011,139.171 424.5,139.5C 428.897,134.8 432.897,130.467 436.5,126.5C 447.78,127.886 452.78,122.886 451.5,111.5C 452.794,110.71 453.961,109.71 455,108.5C 455.172,114.681 455.672,120.681 456.5,126.5C 457.833,126.5 459.167,126.5 460.5,126.5C 460.334,120.824 460.501,115.157 461,109.5C 462.287,106.855 464.453,105.855 467.5,106.5C 467.5,105.167 467.5,103.833 467.5,102.5C 466.167,102.5 464.833,102.5 463.5,102.5C 462.761,102.631 462.094,102.464 461.5,102C 465.167,98.3333 468.833,94.6667 472.5,91C 477.155,90.5008 481.821,90.3342 486.5,90.5 Z"/></g>
<g><path style="opacity:1" fill="#b0afae" d="M 35.5,86.5 C 35.3379,88.5273 35.5045,90.5273 36,92.5C 36.7504,93.1258 37.5838,93.6258 38.5,94C 61.831,94.5 85.1643,94.6666 108.5,94.5C 108.5,95.1667 108.5,95.8333 108.5,96.5C 104.167,96.5 99.8333,96.5 95.5,96.5C 95.5,106.5 95.5,116.5 95.5,126.5C 94.6739,121.684 94.1739,116.684 94,111.5C 92.513,112.253 92.3463,113.086 93.5,114C 89,115.833 85.8333,119 84,123.5C 83.6667,123.167 83.3333,122.833 83,122.5C 79.5775,125.181 77.2441,128.181 76,131.5C 75.6667,131.167 75.3333,130.833 75,130.5C 71.499,133.071 69.3323,136.071 68.5,139.5C 63.9677,139.182 59.6344,139.515 55.5,140.5C 55.5,244.167 55.5,347.833 55.5,451.5C 55.5,468.5 55.5,485.5 55.5,502.5C 54.5005,382.334 54.1671,262.001 54.5,141.5C 51.6146,141.194 48.9479,141.527 46.5,142.5C 41.1667,142.5 35.8333,142.5 30.5,142.5C 29.8333,142.5 29.1667,142.5 28.5,142.5C 28.5,124.5 28.5,106.5 28.5,88.5C 31.2108,88.8151 33.5441,88.1484 35.5,86.5 Z"/></g>
<g><path style="opacity:1" fill="#b9b9b9" d="M 108.5,94.5 C 129.833,94.5 151.167,94.5 172.5,94.5C 172.157,96.4832 172.824,97.8166 174.5,98.5C 175.706,99.8804 175.373,101.047 173.5,102C 174.737,102.232 175.737,102.732 176.5,103.5C 175.167,103.5 173.833,103.5 172.5,103.5C 169.956,104.708 168.622,106.708 168.5,109.5C 165.708,109.622 163.708,110.956 162.5,113.5C 160.146,113.162 157.813,112.662 155.5,112C 152.502,108.182 153.502,106.016 158.5,105.5C 161.035,106.037 163.369,107.037 165.5,108.5C 167.872,107.637 167.872,106.471 165.5,105C 160.833,103 156.167,103 151.5,105C 150.398,107.401 150.231,109.901 151,112.5C 154.783,115.098 158.95,116.932 163.5,118C 164.996,122.307 163.329,124.14 158.5,123.5C 155.312,122.958 152.312,121.958 149.5,120.5C 149.392,122.514 150.058,124.18 151.5,125.5C 145.892,129.439 140.892,134.106 136.5,139.5C 113.833,139.5 91.1667,139.5 68.5,139.5C 69.3323,136.071 71.499,133.071 75,130.5C 75.3333,130.833 75.6667,131.167 76,131.5C 77.2441,128.181 79.5775,125.181 83,122.5C 83.3333,122.833 83.6667,123.167 84,123.5C 85.8333,119 89,115.833 93.5,114C 92.3463,113.086 92.513,112.253 94,111.5C 94.1739,116.684 94.6739,121.684 95.5,126.5C 100.844,126.666 106.177,126.499 111.5,126C 120.586,120.977 123.419,113.477 120,103.5C 117.223,99.5241 113.39,97.1908 108.5,96.5C 108.5,95.8333 108.5,95.1667 108.5,94.5 Z"/></g>
<g><path style="opacity:1" fill="#121212" d="M 297.5,94.5 C 298.833,94.5 300.167,94.5 301.5,94.5C 301.335,98.1817 301.501,101.848 302,105.5C 306.298,101.621 310.631,101.621 315,105.5C 316.563,110.718 316.896,116.051 316,121.5C 313.565,126.224 309.731,127.724 304.5,126C 303.584,125.626 302.75,125.126 302,124.5C 300.951,126.107 299.451,126.773 297.5,126.5C 297.5,115.833 297.5,105.167 297.5,94.5 Z"/></g>
<g><path style="opacity:1" fill="#595959" d="M 425.5,95.5 C 424.5,95.5 423.5,95.5 422.5,95.5C 422.823,99.226 422.489,102.893 421.5,106.5C 420.893,106.376 420.56,106.043 420.5,105.5C 421.482,102.038 421.815,98.3714 421.5,94.5C 423.099,94.2322 424.432,94.5655 425.5,95.5 Z"/></g>
<g><path style="opacity:1" fill="#101010" d="M 425.5,95.5 C 425.5,105.833 425.5,116.167 425.5,126.5C 424.5,126.5 423.5,126.5 422.5,126.5C 422.657,125.127 422.49,123.793 422,122.5C 419.089,126.277 415.256,127.444 410.5,126C 408.513,124.681 407.346,122.848 407,120.5C 405.953,115.245 406.453,110.245 408.5,105.5C 412.58,101.522 416.58,101.522 420.5,105.5C 420.56,106.043 420.893,106.376 421.5,106.5C 422.489,102.893 422.823,99.226 422.5,95.5C 423.5,95.5 424.5,95.5 425.5,95.5 Z"/></g>
<g><path style="opacity:1" fill="#090909" d="M 108.5,96.5 C 113.39,97.1908 117.223,99.5241 120,103.5C 123.419,113.477 120.586,120.977 111.5,126C 106.177,126.499 100.844,126.666 95.5,126.5C 95.5,116.5 95.5,106.5 95.5,96.5C 99.8333,96.5 104.167,96.5 108.5,96.5 Z"/></g>
<g><path style="opacity:1" fill="#0d0d0d" d="M 284.5,100.5 C 287.142,109.258 290.475,117.758 294.5,126C 293.207,126.49 291.873,126.657 290.5,126.5C 289.281,123.709 287.948,120.876 286.5,118C 281.798,117.172 277.131,117.338 272.5,118.5C 271.305,120.751 270.305,123.085 269.5,125.5C 268.167,126.833 266.833,126.833 265.5,125.5C 269.057,116.053 272.89,106.719 277,97.5C 278.814,96.2404 280.647,96.2404 282.5,97.5C 282.942,98.7387 283.609,99.7387 284.5,100.5 Z"/></g>
<g><path style="opacity:1" fill="#292929" d="M 172.5,94.5 C 173.833,94.5 175.167,94.5 176.5,94.5C 176.843,96.4832 176.176,97.8166 174.5,98.5C 172.824,97.8166 172.157,96.4832 172.5,94.5 Z"/></g>
<g><path style="opacity:1" fill="#030303" d="M 223.5,98.5 C 225.028,99.8021 226.028,101.469 226.5,103.5C 227.5,103.5 228.5,103.5 229.5,103.5C 228.817,105.176 227.483,105.843 225.5,105.5C 225.178,111.358 225.511,117.025 226.5,122.5C 226.842,123.338 227.508,123.672 228.5,123.5C 230.552,124.053 230.885,125.053 229.5,126.5C 226.369,127.092 224.036,126.092 222.5,123.5C 222.5,117.5 222.5,111.5 222.5,105.5C 221.5,105.5 220.5,105.5 219.5,105.5C 219.821,103.952 220.821,103.285 222.5,103.5C 222.629,101.784 222.962,100.117 223.5,98.5 Z"/></g>
<g><path style="opacity:1" fill="#b3b3b3" d="M 99.5,99.5 C 113.765,97.9196 119.265,103.92 116,117.5C 111.719,122.458 106.219,124.458 99.5,123.5C 99.5,115.5 99.5,107.5 99.5,99.5 Z"/></g>
<g><path style="opacity:1" fill="#101010" d="M 132.5,102.5 C 141.853,101.853 146.187,106.187 145.5,115.5C 140.167,115.5 134.833,115.5 129.5,115.5C 129.49,122.314 132.823,124.814 139.5,123C 140.646,122.355 141.646,121.522 142.5,120.5C 144.968,122.991 144.302,124.824 140.5,126C 127.999,127.491 123.166,121.991 126,109.5C 127.694,106.642 129.861,104.309 132.5,102.5 Z"/></g>
<g><path style="opacity:1" fill="#101010" d="M 162.5,113.5 C 167.185,115.154 168.685,118.487 167,123.5C 166.097,124.701 164.931,125.535 163.5,126C 159.446,126.694 155.446,126.527 151.5,125.5C 150.058,124.18 149.392,122.514 149.5,120.5C 152.312,121.958 155.312,122.958 158.5,123.5C 163.329,124.14 164.996,122.307 163.5,118C 158.95,116.932 154.783,115.098 151,112.5C 150.231,109.901 150.398,107.401 151.5,105C 156.167,103 160.833,103 165.5,105C 167.872,106.471 167.872,107.637 165.5,108.5C 163.369,107.037 161.035,106.037 158.5,105.5C 153.502,106.016 152.502,108.182 155.5,112C 157.813,112.662 160.146,113.162 162.5,113.5 Z"/></g>
<g><path style="opacity:1" fill="#131313" d="M 248.5,103.5 C 254.763,110.325 255.097,117.491 249.5,125C 241.937,128.356 236.27,126.523 232.5,119.5C 231.002,106.997 236.336,101.663 248.5,103.5 Z"/></g>
<g><path style="opacity:1" fill="#141414" d="M 328.5,102.5 C 329.833,102.5 331.167,102.5 332.5,102.5C 332.5,103.833 332.5,105.167 332.5,106.5C 329.192,105.974 327.026,107.307 326,110.5C 325.501,115.823 325.334,121.156 325.5,126.5C 324.167,126.5 322.833,126.5 321.5,126.5C 321.5,118.833 321.5,111.167 321.5,103.5C 322.833,103.5 324.167,103.5 325.5,103.5C 325.351,104.552 325.517,105.552 326,106.5C 326.662,105.016 327.496,103.683 328.5,102.5 Z"/></g>
<g><path style="opacity:1" fill="#141414" d="M 341.5,102.5 C 345.839,101.846 349.673,102.846 353,105.5C 354.245,111.39 354.912,117.39 355,123.5C 355.925,124.047 356.758,124.713 357.5,125.5C 353.932,127.322 351.598,126.322 350.5,122.5C 347.367,126.24 343.367,127.407 338.5,126C 334.59,121.925 334.59,117.925 338.5,114C 342.363,112.646 346.363,112.146 350.5,112.5C 350.998,106.501 348.331,104.334 342.5,106C 341.245,108.46 339.245,109.627 336.5,109.5C 337.002,106.331 338.669,103.998 341.5,102.5 Z"/></g>
<g><path style="opacity:1" fill="#141414" d="M 378.5,117.5 C 378.833,123.167 376.166,126.167 370.5,126.5C 365.417,127.614 361.751,125.947 359.5,121.5C 361.562,120.239 363.228,120.739 364.5,123C 366,123.167 367.5,123.333 369,123.5C 373.934,124.244 375.434,122.411 373.5,118C 368.961,116.934 364.794,115.101 361,112.5C 359.877,109.044 360.71,106.21 363.5,104C 367.167,103.333 370.833,103.333 374.5,104C 375.687,105.019 376.687,106.186 377.5,107.5C 377,107.833 376.5,108.167 376,108.5C 373.792,106.814 371.292,105.814 368.5,105.5C 364.501,105.641 363.168,107.474 364.5,111C 369.664,112.276 374.33,114.443 378.5,117.5 Z"/></g>
<g><path style="opacity:1" fill="#191919" d="M 393.5,102.5 C 396.614,103.091 399.114,104.758 401,107.5C 401.499,112.823 401.666,118.156 401.5,123.5C 402.5,123.5 403.5,123.5 404.5,123.5C 404.5,124.5 404.5,125.5 404.5,126.5C 400.818,127.275 398.318,125.941 397,122.5C 395.786,124.049 394.286,125.215 392.5,126C 384.497,127.831 381.164,124.665 382.5,116.5C 383.64,115.199 384.973,114.032 386.5,113C 390.152,112.501 393.818,112.335 397.5,112.5C 397.356,107.187 394.69,105.021 389.5,106C 388.245,108.46 386.245,109.627 383.5,109.5C 384.638,104.249 387.972,101.916 393.5,102.5 Z"/></g>
<g><path style="opacity:1" fill="#151515" d="M 451.5,111.5 C 452.78,122.886 447.78,127.886 436.5,126.5C 433.8,124.954 431.967,122.621 431,119.5C 429.289,113.306 430.789,108.14 435.5,104C 443.436,101.031 448.769,103.531 451.5,111.5 Z"/></g>
<g><path style="opacity:1" fill="#131313" d="M 463.5,102.5 C 464.833,102.5 466.167,102.5 467.5,102.5C 467.5,103.833 467.5,105.167 467.5,106.5C 464.453,105.855 462.287,106.855 461,109.5C 460.501,115.157 460.334,120.824 460.5,126.5C 459.167,126.5 457.833,126.5 456.5,126.5C 456.5,118.833 456.5,111.167 456.5,103.5C 457.5,103.5 458.5,103.5 459.5,103.5C 459.343,104.873 459.51,106.207 460,107.5C 461.176,105.804 462.343,104.138 463.5,102.5 Z"/></g>
<g><path style="opacity:1" fill="#c8c8c8" d="M 279.5,99.5 C 281.594,104.202 283.594,109.035 285.5,114C 281.848,114.499 278.182,114.665 274.5,114.5C 275.967,109.433 277.633,104.433 279.5,99.5 Z"/></g>
<g><path style="opacity:1" fill="#c4c4c4" d="M 256.5,91.5 C 256.783,92.2161 257.116,93.0494 257.5,94C 256.747,95.487 255.914,95.6537 255,94.5C 252.822,95.893 251.822,97.5596 252,99.5C 250.636,98.7417 249.469,99.2417 248.5,101C 249.598,101.77 249.598,102.603 248.5,103.5C 236.336,101.663 231.002,106.997 232.5,119.5C 230.9,118.488 229.566,118.988 228.5,121C 229.598,121.77 229.598,122.603 228.5,123.5C 227.508,123.672 226.842,123.338 226.5,122.5C 226.5,117.167 226.5,111.833 226.5,106.5C 227.833,106.5 229.167,106.5 230.5,106.5C 230.737,105.209 230.404,104.209 229.5,103.5C 228.5,103.5 227.5,103.5 226.5,103.5C 226.5,101.5 226.5,99.5 226.5,97.5C 225.209,97.2627 224.209,97.596 223.5,98.5C 222.962,100.117 222.629,101.784 222.5,103.5C 220.821,103.285 219.821,103.952 219.5,105.5C 221.077,111.401 222.077,117.401 222.5,123.5C 224.036,126.092 226.369,127.092 229.5,126.5C 227.44,127.811 225.274,127.811 223,126.5C 220.822,127.893 219.822,129.56 220,131.5C 218.636,130.742 217.469,131.242 216.5,133C 217.654,133.914 217.487,134.747 216,135.5C 214.636,134.742 213.469,135.242 212.5,137C 213.598,137.77 213.598,138.603 212.5,139.5C 187.167,139.5 161.833,139.5 136.5,139.5C 140.892,134.106 145.892,129.439 151.5,125.5C 155.446,126.527 159.446,126.694 163.5,126C 164.931,125.535 166.097,124.701 167,123.5C 168.685,118.487 167.185,115.154 162.5,113.5C 163.708,110.956 165.708,109.622 168.5,109.5C 168.622,106.708 169.956,104.708 172.5,103.5C 172.5,111.167 172.5,118.833 172.5,126.5C 173.833,126.5 175.167,126.5 176.5,126.5C 176.5,118.833 176.5,111.167 176.5,103.5C 175.737,102.732 174.737,102.232 173.5,102C 175.373,101.047 175.706,99.8804 174.5,98.5C 176.176,97.8166 176.843,96.4832 176.5,94.5C 196.836,94.6666 217.169,94.5 237.5,94C 243.912,93.5596 250.245,92.7263 256.5,91.5 Z"/></g>
<g><path style="opacity:1" fill="#000000" d="M 207.5,103.5 C 208.5,103.5 209.5,103.5 210.5,103.5C 210.343,104.873 210.51,106.207 211,107.5C 212.026,104.307 214.192,102.974 217.5,103.5C 217.5,104.5 217.5,105.5 217.5,106.5C 214.192,105.974 212.026,107.307 211,110.5C 210.501,115.823 210.334,121.156 210.5,126.5C 209.5,126.5 208.5,126.5 207.5,126.5C 207.5,118.833 207.5,111.167 207.5,103.5 Z"/></g>
<g><path style="opacity:1" fill="#111111" d="M 188.5,102.5 C 197.853,101.853 202.187,106.187 201.5,115.5C 196.167,115.5 190.833,115.5 185.5,115.5C 185.49,122.314 188.823,124.814 195.5,123C 196.646,122.355 197.646,121.522 198.5,120.5C 200.968,122.991 200.302,124.824 196.5,126C 183.999,127.491 179.166,121.991 182,109.5C 183.694,106.642 185.861,104.309 188.5,102.5 Z"/></g>
<g><path style="opacity:1" fill="#0b0b0b" d="M 172.5,103.5 C 173.833,103.5 175.167,103.5 176.5,103.5C 176.5,111.167 176.5,118.833 176.5,126.5C 175.167,126.5 173.833,126.5 172.5,126.5C 172.5,118.833 172.5,111.167 172.5,103.5 Z"/></g>
<g><path style="opacity:1" fill="#6d6d6d" d="M 223.5,98.5 C 224.209,97.596 225.209,97.2627 226.5,97.5C 226.5,99.5 226.5,101.5 226.5,103.5C 226.028,101.469 225.028,99.8021 223.5,98.5 Z"/></g>
<g><path style="opacity:1" fill="#b1b1b1" d="M 133.5,105.5 C 138.682,105.018 141.349,107.351 141.5,112.5C 137.5,112.5 133.5,112.5 129.5,112.5C 129.571,109.348 130.905,107.014 133.5,105.5 Z"/></g>
<g><path style="opacity:1" fill="#b8b8b8" d="M 189.5,105.5 C 194.682,105.018 197.349,107.351 197.5,112.5C 193.5,112.5 189.5,112.5 185.5,112.5C 185.571,109.348 186.905,107.014 189.5,105.5 Z"/></g>
<g><path style="opacity:1" fill="#787878" d="M 219.5,105.5 C 220.5,105.5 221.5,105.5 222.5,105.5C 222.5,111.5 222.5,117.5 222.5,123.5C 222.077,117.401 221.077,111.401 219.5,105.5 Z"/></g>
<g><path style="opacity:1" fill="#676767" d="M 229.5,103.5 C 230.404,104.209 230.737,105.209 230.5,106.5C 229.167,106.5 227.833,106.5 226.5,106.5C 226.5,111.833 226.5,117.167 226.5,122.5C 225.511,117.025 225.178,111.358 225.5,105.5C 227.483,105.843 228.817,105.176 229.5,103.5 Z"/></g>
<g><path style="opacity:1" fill="#c4c4c4" d="M 240.5,105.5 C 244.683,104.846 247.516,106.512 249,110.5C 250.193,115.152 249.36,119.319 246.5,123C 242.219,124.458 239.053,123.292 237,119.5C 235.608,114.093 236.774,109.426 240.5,105.5 Z"/></g>
<g><path style="opacity:1" fill="#e4e4e4" d="M 438.5,105.5 C 442.683,104.846 445.516,106.512 447,110.5C 448.193,115.152 447.36,119.319 444.5,123C 440.219,124.458 437.053,123.292 435,119.5C 433.608,114.093 434.774,109.426 438.5,105.5 Z"/></g>
<g><path style="opacity:1" fill="#d4d4d4" d="M 304.5,105.5 C 307.652,104.959 310.152,105.959 312,108.5C 312.667,112.833 312.667,117.167 312,121.5C 309.503,123.478 306.669,123.978 303.5,123C 300.613,116.936 300.947,111.103 304.5,105.5 Z"/></g>
<g><path style="opacity:1" fill="#e7e7e7" d="M 413.5,105.5 C 416.652,104.959 419.152,105.959 421,108.5C 421.938,113.527 421.438,118.36 419.5,123C 416.901,123.769 414.401,123.602 412,122.5C 409.539,116.402 410.039,110.735 413.5,105.5 Z"/></g>
<g><path style="opacity:1" fill="#5c5c5c" d="M 391.5,115.5 C 393.265,114.539 395.265,114.205 397.5,114.5C 397.768,116.099 397.434,117.432 396.5,118.5C 396.5,117.5 396.5,116.5 396.5,115.5C 394.833,115.5 393.167,115.5 391.5,115.5 Z"/></g>
<g><path style="opacity:1" fill="#dbdbdb" d="M 341.5,115.5 C 344.5,115.5 347.5,115.5 350.5,115.5C 350.314,122.857 346.814,125.19 340,122.5C 339.167,119.829 339.667,117.496 341.5,115.5 Z"/></g>
<g><path style="opacity:1" fill="#e1e1e1" d="M 391.5,115.5 C 393.167,115.5 394.833,115.5 396.5,115.5C 396.5,116.5 396.5,117.5 396.5,118.5C 394.738,123.347 391.405,124.681 386.5,122.5C 384.968,118.018 386.635,115.684 391.5,115.5 Z"/></g>
<g><path style="opacity:1" fill="#f9d59b" d="M 55.5,140.5 C 190.833,140.5 326.167,140.5 461.5,140.5C 461.5,140.833 461.5,141.167 461.5,141.5C 461.5,244.167 461.5,346.833 461.5,449.5C 448.573,440.961 434.906,433.794 420.5,428C 409.299,420.796 397.632,414.463 385.5,409C 363.112,395.409 340.112,382.742 316.5,371C 308.134,365.82 299.801,360.654 291.5,355.5C 282.99,351.823 274.656,347.823 266.5,343.5C 265.399,342.402 264.066,342.235 262.5,343C 193.762,379.702 124.762,415.869 55.5,451.5C 55.5,347.833 55.5,244.167 55.5,140.5 Z"/></g>
<g><path style="opacity:1" fill="#a6a6a5" d="M 55.5,502.5 C 112.167,502.5 168.833,502.5 225.5,502.5C 304.167,502.5 382.833,502.5 461.5,502.5C 461.5,484.833 461.5,467.167 461.5,449.5C 461.5,346.833 461.5,244.167 461.5,141.5C 464.059,141.198 466.393,141.532 468.5,142.5C 468.5,264.833 468.5,387.167 468.5,509.5C 327.833,509.5 187.167,509.5 46.5,509.5C 46.5,387.167 46.5,264.833 46.5,142.5C 48.9479,141.527 51.6146,141.194 54.5,141.5C 54.1671,262.001 54.5005,382.334 55.5,502.5 Z"/></g>
<g><path style="opacity:1" fill="#ea9b38" d="M 242.5,141.5 C 276.915,137.797 303.748,150.13 323,178.5C 340.663,214.998 334.83,247.165 305.5,275C 278.766,293.93 250.433,296.597 220.5,283C 192.036,264.231 179.536,237.731 183,203.5C 188.128,179.062 201.628,160.896 223.5,149C 230.018,146.776 236.351,144.276 242.5,141.5 Z"/></g>
<g><path style="opacity:1" fill="#ad9585" d="M 28.5,142.5 C 29.1667,142.5 29.8333,142.5 30.5,142.5C 30.5,142.833 30.5,143.167 30.5,143.5C 30.167,338.001 30.5003,532.334 31.5,726.5C 31.6309,727.376 31.2975,728.043 30.5,728.5C 29.8322,533.098 29.1655,337.765 28.5,142.5 Z"/></g>
<g><path style="opacity:1" fill="#d8d8d8" d="M 468.5,142.5 C 473.5,142.5 478.5,142.5 483.5,142.5C 483.5,337.833 483.5,533.167 483.5,728.5C 481.971,727.653 480.304,726.986 478.5,726.5C 476.5,727.167 474.5,727.833 472.5,728.5C 470.5,727.833 468.5,727.167 466.5,726.5C 464.5,727.167 462.5,727.833 460.5,728.5C 458.5,727.833 456.5,727.167 454.5,726.5C 452.5,727.167 450.5,727.833 448.5,728.5C 446.5,727.833 444.5,727.167 442.5,726.5C 440.5,727.167 438.5,727.833 436.5,728.5C 434.5,727.833 432.5,727.167 430.5,726.5C 428.5,727.167 426.5,727.833 424.5,728.5C 422.5,727.833 420.5,727.167 418.5,726.5C 416.5,727.167 414.5,727.833 412.5,728.5C 410.5,727.833 408.5,727.167 406.5,726.5C 404.5,727.167 402.5,727.833 400.5,728.5C 398.5,727.833 396.5,727.167 394.5,726.5C 392.5,727.167 390.5,727.833 388.5,728.5C 386.5,727.833 384.5,727.167 382.5,726.5C 380.5,727.167 378.5,727.833 376.5,728.5C 374.5,727.833 372.5,727.167 370.5,726.5C 368.5,727.167 366.5,727.833 364.5,728.5C 362.5,727.833 360.5,727.167 358.5,726.5C 356.5,727.167 354.5,727.833 352.5,728.5C 350.5,727.833 348.5,727.167 346.5,726.5C 344.5,727.167 342.5,727.833 340.5,728.5C 338.5,727.833 336.5,727.167 334.5,726.5C 332.5,727.167 330.5,727.833 328.5,728.5C 326.5,727.833 324.5,727.167 322.5,726.5C 320.5,727.167 318.5,727.833 316.5,728.5C 314.5,727.833 312.5,727.167 310.5,726.5C 308.5,727.167 306.5,727.833 304.5,728.5C 302.5,727.833 300.5,727.167 298.5,726.5C 296.5,727.167 294.5,727.833 292.5,728.5C 290.5,727.833 288.5,727.167 286.5,726.5C 284.5,727.167 282.5,727.833 280.5,728.5C 278.5,727.833 276.5,727.167 274.5,726.5C 272.5,727.167 270.5,727.833 268.5,728.5C 266.5,727.833 264.5,727.167 262.5,726.5C 260.5,727.167 258.5,727.833 256.5,728.5C 254.5,727.833 252.5,727.167 250.5,726.5C 248.5,727.167 246.5,727.833 244.5,728.5C 242.5,727.833 240.5,727.167 238.5,726.5C 236.5,727.167 234.5,727.833 232.5,728.5C 230.5,727.833 228.5,727.167 226.5,726.5C 224.5,727.167 222.5,727.833 220.5,728.5C 218.5,727.833 216.5,727.167 214.5,726.5C 212.5,727.167 210.5,727.833 208.5,728.5C 206.5,727.833 204.5,727.167 202.5,726.5C 200.5,727.167 198.5,727.833 196.5,728.5C 194.5,727.833 192.5,727.167 190.5,726.5C 188.5,727.167 186.5,727.833 184.5,728.5C 182.5,727.833 180.5,727.167 178.5,726.5C 176.5,727.167 174.5,727.833 172.5,728.5C 170.5,727.833 168.5,727.167 166.5,726.5C 164.5,727.167 162.5,727.833 160.5,728.5C 158.5,727.833 156.5,727.167 154.5,726.5C 152.5,727.167 150.5,727.833 148.5,728.5C 146.5,727.833 144.5,727.167 142.5,726.5C 140.5,727.167 138.5,727.833 136.5,728.5C 134.5,727.833 132.5,727.167 130.5,726.5C 128.5,727.167 126.5,727.833 124.5,728.5C 122.5,727.833 120.5,727.167 118.5,726.5C 116.5,727.167 114.5,727.833 112.5,728.5C 110.5,727.833 108.5,727.167 106.5,726.5C 104.5,727.167 102.5,727.833 100.5,728.5C 98.5,727.833 96.5,727.167 94.5,726.5C 92.5,727.167 90.5,727.833 88.5,728.5C 86.5,727.833 84.5,727.167 82.5,726.5C 80.5,727.167 78.5,727.833 76.5,728.5C 74.5,727.833 72.5,727.167 70.5,726.5C 68.5,727.167 66.5,727.833 64.5,728.5C 62.5,727.833 60.5,727.167 58.5,726.5C 56.5,727.167 54.5,727.833 52.5,728.5C 50.5,727.833 48.5,727.167 46.5,726.5C 44.5,727.167 42.5,727.833 40.5,728.5C 37.6205,727.205 34.6205,726.538 31.5,726.5C 30.5003,532.334 30.167,338.001 30.5,143.5C 35.5,143.5 40.5,143.5 45.5,143.5C 45.5,265.833 45.5,388.167 45.5,510.5C 48.8333,510.5 52.1667,510.5 55.5,510.5C 55.5,578.167 55.5,645.833 55.5,713.5C 191.5,713.5 327.5,713.5 463.5,713.5C 463.5,645.833 463.5,578.167 463.5,510.5C 465.415,510.784 467.081,510.451 468.5,509.5C 468.5,387.167 468.5,264.833 468.5,142.5 Z"/></g>
<g><path style="opacity:1" fill="#8f6348" d="M 483.5,142.5 C 484.5,142.5 485.5,142.5 486.5,142.5C 484.836,337.792 483.836,533.125 483.5,728.5C 483.5,533.167 483.5,337.833 483.5,142.5 Z"/></g>
<g><path style="opacity:1" fill="#aa6335" d="M 266.5,343.5 C 265.023,357.599 268.523,370.266 277,381.5C 290.171,394.67 289.338,407.17 274.5,419C 262.161,426.168 250.161,433.834 238.5,442C 231.866,447.758 226.033,454.258 221,461.5C 215.177,476.055 216.677,489.721 225.5,502.5C 168.833,502.5 112.167,502.5 55.5,502.5C 55.5,485.5 55.5,468.5 55.5,451.5C 124.762,415.869 193.762,379.702 262.5,343C 264.066,342.235 265.399,342.402 266.5,343.5 Z"/></g>
<g><path style="opacity:1" fill="#f3b456" d="M 266.5,343.5 C 274.656,347.823 282.99,351.823 291.5,355.5C 299.801,360.654 308.134,365.82 316.5,371C 340.112,382.742 363.112,395.409 385.5,409C 397.632,414.463 409.299,420.796 420.5,428C 434.906,433.794 448.573,440.961 461.5,449.5C 461.5,467.167 461.5,484.833 461.5,502.5C 382.833,502.5 304.167,502.5 225.5,502.5C 216.677,489.721 215.177,476.055 221,461.5C 226.033,454.258 231.866,447.758 238.5,442C 250.161,433.834 262.161,426.168 274.5,419C 289.338,407.17 290.171,394.67 277,381.5C 268.523,370.266 265.023,357.599 266.5,343.5 Z"/></g>
<g><path style="opacity:1" fill="#cecece" d="M 30.5,143.5 C 30.5,143.167 30.5,142.833 30.5,142.5C 35.8333,142.5 41.1667,142.5 46.5,142.5C 46.5,264.833 46.5,387.167 46.5,509.5C 187.167,509.5 327.833,509.5 468.5,509.5C 467.081,510.451 465.415,510.784 463.5,510.5C 327.5,510.5 191.5,510.5 55.5,510.5C 52.1667,510.5 48.8333,510.5 45.5,510.5C 45.5,388.167 45.5,265.833 45.5,143.5C 40.5,143.5 35.5,143.5 30.5,143.5 Z"/></g>
<g><path style="opacity:1" fill="#fefefe" d="M 55.5,510.5 C 191.5,510.5 327.5,510.5 463.5,510.5C 463.5,578.167 463.5,645.833 463.5,713.5C 327.5,713.5 191.5,713.5 55.5,713.5C 55.5,645.833 55.5,578.167 55.5,510.5 Z"/></g>
<g><path style="opacity:1" fill="#d7d7d6" d="M 87.5,533.5 C 205.833,533.5 324.167,533.5 442.5,533.5C 442.5,587.5 442.5,641.5 442.5,695.5C 324.167,695.5 205.833,695.5 87.5,695.5C 87.5,641.5 87.5,587.5 87.5,533.5 Z"/></g>
<g><path style="opacity:1" fill="#19120e" d="M 146.5,550.5 C 147.5,550.5 148.5,550.5 149.5,550.5C 149.5,557.167 149.5,563.833 149.5,570.5C 148.5,570.5 147.5,570.5 146.5,570.5C 146.5,563.833 146.5,557.167 146.5,550.5 Z"/></g>
<g><path style="opacity:1" fill="#1a1310" d="M 164.5,550.5 C 165.833,550.5 167.167,550.5 168.5,550.5C 168.5,551.5 168.5,552.5 168.5,553.5C 167.5,553.5 166.5,553.5 165.5,553.5C 165.5,554.5 165.5,555.5 165.5,556.5C 169.5,557.167 169.5,557.833 165.5,558.5C 165.5,562.5 165.5,566.5 165.5,570.5C 164.5,570.5 163.5,570.5 162.5,570.5C 163.013,565.915 162.346,561.582 160.5,557.5C 161.98,555.202 163.313,552.869 164.5,550.5 Z"/></g>
<g><path style="opacity:1" fill="#433e3b" d="M 170.5,550.5 C 171.833,550.5 173.167,550.5 174.5,550.5C 174.5,551.5 174.5,552.5 174.5,553.5C 173.167,553.5 171.833,553.5 170.5,553.5C 170.5,552.5 170.5,551.5 170.5,550.5 Z"/></g>
<g><path style="opacity:1" fill="#66615e" d="M 213.5,551.5 C 212.5,551.5 211.5,551.5 210.5,551.5C 210.5,557.833 210.5,564.167 210.5,570.5C 209.509,564.021 209.176,557.354 209.5,550.5C 211.099,550.232 212.432,550.566 213.5,551.5 Z"/></g>
<g><path style="opacity:1" fill="#160f09" d="M 213.5,551.5 C 213.5,557.833 213.5,564.167 213.5,570.5C 212.5,570.5 211.5,570.5 210.5,570.5C 210.5,564.167 210.5,557.833 210.5,551.5C 211.5,551.5 212.5,551.5 213.5,551.5 Z"/></g>
<g><path style="opacity:1" fill="#9a9796" d="M 237.5,570.5 C 237.5,564.167 237.5,557.833 237.5,551.5C 236.5,551.5 235.5,551.5 234.5,551.5C 234.663,553.857 234.497,556.19 234,558.5C 233.283,557.956 232.783,557.289 232.5,556.5C 233.461,554.735 233.795,552.735 233.5,550.5C 235.167,550.5 236.833,550.5 238.5,550.5C 238.824,557.354 238.491,564.021 237.5,570.5 Z"/></g>
<g><path style="opacity:1" fill="#231d19" d="M 132.5,551.5 C 134.167,551.5 135.833,551.5 137.5,551.5C 139.291,557.539 141.291,563.539 143.5,569.5C 142.311,570.429 140.978,570.762 139.5,570.5C 139.579,569.07 139.246,567.736 138.5,566.5C 135.914,565.52 133.247,565.187 130.5,565.5C 130.74,569.527 129.074,570.861 125.5,569.5C 127.841,563.471 130.175,557.471 132.5,551.5 Z"/></g>
<g><path style="opacity:1" fill="#1b1410" d="M 335.5,552.5 C 337.176,553.183 337.843,554.517 337.5,556.5C 341.5,557.167 341.5,557.833 337.5,558.5C 337.335,561.518 337.502,564.518 338,567.5C 338.925,568.047 339.758,568.713 340.5,569.5C 338.647,570.76 336.814,570.76 335,569.5C 335.003,565.258 334.17,561.258 332.5,557.5C 333.994,556.095 334.994,554.429 335.5,552.5 Z"/></g>
<g><path style="opacity:1" fill="#160f09" d="M 170.5,556.5 C 171.5,556.5 172.5,556.5 173.5,556.5C 173.5,561.167 173.5,565.833 173.5,570.5C 172.5,570.5 171.5,570.5 170.5,570.5C 170.5,565.833 170.5,561.167 170.5,556.5 Z"/></g>
<g><path style="opacity:1" fill="#64605d" d="M 170.5,556.5 C 171.568,555.566 172.901,555.232 174.5,555.5C 174.821,560.695 174.487,565.695 173.5,570.5C 173.5,565.833 173.5,561.167 173.5,556.5C 172.5,556.5 171.5,556.5 170.5,556.5 Z"/></g>
<g><path style="opacity:1" fill="#1c1613" d="M 178.5,570.5 C 178.5,565.833 178.5,561.167 178.5,556.5C 179.5,556.5 180.5,556.5 181.5,556.5C 181.369,557.239 181.536,557.906 182,558.5C 184.367,555.068 187.034,554.735 190,557.5C 190.499,561.821 190.666,566.154 190.5,570.5C 189.5,570.5 188.5,570.5 187.5,570.5C 187.665,567.15 187.498,563.817 187,560.5C 185.333,557.833 183.667,557.833 182,560.5C 181.502,563.817 181.335,567.15 181.5,570.5C 180.5,570.5 179.5,570.5 178.5,570.5 Z"/></g>
<g><path style="opacity:1" fill="#27211e" d="M 197.5,555.5 C 200.272,555.22 202.772,555.887 205,557.5C 206.087,561.436 206.92,565.436 207.5,569.5C 205.602,570.734 203.935,570.401 202.5,568.5C 199.629,571.113 196.795,571.113 194,568.5C 193.08,565.692 193.913,563.525 196.5,562C 198.577,561.808 200.577,561.308 202.5,560.5C 202.113,559.28 201.28,558.613 200,558.5C 194.186,561.19 193.353,560.19 197.5,555.5 Z"/></g>
<g><path style="opacity:1" fill="#201a17" d="M 237.5,570.5 C 235.876,570.64 234.71,569.973 234,568.5C 230.528,571.418 227.528,571.085 225,567.5C 223.738,563.091 224.572,559.257 227.5,556C 229.265,555.36 230.932,555.527 232.5,556.5C 232.783,557.289 233.283,557.956 234,558.5C 234.497,556.19 234.663,553.857 234.5,551.5C 235.5,551.5 236.5,551.5 237.5,551.5C 237.5,557.833 237.5,564.167 237.5,570.5 Z"/></g>
<g><path style="opacity:1" fill="#28221f" d="M 253.5,561.5 C 251.012,563.388 248.012,564.055 244.5,563.5C 244.263,564.791 244.596,565.791 245.5,566.5C 245.866,567.695 246.699,568.361 248,568.5C 249.678,566.718 251.511,566.385 253.5,567.5C 250.151,571.001 246.484,571.334 242.5,568.5C 239.529,563.821 240.196,559.654 244.5,556C 249.438,554.798 252.438,556.631 253.5,561.5 Z"/></g>
<g><path style="opacity:1" fill="#251f1c" d="M 267.5,555.5 C 271.387,554.945 274.387,556.279 276.5,559.5C 273.675,559.341 270.841,559.341 268,559.5C 267.022,562.669 267.522,565.503 269.5,568C 271.388,567.873 273.054,567.04 274.5,565.5C 276.711,567.052 276.378,568.552 273.5,570C 265.212,571.291 262.045,567.791 264,559.5C 265.376,558.295 266.542,556.962 267.5,555.5 Z"/></g>
<g><path style="opacity:1" fill="#241e1a" d="M 282.5,555.5 C 285.652,554.959 288.152,555.959 290,558.5C 290.015,562.415 290.848,566.082 292.5,569.5C 290.389,570.848 288.555,570.515 287,568.5C 284.333,571.167 281.667,571.167 279,568.5C 278.332,563.005 280.832,560.671 286.5,561.5C 286.5,560.5 286.5,559.5 286.5,558.5C 284.263,559.449 281.929,560.116 279.5,560.5C 279.721,558.336 280.721,556.67 282.5,555.5 Z"/></g>
<g><path style="opacity:1" fill="#26201d" d="M 303.5,550.5 C 304.833,550.5 306.167,550.5 307.5,550.5C 307.5,557.167 307.5,563.833 307.5,570.5C 303.974,570.061 300.307,569.894 296.5,570C 293.231,566.547 292.731,562.714 295,558.5C 297.367,555.068 300.034,554.735 303,557.5C 303.497,555.19 303.663,552.857 303.5,550.5 Z"/></g>
<g><path style="opacity:1" fill="#28221e" d="M 314.5,555.5 C 317.652,554.959 320.152,555.959 322,558.5C 322.015,562.415 322.848,566.082 324.5,569.5C 320.246,569.341 315.746,569.341 311,569.5C 309.5,563.165 312,560.499 318.5,561.5C 318.5,560.5 318.5,559.5 318.5,558.5C 316.633,558.955 314.8,559.622 313,560.5C 312.167,560.167 311.333,559.833 310.5,559.5C 311.549,557.784 312.882,556.451 314.5,555.5 Z"/></g>
<g><path style="opacity:1" fill="#231d19" d="M 342.5,555.5 C 343.833,555.5 345.167,555.5 346.5,555.5C 346.335,559.182 346.501,562.848 347,566.5C 348.938,567.86 350.604,567.527 352,565.5C 352.498,562.518 352.665,559.518 352.5,556.5C 353.5,556.5 354.5,556.5 355.5,556.5C 355.5,561.167 355.5,565.833 355.5,570.5C 353.876,570.64 352.71,569.973 352,568.5C 349.127,571.1 346.294,571.1 343.5,568.5C 342.561,564.235 342.228,559.902 342.5,555.5 Z"/></g>
<g><path style="opacity:1" fill="#1a130f" d="M 363.5,560.5 C 363.5,563.833 363.5,567.167 363.5,570.5C 362.5,570.5 361.5,570.5 360.5,570.5C 360.173,565.786 360.507,561.12 361.5,556.5C 362.362,557.766 363.029,559.099 363.5,560.5 Z"/></g>
<g><path style="opacity:1" fill="#201a17" d="M 370.5,570.5 C 370.5,565.833 370.5,561.167 370.5,556.5C 371.5,556.5 372.5,556.5 373.5,556.5C 373.369,557.239 373.536,557.906 374,558.5C 377,554.5 380,554.5 383,558.5C 383.499,562.486 383.666,566.486 383.5,570.5C 382.167,570.5 380.833,570.5 379.5,570.5C 379.665,566.818 379.499,563.152 379,559.5C 377.062,558.14 375.396,558.473 374,560.5C 373.502,563.817 373.335,567.15 373.5,570.5C 372.5,570.5 371.5,570.5 370.5,570.5 Z"/></g>
<g><path style="opacity:1" fill="#241e1b" d="M 390.5,555.5 C 400.047,555.885 402.714,560.385 398.5,569C 389.249,572.416 385.415,569.25 387,559.5C 388.102,558.051 389.269,556.718 390.5,555.5 Z"/></g>
<g><path style="opacity:1" fill="#c0bfbf" d="M 133.5,555.5 C 135.821,557.09 136.821,559.423 136.5,562.5C 135.167,562.5 133.833,562.5 132.5,562.5C 132.674,560.139 133.007,557.806 133.5,555.5 Z"/></g>
<g><path style="opacity:1" fill="#4a4441" d="M 363.5,560.5 C 363.029,559.099 362.362,557.766 361.5,556.5C 360.507,561.12 360.173,565.786 360.5,570.5C 359.513,565.695 359.179,560.695 359.5,555.5C 361.451,555.227 362.951,555.893 364,557.5C 365.11,555.963 366.61,555.297 368.5,555.5C 368.5,556.833 368.5,558.167 368.5,559.5C 366.708,559.366 365.042,559.699 363.5,560.5 Z"/></g>
<g><path style="opacity:1" fill="#6b6764" d="M 181.5,556.5 C 180.5,556.5 179.5,556.5 178.5,556.5C 178.5,561.167 178.5,565.833 178.5,570.5C 177.513,565.695 177.179,560.695 177.5,555.5C 179.099,555.232 180.432,555.566 181.5,556.5 Z"/></g>
<g><path style="opacity:1" fill="#c9c8c8" d="M 245.5,558.5 C 247.665,558.116 249.332,558.783 250.5,560.5C 248.955,561.452 247.288,561.785 245.5,561.5C 245.5,560.5 245.5,559.5 245.5,558.5 Z"/></g>
<g><path style="opacity:1" fill="#93918f" d="M 373.5,556.5 C 372.5,556.5 371.5,556.5 370.5,556.5C 370.5,561.167 370.5,565.833 370.5,570.5C 369.513,565.695 369.179,560.695 369.5,555.5C 371.099,555.232 372.432,555.566 373.5,556.5 Z"/></g>
<g><path style="opacity:1" fill="#c5c4c3" d="M 229.5,558.5 C 234.66,559.68 235.827,562.68 233,567.5C 231.667,568.833 230.333,568.833 229,567.5C 228.264,564.408 228.431,561.408 229.5,558.5 Z"/></g>
<g><path style="opacity:1" fill="#c6c5c4" d="M 298.5,558.5 C 300.144,558.286 301.644,558.62 303,559.5C 303.667,561.833 303.667,564.167 303,566.5C 301.451,569.003 299.784,569.003 298,566.5C 297.398,563.779 297.565,561.113 298.5,558.5 Z"/></g>
<g><path style="opacity:1" fill="#cccccc" d="M 391.5,558.5 C 393.144,558.286 394.644,558.62 396,559.5C 396.667,561.833 396.667,564.167 396,566.5C 394.604,568.527 392.938,568.86 391,567.5C 390.264,564.408 390.431,561.408 391.5,558.5 Z"/></g>
<g><path style="opacity:1" fill="#807d7a" d="M 253.5,561.5 C 254.404,562.209 254.737,563.209 254.5,564.5C 250.988,563.945 247.988,564.612 245.5,566.5C 244.596,565.791 244.263,564.791 244.5,563.5C 248.012,564.055 251.012,563.388 253.5,561.5 Z"/></g>
<g><path style="opacity:1" fill="#b9b7b7" d="M 198.5,563.5 C 199.833,563.5 201.167,563.5 202.5,563.5C 202.5,566.833 200.833,568.5 197.5,568.5C 197.366,566.708 197.699,565.042 198.5,563.5 Z"/></g>
<g><path style="opacity:1" fill="#b4b2b1" d="M 283.5,563.5 C 284.833,563.5 286.167,563.5 287.5,563.5C 287.5,566.833 285.833,568.5 282.5,568.5C 282.366,566.708 282.699,565.042 283.5,563.5 Z"/></g>
<g><path style="opacity:1" fill="#bab9b8" d="M 315.5,563.5 C 316.5,563.5 317.5,563.5 318.5,563.5C 318.709,565.714 317.876,567.381 316,568.5C 312.927,567.252 312.76,565.585 315.5,563.5 Z"/></g>
<g><path style="opacity:1" fill="#28221f" d="M 403.5,566.5 C 404.833,566.5 406.167,566.5 407.5,566.5C 406.265,577.066 404.931,577.066 403.5,566.5 Z"/></g>
<g><path style="opacity:1" fill="#19120e" d="M 190.5,588.5 C 191.5,588.5 192.5,588.5 193.5,588.5C 193.5,595.167 193.5,601.833 193.5,608.5C 192.5,608.5 191.5,608.5 190.5,608.5C 190.5,601.833 190.5,595.167 190.5,588.5 Z"/></g>
<g><path style="opacity:1" fill="#221c19" d="M 261.5,588.5 C 262.5,588.5 263.5,588.5 264.5,588.5C 264.5,589.5 264.5,590.5 264.5,591.5C 263.5,591.5 262.5,591.5 261.5,591.5C 261.5,590.5 261.5,589.5 261.5,588.5 Z"/></g>
<g><path style="opacity:1" fill="#221c19" d="M 373.5,588.5 C 374.5,588.5 375.5,588.5 376.5,588.5C 376.5,589.5 376.5,590.5 376.5,591.5C 375.5,591.5 374.5,591.5 373.5,591.5C 373.5,590.5 373.5,589.5 373.5,588.5 Z"/></g>
<g><path style="opacity:1" fill="#19120e" d="M 420.5,588.5 C 421.5,588.5 422.5,588.5 423.5,588.5C 423.5,595.167 423.5,601.833 423.5,608.5C 422.5,608.5 421.5,608.5 420.5,608.5C 420.5,601.833 420.5,595.167 420.5,588.5 Z"/></g>
<g><path style="opacity:1" fill="#1b1410" d="M 111.5,590.5 C 113.176,591.183 113.843,592.517 113.5,594.5C 117.5,595.167 117.5,595.833 113.5,596.5C 113.335,599.518 113.502,602.518 114,605.5C 114.925,606.047 115.758,606.713 116.5,607.5C 114.647,608.76 112.814,608.76 111,607.5C 111.003,603.258 110.17,599.258 108.5,595.5C 109.994,594.095 110.994,592.429 111.5,590.5 Z"/></g>
<g><path style="opacity:1" fill="#1b1410" d="M 285.5,590.5 C 287.176,591.183 287.843,592.517 287.5,594.5C 291.5,595.167 291.5,595.833 287.5,596.5C 287.335,599.518 287.502,602.518 288,605.5C 288.925,606.047 289.758,606.713 290.5,607.5C 288.647,608.76 286.814,608.76 285,607.5C 285.003,603.258 284.17,599.258 282.5,595.5C 283.994,594.095 284.994,592.429 285.5,590.5 Z"/></g>
<g><path style="opacity:1" fill="#241e1b" d="M 122.5,593.5 C 132.047,593.885 134.714,598.385 130.5,607C 121.249,610.416 117.415,607.25 119,597.5C 120.102,596.051 121.269,594.718 122.5,593.5 Z"/></g>
<g><path style="opacity:1" fill="#26201d" d="M 144.5,588.5 C 145.833,588.5 147.167,588.5 148.5,588.5C 148.5,595.167 148.5,601.833 148.5,608.5C 144.974,608.061 141.307,607.894 137.5,608C 134.231,604.547 133.731,600.714 136,596.5C 138.367,593.068 141.034,592.735 144,595.5C 144.497,593.19 144.663,590.857 144.5,588.5 Z"/></g>
<g><path style="opacity:1" fill="#28221e" d="M 155.5,593.5 C 158.652,592.959 161.152,593.959 163,596.5C 163.015,600.415 163.848,604.082 165.5,607.5C 161.246,607.341 156.746,607.341 152,607.5C 150.5,601.165 153,598.499 159.5,599.5C 159.5,598.5 159.5,597.5 159.5,596.5C 157.633,596.955 155.8,597.622 154,598.5C 153.167,598.167 152.333,597.833 151.5,597.5C 152.549,595.784 153.882,594.451 155.5,593.5 Z"/></g>
<g><path style="opacity:1" fill="#251f1c" d="M 170.5,593.5 C 173.272,593.22 175.772,593.887 178,595.5C 178.591,596.483 178.257,597.15 177,597.5C 174.801,596.355 172.635,596.355 170.5,597.5C 172.512,599.106 174.845,600.273 177.5,601C 180.367,605.749 178.867,608.249 173,608.5C 170.226,608.695 168.059,607.695 166.5,605.5C 167,605.167 167.5,604.833 168,604.5C 170.21,606.111 172.71,606.778 175.5,606.5C 175.67,605.178 175.337,604.011 174.5,603C 169.039,603.212 166.872,600.712 168,595.5C 168.995,594.934 169.828,594.267 170.5,593.5 Z"/></g>
<g><path style="opacity:1" fill="#27211e" d="M 200.5,593.5 C 203.272,593.22 205.772,593.887 208,595.5C 209.087,599.436 209.92,603.436 210.5,607.5C 208.602,608.734 206.935,608.401 205.5,606.5C 202.629,609.113 199.795,609.113 197,606.5C 196.08,603.692 196.913,601.525 199.5,600C 201.577,599.808 203.577,599.308 205.5,598.5C 205.113,597.28 204.28,596.613 203,596.5C 197.186,599.19 196.353,598.19 200.5,593.5 Z"/></g>
<g><path style="opacity:1" fill="#26201d" d="M 215.5,593.5 C 219.281,592.789 222.281,593.955 224.5,597C 221.765,596.802 219.099,596.969 216.5,597.5C 218.793,599.052 221.293,600.385 224,601.5C 224.896,604.025 224.396,606.192 222.5,608C 219.833,608.667 217.167,608.667 214.5,608C 212.441,606.815 212.274,605.648 214,604.5C 215.396,605.394 216.896,606.061 218.5,606.5C 220,606.547 221,605.881 221.5,604.5C 218.854,602.982 216.021,601.649 213,600.5C 212.333,599.167 212.333,597.833 213,596.5C 214.045,595.627 214.878,594.627 215.5,593.5 Z"/></g>
<g><path style="opacity:1" fill="#251f1c" d="M 238.5,593.5 C 242.387,592.945 245.387,594.279 247.5,597.5C 244.675,597.341 241.841,597.341 239,597.5C 238.022,600.669 238.522,603.503 240.5,606C 242.388,605.873 244.054,605.04 245.5,603.5C 247.711,605.052 247.378,606.552 244.5,608C 236.212,609.291 233.045,605.791 235,597.5C 236.376,596.295 237.542,594.962 238.5,593.5 Z"/></g>
<g><path style="opacity:1" fill="#1a130f" d="M 254.5,598.5 C 254.5,601.833 254.5,605.167 254.5,608.5C 253.5,608.5 252.5,608.5 251.5,608.5C 251.173,603.786 251.507,599.12 252.5,594.5C 253.362,595.766 254.029,597.099 254.5,598.5 Z"/></g>
<g><path style="opacity:1" fill="#8f8d8b" d="M 264.5,608.5 C 264.5,603.833 264.5,599.167 264.5,594.5C 263.5,594.5 262.5,594.5 261.5,594.5C 261.5,599.167 261.5,603.833 261.5,608.5C 260.513,603.695 260.179,598.695 260.5,593.5C 262.167,593.5 263.833,593.5 265.5,593.5C 265.821,598.695 265.487,603.695 264.5,608.5 Z"/></g>
<g><path style="opacity:1" fill="#160f09" d="M 264.5,608.5 C 263.5,608.5 262.5,608.5 261.5,608.5C 261.5,603.833 261.5,599.167 261.5,594.5C 262.5,594.5 263.5,594.5 264.5,594.5C 264.5,599.167 264.5,603.833 264.5,608.5 Z"/></g>
<g><path style="opacity:1" fill="#292320" d="M 271.5,593.5 C 274.97,592.875 277.804,593.875 280,596.5C 280.015,600.415 280.848,604.082 282.5,607.5C 280.264,608.812 278.264,608.479 276.5,606.5C 273.636,609.102 270.803,609.102 268,606.5C 267.83,600.851 270.663,598.518 276.5,599.5C 276.5,598.5 276.5,597.5 276.5,596.5C 274.334,596.579 272.334,597.246 270.5,598.5C 269.833,598.167 269.167,597.833 268.5,597.5C 269.524,596.148 270.524,594.815 271.5,593.5 Z"/></g>
<g><path style="opacity:1" fill="#75716e" d="M 296.5,594.5 C 295.5,594.5 294.5,594.5 293.5,594.5C 293.5,598.167 293.5,601.833 293.5,605.5C 292.517,601.702 292.183,597.702 292.5,593.5C 294.099,593.232 295.432,593.566 296.5,594.5 Z"/></g>
<g><path style="opacity:1" fill="#1a1410" d="M 296.5,594.5 C 296.335,597.85 296.502,601.183 297,604.5C 299.045,606.043 300.545,605.71 301.5,603.5C 302.477,600.713 302.81,597.713 302.5,594.5C 303.5,594.5 304.5,594.5 305.5,594.5C 305.5,599.167 305.5,603.833 305.5,608.5C 303.876,608.64 302.71,607.973 302,606.5C 298.742,609.346 295.908,609.013 293.5,605.5C 293.5,601.833 293.5,598.167 293.5,594.5C 294.5,594.5 295.5,594.5 296.5,594.5 Z"/></g>
<g><path style="opacity:1" fill="#878482" d="M 305.5,608.5 C 305.5,603.833 305.5,599.167 305.5,594.5C 304.5,594.5 303.5,594.5 302.5,594.5C 302.81,597.713 302.477,600.713 301.5,603.5C 301.5,600.167 301.5,596.833 301.5,593.5C 303.167,593.5 304.833,593.5 306.5,593.5C 306.821,598.695 306.487,603.695 305.5,608.5 Z"/></g>
<g><path style="opacity:1" fill="#1a130f" d="M 313.5,598.5 C 313.5,601.833 313.5,605.167 313.5,608.5C 312.5,608.5 311.5,608.5 310.5,608.5C 310.173,603.786 310.507,599.12 311.5,594.5C 312.362,595.766 313.029,597.099 313.5,598.5 Z"/></g>
<g><path style="opacity:1" fill="#28221e" d="M 323.5,593.5 C 326.652,592.959 329.152,593.959 331,596.5C 331.015,600.415 331.848,604.082 333.5,607.5C 329.246,607.341 324.746,607.341 320,607.5C 318.5,601.165 321,598.499 327.5,599.5C 327.5,598.5 327.5,597.5 327.5,596.5C 325.633,596.955 323.8,597.622 322,598.5C 321.167,598.167 320.333,597.833 319.5,597.5C 320.549,595.784 321.882,594.451 323.5,593.5 Z"/></g>
<g><path style="opacity:1" fill="#251f1c" d="M 338.5,593.5 C 341.272,593.22 343.772,593.887 346,595.5C 346.591,596.483 346.257,597.15 345,597.5C 342.801,596.355 340.635,596.355 338.5,597.5C 340.512,599.106 342.845,600.273 345.5,601C 348.367,605.749 346.867,608.249 341,608.5C 338.226,608.695 336.059,607.695 334.5,605.5C 335,605.167 335.5,604.833 336,604.5C 338.21,606.111 340.71,606.778 343.5,606.5C 343.67,605.178 343.337,604.011 342.5,603C 337.039,603.212 334.872,600.712 336,595.5C 336.995,594.934 337.828,594.267 338.5,593.5 Z"/></g>
<g><path style="opacity:1" fill="#28211e" d="M 360.5,593.5 C 363.602,593.154 366.435,593.821 369,595.5C 369.591,596.483 369.257,597.15 368,597.5C 365.801,596.355 363.635,596.355 361.5,597.5C 363.512,599.106 365.845,600.273 368.5,601C 371.192,603.632 370.859,605.966 367.5,608C 364.833,608.667 362.167,608.667 359.5,608C 357.441,606.815 357.274,605.648 359,604.5C 361.21,606.111 363.71,606.778 366.5,606.5C 366.67,605.178 366.337,604.011 365.5,603C 357.932,602.355 356.265,599.188 360.5,593.5 Z"/></g>
<g><path style="opacity:1" fill="#8f8d8b" d="M 376.5,608.5 C 376.5,603.833 376.5,599.167 376.5,594.5C 375.5,594.5 374.5,594.5 373.5,594.5C 373.5,599.167 373.5,603.833 373.5,608.5C 372.513,603.695 372.179,598.695 372.5,593.5C 374.167,593.5 375.833,593.5 377.5,593.5C 377.821,598.695 377.487,603.695 376.5,608.5 Z"/></g>
<g><path style="opacity:1" fill="#160f09" d="M 376.5,608.5 C 375.5,608.5 374.5,608.5 373.5,608.5C 373.5,603.833 373.5,599.167 373.5,594.5C 374.5,594.5 375.5,594.5 376.5,594.5C 376.5,599.167 376.5,603.833 376.5,608.5 Z"/></g>
<g><path style="opacity:1" fill="#1c1613" d="M 381.5,608.5 C 381.5,603.833 381.5,599.167 381.5,594.5C 382.5,594.5 383.5,594.5 384.5,594.5C 384.369,595.239 384.536,595.906 385,596.5C 387.367,593.068 390.034,592.735 393,595.5C 393.499,599.821 393.666,604.154 393.5,608.5C 392.5,608.5 391.5,608.5 390.5,608.5C 390.665,605.15 390.498,601.817 390,598.5C 388.333,595.833 386.667,595.833 385,598.5C 384.502,601.817 384.335,605.15 384.5,608.5C 383.5,608.5 382.5,608.5 381.5,608.5 Z"/></g>
<g><path style="opacity:1" fill="#231d1a" d="M 416.5,598.5 C 416.5,599.5 416.5,600.5 416.5,601.5C 413.615,601.194 410.948,601.527 408.5,602.5C 408.33,603.822 408.663,604.989 409.5,606C 411.585,606.529 413.418,606.029 415,604.5C 416.726,605.648 416.559,606.815 414.5,608C 406.238,609.365 403.072,605.865 405,597.5C 409.54,591.917 413.373,592.25 416.5,598.5 Z"/></g>
<g><path style="opacity:1" fill="#4a4441" d="M 254.5,598.5 C 254.029,597.099 253.362,595.766 252.5,594.5C 251.507,599.12 251.173,603.786 251.5,608.5C 250.513,603.695 250.179,598.695 250.5,593.5C 252.451,593.227 253.951,593.893 255,595.5C 256.11,593.963 257.61,593.297 259.5,593.5C 259.5,594.833 259.5,596.167 259.5,597.5C 257.708,597.366 256.042,597.699 254.5,598.5 Z"/></g>
<g><path style="opacity:1" fill="#4a4441" d="M 313.5,598.5 C 313.029,597.099 312.362,595.766 311.5,594.5C 310.507,599.12 310.173,603.786 310.5,608.5C 309.513,603.695 309.179,598.695 309.5,593.5C 311.451,593.227 312.951,593.893 314,595.5C 315.11,593.963 316.61,593.297 318.5,593.5C 318.5,594.833 318.5,596.167 318.5,597.5C 316.708,597.366 315.042,597.699 313.5,598.5 Z"/></g>
<g><path style="opacity:1" fill="#6b6764" d="M 384.5,594.5 C 383.5,594.5 382.5,594.5 381.5,594.5C 381.5,599.167 381.5,603.833 381.5,608.5C 380.513,603.695 380.179,598.695 380.5,593.5C 382.099,593.232 383.432,593.566 384.5,594.5 Z"/></g>
<g><path style="opacity:1" fill="#d5d5d5" d="M 409.5,596.5 C 411.346,596.222 412.68,596.889 413.5,598.5C 411.833,599.833 410.167,599.833 408.5,598.5C 408.863,597.817 409.196,597.15 409.5,596.5 Z"/></g>
<g><path style="opacity:1" fill="#cccccc" d="M 123.5,596.5 C 125.144,596.286 126.644,596.62 128,597.5C 128.667,599.833 128.667,602.167 128,604.5C 126.604,606.527 124.938,606.86 123,605.5C 122.264,602.408 122.431,599.408 123.5,596.5 Z"/></g>
<g><path style="opacity:1" fill="#c6c5c4" d="M 139.5,596.5 C 141.144,596.286 142.644,596.62 144,597.5C 144.667,599.833 144.667,602.167 144,604.5C 142.451,607.003 140.784,607.003 139,604.5C 138.398,601.779 138.565,599.113 139.5,596.5 Z"/></g>
<g><path style="opacity:1" fill="#716d6a" d="M 416.5,598.5 C 417.434,599.568 417.768,600.901 417.5,602.5C 414.5,602.5 411.5,602.5 408.5,602.5C 410.948,601.527 413.615,601.194 416.5,601.5C 416.5,600.5 416.5,599.5 416.5,598.5 Z"/></g>
<g><path style="opacity:1" fill="#bab9b8" d="M 156.5,601.5 C 157.5,601.5 158.5,601.5 159.5,601.5C 159.709,603.714 158.876,605.381 157,606.5C 153.927,605.252 153.76,603.585 156.5,601.5 Z"/></g>
<g><path style="opacity:1" fill="#b9b7b7" d="M 201.5,601.5 C 202.833,601.5 204.167,601.5 205.5,601.5C 205.5,604.833 203.833,606.5 200.5,606.5C 200.366,604.708 200.699,603.042 201.5,601.5 Z"/></g>
<g><path style="opacity:1" fill="#bbbaba" d="M 272.5,601.5 C 273.833,601.5 275.167,601.5 276.5,601.5C 276.756,603.912 275.756,605.579 273.5,606.5C 271.296,605.218 270.962,603.551 272.5,601.5 Z"/></g>
<g><path style="opacity:1" fill="#bab9b8" d="M 324.5,601.5 C 325.5,601.5 326.5,601.5 327.5,601.5C 327.709,603.714 326.876,605.381 325,606.5C 321.927,605.252 321.76,603.585 324.5,601.5 Z"/></g>
<g><path style="opacity:1" fill="#221c19" d="M 139.5,626.5 C 140.5,626.5 141.5,626.5 142.5,626.5C 142.5,627.5 142.5,628.5 142.5,629.5C 141.5,629.5 140.5,629.5 139.5,629.5C 139.5,628.5 139.5,627.5 139.5,626.5 Z"/></g>
<g><path style="opacity:1" fill="#221c19" d="M 206.5,626.5 C 207.5,626.5 208.5,626.5 209.5,626.5C 209.5,627.5 209.5,628.5 209.5,629.5C 208.5,629.5 207.5,629.5 206.5,629.5C 206.5,628.5 206.5,627.5 206.5,626.5 Z"/></g>
<g><path style="opacity:1" fill="#2b2521" d="M 263.5,626.5 C 264.833,626.5 266.167,626.5 267.5,626.5C 267.5,627.5 267.5,628.5 267.5,629.5C 266.167,629.5 264.833,629.5 263.5,629.5C 263.5,628.5 263.5,627.5 263.5,626.5 Z"/></g>
<g><path style="opacity:1" fill="#7e7b79" d="M 309.5,646.5 C 309.5,640.167 309.5,633.833 309.5,627.5C 308.5,627.5 307.5,627.5 306.5,627.5C 306.663,629.857 306.497,632.19 306,634.5C 305.283,633.956 304.783,633.289 304.5,632.5C 305.461,630.735 305.795,628.735 305.5,626.5C 307.167,626.5 308.833,626.5 310.5,626.5C 310.824,633.354 310.491,640.021 309.5,646.5 Z"/></g>
<g><path style="opacity:1" fill="#231d19" d="M 192.5,627.5 C 194.167,627.5 195.833,627.5 197.5,627.5C 199.291,633.539 201.291,639.539 203.5,645.5C 202.311,646.429 200.978,646.762 199.5,646.5C 199.579,645.07 199.246,643.736 198.5,642.5C 195.914,641.52 193.247,641.187 190.5,641.5C 190.74,645.527 189.074,646.861 185.5,645.5C 187.841,639.471 190.175,633.471 192.5,627.5 Z"/></g>
<g><path style="opacity:1" fill="#241e1b" d="M 357.5,627.5 C 358.833,627.5 360.167,627.5 361.5,627.5C 361.5,632.833 361.5,638.167 361.5,643.5C 362.833,643.5 364.167,643.5 365.5,643.5C 365.5,644.5 365.5,645.5 365.5,646.5C 361.167,646.5 356.833,646.5 352.5,646.5C 352.5,645.5 352.5,644.5 352.5,643.5C 354.167,643.5 355.833,643.5 357.5,643.5C 357.824,639.445 357.491,635.445 356.5,631.5C 355.391,632.59 354.391,632.59 353.5,631.5C 354.549,629.784 355.882,628.451 357.5,627.5 Z"/></g>
<g><path style="opacity:1" fill="#221c19" d="M 131.5,629.5 C 133.048,629.821 133.715,630.821 133.5,632.5C 134.5,632.5 135.5,632.5 136.5,632.5C 133.964,636.84 133.964,641.174 136.5,645.5C 134.926,646.631 133.259,646.798 131.5,646C 131.025,641.558 130.025,637.225 128.5,633C 129.544,631.826 130.544,630.659 131.5,629.5 Z"/></g>
<g><path style="opacity:1" fill="#65605d" d="M 131.5,629.5 C 132.209,628.596 133.209,628.263 134.5,628.5C 134.527,630.199 135.194,631.533 136.5,632.5C 135.5,632.5 134.5,632.5 133.5,632.5C 133.715,630.821 133.048,629.821 131.5,629.5 Z"/></g>
<g><path style="opacity:1" fill="#8f8d8b" d="M 142.5,646.5 C 142.5,641.833 142.5,637.167 142.5,632.5C 141.5,632.5 140.5,632.5 139.5,632.5C 139.5,637.167 139.5,641.833 139.5,646.5C 138.513,641.695 138.179,636.695 138.5,631.5C 140.167,631.5 141.833,631.5 143.5,631.5C 143.821,636.695 143.487,641.695 142.5,646.5 Z"/></g>
<g><path style="opacity:1" fill="#160f09" d="M 142.5,646.5 C 141.5,646.5 140.5,646.5 139.5,646.5C 139.5,641.833 139.5,637.167 139.5,632.5C 140.5,632.5 141.5,632.5 142.5,632.5C 142.5,637.167 142.5,641.833 142.5,646.5 Z"/></g>
<g><path style="opacity:1" fill="#27211e" d="M 146.5,631.5 C 148.451,631.227 149.951,631.893 151,633.5C 154.671,630.604 157.671,631.271 160,635.5C 160.79,638.634 160.457,641.634 159,644.5C 156.791,646.706 154.291,647.04 151.5,645.5C 150.526,647.743 150.192,650.076 150.5,652.5C 149.167,652.5 147.833,652.5 146.5,652.5C 146.5,645.5 146.5,638.5 146.5,631.5 Z"/></g>
<g><path style="opacity:1" fill="#211b17" d="M 166.5,631.5 C 175.042,631.211 178.208,635.211 176,643.5C 171.368,647.698 167.035,647.364 163,642.5C 161.662,637.96 162.829,634.293 166.5,631.5 Z"/></g>
<g><path style="opacity:1" fill="#8f8d8b" d="M 209.5,646.5 C 209.5,641.833 209.5,637.167 209.5,632.5C 208.5,632.5 207.5,632.5 206.5,632.5C 206.5,637.167 206.5,641.833 206.5,646.5C 205.513,641.695 205.179,636.695 205.5,631.5C 207.167,631.5 208.833,631.5 210.5,631.5C 210.821,636.695 210.487,641.695 209.5,646.5 Z"/></g>
<g><path style="opacity:1" fill="#160f09" d="M 209.5,646.5 C 208.5,646.5 207.5,646.5 206.5,646.5C 206.5,641.833 206.5,637.167 206.5,632.5C 207.5,632.5 208.5,632.5 209.5,632.5C 209.5,637.167 209.5,641.833 209.5,646.5 Z"/></g>
<g><path style="opacity:1" fill="#19120e" d="M 217.5,632.5 C 217.938,633.506 218.604,633.506 219.5,632.5C 220.376,632.369 221.043,632.702 221.5,633.5C 220.757,634.182 220.091,634.849 219.5,635.5C 218.883,635.611 218.383,635.944 218,636.5C 217.502,639.817 217.335,643.15 217.5,646.5C 216.5,646.5 215.5,646.5 214.5,646.5C 214.5,641.833 214.5,637.167 214.5,632.5C 215.5,632.5 216.5,632.5 217.5,632.5 Z"/></g>
<g><path style="opacity:1" fill="#645f5c" d="M 219.5,632.5 C 220.209,631.596 221.209,631.263 222.5,631.5C 222.5,632.833 222.5,634.167 222.5,635.5C 221.5,635.5 220.5,635.5 219.5,635.5C 220.091,634.849 220.757,634.182 221.5,633.5C 221.043,632.702 220.376,632.369 219.5,632.5 Z"/></g>
<g><path style="opacity:1" fill="#26201c" d="M 227.5,631.5 C 233.024,631.358 236.024,634.025 236.5,639.5C 233.5,639.5 230.5,639.5 227.5,639.5C 227.291,641.714 228.124,643.381 230,644.5C 231.895,642.818 234.062,642.318 236.5,643C 233.088,646.964 229.255,647.464 225,644.5C 222.458,639.438 223.292,635.105 227.5,631.5 Z"/></g>
<g><path style="opacity:1" fill="#1d1613" d="M 250.5,632.5 C 250.511,635.001 251.178,635.168 252.5,633C 258.272,631.268 260.939,633.435 260.5,639.5C 259.884,646.309 256.717,647.976 251,644.5C 250.503,647.146 250.336,649.813 250.5,652.5C 249.5,652.5 248.5,652.5 247.5,652.5C 247.5,645.833 247.5,639.167 247.5,632.5C 248.5,632.5 249.5,632.5 250.5,632.5 Z"/></g>
<g><path style="opacity:1" fill="#302a26" d="M 263.5,631.5 C 264.833,631.5 266.167,631.5 267.5,631.5C 267.5,636.5 267.5,641.5 267.5,646.5C 266.167,646.5 264.833,646.5 263.5,646.5C 263.5,641.5 263.5,636.5 263.5,631.5 Z"/></g>
<g><path style="opacity:1" fill="#26201c" d="M 274.5,631.5 C 280.024,631.358 283.024,634.025 283.5,639.5C 280.5,639.5 277.5,639.5 274.5,639.5C 274.291,641.714 275.124,643.381 277,644.5C 278.895,642.818 281.062,642.318 283.5,643C 280.088,646.964 276.255,647.464 272,644.5C 269.458,639.438 270.292,635.105 274.5,631.5 Z"/></g>
<g><path style="opacity:1" fill="#221c19" d="M 292.5,631.5 C 294.176,632.183 294.843,633.517 294.5,635.5C 293.167,635.5 291.833,635.5 290.5,635.5C 290.5,639.167 290.5,642.833 290.5,646.5C 289.167,646.5 287.833,646.5 286.5,646.5C 286.5,641.833 286.5,637.167 286.5,632.5C 288.124,632.36 289.29,633.027 290,634.5C 291.045,633.627 291.878,632.627 292.5,631.5 Z"/></g>
<g><path style="opacity:1" fill="#1f1916" d="M 309.5,646.5 C 307.876,646.64 306.71,645.973 306,644.5C 302.195,647.539 299.195,646.872 297,642.5C 296.21,639.366 296.543,636.366 298,633.5C 299.898,631.316 302.064,630.983 304.5,632.5C 304.783,633.289 305.283,633.956 306,634.5C 306.497,632.19 306.663,629.857 306.5,627.5C 307.5,627.5 308.5,627.5 309.5,627.5C 309.5,633.833 309.5,640.167 309.5,646.5 Z"/></g>
<g><path style="opacity:1" fill="#28221f" d="M 325.5,637.5 C 323.012,639.388 320.012,640.055 316.5,639.5C 316.263,640.791 316.596,641.791 317.5,642.5C 317.866,643.695 318.699,644.361 320,644.5C 321.678,642.718 323.511,642.385 325.5,643.5C 322.151,647.001 318.484,647.334 314.5,644.5C 311.529,639.821 312.196,635.654 316.5,632C 321.438,630.798 324.438,632.631 325.5,637.5 Z"/></g>
<g><path style="opacity:1" fill="#1c1613" d="M 329.5,646.5 C 329.5,641.833 329.5,637.167 329.5,632.5C 330.5,632.5 331.5,632.5 332.5,632.5C 332.369,633.239 332.536,633.906 333,634.5C 335.367,631.068 338.034,630.735 341,633.5C 341.499,637.821 341.666,642.154 341.5,646.5C 340.5,646.5 339.5,646.5 338.5,646.5C 338.665,643.15 338.498,639.817 338,636.5C 336.333,633.833 334.667,633.833 333,636.5C 332.502,639.817 332.335,643.15 332.5,646.5C 331.5,646.5 330.5,646.5 329.5,646.5 Z"/></g>
<g><path style="opacity:1" fill="#26201d" d="M 384.5,626.5 C 385.833,626.5 387.167,626.5 388.5,626.5C 388.5,633.167 388.5,639.833 388.5,646.5C 384.974,646.061 381.307,645.894 377.5,646C 374.231,642.547 373.731,638.714 376,634.5C 378.367,631.068 381.034,630.735 384,633.5C 384.497,631.19 384.663,628.857 384.5,626.5 Z"/></g>
<g><path style="opacity:1" fill="#26201c" d="M 395.5,631.5 C 401.024,631.358 404.024,634.025 404.5,639.5C 401.5,639.5 398.5,639.5 395.5,639.5C 395.291,641.714 396.124,643.381 398,644.5C 399.895,642.818 402.062,642.318 404.5,643C 401.088,646.964 397.255,647.464 393,644.5C 390.458,639.438 391.292,635.105 395.5,631.5 Z"/></g>
<g><path style="opacity:1" fill="#c0bfbf" d="M 193.5,631.5 C 195.821,633.09 196.821,635.423 196.5,638.5C 195.167,638.5 193.833,638.5 192.5,638.5C 192.674,636.139 193.007,633.806 193.5,631.5 Z"/></g>
<g><path style="opacity:1" fill="#6b6764" d="M 217.5,632.5 C 216.5,632.5 215.5,632.5 214.5,632.5C 214.5,637.167 214.5,641.833 214.5,646.5C 213.513,641.695 213.179,636.695 213.5,631.5C 215.099,631.232 216.432,631.566 217.5,632.5 Z"/></g>
<g><path style="opacity:1" fill="#cccccb" d="M 228.5,634.5 C 229.833,634.5 231.167,634.5 232.5,634.5C 232.5,635.5 232.5,636.5 232.5,637.5C 230.712,637.785 229.045,637.452 227.5,636.5C 227.863,635.817 228.196,635.15 228.5,634.5 Z"/></g>
<g><path style="opacity:1" fill="#949290" d="M 250.5,632.5 C 249.5,632.5 248.5,632.5 247.5,632.5C 247.5,639.167 247.5,645.833 247.5,652.5C 246.509,645.687 246.175,638.687 246.5,631.5C 248.099,631.232 249.432,631.566 250.5,632.5 Z"/></g>
<g><path style="opacity:1" fill="#cccccb" d="M 275.5,634.5 C 276.833,634.5 278.167,634.5 279.5,634.5C 279.5,635.5 279.5,636.5 279.5,637.5C 277.712,637.785 276.045,637.452 274.5,636.5C 274.863,635.817 275.196,635.15 275.5,634.5 Z"/></g>
<g><path style="opacity:1" fill="#c9c8c8" d="M 317.5,634.5 C 319.665,634.116 321.332,634.783 322.5,636.5C 320.955,637.452 319.288,637.785 317.5,637.5C 317.5,636.5 317.5,635.5 317.5,634.5 Z"/></g>
<g><path style="opacity:1" fill="#6b6764" d="M 332.5,632.5 C 331.5,632.5 330.5,632.5 329.5,632.5C 329.5,637.167 329.5,641.833 329.5,646.5C 328.513,641.695 328.179,636.695 328.5,631.5C 330.099,631.232 331.432,631.566 332.5,632.5 Z"/></g>
<g><path style="opacity:1" fill="#cccccb" d="M 396.5,634.5 C 397.833,634.5 399.167,634.5 400.5,634.5C 400.5,635.5 400.5,636.5 400.5,637.5C 398.712,637.785 397.045,637.452 395.5,636.5C 395.863,635.817 396.196,635.15 396.5,634.5 Z"/></g>
<g><path style="opacity:1" fill="#c8c7c6" d="M 151.5,634.5 C 156.152,635.104 157.652,637.77 156,642.5C 154.216,645.003 152.549,645.003 151,642.5C 150.278,639.739 150.445,637.073 151.5,634.5 Z"/></g>
<g><path style="opacity:1" fill="#c5c4c4" d="M 167.5,634.5 C 173.786,635.315 175.12,638.481 171.5,644C 169.633,644.711 168.133,644.211 167,642.5C 166.398,639.779 166.565,637.113 167.5,634.5 Z"/></g>
<g><path style="opacity:1" fill="#c5c4c4" d="M 252.5,634.5 C 253.822,634.33 254.989,634.663 256,635.5C 256.667,638.167 256.667,640.833 256,643.5C 252.474,644.832 250.641,643.499 250.5,639.5C 250.437,637.486 251.103,635.819 252.5,634.5 Z"/></g>
<g><path style="opacity:1" fill="#cac9c9" d="M 301.5,634.5 C 306.151,635.174 307.651,637.841 306,642.5C 304.333,645.167 302.667,645.167 301,642.5C 300.278,639.739 300.445,637.073 301.5,634.5 Z"/></g>
<g><path style="opacity:1" fill="#c6c5c4" d="M 379.5,634.5 C 381.144,634.286 382.644,634.62 384,635.5C 384.667,637.833 384.667,640.167 384,642.5C 382.451,645.003 380.784,645.003 379,642.5C 378.398,639.779 378.565,637.113 379.5,634.5 Z"/></g>
<g><path style="opacity:1" fill="#807d7a" d="M 325.5,637.5 C 326.404,638.209 326.737,639.209 326.5,640.5C 322.988,639.945 319.988,640.612 317.5,642.5C 316.596,641.791 316.263,640.791 316.5,639.5C 320.012,640.055 323.012,639.388 325.5,637.5 Z"/></g>
<g><path style="opacity:1" fill="#221c19" d="M 243.5,664.5 C 244.5,664.5 245.5,664.5 246.5,664.5C 246.5,665.5 246.5,666.5 246.5,667.5C 245.5,667.5 244.5,667.5 243.5,667.5C 243.5,666.5 243.5,665.5 243.5,664.5 Z"/></g>
<g><path style="opacity:1" fill="#2d2724" d="M 321.5,664.5 C 322.833,664.5 324.167,664.5 325.5,664.5C 325.5,665.5 325.5,666.5 325.5,667.5C 324.167,667.5 322.833,667.5 321.5,667.5C 321.5,666.5 321.5,665.5 321.5,664.5 Z"/></g>
<g><path style="opacity:1" fill="#787472" d="M 205.5,666.5 C 201.5,666.5 197.5,666.5 193.5,666.5C 193.5,672.5 193.5,678.5 193.5,684.5C 192.51,678.355 192.177,672.022 192.5,665.5C 197.032,665.182 201.366,665.515 205.5,666.5 Z"/></g>
<g><path style="opacity:1" fill="#1c1512" d="M 205.5,666.5 C 209.146,667.462 210.313,669.795 209,673.5C 207.833,674.667 206.667,675.833 205.5,677C 207.032,679.034 208.365,681.201 209.5,683.5C 208.833,683.833 208.167,684.167 207.5,684.5C 205.005,682.836 203.005,680.67 201.5,678C 199.866,677.506 198.199,677.34 196.5,677.5C 196.5,679.833 196.5,682.167 196.5,684.5C 195.5,684.5 194.5,684.5 193.5,684.5C 193.5,678.5 193.5,672.5 193.5,666.5C 197.5,666.5 201.5,666.5 205.5,666.5 Z"/></g>
<g><path style="opacity:1" fill="#1b1410" d="M 267.5,666.5 C 269.176,667.183 269.843,668.517 269.5,670.5C 273.5,671.167 273.5,671.833 269.5,672.5C 269.335,675.518 269.502,678.518 270,681.5C 270.925,682.047 271.758,682.713 272.5,683.5C 270.647,684.76 268.814,684.76 267,683.5C 267.003,679.258 266.17,675.258 264.5,671.5C 265.994,670.095 266.994,668.429 267.5,666.5 Z"/></g>
<g><path style="opacity:1" fill="#8a8785" d="M 203.5,669.5 C 201.5,669.5 199.5,669.5 197.5,669.5C 197.5,670.833 197.5,672.167 197.5,673.5C 199.5,673.5 201.5,673.5 203.5,673.5C 201.393,674.468 199.059,674.802 196.5,674.5C 196.5,672.5 196.5,670.5 196.5,668.5C 199.059,668.198 201.393,668.532 203.5,669.5 Z"/></g>
<g><path style="opacity:1" fill="#d3d3d3" d="M 203.5,669.5 C 204.586,669.62 205.253,670.287 205.5,671.5C 205.253,672.713 204.586,673.38 203.5,673.5C 201.5,673.5 199.5,673.5 197.5,673.5C 197.5,672.167 197.5,670.833 197.5,669.5C 199.5,669.5 201.5,669.5 203.5,669.5 Z"/></g>
<g><path style="opacity:1" fill="#241d1a" d="M 224.5,674.5 C 224.5,675.5 224.5,676.5 224.5,677.5C 221.5,677.5 218.5,677.5 215.5,677.5C 215.263,678.791 215.596,679.791 216.5,680.5C 216.866,681.695 217.699,682.361 219,682.5C 220.333,681.833 221.667,681.167 223,680.5C 223.5,680.833 224,681.167 224.5,681.5C 220.674,685.442 216.841,685.442 213,681.5C 212.071,677.756 212.571,674.256 214.5,671C 219.333,668.256 222.666,669.423 224.5,674.5 Z"/></g>
<g><path style="opacity:1" fill="#26201d" d="M 230.5,669.5 C 234.281,668.789 237.281,669.955 239.5,673C 236.765,672.802 234.099,672.969 231.5,673.5C 233.793,675.052 236.293,676.385 239,677.5C 239.896,680.025 239.396,682.192 237.5,684C 234.833,684.667 232.167,684.667 229.5,684C 227.441,682.815 227.274,681.648 229,680.5C 230.396,681.394 231.896,682.061 233.5,682.5C 235,682.547 236,681.881 236.5,680.5C 233.854,678.982 231.021,677.649 228,676.5C 227.333,675.167 227.333,673.833 228,672.5C 229.045,671.627 229.878,670.627 230.5,669.5 Z"/></g>
<g><path style="opacity:1" fill="#8f8d8b" d="M 246.5,684.5 C 246.5,679.833 246.5,675.167 246.5,670.5C 245.5,670.5 244.5,670.5 243.5,670.5C 243.5,675.167 243.5,679.833 243.5,684.5C 242.513,679.695 242.179,674.695 242.5,669.5C 244.167,669.5 245.833,669.5 247.5,669.5C 247.821,674.695 247.487,679.695 246.5,684.5 Z"/></g>
<g><path style="opacity:1" fill="#160f09" d="M 246.5,684.5 C 245.5,684.5 244.5,684.5 243.5,684.5C 243.5,679.833 243.5,675.167 243.5,670.5C 244.5,670.5 245.5,670.5 246.5,670.5C 246.5,675.167 246.5,679.833 246.5,684.5 Z"/></g>
<g><path style="opacity:1" fill="#241e1a" d="M 253.5,669.5 C 256.365,669.055 258.865,669.722 261,671.5C 261.591,672.483 261.257,673.15 260,673.5C 257.801,672.355 255.635,672.355 253.5,673.5C 256.025,674.957 258.692,676.291 261.5,677.5C 263.147,680.454 262.481,682.62 259.5,684C 257.167,684.667 254.833,684.667 252.5,684C 251.027,683.29 250.36,682.124 250.5,680.5C 252.367,680.955 254.2,681.622 256,682.5C 257.662,682.612 258.829,681.946 259.5,680.5C 256.755,679.11 253.921,677.777 251,676.5C 250.333,675.167 250.333,673.833 251,672.5C 252.045,671.627 252.878,670.627 253.5,669.5 Z"/></g>
<g><path style="opacity:1" fill="#241d1a" d="M 286.5,674.5 C 286.5,675.5 286.5,676.5 286.5,677.5C 283.5,677.5 280.5,677.5 277.5,677.5C 277.263,678.791 277.596,679.791 278.5,680.5C 278.866,681.695 279.699,682.361 281,682.5C 282.333,681.833 283.667,681.167 285,680.5C 285.5,680.833 286,681.167 286.5,681.5C 282.674,685.442 278.841,685.442 275,681.5C 274.071,677.756 274.571,674.256 276.5,671C 281.333,668.256 284.666,669.423 286.5,674.5 Z"/></g>
<g><path style="opacity:1" fill="#1c1613" d="M 290.5,684.5 C 290.5,679.833 290.5,675.167 290.5,670.5C 291.5,670.5 292.5,670.5 293.5,670.5C 293.369,671.239 293.536,671.906 294,672.5C 296.367,669.068 299.034,668.735 302,671.5C 302.499,675.821 302.666,680.154 302.5,684.5C 301.5,684.5 300.5,684.5 299.5,684.5C 299.665,681.15 299.498,677.817 299,674.5C 297.333,671.833 295.667,671.833 294,674.5C 293.502,677.817 293.335,681.15 293.5,684.5C 292.5,684.5 291.5,684.5 290.5,684.5 Z"/></g>
<g><path style="opacity:1" fill="#28221f" d="M 309.5,669.5 C 313.539,668.66 316.539,669.993 318.5,673.5C 318,673.833 317.5,674.167 317,674.5C 310.936,671.546 308.602,673.546 310,680.5C 310.689,681.357 311.522,682.023 312.5,682.5C 314.071,680.585 316.071,679.585 318.5,679.5C 318.703,681.39 318.037,682.89 316.5,684C 310.283,685.898 306.617,683.732 305.5,677.5C 305.782,674.269 307.115,671.602 309.5,669.5 Z"/></g>
<g><path style="opacity:1" fill="#6c6764" d="M 325.5,670.5 C 324.5,670.5 323.5,670.5 322.5,670.5C 322.5,675.167 322.5,679.833 322.5,684.5C 321.513,679.695 321.179,674.695 321.5,669.5C 323.099,669.232 324.432,669.566 325.5,670.5 Z"/></g>
<g><path style="opacity:1" fill="#160f09" d="M 325.5,670.5 C 325.5,675.167 325.5,679.833 325.5,684.5C 324.5,684.5 323.5,684.5 322.5,684.5C 322.5,679.833 322.5,675.167 322.5,670.5C 323.5,670.5 324.5,670.5 325.5,670.5 Z"/></g>
<g><path style="opacity:1" fill="#241e1a" d="M 332.5,669.5 C 335.652,668.959 338.152,669.959 340,672.5C 340.015,676.415 340.848,680.082 342.5,683.5C 340.389,684.848 338.555,684.515 337,682.5C 334.333,685.167 331.667,685.167 329,682.5C 328.332,677.005 330.832,674.671 336.5,675.5C 336.5,674.5 336.5,673.5 336.5,672.5C 334.263,673.449 331.929,674.116 329.5,674.5C 329.721,672.336 330.721,670.67 332.5,669.5 Z"/></g>
<g><path style="opacity:1" fill="#d4d4d4" d="M 217.5,672.5 C 219.346,672.222 220.68,672.889 221.5,674.5C 219.833,675.833 218.167,675.833 216.5,674.5C 216.863,673.817 217.196,673.15 217.5,672.5 Z"/></g>
<g><path style="opacity:1" fill="#d4d4d4" d="M 279.5,672.5 C 281.346,672.222 282.68,672.889 283.5,674.5C 281.833,675.833 280.167,675.833 278.5,674.5C 278.863,673.817 279.196,673.15 279.5,672.5 Z"/></g>
<g><path style="opacity:1" fill="#6b6764" d="M 293.5,670.5 C 292.5,670.5 291.5,670.5 290.5,670.5C 290.5,675.167 290.5,679.833 290.5,684.5C 289.513,679.695 289.179,674.695 289.5,669.5C 291.099,669.232 292.432,669.566 293.5,670.5 Z"/></g>
<g><path style="opacity:1" fill="#76726f" d="M 224.5,674.5 C 225.434,675.568 225.768,676.901 225.5,678.5C 221.988,677.945 218.988,678.612 216.5,680.5C 215.596,679.791 215.263,678.791 215.5,677.5C 218.5,677.5 221.5,677.5 224.5,677.5C 224.5,676.5 224.5,675.5 224.5,674.5 Z"/></g>
<g><path style="opacity:1" fill="#76726f" d="M 286.5,674.5 C 287.434,675.568 287.768,676.901 287.5,678.5C 283.988,677.945 280.988,678.612 278.5,680.5C 277.596,679.791 277.263,678.791 277.5,677.5C 280.5,677.5 283.5,677.5 286.5,677.5C 286.5,676.5 286.5,675.5 286.5,674.5 Z"/></g>
<g><path style="opacity:1" fill="#b4b2b1" d="M 333.5,677.5 C 334.833,677.5 336.167,677.5 337.5,677.5C 337.5,680.833 335.833,682.5 332.5,682.5C 332.366,680.708 332.699,679.042 333.5,677.5 Z"/></g>
<g><path style="opacity:1" fill="#f0f0f0" d="M 87.5,533.5 C 87.5,587.5 87.5,641.5 87.5,695.5C 205.833,695.5 324.167,695.5 442.5,695.5C 324.001,696.5 205.335,696.833 86.5,696.5C 86.1677,641.997 86.501,587.664 87.5,533.5 Z"/></g>
</svg>
