<?xml version="1.0" encoding="UTF-8"?>
<!DOCTYPE svg PUBLIC "-//W3C//DTD SVG 1.1//EN" "http://www.w3.org/Graphics/SVG/1.1/DTD/svg11.dtd">
<svg xmlns="http://www.w3.org/2000/svg" version="1.1" width="522px" height="767px" style="shape-rendering:geometricPrecision; text-rendering:geometricPrecision; image-rendering:optimizeQuality; fill-rule:evenodd; clip-rule:evenodd" xmlns:xlink="http://www.w3.org/1999/xlink">
<g><path style="opacity:1" fill="#fffefe" d="M -0.5,-0.5 C 86.1667,-0.5 172.833,-0.5 259.5,-0.5C 259.5,0.166667 259.167,0.5 258.5,0.5C 175.499,0.333336 92.4993,0.500003 9.5,1C 5.85707,2.80478 3.52374,5.63811 2.5,9.5C 1.50523,20.6544 1.1719,31.9877 1.5,43.5C 1.5,43.8333 1.5,44.1667 1.5,44.5C 1.5,174.5 1.5,304.5 1.5,434.5C 1.10615,435.967 0.772819,437.467 0.5,439C 1.16137,544.65 1.82803,650.15 2.5,755.5C 3.16129,760.33 5.82796,763.497 10.5,765C 177.913,765.997 345.247,765.664 512.5,764C 515.467,761.9 517.3,759.066 518,755.5C 518.5,650.501 518.667,545.501 518.5,440.5C 518.5,439.167 518.5,437.833 518.5,436.5C 518.5,305.833 518.5,175.167 518.5,44.5C 518.5,43.8333 518.5,43.1667 518.5,42.5C 518.667,31.495 518.5,20.495 518,9.5C 516.585,5.74909 514.085,2.91576 510.5,1C 427.501,0.500003 344.501,0.333336 261.5,0.5C 260.833,0.5 260.5,0.166667 260.5,-0.5C 347.5,-0.5 434.5,-0.5 521.5,-0.5C 521.5,255.167 521.5,510.833 521.5,766.5C 347.5,766.5 173.5,766.5 -0.5,766.5C -0.5,510.833 -0.5,255.167 -0.5,-0.5 Z"/></g>
<g><path style="opacity:1" fill="#ffbe2d" d="M 258.5,0.5 C 255.109,6.94198 251.443,13.2753 247.5,19.5C 242.167,14.5 236.833,9.5 231.5,4.5C 225.506,9.82728 219.839,15.4939 214.5,21.5C 158.568,22.1627 102.568,22.8293 46.5,23.5C 101.497,24.3333 156.497,24.8333 211.5,25C 204.969,30.3649 198.969,36.1983 193.5,42.5C 129.833,42.5 66.1667,42.5 2.5,42.5C 2.5,31.5 2.5,20.5 2.5,9.5C 3.52374,5.63811 5.85707,2.80478 9.5,1C 92.4993,0.500003 175.499,0.333336 258.5,0.5 Z"/></g>
<g><path style="opacity:1" fill="#ffbe2d" d="M 261.5,0.5 C 344.501,0.333336 427.501,0.500003 510.5,1C 514.085,2.91576 516.585,5.74909 518,9.5C 518.5,20.495 518.667,31.495 518.5,42.5C 454.499,42.6667 390.499,42.5 326.5,42C 320.167,37 314.5,31.3333 309.5,25C 364.17,24.8333 418.836,24.3333 473.5,23.5C 417.432,22.8293 361.432,22.1627 305.5,21.5C 300.188,15.521 294.521,9.85434 288.5,4.5C 283.167,9.5 277.833,14.5 272.5,19.5C 268.569,13.3028 264.902,6.96946 261.5,0.5 Z"/></g>
<g><path style="opacity:1" fill="#ffbe30" d="M 241.5,30.5 C 238.101,28.6117 235.101,26.1117 232.5,23C 226.984,22.8267 221.651,22.3267 216.5,21.5C 221.48,16.8551 226.48,12.1884 231.5,7.5C 236.652,12.1515 241.652,16.9849 246.5,22C 244.444,24.6141 242.777,27.4475 241.5,30.5 Z"/></g>
<g><path style="opacity:1" fill="#ffbe2f" d="M 287.5,23.5 C 286.833,23.5 286.5,23.8333 286.5,24.5C 284.186,26.4773 281.853,28.4773 279.5,30.5C 277.389,27.7919 275.389,24.9586 273.5,22C 278.348,16.9849 283.348,12.1515 288.5,7.5C 293.652,12.1515 298.652,16.9849 303.5,22C 297.984,22.1733 292.651,22.6733 287.5,23.5 Z"/></g>
<g><path style="opacity:1" fill="#ffefcc" d="M 259.5,-0.5 C 259.833,-0.5 260.167,-0.5 260.5,-0.5C 260.5,0.166667 260.833,0.5 261.5,0.5C 264.902,6.96946 268.569,13.3028 272.5,19.5C 277.833,14.5 283.167,9.5 288.5,4.5C 294.521,9.85434 300.188,15.521 305.5,21.5C 299.792,23.3864 293.792,24.0531 287.5,23.5C 292.651,22.6733 297.984,22.1733 303.5,22C 298.652,16.9849 293.652,12.1515 288.5,7.5C 283.348,12.1515 278.348,16.9849 273.5,22C 275.389,24.9586 277.389,27.7919 279.5,30.5C 281.853,28.4773 284.186,26.4773 286.5,24.5C 287.791,24.2627 288.791,24.596 289.5,25.5C 286.233,27.4273 283.233,29.7606 280.5,32.5C 280.44,31.9569 280.107,31.6236 279.5,31.5C 278.614,32.325 278.281,33.325 278.5,34.5C 276.372,37.1303 274.039,39.6303 271.5,42C 275.486,42.4988 279.486,42.6655 283.5,42.5C 281.527,43.1627 279.361,43.4961 277,43.5C 274.223,43.3689 271.723,42.7023 269.5,41.5C 272.345,38.4879 275.012,35.3212 277.5,32C 276.047,28.9279 274.213,26.0946 272,23.5C 268.5,27 265,30.5 261.5,34C 264.039,36.3697 266.372,38.8697 268.5,41.5C 267.833,41.5 267.5,41.8333 267.5,42.5C 264.87,40.3719 262.37,38.0386 260,35.5C 257.63,38.0386 255.13,40.3719 252.5,42.5C 252.5,41.8333 252.167,41.5 251.5,41.5C 253.628,38.8697 255.961,36.3697 258.5,34C 255,30.5 251.5,27 248,23.5C 245.665,26.1662 243.831,29.1662 242.5,32.5C 245.189,35.5198 247.856,38.5198 250.5,41.5C 248.277,42.7023 245.777,43.3689 243,43.5C 240.639,43.4961 238.473,43.1627 236.5,42.5C 240.514,42.6655 244.514,42.4988 248.5,42C 246,39.5 243.5,37 241,34.5C 239.476,36.8981 237.976,39.2314 236.5,41.5C 236.167,41.5 235.833,41.5 235.5,41.5C 236.576,38.3516 237.909,35.3516 239.5,32.5C 240.167,31.8333 240.833,31.1667 241.5,30.5C 242.777,27.4475 244.444,24.6141 246.5,22C 241.652,16.9849 236.652,12.1515 231.5,7.5C 226.48,12.1884 221.48,16.8551 216.5,21.5C 215.833,21.5 215.167,21.5 214.5,21.5C 219.839,15.4939 225.506,9.82728 231.5,4.5C 236.833,9.5 242.167,14.5 247.5,19.5C 251.443,13.2753 255.109,6.94198 258.5,0.5C 259.167,0.5 259.5,0.166667 259.5,-0.5 Z"/></g>
<g><path style="opacity:1" fill="#ffbe30" d="M 259.5,2.5 C 263.658,8.14056 267.325,14.1406 270.5,20.5C 267.934,25.2384 264.434,29.2384 260,32.5C 256.118,28.9544 252.618,25.1211 249.5,21C 252.724,14.7154 256.057,8.54871 259.5,2.5 Z"/></g>
<g><path style="opacity:1" fill="#fff2d8" d="M 214.5,21.5 C 215.167,21.5 215.833,21.5 216.5,21.5C 221.651,22.3267 226.984,22.8267 232.5,23C 235.101,26.1117 238.101,28.6117 241.5,30.5C 240.833,31.1667 240.167,31.8333 239.5,32.5C 236.853,30.1891 234.186,27.8558 231.5,25.5C 225.681,30.8184 220.015,36.3184 214.5,42C 221.58,42.7945 228.58,42.6278 235.5,41.5C 235.833,41.5 236.167,41.5 236.5,41.5C 236.5,41.8333 236.5,42.1667 236.5,42.5C 238.473,43.1627 240.639,43.4961 243,43.5C 245.777,43.3689 248.277,42.7023 250.5,41.5C 250.833,41.5 251.167,41.5 251.5,41.5C 252.167,41.5 252.5,41.8333 252.5,42.5C 254.388,45.8991 256.888,48.8991 260,51.5C 263.112,48.8991 265.612,45.8991 267.5,42.5C 267.5,41.8333 267.833,41.5 268.5,41.5C 268.833,41.5 269.167,41.5 269.5,41.5C 271.723,42.7023 274.223,43.3689 277,43.5C 279.361,43.4961 281.527,43.1627 283.5,42.5C 282.331,39.4887 280.664,36.822 278.5,34.5C 278.281,33.325 278.614,32.325 279.5,31.5C 280.107,31.6236 280.44,31.9569 280.5,32.5C 281.889,35.6067 283.555,38.6067 285.5,41.5C 292.142,42.6642 298.808,42.8309 305.5,42C 299.964,36.6314 294.63,31.1314 289.5,25.5C 288.791,24.596 287.791,24.2627 286.5,24.5C 286.5,23.8333 286.833,23.5 287.5,23.5C 293.792,24.0531 299.792,23.3864 305.5,21.5C 361.432,22.1627 417.432,22.8293 473.5,23.5C 418.836,24.3333 364.17,24.8333 309.5,25C 314.5,31.3333 320.167,37 326.5,42C 390.499,42.5 454.499,42.6667 518.5,42.5C 518.5,43.1667 518.5,43.8333 518.5,44.5C 518.167,44.5 517.833,44.5 517.5,44.5C 453.832,44.3333 390.166,44.5 326.5,45C 321.963,49.3688 317.63,53.8688 313.5,58.5C 312.508,58.6716 311.842,58.3382 311.5,57.5C 315.296,53.2022 319.296,49.0356 323.5,45C 318.5,44.3333 313.5,44.3333 308.5,45C 303.963,49.3688 299.63,53.8688 295.5,58.5C 294.508,58.6716 293.842,58.3382 293.5,57.5C 297.352,53.1492 301.352,48.9825 305.5,45C 298.808,44.1691 292.142,44.3358 285.5,45.5C 283.707,48.2511 282.041,51.0844 280.5,54C 281.365,55.3588 282.365,56.5255 283.5,57.5C 281.074,56.4113 278.74,56.4113 276.5,57.5C 277.412,56.2618 277.579,54.9285 277,53.5C 274.333,50.8333 271.667,48.1667 269,45.5C 266.5,48 264,50.5 261.5,53C 263.373,54.7038 265.04,56.5372 266.5,58.5C 265.5,58.5 264.5,58.5 263.5,58.5C 262.542,57.0384 261.376,55.7051 260,54.5C 258.624,55.7051 257.458,57.0384 256.5,58.5C 255.508,58.6716 254.842,58.3382 254.5,57.5C 255.625,55.8712 256.959,54.3712 258.5,53C 256,50.5 253.5,48 251,45.5C 248.333,48.1667 245.667,50.8333 243,53.5C 242.421,54.9285 242.588,56.2618 243.5,57.5C 241.26,56.4113 238.926,56.4113 236.5,57.5C 238.022,56.8091 239.022,55.6424 239.5,54C 237.966,51.1006 236.299,48.2672 234.5,45.5C 227.858,44.3358 221.192,44.1691 214.5,45C 219.037,49.3688 223.37,53.8688 227.5,58.5C 226.5,58.5 225.5,58.5 224.5,58.5C 220.37,53.8688 216.037,49.3688 211.5,45C 206.5,44.3333 201.5,44.3333 196.5,45C 201.037,49.3688 205.37,53.8688 209.5,58.5C 208.5,58.5 207.5,58.5 206.5,58.5C 202.37,53.8688 198.037,49.3688 193.5,45C 129.834,44.5 66.1675,44.3333 2.5,44.5C 2.16667,44.5 1.83333,44.5 1.5,44.5C 1.5,44.1667 1.5,43.8333 1.5,43.5C 65.6688,43.8325 129.669,43.4991 193.5,42.5C 198.969,36.1983 204.969,30.3649 211.5,25C 156.497,24.8333 101.497,24.3333 46.5,23.5C 102.568,22.8293 158.568,22.1627 214.5,21.5 Z"/></g>
<g><path style="opacity:1" fill="#ffbe2f" d="M 267.5,42.5 C 265.612,45.8991 263.112,48.8991 260,51.5C 256.888,48.8991 254.388,45.8991 252.5,42.5C 255.13,40.3719 257.63,38.0386 260,35.5C 262.37,38.0386 264.87,40.3719 267.5,42.5 Z"/></g>
<g><path style="opacity:1" fill="#ffc034" d="M 278.5,34.5 C 280.664,36.822 282.331,39.4887 283.5,42.5C 279.486,42.6655 275.486,42.4988 271.5,42C 274.039,39.6303 276.372,37.1303 278.5,34.5 Z"/></g>
<g><path style="opacity:1" fill="#ffbf31" d="M 236.5,42.5 C 236.5,42.1667 236.5,41.8333 236.5,41.5C 237.976,39.2314 239.476,36.8981 241,34.5C 243.5,37 246,39.5 248.5,42C 244.514,42.4988 240.514,42.6655 236.5,42.5 Z"/></g>
<g><path style="opacity:1" fill="#ffbe2f" d="M 289.5,25.5 C 294.63,31.1314 299.964,36.6314 305.5,42C 298.808,42.8309 292.142,42.6642 285.5,41.5C 283.555,38.6067 281.889,35.6067 280.5,32.5C 283.233,29.7606 286.233,27.4273 289.5,25.5 Z"/></g>
<g><path style="opacity:1" fill="#ffbe2f" d="M 239.5,32.5 C 237.909,35.3516 236.576,38.3516 235.5,41.5C 228.58,42.6278 221.58,42.7945 214.5,42C 220.015,36.3184 225.681,30.8184 231.5,25.5C 234.186,27.8558 236.853,30.1891 239.5,32.5 Z"/></g>
<g><path style="opacity:1" fill="#ffbe2e" d="M 291.5,25.5 C 296.316,24.3503 301.316,24.1837 306.5,25C 312.167,30.6667 317.833,36.3333 323.5,42C 318.5,42.6667 313.5,42.6667 308.5,42C 302.965,36.2971 297.298,30.7971 291.5,25.5 Z"/></g>
<g><path style="opacity:1" fill="#ffbe30" d="M 269.5,41.5 C 269.167,41.5 268.833,41.5 268.5,41.5C 266.372,38.8697 264.039,36.3697 261.5,34C 265,30.5 268.5,27 272,23.5C 274.213,26.0946 276.047,28.9279 277.5,32C 275.012,35.3212 272.345,38.4879 269.5,41.5 Z"/></g>
<g><path style="opacity:1" fill="#ffbe2f" d="M 213.5,24.5 C 218.511,24.3341 223.511,24.5007 228.5,25C 222.833,30.6667 217.167,36.3333 211.5,42C 206.5,42.6667 201.5,42.6667 196.5,42C 202.37,36.2981 208.036,30.4647 213.5,24.5 Z"/></g>
<g><path style="opacity:1" fill="#ffbe2e" d="M 251.5,41.5 C 251.167,41.5 250.833,41.5 250.5,41.5C 247.856,38.5198 245.189,35.5198 242.5,32.5C 243.831,29.1662 245.665,26.1662 248,23.5C 251.5,27 255,30.5 258.5,34C 255.961,36.3697 253.628,38.8697 251.5,41.5 Z"/></g>
<g><path style="opacity:1" fill="#ffe6b1" d="M 2.5,9.5 C 2.5,20.5 2.5,31.5 2.5,42.5C 66.1667,42.5 129.833,42.5 193.5,42.5C 129.669,43.4991 65.6688,43.8325 1.5,43.5C 1.1719,31.9877 1.50523,20.6544 2.5,9.5 Z"/></g>
<g><path style="opacity:1" fill="#ffd883" d="M 1.5,44.5 C 1.83333,44.5 2.16667,44.5 2.5,44.5C 2.16668,174.168 2.50001,303.835 3.5,433.5C 7.18671,430.145 10.8534,426.811 14.5,423.5C 14.8333,423.5 15.1667,423.5 15.5,423.5C 11.8333,427.833 7.83333,431.833 3.5,435.5C 3.15829,434.662 2.49162,434.328 1.5,434.5C 1.5,304.5 1.5,174.5 1.5,44.5 Z"/></g>
<g><path style="opacity:1" fill="#febf37" d="M 2.5,44.5 C 66.1675,44.3333 129.834,44.5 193.5,45C 198.037,49.3688 202.37,53.8688 206.5,58.5C 185.993,58.1695 165.66,58.5028 145.5,59.5C 134.431,60.4254 123.431,61.9254 112.5,64C 91.4714,69.841 70.4714,75.841 49.5,82C 42.6799,82.4567 40.3465,85.79 42.5,92C 112.499,92.5 182.499,92.6667 252.5,92.5C 327.167,92.6667 401.834,92.5 476.5,92C 484.954,87.76 488.121,80.9266 486,71.5C 484.167,67 481,63.8333 476.5,62C 433.835,61.5 391.168,61.3333 348.5,61.5C 347.5,60.8333 346.5,60.1667 345.5,59.5C 335.013,58.5056 324.346,58.1722 313.5,58.5C 317.63,53.8688 321.963,49.3688 326.5,45C 390.166,44.5 453.832,44.3333 517.5,44.5C 517.833,174.668 517.5,304.668 516.5,434.5C 512.369,430.87 508.369,427.037 504.5,423C 502.833,422.333 501.167,422.333 499.5,423C 495,427.5 490.5,432 486,436.5C 485.503,434.19 485.337,431.857 485.5,429.5C 485.5,427.5 485.5,425.5 485.5,423.5C 485.169,333.429 485.503,243.429 486.5,153.5C 486.5,143.5 486.5,133.5 486.5,123.5C 486.5,115.5 486.5,107.5 486.5,99.5C 470.833,99.5 455.167,99.5 439.5,99.5C 427.5,99.5 415.5,99.5 403.5,99.5C 378.833,99.5 354.167,99.5 329.5,99.5C 292.833,99.5 256.167,99.5 219.5,99.5C 196.833,99.5 174.167,99.5 151.5,99.5C 139.5,99.5 127.5,99.5 115.5,99.5C 86.8333,99.5 58.1667,99.5 29.5,99.5C 29.5,117.5 29.5,135.5 29.5,153.5C 31.4937,246.955 32.1604,340.621 31.5,434.5C 27.369,430.87 23.369,427.037 19.5,423C 17.6131,422.22 15.9464,422.387 14.5,423.5C 10.8534,426.811 7.18671,430.145 3.5,433.5C 2.50001,303.835 2.16668,174.168 2.5,44.5 Z"/></g>
<g><path style="opacity:1" fill="#ffbe2e" d="M 224.5,58.5 C 219.5,58.5 214.5,58.5 209.5,58.5C 205.37,53.8688 201.037,49.3688 196.5,45C 201.5,44.3333 206.5,44.3333 211.5,45C 216.037,49.3688 220.37,53.8688 224.5,58.5 Z"/></g>
<g><path style="opacity:1" fill="#ffbe2f" d="M 236.5,57.5 C 233.609,58.4025 230.609,58.7359 227.5,58.5C 223.37,53.8688 219.037,49.3688 214.5,45C 221.192,44.1691 227.858,44.3358 234.5,45.5C 236.299,48.2672 237.966,51.1006 239.5,54C 239.022,55.6424 238.022,56.8091 236.5,57.5 Z"/></g>
<g><path style="opacity:1" fill="#ffc038" d="M 236.5,45.5 C 240.351,44.1905 244.351,44.1905 248.5,45.5C 245.833,47.5 243.5,49.8333 241.5,52.5C 239.578,50.3134 237.912,47.9801 236.5,45.5 Z"/></g>
<g><path style="opacity:1" fill="#ffbf31" d="M 271.5,45.5 C 275.351,44.1905 279.351,44.1905 283.5,45.5C 282,47.8333 280.5,50.1667 279,52.5C 276.63,49.9614 274.13,47.6281 271.5,45.5 Z"/></g>
<g><path style="opacity:1" fill="#ffbe2f" d="M 293.5,57.5 C 290.167,58.8333 286.833,58.8333 283.5,57.5C 282.365,56.5255 281.365,55.3588 280.5,54C 282.041,51.0844 283.707,48.2511 285.5,45.5C 292.142,44.3358 298.808,44.1691 305.5,45C 301.352,48.9825 297.352,53.1492 293.5,57.5 Z"/></g>
<g><path style="opacity:1" fill="#ffbe2e" d="M 311.5,57.5 C 306.26,58.4491 300.927,58.7825 295.5,58.5C 299.63,53.8688 303.963,49.3688 308.5,45C 313.5,44.3333 318.5,44.3333 323.5,45C 319.296,49.0356 315.296,53.2022 311.5,57.5 Z"/></g>
<g><path style="opacity:1" fill="#ffd16d" d="M 517.5,44.5 C 517.833,44.5 518.167,44.5 518.5,44.5C 518.5,175.167 518.5,305.833 518.5,436.5C 517.5,436.167 516.833,435.5 516.5,434.5C 517.5,304.668 517.833,174.668 517.5,44.5 Z"/></g>
<g><path style="opacity:1" fill="#ffbf31" d="M 254.5,57.5 C 250.833,58.8333 247.167,58.8333 243.5,57.5C 242.588,56.2618 242.421,54.9285 243,53.5C 245.667,50.8333 248.333,48.1667 251,45.5C 253.5,48 256,50.5 258.5,53C 256.959,54.3712 255.625,55.8712 254.5,57.5 Z"/></g>
<g><path style="opacity:1" fill="#ffbf30" d="M 276.5,57.5 C 273.272,58.4137 269.939,58.7471 266.5,58.5C 265.04,56.5372 263.373,54.7038 261.5,53C 264,50.5 266.5,48 269,45.5C 271.667,48.1667 274.333,50.8333 277,53.5C 277.579,54.9285 277.412,56.2618 276.5,57.5 Z"/></g>
<g><path style="opacity:1" fill="#ffc036" d="M 263.5,58.5 C 261.167,58.5 258.833,58.5 256.5,58.5C 257.458,57.0384 258.624,55.7051 260,54.5C 261.376,55.7051 262.542,57.0384 263.5,58.5 Z"/></g>
<g><path style="opacity:1" fill="#f1c970" d="M 243.5,57.5 C 247.167,58.8333 250.833,58.8333 254.5,57.5C 254.842,58.3382 255.508,58.6716 256.5,58.5C 258.833,58.5 261.167,58.5 263.5,58.5C 264.5,58.5 265.5,58.5 266.5,58.5C 269.939,58.7471 273.272,58.4137 276.5,57.5C 278.74,56.4113 281.074,56.4113 283.5,57.5C 286.833,58.8333 290.167,58.8333 293.5,57.5C 293.842,58.3382 294.508,58.6716 295.5,58.5C 300.927,58.7825 306.26,58.4491 311.5,57.5C 311.842,58.3382 312.508,58.6716 313.5,58.5C 324.346,58.1722 335.013,58.5056 345.5,59.5C 278.833,59.5 212.167,59.5 145.5,59.5C 165.66,58.5028 185.993,58.1695 206.5,58.5C 207.5,58.5 208.5,58.5 209.5,58.5C 214.5,58.5 219.5,58.5 224.5,58.5C 225.5,58.5 226.5,58.5 227.5,58.5C 230.609,58.7359 233.609,58.4025 236.5,57.5C 238.926,56.4113 241.26,56.4113 243.5,57.5 Z"/></g>
<g><path style="opacity:1" fill="#d9d8d8" d="M 145.5,59.5 C 212.167,59.5 278.833,59.5 345.5,59.5C 346.5,60.1667 347.5,60.8333 348.5,61.5C 348.915,64.368 347.915,66.5347 345.5,68C 314.767,77.7543 283.767,85.921 252.5,92.5C 182.499,92.6667 112.499,92.5 42.5,92C 40.3465,85.79 42.6799,82.4567 49.5,82C 70.4714,75.841 91.4714,69.841 112.5,64C 123.431,61.9254 134.431,60.4254 145.5,59.5 Z"/></g>
<g><path style="opacity:1" fill="#a4a4a4" d="M 348.5,61.5 C 391.168,61.3333 433.835,61.5 476.5,62C 481,63.8333 484.167,67 486,71.5C 488.121,80.9266 484.954,87.76 476.5,92C 401.834,92.5 327.167,92.6667 252.5,92.5C 283.767,85.921 314.767,77.7543 345.5,68C 347.915,66.5347 348.915,64.368 348.5,61.5 Z"/></g>
<g><path style="opacity:1" fill="#1b1b1b" d="M 369.5,65.5 C 373.555,65.1758 377.555,65.5091 381.5,66.5C 378.232,67.487 374.898,67.8204 371.5,67.5C 371.5,69.1667 371.5,70.8333 371.5,72.5C 384.833,73.1667 384.833,73.8333 371.5,74.5C 371.5,76.1667 371.5,77.8333 371.5,79.5C 375.226,79.1774 378.893,79.5108 382.5,80.5C 378.217,81.4922 373.884,81.8256 369.5,81.5C 369.5,76.1667 369.5,70.8333 369.5,65.5 Z"/></g>
<g><path style="opacity:1" fill="#191919" d="M 388.5,70.5 C 386.993,73.9186 385.993,77.5852 385.5,81.5C 384.167,77.5 384.167,73.5 385.5,69.5C 386.417,70.1272 387.417,70.4606 388.5,70.5 Z"/></g>
<g><path style="opacity:1" fill="#151515" d="M 410.5,69.5 C 412.458,69.908 414.458,70.2413 416.5,70.5C 415.372,71.2621 414.205,71.9288 413,72.5C 412.821,75.5535 412.321,78.5535 411.5,81.5C 410.509,77.5546 410.176,73.5546 410.5,69.5 Z"/></g>
<g><path style="opacity:1" fill="#080808" d="M 431.5,69.5 C 432.794,71.0478 433.461,73.0478 433.5,75.5C 433.167,77.5 432.833,79.5 432.5,81.5C 431.509,77.5546 431.176,73.5546 431.5,69.5 Z"/></g>
<g><path style="opacity:1" fill="#090909" d="M 388.5,70.5 C 390.223,69.193 392.057,69.193 394,70.5C 394.825,74.2113 394.659,77.878 393.5,81.5C 392.676,78.2152 392.176,74.8818 392,71.5C 390.989,70.6634 389.822,70.33 388.5,70.5 Z"/></g>
<g><path style="opacity:1" fill="#101010" d="M 438.5,69.5 C 441.365,69.0548 443.865,69.7215 446,71.5C 445.979,75.0088 446.812,78.1755 448.5,81C 444.942,81.075 441.275,81.075 437.5,81C 436.195,75.4756 438.528,73.3089 444.5,74.5C 443.91,70.0805 441.91,69.4138 438.5,72.5C 437.438,71.5754 437.438,70.5754 438.5,69.5 Z"/></g>
<g><path style="opacity:1" fill="#191919" d="M 419.5,69.5 C 422.011,69.838 424.345,69.838 426.5,69.5C 427.662,74.467 427.829,79.467 427,84.5C 424.205,87.113 421.371,87.113 418.5,84.5C 420.343,84.2448 422.343,84.0781 424.5,84C 425.517,82.9505 425.684,81.7839 425,80.5C 421.914,82.22 419.581,81.5534 418,78.5C 417.068,75.1769 417.568,72.1769 419.5,69.5 Z"/></g>
<g><path style="opacity:1" fill="#9d9d9d" d="M 421.5,70.5 C 425.254,71.8276 426.421,74.4942 425,78.5C 421.553,80.3526 419.72,79.3526 419.5,75.5C 419.437,73.4861 420.103,71.8194 421.5,70.5 Z"/></g>
<g><path style="opacity:1" fill="#131313" d="M 399.5,69.5 C 405.334,68.3373 408,70.6706 407.5,76.5C 404.753,76.1866 402.086,76.52 399.5,77.5C 400.212,79.0459 401.378,80.0459 403,80.5C 404.393,79.3849 405.893,78.8849 407.5,79C 405.316,81.3679 402.649,82.0346 399.5,81C 396.875,77.1681 396.875,73.3348 399.5,69.5 Z"/></g>
<g><path style="opacity:1" fill="#848484" d="M 400.5,70.5 C 403.588,70.1966 405.254,71.5299 405.5,74.5C 403.5,74.5 401.5,74.5 399.5,74.5C 399.433,73.0413 399.766,71.7079 400.5,70.5 Z"/></g>
<g><path style="opacity:1" fill="#959595" d="M 439.5,75.5 C 441.167,75.5 442.833,75.5 444.5,75.5C 444.707,78.1268 443.54,79.7935 441,80.5C 438.389,79.5001 437.889,77.8334 439.5,75.5 Z"/></g>
<g><path style="opacity:1" fill="#b0b0b0" d="M 115.5,99.5 C 115.611,100.117 115.944,100.617 116.5,101C 100.298,117.035 84.2982,133.201 68.5,149.5C 64.8333,149.5 61.1667,149.5 57.5,149.5C 57.5,150.833 57.5,152.167 57.5,153.5C 49.1667,153.5 40.8333,153.5 32.5,153.5C 31.5,153.5 30.5,153.5 29.5,153.5C 29.5,135.5 29.5,117.5 29.5,99.5C 58.1667,99.5 86.8333,99.5 115.5,99.5 Z"/></g>
<g><path style="opacity:1" fill="#b8b8b8" d="M 115.5,99.5 C 127.5,99.5 139.5,99.5 151.5,99.5C 135.167,116.167 118.833,132.833 102.5,149.5C 91.1667,149.5 79.8333,149.5 68.5,149.5C 84.2982,133.201 100.298,117.035 116.5,101C 115.944,100.617 115.611,100.117 115.5,99.5 Z"/></g>
<g><path style="opacity:1" fill="#c0c0c0" d="M 151.5,99.5 C 174.167,99.5 196.833,99.5 219.5,99.5C 219.047,100.458 218.381,101.292 217.5,102C 217.833,102.333 218.167,102.667 218.5,103C 215.819,106.423 212.819,108.756 209.5,110C 209.833,110.333 210.167,110.667 210.5,111C 209.29,112.039 208.29,113.206 207.5,114.5C 201.31,114.177 195.31,114.51 189.5,115.5C 189.5,123.167 189.5,130.833 189.5,138.5C 188.686,136.369 188.186,134.036 188,131.5C 186.242,132.469 185.742,133.636 186.5,135C 184.667,136.833 182.833,138.667 181,140.5C 179.636,139.742 178.469,140.242 177.5,142C 177.833,142.333 178.167,142.667 178.5,143C 175.968,146.106 173.302,148.273 170.5,149.5C 147.833,149.5 125.167,149.5 102.5,149.5C 118.833,132.833 135.167,116.167 151.5,99.5 Z"/></g>
<g><path style="opacity:1" fill="#cecece" d="M 219.5,99.5 C 256.167,99.5 292.833,99.5 329.5,99.5C 329.611,100.117 329.944,100.617 330.5,101C 325.298,106.37 319.965,111.536 314.5,116.5C 313.817,114.824 312.483,114.157 310.5,114.5C 310.5,116.833 310.5,119.167 310.5,121.5C 308.5,122.833 306.833,124.5 305.5,126.5C 302.167,126.5 298.833,126.5 295.5,126.5C 295.5,127.5 295.5,128.5 295.5,129.5C 297.833,129.5 300.167,129.5 302.5,129.5C 302.471,134.551 299.804,136.884 294.5,136.5C 286.891,134.337 284.391,129.337 287,121.5C 291.073,116.845 295.573,116.345 300.5,120C 304.84,121.11 305.507,120.11 302.5,117C 295.248,112.84 289.081,114.007 284,120.5C 283.19,125.257 283.524,129.924 285,134.5C 288.04,137.966 291.874,139.3 296.5,138.5C 290.772,140.532 286.106,144.199 282.5,149.5C 245.167,149.5 207.833,149.5 170.5,149.5C 173.302,148.273 175.968,146.106 178.5,143C 178.167,142.667 177.833,142.333 177.5,142C 178.469,140.242 179.636,139.742 181,140.5C 182.833,138.667 184.667,136.833 186.5,135C 185.742,133.636 186.242,132.469 188,131.5C 188.186,134.036 188.686,136.369 189.5,138.5C 195.537,138.829 201.537,138.496 207.5,137.5C 202.544,136.506 197.544,136.173 192.5,136.5C 192.5,133.833 192.5,131.167 192.5,128.5C 197.167,128.5 201.833,128.5 206.5,128.5C 206.5,127.167 206.5,125.833 206.5,124.5C 201.833,124.5 197.167,124.5 192.5,124.5C 192.5,122.5 192.5,120.5 192.5,118.5C 197.5,118.5 202.5,118.5 207.5,118.5C 207.5,117.167 207.5,115.833 207.5,114.5C 208.29,113.206 209.29,112.039 210.5,111C 210.167,110.667 209.833,110.333 209.5,110C 212.819,108.756 215.819,106.423 218.5,103C 218.167,102.667 217.833,102.333 217.5,102C 218.381,101.292 219.047,100.458 219.5,99.5 Z"/></g>
<g><path style="opacity:1" fill="#e1e1e1" d="M 329.5,99.5 C 354.167,99.5 378.833,99.5 403.5,99.5C 403.611,100.117 403.944,100.617 404.5,101C 388.298,117.035 372.298,133.201 356.5,149.5C 331.833,149.5 307.167,149.5 282.5,149.5C 286.106,144.199 290.772,140.532 296.5,138.5C 304.258,138.251 307.258,134.251 305.5,126.5C 306.833,124.5 308.5,122.833 310.5,121.5C 310.178,127.358 310.511,133.025 311.5,138.5C 312.167,138.5 312.833,138.5 313.5,138.5C 314.492,131.352 314.825,124.019 314.5,116.5C 319.965,111.536 325.298,106.37 330.5,101C 329.944,100.617 329.611,100.117 329.5,99.5 Z"/></g>
<g><path style="opacity:1" fill="#eaeaea" d="M 403.5,99.5 C 415.5,99.5 427.5,99.5 439.5,99.5C 423.368,116.132 407.035,132.632 390.5,149C 379.172,149.5 367.838,149.667 356.5,149.5C 372.298,133.201 388.298,117.035 404.5,101C 403.944,100.617 403.611,100.117 403.5,99.5 Z"/></g>
<g><path style="opacity:1" fill="#f2f2f2" d="M 439.5,99.5 C 455.167,99.5 470.833,99.5 486.5,99.5C 486.5,107.5 486.5,115.5 486.5,123.5C 483.956,124.708 482.622,126.708 482.5,129.5C 481.448,129.351 480.448,129.517 479.5,130C 473,136.5 466.5,143 460,149.5C 459.667,149.167 459.333,148.833 459,148.5C 445.242,149.324 431.408,149.824 417.5,150C 297.834,150.5 178.167,150.667 58.5,150.5C 58.5,334.5 58.5,518.5 58.5,702.5C 193.833,702.5 329.167,702.5 464.5,702.5C 329.001,703.5 193.334,703.833 57.5,703.5C 57.5,520.167 57.5,336.833 57.5,153.5C 57.5,152.167 57.5,150.833 57.5,149.5C 61.1667,149.5 64.8333,149.5 68.5,149.5C 79.8333,149.5 91.1667,149.5 102.5,149.5C 125.167,149.5 147.833,149.5 170.5,149.5C 207.833,149.5 245.167,149.5 282.5,149.5C 307.167,149.5 331.833,149.5 356.5,149.5C 367.838,149.667 379.172,149.5 390.5,149C 407.035,132.632 423.368,116.132 439.5,99.5 Z"/></g>
<g><path style="opacity:1" fill="#fdf5e4" d="M 33.5,107.5 C 35.5,107.5 37.5,107.5 39.5,107.5C 39.5,109.5 39.5,111.5 39.5,113.5C 37.5,113.5 35.5,113.5 33.5,113.5C 33.5,111.5 33.5,109.5 33.5,107.5 Z"/></g>
<g><path style="opacity:1" fill="#292929" d="M 312.5,109.5 C 313.873,109.343 315.207,109.51 316.5,110C 314.695,110.972 313.028,112.139 311.5,113.5C 311.167,113.167 310.833,112.833 310.5,112.5C 311.193,111.482 311.859,110.482 312.5,109.5 Z"/></g>
<g><path style="opacity:1" fill="#000000" d="M 189.5,115.5 C 195.206,115.171 200.872,115.505 206.5,116.5C 201.683,117.167 197.017,117.834 192.5,118.5C 192.5,120.5 192.5,122.5 192.5,124.5C 196.684,125.166 201.018,125.833 205.5,126.5C 201.018,127.167 196.684,127.834 192.5,128.5C 192.5,131.167 192.5,133.833 192.5,136.5C 197.544,136.173 202.544,136.506 207.5,137.5C 201.537,138.496 195.537,138.829 189.5,138.5C 189.5,130.833 189.5,123.167 189.5,115.5 Z"/></g>
<g><path style="opacity:1" fill="#707070" d="M 215.5,115.5 C 214.5,115.5 213.5,115.5 212.5,115.5C 212.5,123.167 212.5,130.833 212.5,138.5C 211.508,130.684 211.174,122.684 211.5,114.5C 213.099,114.232 214.432,114.566 215.5,115.5 Z"/></g>
<g><path style="opacity:1" fill="#0a0a0a" d="M 215.5,115.5 C 219.643,121.768 223.81,128.101 228,134.5C 228.5,128.175 228.666,121.842 228.5,115.5C 230.465,122.76 231.132,130.427 230.5,138.5C 229.022,138.762 227.689,138.429 226.5,137.5C 223.156,132.139 219.822,126.805 216.5,121.5C 216.217,120.711 215.717,120.044 215,119.5C 214.5,125.825 214.334,132.158 214.5,138.5C 213.833,138.5 213.167,138.5 212.5,138.5C 212.5,130.833 212.5,123.167 212.5,115.5C 213.5,115.5 214.5,115.5 215.5,115.5 Z"/></g>
<g><path style="opacity:1" fill="#5c5c5c" d="M 228.5,115.5 C 229.209,114.596 230.209,114.263 231.5,114.5C 231.826,122.684 231.492,130.684 230.5,138.5C 231.132,130.427 230.465,122.76 228.5,115.5 Z"/></g>
<g><path style="opacity:1" fill="#030303" d="M 254.5,117.5 C 249.5,117.5 244.5,117.5 239.5,117.5C 239.5,120.167 239.5,122.833 239.5,125.5C 244.167,125.5 248.833,125.5 253.5,125.5C 253.5,126.167 253.5,126.833 253.5,127.5C 248.833,127.5 244.167,127.5 239.5,127.5C 239.5,130.5 239.5,133.5 239.5,136.5C 244.944,135.892 249.944,136.558 254.5,138.5C 248.5,138.5 242.5,138.5 236.5,138.5C 236.5,130.833 236.5,123.167 236.5,115.5C 242.926,114.88 248.926,115.547 254.5,117.5 Z"/></g>
<g><path style="opacity:1" fill="#989898" d="M 271.5,115.5 C 267.5,115.5 263.5,115.5 259.5,115.5C 259.5,123.167 259.5,130.833 259.5,138.5C 258.508,130.684 258.174,122.684 258.5,114.5C 263.032,114.182 267.366,114.515 271.5,115.5 Z"/></g>
<g><path style="opacity:1" fill="#0b0b0b" d="M 271.5,115.5 C 278.702,116.773 280.368,120.606 276.5,127C 275.552,127.483 274.552,127.649 273.5,127.5C 274.572,131.471 276.572,134.971 279.5,138C 277.888,138.72 276.388,138.554 275,137.5C 273.7,134.705 272.2,132.039 270.5,129.5C 267.914,128.52 265.247,128.187 262.5,128.5C 262.5,131.833 262.5,135.167 262.5,138.5C 261.5,138.5 260.5,138.5 259.5,138.5C 259.5,130.833 259.5,123.167 259.5,115.5C 263.5,115.5 267.5,115.5 271.5,115.5 Z"/></g>
<g><path style="opacity:1" fill="#181818" d="M 305.5,126.5 C 307.258,134.251 304.258,138.251 296.5,138.5C 291.874,139.3 288.04,137.966 285,134.5C 283.524,129.924 283.19,125.257 284,120.5C 289.081,114.007 295.248,112.84 302.5,117C 305.507,120.11 304.84,121.11 300.5,120C 295.573,116.345 291.073,116.845 287,121.5C 284.391,129.337 286.891,134.337 294.5,136.5C 299.804,136.884 302.471,134.551 302.5,129.5C 300.167,129.5 297.833,129.5 295.5,129.5C 295.5,128.5 295.5,127.5 295.5,126.5C 298.833,126.5 302.167,126.5 305.5,126.5 Z"/></g>
<g><path style="opacity:1" fill="#606060" d="M 314.5,116.5 C 314.825,124.019 314.492,131.352 313.5,138.5C 312.833,107.833 312.167,107.833 311.5,138.5C 310.511,133.025 310.178,127.358 310.5,121.5C 310.5,119.167 310.5,116.833 310.5,114.5C 312.483,114.157 313.817,114.824 314.5,116.5 Z"/></g>
<g><path style="opacity:1" fill="#000000" d="M 313.5,138.5 C 312.833,138.5 312.167,138.5 311.5,138.5C 312.167,107.833 312.833,107.833 313.5,138.5 Z"/></g>
<g><path style="opacity:1" fill="#111111" d="M 326.5,115.5 C 328.144,115.286 329.644,115.62 331,116.5C 333.736,123.54 336.569,130.54 339.5,137.5C 338.635,138.583 337.635,138.749 336.5,138C 335.692,135.912 334.692,133.912 333.5,132C 329.848,131.501 326.182,131.335 322.5,131.5C 322.414,133.677 321.747,135.677 320.5,137.5C 319.5,138.833 318.5,138.833 317.5,137.5C 320.508,130.138 323.508,122.804 326.5,115.5 Z"/></g>
<g><path style="opacity:1" fill="#838383" d="M 189.5,115.5 C 195.31,114.51 201.31,114.177 207.5,114.5C 207.5,115.833 207.5,117.167 207.5,118.5C 202.5,118.5 197.5,118.5 192.5,118.5C 197.017,117.834 201.683,117.167 206.5,116.5C 200.872,115.505 195.206,115.171 189.5,115.5 Z"/></g>
<g><path style="opacity:1" fill="#cacaca" d="M 262.5,117.5 C 265.85,117.335 269.183,117.502 272.5,118C 276.386,120.526 276.386,123.192 272.5,126C 269.183,126.498 265.85,126.665 262.5,126.5C 262.5,123.5 262.5,120.5 262.5,117.5 Z"/></g>
<g><path style="opacity:1" fill="#fdf5e4" d="M 33.5,119.5 C 35.5,119.5 37.5,119.5 39.5,119.5C 39.5,121.5 39.5,123.5 39.5,125.5C 37.5,125.5 35.5,125.5 33.5,125.5C 33.5,123.5 33.5,121.5 33.5,119.5 Z"/></g>
<g><path style="opacity:1" fill="#c8c8c8" d="M 327.5,118.5 C 328.497,118.47 329.164,118.97 329.5,120C 330.662,123.147 331.662,126.314 332.5,129.5C 329.833,129.5 327.167,129.5 324.5,129.5C 325.301,125.765 326.301,122.099 327.5,118.5 Z"/></g>
<g><path style="opacity:1" fill="#828282" d="M 216.5,121.5 C 215.833,127.167 215.167,132.833 214.5,138.5C 214.334,132.158 214.5,125.825 215,119.5C 215.717,120.044 216.217,120.711 216.5,121.5 Z"/></g>
<g><path style="opacity:1" fill="#fefefe" d="M 486.5,123.5 C 486.5,133.5 486.5,143.5 486.5,153.5C 485.833,153.5 485.167,153.5 484.5,153.5C 477.833,153.5 471.167,153.5 464.5,153.5C 464.5,336.5 464.5,519.5 464.5,702.5C 329.167,702.5 193.833,702.5 58.5,702.5C 58.5,518.5 58.5,334.5 58.5,150.5C 178.167,150.667 297.834,150.5 417.5,150C 431.408,149.824 445.242,149.324 459,148.5C 459.333,148.833 459.667,149.167 460,149.5C 466.5,143 473,136.5 479.5,130C 480.448,129.517 481.448,129.351 482.5,129.5C 482.622,126.708 483.956,124.708 486.5,123.5 Z"/></g>
<g><path style="opacity:1" fill="#9b9b9b" d="M 254.5,117.5 C 250.03,118.486 245.363,118.819 240.5,118.5C 240.5,120.5 240.5,122.5 240.5,124.5C 245.032,124.182 249.366,124.515 253.5,125.5C 248.833,125.5 244.167,125.5 239.5,125.5C 239.5,122.833 239.5,120.167 239.5,117.5C 244.5,117.5 249.5,117.5 254.5,117.5 Z"/></g>
<g><path style="opacity:1" fill="#929292" d="M 192.5,124.5 C 197.167,124.5 201.833,124.5 206.5,124.5C 206.5,125.833 206.5,127.167 206.5,128.5C 201.833,128.5 197.167,128.5 192.5,128.5C 196.684,127.834 201.018,127.167 205.5,126.5C 201.018,125.833 196.684,125.166 192.5,124.5 Z"/></g>
<g><path style="opacity:1" fill="#fdf5e4" d="M 33.5,131.5 C 35.5,131.5 37.5,131.5 39.5,131.5C 39.5,133.5 39.5,135.5 39.5,137.5C 37.5,137.5 35.5,137.5 33.5,137.5C 33.5,135.5 33.5,133.5 33.5,131.5 Z"/></g>
<g><path style="opacity:1" fill="#7d7d7d" d="M 253.5,127.5 C 249.366,128.485 245.032,128.818 240.5,128.5C 240.5,130.833 240.5,133.167 240.5,135.5C 245.5,135.5 250.5,135.5 255.5,135.5C 255.737,136.791 255.404,137.791 254.5,138.5C 249.944,136.558 244.944,135.892 239.5,136.5C 239.5,133.5 239.5,130.5 239.5,127.5C 244.167,127.5 248.833,127.5 253.5,127.5 Z"/></g>
<g><path style="opacity:1" fill="#fdf5e5" d="M 33.5,143.5 C 35.5,143.5 37.5,143.5 39.5,143.5C 39.5,145.5 39.5,147.5 39.5,149.5C 37.5,149.5 35.5,149.5 33.5,149.5C 33.5,147.5 33.5,145.5 33.5,143.5 Z"/></g>
<g><path style="opacity:1" fill="#eec875" d="M 29.5,153.5 C 30.5,153.5 31.5,153.5 32.5,153.5C 32.5,247.5 32.5,341.5 32.5,435.5C 31.8333,435.5 31.5,435.167 31.5,434.5C 32.1604,340.621 31.4937,246.955 29.5,153.5 Z"/></g>
<g><path style="opacity:1" fill="#dcdcda" d="M 32.5,153.5 C 40.8333,153.5 49.1667,153.5 57.5,153.5C 57.5,336.833 57.5,520.167 57.5,703.5C 193.334,703.833 329.001,703.5 464.5,702.5C 464.5,519.5 464.5,336.5 464.5,153.5C 471.167,153.5 477.833,153.5 484.5,153.5C 484.167,243.668 484.501,333.668 485.5,423.5C 485.5,425.5 485.5,427.5 485.5,429.5C 484.51,435.31 484.177,441.31 484.5,447.5C 482.833,447.5 481.167,447.5 479.5,447.5C 479.5,449.5 479.5,451.5 479.5,453.5C 481.167,453.5 482.833,453.5 484.5,453.5C 484.5,455.5 484.5,457.5 484.5,459.5C 482.833,459.5 481.167,459.5 479.5,459.5C 479.5,461.5 479.5,463.5 479.5,465.5C 481.167,465.5 482.833,465.5 484.5,465.5C 484.5,467.5 484.5,469.5 484.5,471.5C 482.833,471.5 481.167,471.5 479.5,471.5C 479.5,473.5 479.5,475.5 479.5,477.5C 481.167,477.5 482.833,477.5 484.5,477.5C 484.5,479.5 484.5,481.5 484.5,483.5C 482.833,483.5 481.167,483.5 479.5,483.5C 479.5,485.5 479.5,487.5 479.5,489.5C 481.167,489.5 482.833,489.5 484.5,489.5C 484.5,491.5 484.5,493.5 484.5,495.5C 482.833,495.5 481.167,495.5 479.5,495.5C 479.5,497.5 479.5,499.5 479.5,501.5C 481.167,501.5 482.833,501.5 484.5,501.5C 484.5,503.5 484.5,505.5 484.5,507.5C 482.833,507.5 481.167,507.5 479.5,507.5C 479.5,509.5 479.5,511.5 479.5,513.5C 481.167,513.5 482.833,513.5 484.5,513.5C 484.5,515.5 484.5,517.5 484.5,519.5C 483.167,519.5 481.833,519.5 480.5,519.5C 480.5,521.5 480.5,523.5 480.5,525.5C 481.833,525.5 483.167,525.5 484.5,525.5C 484.5,527.5 484.5,529.5 484.5,531.5C 483.167,531.5 481.833,531.5 480.5,531.5C 480.5,533.5 480.5,535.5 480.5,537.5C 481.833,537.5 483.167,537.5 484.5,537.5C 484.5,539.5 484.5,541.5 484.5,543.5C 483.167,543.5 481.833,543.5 480.5,543.5C 480.5,545.5 480.5,547.5 480.5,549.5C 481.833,549.5 483.167,549.5 484.5,549.5C 484.5,551.5 484.5,553.5 484.5,555.5C 483.167,555.5 481.833,555.5 480.5,555.5C 480.5,557.5 480.5,559.5 480.5,561.5C 481.833,561.5 483.167,561.5 484.5,561.5C 484.5,563.5 484.5,565.5 484.5,567.5C 483.167,567.5 481.833,567.5 480.5,567.5C 480.5,569.5 480.5,571.5 480.5,573.5C 481.833,573.5 483.167,573.5 484.5,573.5C 484.5,575.5 484.5,577.5 484.5,579.5C 483.167,579.5 481.833,579.5 480.5,579.5C 480.5,581.5 480.5,583.5 480.5,585.5C 481.833,585.5 483.167,585.5 484.5,585.5C 484.5,587.5 484.5,589.5 484.5,591.5C 483.167,591.5 481.833,591.5 480.5,591.5C 480.5,593.5 480.5,595.5 480.5,597.5C 481.833,597.5 483.167,597.5 484.5,597.5C 484.5,599.5 484.5,601.5 484.5,603.5C 483.5,603.5 482.5,603.5 481.5,603.5C 481.5,605.5 481.5,607.5 481.5,609.5C 482.5,609.5 483.5,609.5 484.5,609.5C 484.5,611.5 484.5,613.5 484.5,615.5C 483.5,615.5 482.5,615.5 481.5,615.5C 481.5,617.5 481.5,619.5 481.5,621.5C 482.5,621.5 483.5,621.5 484.5,621.5C 484.5,623.5 484.5,625.5 484.5,627.5C 483.5,627.5 482.5,627.5 481.5,627.5C 481.5,629.5 481.5,631.5 481.5,633.5C 482.5,633.5 483.5,633.5 484.5,633.5C 484.5,635.5 484.5,637.5 484.5,639.5C 483.5,639.5 482.5,639.5 481.5,639.5C 481.5,641.5 481.5,643.5 481.5,645.5C 482.5,645.5 483.5,645.5 484.5,645.5C 484.5,647.5 484.5,649.5 484.5,651.5C 483.5,651.5 482.5,651.5 481.5,651.5C 481.5,653.5 481.5,655.5 481.5,657.5C 482.5,657.5 483.5,657.5 484.5,657.5C 484.5,659.5 484.5,661.5 484.5,663.5C 483.5,663.5 482.5,663.5 481.5,663.5C 481.5,665.5 481.5,667.5 481.5,669.5C 482.5,669.5 483.5,669.5 484.5,669.5C 484.5,671.5 484.5,673.5 484.5,675.5C 483.5,675.5 482.5,675.5 481.5,675.5C 481.5,677.5 481.5,679.5 481.5,681.5C 482.5,681.5 483.5,681.5 484.5,681.5C 484.5,683.5 484.5,685.5 484.5,687.5C 483.5,687.5 482.5,687.5 481.5,687.5C 481.5,689.5 481.5,691.5 481.5,693.5C 482.5,693.5 483.5,693.5 484.5,693.5C 484.462,696.621 483.795,699.621 482.5,702.5C 483.167,704.5 483.833,706.5 484.5,708.5C 483.833,710.5 483.167,712.5 482.5,714.5C 484.88,718.077 484.88,721.577 482.5,725C 483.885,726.597 484.551,728.43 484.5,730.5C 482.167,730.5 479.833,730.5 477.5,730.5C 477.5,731.5 477.5,732.5 477.5,733.5C 475.833,733.5 474.167,733.5 472.5,733.5C 472.5,732.5 472.5,731.5 472.5,730.5C 470.167,730.5 467.833,730.5 465.5,730.5C 465.5,731.5 465.5,732.5 465.5,733.5C 463.833,733.5 462.167,733.5 460.5,733.5C 460.5,732.5 460.5,731.5 460.5,730.5C 458.167,730.5 455.833,730.5 453.5,730.5C 453.5,731.5 453.5,732.5 453.5,733.5C 451.833,733.5 450.167,733.5 448.5,733.5C 448.5,732.5 448.5,731.5 448.5,730.5C 446.167,730.5 443.833,730.5 441.5,730.5C 441.5,731.5 441.5,732.5 441.5,733.5C 439.833,733.5 438.167,733.5 436.5,733.5C 436.5,732.5 436.5,731.5 436.5,730.5C 434.167,730.5 431.833,730.5 429.5,730.5C 429.5,731.5 429.5,732.5 429.5,733.5C 427.833,733.5 426.167,733.5 424.5,733.5C 424.5,732.5 424.5,731.5 424.5,730.5C 422.167,730.5 419.833,730.5 417.5,730.5C 417.5,731.5 417.5,732.5 417.5,733.5C 415.833,733.5 414.167,733.5 412.5,733.5C 412.5,732.5 412.5,731.5 412.5,730.5C 410.167,730.5 407.833,730.5 405.5,730.5C 405.5,731.5 405.5,732.5 405.5,733.5C 403.833,733.5 402.167,733.5 400.5,733.5C 400.5,732.5 400.5,731.5 400.5,730.5C 398.167,730.5 395.833,730.5 393.5,730.5C 393.5,731.5 393.5,732.5 393.5,733.5C 391.833,733.5 390.167,733.5 388.5,733.5C 388.5,732.5 388.5,731.5 388.5,730.5C 386.167,730.5 383.833,730.5 381.5,730.5C 381.5,731.5 381.5,732.5 381.5,733.5C 379.833,733.5 378.167,733.5 376.5,733.5C 376.5,732.5 376.5,731.5 376.5,730.5C 374.167,730.5 371.833,730.5 369.5,730.5C 369.5,731.5 369.5,732.5 369.5,733.5C 367.833,733.5 366.167,733.5 364.5,733.5C 364.5,732.5 364.5,731.5 364.5,730.5C 362.167,730.5 359.833,730.5 357.5,730.5C 357.5,731.5 357.5,732.5 357.5,733.5C 355.833,733.5 354.167,733.5 352.5,733.5C 352.5,732.5 352.5,731.5 352.5,730.5C 350.167,730.5 347.833,730.5 345.5,730.5C 345.5,731.5 345.5,732.5 345.5,733.5C 343.833,733.5 342.167,733.5 340.5,733.5C 340.5,732.5 340.5,731.5 340.5,730.5C 338.167,730.5 335.833,730.5 333.5,730.5C 333.5,731.5 333.5,732.5 333.5,733.5C 331.833,733.5 330.167,733.5 328.5,733.5C 328.5,732.5 328.5,731.5 328.5,730.5C 326.167,730.5 323.833,730.5 321.5,730.5C 321.5,731.5 321.5,732.5 321.5,733.5C 319.833,733.5 318.167,733.5 316.5,733.5C 316.5,732.5 316.5,731.5 316.5,730.5C 314.167,730.5 311.833,730.5 309.5,730.5C 309.5,731.5 309.5,732.5 309.5,733.5C 307.833,733.5 306.167,733.5 304.5,733.5C 304.5,732.5 304.5,731.5 304.5,730.5C 302.167,730.5 299.833,730.5 297.5,730.5C 297.5,731.5 297.5,732.5 297.5,733.5C 295.833,733.5 294.167,733.5 292.5,733.5C 292.5,732.5 292.5,731.5 292.5,730.5C 290.167,730.5 287.833,730.5 285.5,730.5C 285.5,731.5 285.5,732.5 285.5,733.5C 283.833,733.5 282.167,733.5 280.5,733.5C 280.5,732.5 280.5,731.5 280.5,730.5C 278.167,730.5 275.833,730.5 273.5,730.5C 273.5,731.5 273.5,732.5 273.5,733.5C 271.833,733.5 270.167,733.5 268.5,733.5C 268.5,732.5 268.5,731.5 268.5,730.5C 266.167,730.5 263.833,730.5 261.5,730.5C 261.5,731.5 261.5,732.5 261.5,733.5C 259.833,733.5 258.167,733.5 256.5,733.5C 256.5,732.5 256.5,731.5 256.5,730.5C 254.167,730.5 251.833,730.5 249.5,730.5C 249.5,731.5 249.5,732.5 249.5,733.5C 247.833,733.5 246.167,733.5 244.5,733.5C 244.5,732.5 244.5,731.5 244.5,730.5C 242.167,730.5 239.833,730.5 237.5,730.5C 237.5,731.5 237.5,732.5 237.5,733.5C 235.833,733.5 234.167,733.5 232.5,733.5C 232.5,732.5 232.5,731.5 232.5,730.5C 230.167,730.5 227.833,730.5 225.5,730.5C 225.5,731.5 225.5,732.5 225.5,733.5C 223.833,733.5 222.167,733.5 220.5,733.5C 220.5,732.5 220.5,731.5 220.5,730.5C 218.167,730.5 215.833,730.5 213.5,730.5C 213.5,731.5 213.5,732.5 213.5,733.5C 211.833,733.5 210.167,733.5 208.5,733.5C 208.5,732.5 208.5,731.5 208.5,730.5C 206.167,730.5 203.833,730.5 201.5,730.5C 201.5,731.5 201.5,732.5 201.5,733.5C 199.833,733.5 198.167,733.5 196.5,733.5C 196.5,732.5 196.5,731.5 196.5,730.5C 194.167,730.5 191.833,730.5 189.5,730.5C 189.5,731.5 189.5,732.5 189.5,733.5C 187.833,733.5 186.167,733.5 184.5,733.5C 184.5,732.5 184.5,731.5 184.5,730.5C 182.167,730.5 179.833,730.5 177.5,730.5C 177.5,731.5 177.5,732.5 177.5,733.5C 175.833,733.5 174.167,733.5 172.5,733.5C 172.5,732.5 172.5,731.5 172.5,730.5C 170.167,730.5 167.833,730.5 165.5,730.5C 165.5,731.5 165.5,732.5 165.5,733.5C 163.833,733.5 162.167,733.5 160.5,733.5C 160.5,732.5 160.5,731.5 160.5,730.5C 158.167,730.5 155.833,730.5 153.5,730.5C 153.5,731.5 153.5,732.5 153.5,733.5C 151.833,733.5 150.167,733.5 148.5,733.5C 148.5,732.5 148.5,731.5 148.5,730.5C 146.167,730.5 143.833,730.5 141.5,730.5C 141.5,731.5 141.5,732.5 141.5,733.5C 139.833,733.5 138.167,733.5 136.5,733.5C 136.5,732.5 136.5,731.5 136.5,730.5C 134.167,730.5 131.833,730.5 129.5,730.5C 129.5,731.5 129.5,732.5 129.5,733.5C 127.833,733.5 126.167,733.5 124.5,733.5C 124.5,732.5 124.5,731.5 124.5,730.5C 122.167,730.5 119.833,730.5 117.5,730.5C 117.5,731.5 117.5,732.5 117.5,733.5C 115.833,733.5 114.167,733.5 112.5,733.5C 112.5,732.5 112.5,731.5 112.5,730.5C 110.167,730.5 107.833,730.5 105.5,730.5C 105.5,731.5 105.5,732.5 105.5,733.5C 103.833,733.5 102.167,733.5 100.5,733.5C 100.5,732.5 100.5,731.5 100.5,730.5C 98.1667,730.5 95.8333,730.5 93.5,730.5C 93.5,731.5 93.5,732.5 93.5,733.5C 91.8333,733.5 90.1667,733.5 88.5,733.5C 88.5,732.5 88.5,731.5 88.5,730.5C 86.1667,730.5 83.8333,730.5 81.5,730.5C 81.5,731.5 81.5,732.5 81.5,733.5C 79.8333,733.5 78.1667,733.5 76.5,733.5C 76.5,732.5 76.5,731.5 76.5,730.5C 74.1667,730.5 71.8333,730.5 69.5,730.5C 69.5,731.5 69.5,732.5 69.5,733.5C 67.8333,733.5 66.1667,733.5 64.5,733.5C 64.5,732.5 64.5,731.5 64.5,730.5C 62.1667,730.5 59.8333,730.5 57.5,730.5C 57.5,731.5 57.5,732.5 57.5,733.5C 55.8333,733.5 54.1667,733.5 52.5,733.5C 52.5,732.5 52.5,731.5 52.5,730.5C 50.1667,730.5 47.8333,730.5 45.5,730.5C 45.5,731.5 45.5,732.5 45.5,733.5C 43.8333,733.5 42.1667,733.5 40.5,733.5C 40.5,732.5 40.5,731.5 40.5,730.5C 37.8333,730.5 35.1667,730.5 32.5,730.5C 32.8328,633.999 32.4994,537.665 31.5,441.5C 31.5,441.167 31.5,440.833 31.5,440.5C 33.0481,440.179 33.7148,439.179 33.5,437.5C 35.5,437.5 37.5,437.5 39.5,437.5C 39.5,435.5 39.5,433.5 39.5,431.5C 37.5,431.5 35.5,431.5 33.5,431.5C 33.8545,433.767 33.5211,435.101 32.5,435.5C 32.5,341.5 32.5,247.5 32.5,153.5 Z"/></g>
<g><path style="opacity:1" fill="#eacd8c" d="M 484.5,153.5 C 485.167,153.5 485.833,153.5 486.5,153.5C 485.503,243.429 485.169,333.429 485.5,423.5C 484.501,333.668 484.167,243.668 484.5,153.5 Z"/></g>
<g><path style="opacity:1" fill="#1a1a1a" d="M 198.5,161.5 C 202.839,160.846 206.673,161.846 210,164.5C 210.483,165.448 210.649,166.448 210.5,167.5C 208.641,167.539 207.308,166.706 206.5,165C 203.24,164.216 200.073,164.383 197,165.5C 196.175,167.701 196.675,169.534 198.5,171C 202.716,171.72 206.716,173.053 210.5,175C 211.919,178.163 211.585,181.163 209.5,184C 205.259,185.457 200.926,185.791 196.5,185C 193.433,183.739 192.6,181.906 194,179.5C 195.775,180.27 197.275,181.437 198.5,183C 201.634,183.79 204.634,183.457 207.5,182C 208.935,179.733 208.602,177.733 206.5,176C 201.678,175.514 197.511,173.681 194,170.5C 193.053,166.279 194.553,163.279 198.5,161.5 Z"/></g>
<g><path style="opacity:1" fill="#141414" d="M 222.5,162.5 C 224.167,162.5 225.833,162.5 227.5,162.5C 230.446,170.06 233.112,177.727 235.5,185.5C 234.5,185.5 233.5,185.5 232.5,185.5C 232.597,180.348 230.097,178.014 225,178.5C 219.478,177.526 216.978,179.859 217.5,185.5C 216.127,185.657 214.793,185.49 213.5,185C 216.919,177.663 219.919,170.163 222.5,162.5 Z"/></g>
<g><path style="opacity:1" fill="#000000" d="M 239.5,162.5 C 241.461,169.087 242.128,176.087 241.5,183.5C 245.971,182.911 249.971,183.577 253.5,185.5C 248.833,185.5 244.167,185.5 239.5,185.5C 239.5,177.833 239.5,170.167 239.5,162.5 Z"/></g>
<g><path style="opacity:1" fill="#5e5e5e" d="M 239.5,162.5 C 240.209,161.596 241.209,161.263 242.5,161.5C 242.5,168.5 242.5,175.5 242.5,182.5C 246.5,182.5 250.5,182.5 254.5,182.5C 254.737,183.791 254.404,184.791 253.5,185.5C 249.971,183.577 245.971,182.911 241.5,183.5C 242.128,176.087 241.461,169.087 239.5,162.5 Z"/></g>
<g><path style="opacity:1" fill="#151515" d="M 253.5,162.5 C 254.822,162.33 255.989,162.663 257,163.5C 259.337,169.844 261.67,176.178 264,182.5C 266.5,176.167 269,169.833 271.5,163.5C 272.5,162.167 273.5,162.167 274.5,163.5C 271.629,170.739 268.629,177.906 265.5,185C 264.216,185.684 263.049,185.517 262,184.5C 259.062,177.182 256.229,169.849 253.5,162.5 Z"/></g>
<g><path style="opacity:1" fill="#131313" d="M 282.5,162.5 C 284.144,162.286 285.644,162.62 287,163.5C 289.736,170.54 292.569,177.54 295.5,184.5C 294.635,185.583 293.635,185.749 292.5,185C 291.692,182.912 290.692,180.912 289.5,179C 285.848,178.501 282.182,178.335 278.5,178.5C 278.414,180.677 277.747,182.677 276.5,184.5C 275.5,185.833 274.5,185.833 273.5,184.5C 276.508,177.138 279.508,169.804 282.5,162.5 Z"/></g>
<g><path style="opacity:1" fill="#090909" d="M 302.5,162.5 C 304.833,162.5 307.167,162.5 309.5,162.5C 309.5,168.833 309.5,175.167 309.5,181.5C 307.251,185.252 303.918,186.419 299.5,185C 297.393,183.736 296.393,181.903 296.5,179.5C 298.82,180.724 301.153,182.058 303.5,183.5C 305.516,183.484 306.516,182.484 306.5,180.5C 307.488,175.36 307.821,170.026 307.5,164.5C 305.833,164.5 304.167,164.5 302.5,164.5C 302.5,163.833 302.5,163.167 302.5,162.5 Z"/></g>
<g><path style="opacity:1" fill="#565656" d="M 302.5,162.5 C 304.948,161.527 307.615,161.194 310.5,161.5C 310.824,168.354 310.491,175.021 309.5,181.5C 309.5,175.167 309.5,168.833 309.5,162.5C 307.167,162.5 304.833,162.5 302.5,162.5 Z"/></g>
<g><path style="opacity:1" fill="#030303" d="M 333.5,164.5 C 328.5,164.5 323.5,164.5 318.5,164.5C 318.5,167.167 318.5,169.833 318.5,172.5C 323.167,172.5 327.833,172.5 332.5,172.5C 328.285,174.436 323.619,175.103 318.5,174.5C 318.5,177.167 318.5,179.833 318.5,182.5C 323.749,182.859 328.749,183.859 333.5,185.5C 327.5,185.5 321.5,185.5 315.5,185.5C 315.5,177.833 315.5,170.167 315.5,162.5C 321.926,161.88 327.926,162.547 333.5,164.5 Z"/></g>
<g><path style="opacity:1" fill="#bebebe" d="M 333.5,164.5 C 329.03,165.486 324.363,165.819 319.5,165.5C 319.5,167.5 319.5,169.5 319.5,171.5C 324.032,171.182 328.366,171.515 332.5,172.5C 327.833,172.5 323.167,172.5 318.5,172.5C 318.5,169.833 318.5,167.167 318.5,164.5C 323.5,164.5 328.5,164.5 333.5,164.5 Z"/></g>
<g><path style="opacity:1" fill="#9a9a9a" d="M 302.5,164.5 C 304.167,164.5 305.833,164.5 307.5,164.5C 307.821,170.026 307.488,175.36 306.5,180.5C 306.5,175.5 306.5,170.5 306.5,165.5C 304.901,165.768 303.568,165.434 302.5,164.5 Z"/></g>
<g><path style="opacity:1" fill="#e3e3e3" d="M 224.5,165.5 C 226.531,168.554 228.198,171.887 229.5,175.5C 226.5,176.833 223.5,176.833 220.5,175.5C 222.037,172.218 223.37,168.884 224.5,165.5 Z"/></g>
<g><path style="opacity:1" fill="#e4e4e4" d="M 283.5,165.5 C 284.497,165.47 285.164,165.97 285.5,167C 286.662,170.147 287.662,173.314 288.5,176.5C 285.833,176.5 283.167,176.5 280.5,176.5C 281.301,172.765 282.301,169.099 283.5,165.5 Z"/></g>
<g><path style="opacity:1" fill="#fff3db" d="M 19.5,200.5 C 18.0387,199.314 16.7054,199.314 15.5,200.5C 15.1667,200.5 14.8333,200.5 14.5,200.5C 12.2475,200.084 10.7475,198.751 10,196.5C 8.1284,187.129 10.4617,179.129 17,172.5C 23.1565,179.31 25.4899,187.31 24,196.5C 22.9513,198.384 21.4513,199.718 19.5,200.5 Z"/></g>
<g><path style="opacity:1" fill="#fff3db" d="M 504.5,200.5 C 503.039,199.314 501.705,199.314 500.5,200.5C 500.167,200.5 499.833,200.5 499.5,200.5C 497.248,200.084 495.748,198.751 495,196.5C 493.128,187.129 495.462,179.129 502,172.5C 508.157,179.31 510.49,187.31 509,196.5C 507.951,198.384 506.451,199.718 504.5,200.5 Z"/></g>
<g><path style="opacity:1" fill="#ffc13a" d="M 16.5,178.5 C 20.1482,183.539 21.3149,189.206 20,195.5C 17.3676,198.192 15.0342,197.859 13,194.5C 12.4032,188.788 13.5699,183.455 16.5,178.5 Z"/></g>
<g><path style="opacity:1" fill="#ffc13a" d="M 501.5,178.5 C 505.148,183.539 506.315,189.206 505,195.5C 502.368,198.192 500.034,197.859 498,194.5C 497.403,188.788 498.57,183.455 501.5,178.5 Z"/></g>
<g><path style="opacity:1" fill="#838383" d="M 318.5,182.5 C 323.833,182.5 329.167,182.5 334.5,182.5C 334.737,183.791 334.404,184.791 333.5,185.5C 328.749,183.859 323.749,182.859 318.5,182.5 Z"/></g>
<g><path style="opacity:1" fill="#ffda8a" d="M 499.5,200.5 C 499.833,200.5 500.167,200.5 500.5,200.5C 501.167,200.5 501.5,200.833 501.5,201.5C 500.501,271.998 500.167,342.665 500.5,413.5C 499.501,342.669 499.167,271.669 499.5,200.5 Z"/></g>
<g><path style="opacity:1" fill="#fff6e5" d="M 16.5,201.5 C 18.4968,271.825 19.1635,342.492 18.5,413.5C 17.5,414.833 16.5,414.833 15.5,413.5C 15.1675,342.665 15.5008,271.998 16.5,201.5 Z"/></g>
<g><path style="opacity:1" fill="#ffce5f" d="M 15.5,200.5 C 16.7054,199.314 18.0387,199.314 19.5,200.5C 19.8325,271.669 19.4992,342.669 18.5,413.5C 19.1635,342.492 18.4968,271.825 16.5,201.5C 16.5,200.833 16.1667,200.5 15.5,200.5 Z"/></g>
<g><path style="opacity:1" fill="#fff6e5" d="M 501.5,201.5 C 503.497,271.825 504.163,342.492 503.5,413.5C 502.5,414.833 501.5,414.833 500.5,413.5C 500.167,342.665 500.501,271.998 501.5,201.5 Z"/></g>
<g><path style="opacity:1" fill="#fefbf0" d="M 195.5,213.5 C 196.771,216.343 197.604,219.343 198,222.5C 198.383,223.056 198.883,223.389 199.5,223.5C 201.888,234.504 204.388,245.504 207,256.5C 208.203,260.671 209.703,264.671 211.5,268.5C 211.5,268.833 211.5,269.167 211.5,269.5C 215.135,283.724 219.135,297.724 223.5,311.5C 227.443,330.284 232.443,348.617 238.5,366.5C 240.028,374.946 242.028,383.279 244.5,391.5C 244.719,392.675 244.386,393.675 243.5,394.5C 242.331,391.802 241.164,389.135 240,386.5C 222.855,328.769 204.855,271.436 186,214.5C 185.505,212.527 185.338,210.527 185.5,208.5C 189.648,208.574 192.981,210.241 195.5,213.5 Z"/></g>
<g><path style="opacity:1" fill="#ffdb8e" d="M 14.5,200.5 C 14.8333,200.5 15.1667,200.5 15.5,200.5C 16.1667,200.5 16.5,200.833 16.5,201.5C 15.5008,271.998 15.1675,342.665 15.5,413.5C 14.5008,342.669 14.1675,271.669 14.5,200.5 Z"/></g>
<g><path style="opacity:1" fill="#ffce63" d="M 500.5,200.5 C 501.705,199.314 503.039,199.314 504.5,200.5C 504.833,271.669 504.499,342.669 503.5,413.5C 504.163,342.492 503.497,271.825 501.5,201.5C 501.5,200.833 501.167,200.5 500.5,200.5 Z"/></g>
<g><path style="opacity:1" fill="#f1c64b" d="M 199.5,223.5 C 200.917,227.13 203.084,230.464 206,233.5C 207.321,245.248 209.154,256.915 211.5,268.5C 209.703,264.671 208.203,260.671 207,256.5C 204.388,245.504 201.888,234.504 199.5,223.5 Z"/></g>
<g><path style="opacity:1" fill="#f1eb64" d="M 197.5,209.5 C 195.824,210.183 195.157,211.517 195.5,213.5C 192.981,210.241 189.648,208.574 185.5,208.5C 185.338,210.527 185.505,212.527 186,214.5C 204.855,271.436 222.855,328.769 240,386.5C 241.164,389.135 242.331,391.802 243.5,394.5C 244.386,393.675 244.719,392.675 244.5,391.5C 246.36,399.099 248.36,406.765 250.5,414.5C 248.165,411.163 246.331,407.496 245,403.5C 244.505,405.473 244.338,407.473 244.5,409.5C 222.357,339.941 200.357,270.275 178.5,200.5C 179.873,200.343 181.207,200.51 182.5,201C 187.396,204.122 192.396,206.955 197.5,209.5 Z"/></g>
<g><path style="opacity:1" fill="#f1c64c" d="M 211.5,269.5 C 212.745,272.067 214.412,274.401 216.5,276.5C 217.485,278.772 218.319,281.105 219,283.5C 220.559,292.926 222.059,302.259 223.5,311.5C 219.135,297.724 215.135,283.724 211.5,269.5 Z"/></g>
<g><path style="opacity:1" fill="#f9df1b" d="M 197.5,209.5 C 200.443,209.98 203.11,210.98 205.5,212.5C 223.252,221.877 241.252,231.044 259.5,240C 260.793,240.49 262.127,240.657 263.5,240.5C 265.574,279.534 267.741,318.534 270,357.5C 277.665,350.002 285.165,342.335 292.5,334.5C 294.689,332.113 296.356,329.447 297.5,326.5C 302.286,323.261 306.953,319.761 311.5,316C 315.107,312.902 318.107,309.402 320.5,305.5C 322.991,305.171 325.157,304.171 327,302.5C 326.191,310.437 325.691,318.437 325.5,326.5C 323.271,344.226 320.604,361.893 317.5,379.5C 316.307,379.97 315.64,380.97 315.5,382.5C 314.387,396.264 311.72,409.598 307.5,422.5C 308.927,415.265 309.927,407.931 310.5,400.5C 314.721,370.174 319.721,339.841 325.5,309.5C 325.167,308.833 324.833,308.167 324.5,307.5C 312.594,321.238 299.927,334.072 286.5,346C 280.989,352.343 275.323,358.509 269.5,364.5C 268.264,365.246 266.93,365.579 265.5,365.5C 263.417,326.176 261.251,286.843 259,247.5C 258.722,246.584 258.222,245.918 257.5,245.5C 257.047,244.542 256.381,243.708 255.5,243C 246.775,239.852 238.441,235.852 230.5,231C 224.184,229.679 218.85,226.679 214.5,222C 210.12,220.822 205.787,219.488 201.5,218C 199.911,215.905 197.911,214.405 195.5,213.5C 195.157,211.517 195.824,210.183 197.5,209.5 Z"/></g>
<g><path style="opacity:1" fill="#f5edd4" d="M 272.5,238.5 C 273.167,274.5 273.833,310.5 274.5,346.5C 274.44,347.043 274.107,347.376 273.5,347.5C 272.5,311.173 272.167,274.839 272.5,238.5 Z"/></g>
<g><path style="opacity:1" fill="#f3e955" d="M 325.5,326.5 C 325.691,318.437 326.191,310.437 327,302.5C 325.157,304.171 322.991,305.171 320.5,305.5C 323.172,302.169 326.505,299.835 330.5,298.5C 329.262,308.06 327.596,317.393 325.5,326.5 Z"/></g>
<g><path style="opacity:1" fill="#dbac1e" d="M 205.5,212.5 C 224.899,220.19 244.565,227.357 264.5,234C 267.152,235.599 269.818,237.099 272.5,238.5C 272.167,274.839 272.5,311.173 273.5,347.5C 274.107,347.376 274.44,347.043 274.5,346.5C 282.167,339.833 289.833,333.167 297.5,326.5C 296.356,329.447 294.689,332.113 292.5,334.5C 285.165,342.335 277.665,350.002 270,357.5C 267.741,318.534 265.574,279.534 263.5,240.5C 262.127,240.657 260.793,240.49 259.5,240C 241.252,231.044 223.252,221.877 205.5,212.5 Z"/></g>
<g><path style="opacity:1" fill="#d6c54d" d="M 320.5,305.5 C 318.107,309.402 315.107,312.902 311.5,316C 306.953,319.761 302.286,323.261 297.5,326.5C 304.841,319.159 312.508,312.159 320.5,305.5 Z"/></g>
<g><path style="opacity:1" fill="#f6c823" d="M 257.5,245.5 C 258.222,245.918 258.722,246.584 259,247.5C 261.251,286.843 263.417,326.176 265.5,365.5C 266.93,365.579 268.264,365.246 269.5,364.5C 275.323,358.509 280.989,352.343 286.5,346C 299.927,334.072 312.594,321.238 324.5,307.5C 324.833,308.167 325.167,308.833 325.5,309.5C 319.721,339.841 314.721,370.174 310.5,400.5C 309.969,391.251 311.135,382.251 314,373.5C 314.333,366.5 314.667,359.5 315,352.5C 315.638,351.391 316.138,350.225 316.5,349C 315.716,341.536 315.216,334.036 315,326.5C 313.684,323.972 312.517,323.972 311.5,326.5C 311.004,330.327 309.671,333.661 307.5,336.5C 306.167,336.5 304.833,336.5 303.5,336.5C 303.769,338.429 303.269,340.095 302,341.5C 300.467,341.056 298.967,340.723 297.5,340.5C 296.024,343.143 294.024,345.31 291.5,347C 291.833,347.333 292.167,347.667 292.5,348C 286.417,349.256 282.417,352.756 280.5,358.5C 277.737,358.744 275.571,360.077 274,362.5C 273.315,367.609 270.315,369.943 265,369.5C 264.055,369.095 263.388,368.428 263,367.5C 262.626,346.157 261.959,324.824 261,303.5C 259.883,302.051 259.216,300.384 259,298.5C 256.744,280.866 256.244,263.199 257.5,245.5 Z"/></g>
<g><path style="opacity:1" fill="#f0c54c" d="M 223.5,311.5 C 224.5,311.5 225.5,311.5 226.5,311.5C 228.186,320.763 230.019,330.096 232,339.5C 233.585,340.376 234.585,341.709 235,343.5C 235.906,351.253 237.073,358.919 238.5,366.5C 232.443,348.617 227.443,330.284 223.5,311.5 Z"/></g>
<g><path style="opacity:1" fill="#fac32d" d="M 195.5,213.5 C 197.911,214.405 199.911,215.905 201.5,218C 205.787,219.488 210.12,220.822 214.5,222C 218.85,226.679 224.184,229.679 230.5,231C 238.441,235.852 246.775,239.852 255.5,243C 256.381,243.708 257.047,244.542 257.5,245.5C 256.244,263.199 256.744,280.866 259,298.5C 259.216,300.384 259.883,302.051 261,303.5C 261.959,324.824 262.626,346.157 263,367.5C 263.388,368.428 264.055,369.095 265,369.5C 270.315,369.943 273.315,367.609 274,362.5C 275.571,360.077 277.737,358.744 280.5,358.5C 282.417,352.756 286.417,349.256 292.5,348C 292.167,347.667 291.833,347.333 291.5,347C 294.024,345.31 296.024,343.143 297.5,340.5C 298.967,340.723 300.467,341.056 302,341.5C 303.269,340.095 303.769,338.429 303.5,336.5C 304.833,336.5 306.167,336.5 307.5,336.5C 309.671,333.661 311.004,330.327 311.5,326.5C 312.517,323.972 313.684,323.972 315,326.5C 315.216,334.036 315.716,341.536 316.5,349C 316.138,350.225 315.638,351.391 315,352.5C 314.667,359.5 314.333,366.5 314,373.5C 311.135,382.251 309.969,391.251 310.5,400.5C 309.927,407.931 308.927,415.265 307.5,422.5C 306.818,428.009 305.818,433.342 304.5,438.5C 302.376,453.214 299.376,467.88 295.5,482.5C 294.543,491.868 293.376,501.201 292,510.5C 289.894,512.291 287.394,512.958 284.5,512.5C 280.142,509.166 275.476,506.166 270.5,503.5C 263.113,500.416 258.946,502.749 258,510.5C 256.626,532.907 254.626,555.24 252,577.5C 251.059,579.061 249.892,580.395 248.5,581.5C 248.053,575.033 246.387,569.033 243.5,563.5C 243.5,560.5 243.5,557.5 243.5,554.5C 243.495,544.107 242.495,534.107 240.5,524.5C 240.5,523.167 240.5,521.833 240.5,520.5C 240.356,506.303 239.689,492.136 238.5,478C 238.615,476.105 239.282,474.438 240.5,473C 239.552,472.517 238.552,472.351 237.5,472.5C 237.386,470.282 236.72,468.282 235.5,466.5C 237.632,466.554 238.965,467.554 239.5,469.5C 245.397,471.697 251.063,474.531 256.5,478C 262.77,479.296 268.77,481.463 274.5,484.5C 275.911,486.017 275.744,487.351 274,488.5C 270.031,488.064 265.865,487.731 261.5,487.5C 261.5,489.167 261.5,490.833 261.5,492.5C 265.182,492.665 268.848,492.499 272.5,492C 273.833,491.333 274.833,490.333 275.5,489C 279.753,488.8 283.92,488.3 288,487.5C 288.152,479.494 289.319,471.661 291.5,464C 290.362,460.267 289.695,456.433 289.5,452.5C 289.612,439.914 289.779,427.247 290,414.5C 290.346,412.782 290.846,411.115 291.5,409.5C 290.302,404.083 289.635,398.583 289.5,393C 290.083,386.51 290.416,380.01 290.5,373.5C 287.753,373.187 285.086,373.52 282.5,374.5C 281.577,376.924 280.077,378.924 278,380.5C 277.517,381.448 277.351,382.448 277.5,383.5C 276.378,384.947 274.878,385.947 273,386.5C 272.123,391.27 269.457,394.603 265,396.5C 263.878,398.407 263.045,400.407 262.5,402.5C 259.3,407.586 255.633,412.253 251.5,416.5C 250.702,416.043 250.369,415.376 250.5,414.5C 248.36,406.765 246.36,399.099 244.5,391.5C 242.028,383.279 240.028,374.946 238.5,366.5C 237.073,358.919 235.906,351.253 235,343.5C 234.585,341.709 233.585,340.376 232,339.5C 230.019,330.096 228.186,320.763 226.5,311.5C 225.5,311.5 224.5,311.5 223.5,311.5C 222.059,302.259 220.559,292.926 219,283.5C 218.319,281.105 217.485,278.772 216.5,276.5C 214.412,274.401 212.745,272.067 211.5,269.5C 211.5,269.167 211.5,268.833 211.5,268.5C 209.154,256.915 207.321,245.248 206,233.5C 203.084,230.464 200.917,227.13 199.5,223.5C 198.883,223.389 198.383,223.056 198,222.5C 197.604,219.343 196.771,216.343 195.5,213.5 Z"/></g>
<g><path style="opacity:1" fill="#fadb1d" d="M 279.5,484.5 C 281.5,484.5 283.5,484.5 285.5,484.5C 286.529,449.506 286.695,414.506 286,379.5C 284.927,378.72 283.76,378.887 282.5,380C 281.167,382.581 279.334,384.748 277,386.5C 276.506,388.134 276.34,389.801 276.5,391.5C 275.022,391.238 273.689,391.571 272.5,392.5C 271.076,394.718 269.076,396.218 266.5,397C 265.512,399.167 264.179,401 262.5,402.5C 263.045,400.407 263.878,398.407 265,396.5C 269.457,394.603 272.123,391.27 273,386.5C 274.878,385.947 276.378,384.947 277.5,383.5C 279.448,381.211 281.448,378.878 283.5,376.5C 284.85,375.05 286.516,374.383 288.5,374.5C 287.89,411.835 287.224,449.169 286.5,486.5C 283.772,486.829 281.438,486.163 279.5,484.5 Z"/></g>
<g><path style="opacity:1" fill="#f6e73b" d="M 276.5,391.5 C 268.381,402.125 260.047,412.625 251.5,423C 250.216,423.684 249.049,423.517 248,422.5C 246.981,418.088 245.814,413.755 244.5,409.5C 244.338,407.473 244.505,405.473 245,403.5C 246.331,407.496 248.165,411.163 250.5,414.5C 250.369,415.376 250.702,416.043 251.5,416.5C 255.633,412.253 259.3,407.586 262.5,402.5C 264.179,401 265.512,399.167 266.5,397C 269.076,396.218 271.076,394.718 272.5,392.5C 273.689,391.571 275.022,391.238 276.5,391.5 Z"/></g>
<g><path style="opacity:1" fill="#fee7b7" d="M 516.5,434.5 C 516.833,435.5 517.5,436.167 518.5,436.5C 518.5,437.833 518.5,439.167 518.5,440.5C 513.808,446.357 508.308,451.357 502,455.5C 496.086,451.592 490.753,446.925 486,441.5C 485.505,443.473 485.338,445.473 485.5,447.5C 485.167,447.5 484.833,447.5 484.5,447.5C 484.177,441.31 484.51,435.31 485.5,429.5C 485.337,431.857 485.503,434.19 486,436.5C 490.5,432 495,427.5 499.5,423C 501.167,422.333 502.833,422.333 504.5,423C 508.369,427.037 512.369,430.87 516.5,434.5 Z"/></g>
<g><path style="opacity:1" fill="#fdf1d9" d="M 14.5,423.5 C 15.9464,422.387 17.6131,422.22 19.5,423C 23.369,427.037 27.369,430.87 31.5,434.5C 31.5,435.167 31.8333,435.5 32.5,435.5C 33.5211,435.101 33.8545,433.767 33.5,431.5C 35.5,431.5 37.5,431.5 39.5,431.5C 39.5,433.5 39.5,435.5 39.5,437.5C 37.5,437.5 35.5,437.5 33.5,437.5C 33.7148,439.179 33.0481,440.179 31.5,440.5C 31.6567,439.127 31.49,437.793 31,436.5C 26.8333,432.333 22.6667,428.167 18.5,424C 17.552,423.517 16.552,423.351 15.5,423.5C 15.1667,423.5 14.8333,423.5 14.5,423.5 Z"/></g>
<g><path style="opacity:1" fill="#f8e742" d="M 317.5,379.5 C 312.355,415.85 307.021,452.183 301.5,488.5C 300.833,490.5 300.167,492.5 299.5,494.5C 300.83,481.882 302.164,469.215 303.5,456.5C 303.966,450.509 304.299,444.509 304.5,438.5C 305.818,433.342 306.818,428.009 307.5,422.5C 311.72,409.598 314.387,396.264 315.5,382.5C 315.64,380.97 316.307,379.97 317.5,379.5 Z"/></g>
<g><path style="opacity:1" fill="#ffc23d" d="M 15.5,423.5 C 16.552,423.351 17.552,423.517 18.5,424C 22.6667,428.167 26.8333,432.333 31,436.5C 31.49,437.793 31.6567,439.127 31.5,440.5C 31.5,440.833 31.5,441.167 31.5,441.5C 27.369,445.13 23.369,448.963 19.5,453C 17.8333,453.667 16.1667,453.667 14.5,453C 10.6667,449.167 6.83333,445.333 3,441.5C 2.21086,439.288 2.37753,437.288 3.5,435.5C 7.83333,431.833 11.8333,427.833 15.5,423.5 Z"/></g>
<g><path style="opacity:1" fill="#fff5e2" d="M 15.5,425.5 C 21.34,428.66 26.34,432.993 30.5,438.5C 26.4698,443.364 21.9698,447.698 17,451.5C 12.0302,447.698 7.53021,443.364 3.5,438.5C 7.52187,434.146 11.5219,429.813 15.5,425.5 Z"/></g>
<g><path style="opacity:1" fill="#ffc039" d="M 518.5,440.5 C 518.667,545.501 518.5,650.501 518,755.5C 517.3,759.066 515.467,761.9 512.5,764C 345.247,765.664 177.913,765.997 10.5,765C 5.82796,763.497 3.16129,760.33 2.5,755.5C 2.33334,651.499 2.5,547.499 3,443.5C 7.0894,448.262 11.7561,452.262 17,455.5C 22.2439,452.262 26.9106,448.262 31,443.5C 31.167,539.334 31.667,635.001 32.5,730.5C 35.1667,730.5 37.8333,730.5 40.5,730.5C 40.5,731.5 40.5,732.5 40.5,733.5C 42.1667,733.5 43.8333,733.5 45.5,733.5C 45.5,732.5 45.5,731.5 45.5,730.5C 47.8333,730.5 50.1667,730.5 52.5,730.5C 52.5,731.5 52.5,732.5 52.5,733.5C 54.1667,733.5 55.8333,733.5 57.5,733.5C 57.5,732.5 57.5,731.5 57.5,730.5C 59.8333,730.5 62.1667,730.5 64.5,730.5C 64.5,731.5 64.5,732.5 64.5,733.5C 66.1667,733.5 67.8333,733.5 69.5,733.5C 69.5,732.5 69.5,731.5 69.5,730.5C 71.8333,730.5 74.1667,730.5 76.5,730.5C 76.5,731.5 76.5,732.5 76.5,733.5C 78.1667,733.5 79.8333,733.5 81.5,733.5C 81.5,732.5 81.5,731.5 81.5,730.5C 83.8333,730.5 86.1667,730.5 88.5,730.5C 88.5,731.5 88.5,732.5 88.5,733.5C 90.1667,733.5 91.8333,733.5 93.5,733.5C 93.5,732.5 93.5,731.5 93.5,730.5C 95.8333,730.5 98.1667,730.5 100.5,730.5C 100.5,731.5 100.5,732.5 100.5,733.5C 102.167,733.5 103.833,733.5 105.5,733.5C 105.5,732.5 105.5,731.5 105.5,730.5C 107.833,730.5 110.167,730.5 112.5,730.5C 112.5,731.5 112.5,732.5 112.5,733.5C 114.167,733.5 115.833,733.5 117.5,733.5C 117.5,732.5 117.5,731.5 117.5,730.5C 119.833,730.5 122.167,730.5 124.5,730.5C 124.5,731.5 124.5,732.5 124.5,733.5C 126.167,733.5 127.833,733.5 129.5,733.5C 129.5,732.5 129.5,731.5 129.5,730.5C 131.833,730.5 134.167,730.5 136.5,730.5C 136.5,731.5 136.5,732.5 136.5,733.5C 138.167,733.5 139.833,733.5 141.5,733.5C 141.5,732.5 141.5,731.5 141.5,730.5C 143.833,730.5 146.167,730.5 148.5,730.5C 148.5,731.5 148.5,732.5 148.5,733.5C 150.167,733.5 151.833,733.5 153.5,733.5C 153.5,732.5 153.5,731.5 153.5,730.5C 155.833,730.5 158.167,730.5 160.5,730.5C 160.5,731.5 160.5,732.5 160.5,733.5C 162.167,733.5 163.833,733.5 165.5,733.5C 165.5,732.5 165.5,731.5 165.5,730.5C 167.833,730.5 170.167,730.5 172.5,730.5C 172.5,731.5 172.5,732.5 172.5,733.5C 174.167,733.5 175.833,733.5 177.5,733.5C 177.5,732.5 177.5,731.5 177.5,730.5C 179.833,730.5 182.167,730.5 184.5,730.5C 184.5,731.5 184.5,732.5 184.5,733.5C 186.167,733.5 187.833,733.5 189.5,733.5C 189.5,732.5 189.5,731.5 189.5,730.5C 191.833,730.5 194.167,730.5 196.5,730.5C 196.5,731.5 196.5,732.5 196.5,733.5C 198.167,733.5 199.833,733.5 201.5,733.5C 201.5,732.5 201.5,731.5 201.5,730.5C 203.833,730.5 206.167,730.5 208.5,730.5C 208.5,731.5 208.5,732.5 208.5,733.5C 210.167,733.5 211.833,733.5 213.5,733.5C 213.5,732.5 213.5,731.5 213.5,730.5C 215.833,730.5 218.167,730.5 220.5,730.5C 220.5,731.5 220.5,732.5 220.5,733.5C 222.167,733.5 223.833,733.5 225.5,733.5C 225.5,732.5 225.5,731.5 225.5,730.5C 227.833,730.5 230.167,730.5 232.5,730.5C 232.5,731.5 232.5,732.5 232.5,733.5C 234.167,733.5 235.833,733.5 237.5,733.5C 237.5,732.5 237.5,731.5 237.5,730.5C 239.833,730.5 242.167,730.5 244.5,730.5C 244.5,731.5 244.5,732.5 244.5,733.5C 246.167,733.5 247.833,733.5 249.5,733.5C 249.5,732.5 249.5,731.5 249.5,730.5C 251.833,730.5 254.167,730.5 256.5,730.5C 256.5,731.5 256.5,732.5 256.5,733.5C 258.167,733.5 259.833,733.5 261.5,733.5C 261.5,732.5 261.5,731.5 261.5,730.5C 263.833,730.5 266.167,730.5 268.5,730.5C 268.5,731.5 268.5,732.5 268.5,733.5C 270.167,733.5 271.833,733.5 273.5,733.5C 273.5,732.5 273.5,731.5 273.5,730.5C 275.833,730.5 278.167,730.5 280.5,730.5C 280.5,731.5 280.5,732.5 280.5,733.5C 282.167,733.5 283.833,733.5 285.5,733.5C 285.5,732.5 285.5,731.5 285.5,730.5C 287.833,730.5 290.167,730.5 292.5,730.5C 292.5,731.5 292.5,732.5 292.5,733.5C 294.167,733.5 295.833,733.5 297.5,733.5C 297.5,732.5 297.5,731.5 297.5,730.5C 299.833,730.5 302.167,730.5 304.5,730.5C 304.5,731.5 304.5,732.5 304.5,733.5C 306.167,733.5 307.833,733.5 309.5,733.5C 309.5,732.5 309.5,731.5 309.5,730.5C 311.833,730.5 314.167,730.5 316.5,730.5C 316.5,731.5 316.5,732.5 316.5,733.5C 318.167,733.5 319.833,733.5 321.5,733.5C 321.5,732.5 321.5,731.5 321.5,730.5C 323.833,730.5 326.167,730.5 328.5,730.5C 328.5,731.5 328.5,732.5 328.5,733.5C 330.167,733.5 331.833,733.5 333.5,733.5C 333.5,732.5 333.5,731.5 333.5,730.5C 335.833,730.5 338.167,730.5 340.5,730.5C 340.5,731.5 340.5,732.5 340.5,733.5C 342.167,733.5 343.833,733.5 345.5,733.5C 345.5,732.5 345.5,731.5 345.5,730.5C 347.833,730.5 350.167,730.5 352.5,730.5C 352.5,731.5 352.5,732.5 352.5,733.5C 354.167,733.5 355.833,733.5 357.5,733.5C 357.5,732.5 357.5,731.5 357.5,730.5C 359.833,730.5 362.167,730.5 364.5,730.5C 364.5,731.5 364.5,732.5 364.5,733.5C 366.167,733.5 367.833,733.5 369.5,733.5C 369.5,732.5 369.5,731.5 369.5,730.5C 371.833,730.5 374.167,730.5 376.5,730.5C 376.5,731.5 376.5,732.5 376.5,733.5C 378.167,733.5 379.833,733.5 381.5,733.5C 381.5,732.5 381.5,731.5 381.5,730.5C 383.833,730.5 386.167,730.5 388.5,730.5C 388.5,731.5 388.5,732.5 388.5,733.5C 390.167,733.5 391.833,733.5 393.5,733.5C 393.5,732.5 393.5,731.5 393.5,730.5C 395.833,730.5 398.167,730.5 400.5,730.5C 400.5,731.5 400.5,732.5 400.5,733.5C 402.167,733.5 403.833,733.5 405.5,733.5C 405.5,732.5 405.5,731.5 405.5,730.5C 407.833,730.5 410.167,730.5 412.5,730.5C 412.5,731.5 412.5,732.5 412.5,733.5C 414.167,733.5 415.833,733.5 417.5,733.5C 417.5,732.5 417.5,731.5 417.5,730.5C 419.833,730.5 422.167,730.5 424.5,730.5C 424.5,731.5 424.5,732.5 424.5,733.5C 426.167,733.5 427.833,733.5 429.5,733.5C 429.5,732.5 429.5,731.5 429.5,730.5C 431.833,730.5 434.167,730.5 436.5,730.5C 436.5,731.5 436.5,732.5 436.5,733.5C 438.167,733.5 439.833,733.5 441.5,733.5C 441.5,732.5 441.5,731.5 441.5,730.5C 443.833,730.5 446.167,730.5 448.5,730.5C 448.5,731.5 448.5,732.5 448.5,733.5C 450.167,733.5 451.833,733.5 453.5,733.5C 453.5,732.5 453.5,731.5 453.5,730.5C 455.833,730.5 458.167,730.5 460.5,730.5C 460.5,731.5 460.5,732.5 460.5,733.5C 462.167,733.5 463.833,733.5 465.5,733.5C 465.5,732.5 465.5,731.5 465.5,730.5C 467.833,730.5 470.167,730.5 472.5,730.5C 472.5,731.5 472.5,732.5 472.5,733.5C 474.167,733.5 475.833,733.5 477.5,733.5C 477.5,732.5 477.5,731.5 477.5,730.5C 479.833,730.5 482.167,730.5 484.5,730.5C 484.351,731.552 484.517,732.552 485,733.5C 485.497,731.19 485.663,728.857 485.5,726.5C 486.5,726.5 487.5,726.5 488.5,726.5C 488.5,725.5 488.5,724.5 488.5,723.5C 487.5,723.5 486.5,723.5 485.5,723.5C 485.5,721.5 485.5,719.5 485.5,717.5C 486.5,717.5 487.5,717.5 488.5,717.5C 488.5,715.5 488.5,713.5 488.5,711.5C 487.5,711.5 486.5,711.5 485.5,711.5C 485.538,708.379 486.205,705.379 487.5,702.5C 486.833,700.5 486.167,698.5 485.5,696.5C 486.167,694.5 486.833,692.5 487.5,690.5C 486.833,688.5 486.167,686.5 485.5,684.5C 486.167,682.5 486.833,680.5 487.5,678.5C 486.833,676.5 486.167,674.5 485.5,672.5C 486.167,670.5 486.833,668.5 487.5,666.5C 486.833,664.5 486.167,662.5 485.5,660.5C 486.167,658.5 486.833,656.5 487.5,654.5C 486.833,652.5 486.167,650.5 485.5,648.5C 486.167,646.5 486.833,644.5 487.5,642.5C 486.833,640.5 486.167,638.5 485.5,636.5C 486.167,634.5 486.833,632.5 487.5,630.5C 486.833,628.5 486.167,626.5 485.5,624.5C 486.167,622.5 486.833,620.5 487.5,618.5C 486.833,616.5 486.167,614.5 485.5,612.5C 485.942,557.825 485.942,502.825 485.5,447.5C 485.338,445.473 485.505,443.473 486,441.5C 490.753,446.925 496.086,451.592 502,455.5C 508.308,451.357 513.808,446.357 518.5,440.5 Z"/></g>
<g><path style="opacity:1" fill="#fad992" d="M 1.5,434.5 C 2.49162,434.328 3.15829,434.662 3.5,435.5C 2.37753,437.288 2.21086,439.288 3,441.5C 6.83333,445.333 10.6667,449.167 14.5,453C 16.1667,453.667 17.8333,453.667 19.5,453C 23.369,448.963 27.369,445.13 31.5,441.5C 32.4994,537.665 32.8328,633.999 32.5,730.5C 31.667,635.001 31.167,539.334 31,443.5C 26.9106,448.262 22.2439,452.262 17,455.5C 11.7561,452.262 7.0894,448.262 3,443.5C 2.5,547.499 2.33334,651.499 2.5,755.5C 1.82803,650.15 1.16137,544.65 0.5,439C 0.772819,437.467 1.10615,435.967 1.5,434.5 Z"/></g>
<g><path style="opacity:1" fill="#ffc23d" d="M 500.5,423.5 C 501.552,423.351 502.552,423.517 503.5,424C 508.631,428.453 512.964,433.453 516.5,439C 513.3,444.212 509.3,448.878 504.5,453C 502.833,453.667 501.167,453.667 499.5,453C 494.786,448.622 490.453,443.956 486.5,439C 490.991,433.676 495.658,428.509 500.5,423.5 Z"/></g>
<g><path style="opacity:1" fill="#fff6e2" d="M 500.5,425.5 C 506.34,428.66 511.34,432.993 515.5,438.5C 511.47,443.364 506.97,447.698 502,451.5C 497.03,447.698 492.53,443.364 488.5,438.5C 492.522,434.146 496.522,429.813 500.5,425.5 Z"/></g>
<g><path style="opacity:1" fill="#f5c822" d="M 239.5,469.5 C 253.285,473.397 266.619,478.397 279.5,484.5C 281.438,486.163 283.772,486.829 286.5,486.5C 287.224,449.169 287.89,411.835 288.5,374.5C 286.516,374.383 284.85,375.05 283.5,376.5C 281.448,378.878 279.448,381.211 277.5,383.5C 277.351,382.448 277.517,381.448 278,380.5C 280.077,378.924 281.577,376.924 282.5,374.5C 285.086,373.52 287.753,373.187 290.5,373.5C 290.416,380.01 290.083,386.51 289.5,393C 289.635,398.583 290.302,404.083 291.5,409.5C 290.846,411.115 290.346,412.782 290,414.5C 289.779,427.247 289.612,439.914 289.5,452.5C 289.695,456.433 290.362,460.267 291.5,464C 289.319,471.661 288.152,479.494 288,487.5C 283.92,488.3 279.753,488.8 275.5,489C 274.833,490.333 273.833,491.333 272.5,492C 268.848,492.499 265.182,492.665 261.5,492.5C 261.5,490.833 261.5,489.167 261.5,487.5C 265.865,487.731 270.031,488.064 274,488.5C 275.744,487.351 275.911,486.017 274.5,484.5C 268.77,481.463 262.77,479.296 256.5,478C 251.063,474.531 245.397,471.697 239.5,469.5 Z"/></g>
<g><path style="opacity:1" fill="#fff6e5" d="M 18.5,464.5 C 18.5,534.833 18.5,605.167 18.5,675.5C 17.5,675.5 16.5,675.5 15.5,675.5C 15.5,604.833 15.5,534.167 15.5,463.5C 16.779,462.285 17.779,462.618 18.5,464.5 Z"/></g>
<g><path style="opacity:1" fill="#fff6e5" d="M 503.5,464.5 C 503.5,535.167 503.5,605.833 503.5,676.5C 502.5,676.5 501.5,676.5 500.5,676.5C 500.167,605.164 500.5,533.83 501.5,462.5C 502.522,462.855 503.189,463.522 503.5,464.5 Z"/></g>
<g><path style="opacity:1" fill="#ffdc8f" d="M 15.5,463.5 C 15.5,534.167 15.5,604.833 15.5,675.5C 16.5,675.5 17.5,675.5 18.5,675.5C 17.5,676.167 16.5,676.833 15.5,677.5C 14.8333,677.5 14.1667,677.5 13.5,677.5C 14.1635,606.069 14.8302,534.736 15.5,463.5 Z"/></g>
<g><path style="opacity:1" fill="#ffce5f" d="M 18.5,464.5 C 19.1698,535.402 19.8365,606.402 20.5,677.5C 18.602,678.096 16.9354,678.096 15.5,677.5C 16.5,676.833 17.5,676.167 18.5,675.5C 18.5,605.167 18.5,534.833 18.5,464.5 Z"/></g>
<g><path style="opacity:1" fill="#fdfbec" d="M 234.5,466.5 C 236.051,484.664 238.051,502.664 240.5,520.5C 240.5,521.833 240.5,523.167 240.5,524.5C 241.222,532.827 241.389,541.16 241,549.5C 240.434,547.277 239.6,545.277 238.5,543.5C 238.613,536.62 237.613,529.953 235.5,523.5C 233.687,508.635 231.354,493.969 228.5,479.5C 227.927,474.153 227.26,468.82 226.5,463.5C 229.831,463.018 232.497,464.018 234.5,466.5 Z"/></g>
<g><path style="opacity:1" fill="#ffcf63" d="M 503.5,464.5 C 504.17,535.402 504.836,606.402 505.5,677.5C 504.07,677.421 502.736,677.754 501.5,678.5C 500.702,678.043 500.369,677.376 500.5,676.5C 501.5,676.5 502.5,676.5 503.5,676.5C 503.5,605.833 503.5,535.167 503.5,464.5 Z"/></g>
<g><path style="opacity:1" fill="#f0e958" d="M 239.5,464.5 C 237.517,464.157 236.183,464.824 235.5,466.5C 235.167,466.5 234.833,466.5 234.5,466.5C 232.497,464.018 229.831,463.018 226.5,463.5C 227.26,468.82 227.927,474.153 228.5,479.5C 228.665,482.518 228.498,485.518 228,488.5C 227.844,485.809 227.011,483.476 225.5,481.5C 224.491,473.021 223.158,464.688 221.5,456.5C 228.014,458.092 234.014,460.758 239.5,464.5 Z"/></g>
<g><path style="opacity:1" fill="#f0c654" d="M 234.5,466.5 C 234.833,466.5 235.167,466.5 235.5,466.5C 236.72,468.282 237.386,470.282 237.5,472.5C 238.552,472.351 239.552,472.517 240.5,473C 239.282,474.438 238.615,476.105 238.5,478C 239.689,492.136 240.356,506.303 240.5,520.5C 238.051,502.664 236.051,484.664 234.5,466.5 Z"/></g>
<g><path style="opacity:1" fill="#fae636" d="M 279.5,484.5 C 266.619,478.397 253.285,473.397 239.5,469.5C 238.965,467.554 237.632,466.554 235.5,466.5C 236.183,464.824 237.517,464.157 239.5,464.5C 251.632,469.068 263.632,473.901 275.5,479C 278.099,479.769 280.599,479.602 283,478.5C 283.396,447.146 283.729,415.813 284,384.5C 283.586,384.043 283.086,383.709 282.5,383.5C 280.479,386.235 278.479,388.901 276.5,391.5C 276.34,389.801 276.506,388.134 277,386.5C 279.334,384.748 281.167,382.581 282.5,380C 283.76,378.887 284.927,378.72 286,379.5C 286.695,414.506 286.529,449.506 285.5,484.5C 283.5,484.5 281.5,484.5 279.5,484.5 Z"/></g>
<g><path style="opacity:1" fill="#f5cc1c" d="M 304.5,438.5 C 304.299,444.509 303.966,450.509 303.5,456.5C 298.855,475.813 295.522,495.48 293.5,515.5C 290.145,515.31 287.145,514.31 284.5,512.5C 287.394,512.958 289.894,512.291 292,510.5C 293.376,501.201 294.543,491.868 295.5,482.5C 299.376,467.88 302.376,453.214 304.5,438.5 Z"/></g>
<g><path style="opacity:1" fill="#fcf6bf" d="M 301.5,488.5 C 301.638,493.414 300.972,498.081 299.5,502.5C 299.5,499.833 299.5,497.167 299.5,494.5C 300.167,492.5 300.833,490.5 301.5,488.5 Z"/></g>
<g><path style="opacity:1" fill="#eecd65" d="M 127.5,507.5 C 124.934,507.656 122.434,507.322 120,506.5C 119.5,506.833 119,507.167 118.5,507.5C 119.127,508.417 119.461,509.417 119.5,510.5C 115.153,507.183 111.82,503.517 109.5,499.5C 115.601,502.175 121.601,504.842 127.5,507.5 Z"/></g>
<g><path style="opacity:1" fill="#f1ec6e" d="M 228.5,479.5 C 231.354,493.969 233.687,508.635 235.5,523.5C 234.108,519.014 232.942,514.347 232,509.5C 231.503,511.81 231.337,514.143 231.5,516.5C 229.271,505.002 227.271,493.336 225.5,481.5C 227.011,483.476 227.844,485.809 228,488.5C 228.498,485.518 228.665,482.518 228.5,479.5 Z"/></g>
<g><path style="opacity:1" fill="#cba234" d="M 277.5,515.5 C 273.935,514.534 270.435,514.534 267,515.5C 265.677,523.665 264.177,531.665 262.5,539.5C 263.406,529.824 264.406,520.157 265.5,510.5C 270.342,510.6 274.342,512.266 277.5,515.5 Z"/></g>
<g><path style="opacity:1" fill="#f8e22b" d="M 303.5,456.5 C 302.164,469.215 300.83,481.882 299.5,494.5C 299.5,497.167 299.5,499.833 299.5,502.5C 298.23,508.249 296.897,514.083 295.5,520C 291.671,520.758 288.338,519.758 285.5,517C 282.883,516.178 280.216,515.678 277.5,515.5C 274.342,512.266 270.342,510.6 265.5,510.5C 264.406,520.157 263.406,529.824 262.5,539.5C 262.5,540.833 262.5,542.167 262.5,543.5C 260.717,551.295 259.383,559.295 258.5,567.5C 256.952,583.527 255.286,599.527 253.5,615.5C 252.662,615.842 252.328,616.508 252.5,617.5C 251.5,617.5 250.5,617.5 249.5,617.5C 249.443,613.971 248.443,610.971 246.5,608.5C 246.5,607.5 246.5,606.5 246.5,605.5C 245.693,599.536 245.36,593.536 245.5,587.5C 247.05,592.709 248.55,598.042 250,603.5C 254.692,570.66 258.526,537.66 261.5,504.5C 266.442,505.465 271.108,507.298 275.5,510C 278.546,510.739 281.546,511.572 284.5,512.5C 287.145,514.31 290.145,515.31 293.5,515.5C 295.522,495.48 298.855,475.813 303.5,456.5 Z"/></g>
<g><path style="opacity:1" fill="#faeb5d" d="M 130.5,509.5 C 148.21,515.38 165.543,521.713 182.5,528.5C 177.463,528.587 172.463,528.254 167.5,527.5C 156.032,521.936 144.365,516.602 132.5,511.5C 131.5,511.167 130.833,510.5 130.5,509.5 Z"/></g>
<g><path style="opacity:1" fill="#f0cc54" d="M 340.5,528.5 C 339.833,530.5 339.167,532.5 338.5,534.5C 338.631,533.761 338.464,533.094 338,532.5C 337.243,534.315 336.41,535.981 335.5,537.5C 337.14,528.339 335.973,527.672 332,535.5C 331.329,536.252 330.496,536.586 329.5,536.5C 332.649,529.535 336.315,522.868 340.5,516.5C 341.765,520.546 341.765,524.546 340.5,528.5 Z"/></g>
<g><path style="opacity:1" fill="#fcf5bc" d="M 340.5,528.5 C 340.561,535.454 339.561,542.121 337.5,548.5C 337.998,543.848 338.331,539.181 338.5,534.5C 339.167,532.5 339.833,530.5 340.5,528.5 Z"/></g>
<g><path style="opacity:1" fill="#f5cc1e" d="M 284.5,512.5 C 281.546,511.572 278.546,510.739 275.5,510C 271.108,507.298 266.442,505.465 261.5,504.5C 258.526,537.66 254.692,570.66 250,603.5C 248.55,598.042 247.05,592.709 245.5,587.5C 244.467,579.534 243.8,571.534 243.5,563.5C 246.387,569.033 248.053,575.033 248.5,581.5C 249.892,580.395 251.059,579.061 252,577.5C 254.626,555.24 256.626,532.907 258,510.5C 258.946,502.749 263.113,500.416 270.5,503.5C 275.476,506.166 280.142,509.166 284.5,512.5 Z"/></g>
<g><path style="opacity:1" fill="#fac330" d="M 127.5,507.5 C 129.027,507.427 130.027,508.094 130.5,509.5C 130.833,510.5 131.5,511.167 132.5,511.5C 133.716,513.451 135.382,514.951 137.5,516C 143.695,517.046 148.362,520.213 151.5,525.5C 152.167,525.167 152.833,524.833 153.5,524.5C 156.5,525.667 159.5,526.833 162.5,528C 163.071,529.205 163.738,530.372 164.5,531.5C 165.086,531.291 165.586,530.957 166,530.5C 167.646,532.569 169.813,533.902 172.5,534.5C 173.105,554.207 173.605,574.207 174,594.5C 174.71,595.973 175.876,596.64 177.5,596.5C 178.626,601.462 181.459,605.129 186,607.5C 189.313,611.388 192.146,615.721 194.5,620.5C 197.245,619.025 199.412,619.691 201,622.5C 201.197,624.861 202.364,626.528 204.5,627.5C 205.48,630.086 205.813,632.753 205.5,635.5C 207.959,635.69 209.626,634.69 210.5,632.5C 213.896,635.619 216.562,639.286 218.5,643.5C 212.545,640.88 206.212,639.547 199.5,639.5C 197.21,636.75 194.21,634.916 190.5,634C 185.706,633.653 181.04,632.82 176.5,631.5C 176.719,630.325 176.386,629.325 175.5,628.5C 173.253,627.626 170.92,627.292 168.5,627.5C 167.928,620.83 167.262,614.163 166.5,607.5C 166.532,605.241 166.866,603.075 167.5,601C 166.236,595.041 164.402,589.207 162,583.5C 160.707,572.526 159.707,561.526 159,550.5C 156.977,548.231 156.144,545.564 156.5,542.5C 155.167,542.5 153.833,542.5 152.5,542.5C 140.886,532.554 129.886,521.887 119.5,510.5C 119.461,509.417 119.127,508.417 118.5,507.5C 119,507.167 119.5,506.833 120,506.5C 122.434,507.322 124.934,507.656 127.5,507.5 Z"/></g>
<g><path style="opacity:1" fill="#f2d162" d="M 240.5,524.5 C 242.495,534.107 243.495,544.107 243.5,554.5C 239.903,551.887 238.237,548.221 238.5,543.5C 239.6,545.277 240.434,547.277 241,549.5C 241.389,541.16 241.222,532.827 240.5,524.5 Z"/></g>
<g><path style="opacity:1" fill="#e9df9e" d="M 262.5,543.5 C 262.226,551.813 260.892,559.813 258.5,567.5C 259.383,559.295 260.717,551.295 262.5,543.5 Z"/></g>
<g><path style="opacity:1" fill="#fcf0d7" d="M 484.5,447.5 C 484.833,447.5 485.167,447.5 485.5,447.5C 485.942,502.825 485.942,557.825 485.5,612.5C 486.167,614.5 486.833,616.5 487.5,618.5C 486.833,620.5 486.167,622.5 485.5,624.5C 486.167,626.5 486.833,628.5 487.5,630.5C 486.833,632.5 486.167,634.5 485.5,636.5C 486.167,638.5 486.833,640.5 487.5,642.5C 486.833,644.5 486.167,646.5 485.5,648.5C 486.167,650.5 486.833,652.5 487.5,654.5C 486.833,656.5 486.167,658.5 485.5,660.5C 486.167,662.5 486.833,664.5 487.5,666.5C 486.833,668.5 486.167,670.5 485.5,672.5C 486.167,674.5 486.833,676.5 487.5,678.5C 486.833,680.5 486.167,682.5 485.5,684.5C 486.167,686.5 486.833,688.5 487.5,690.5C 486.833,692.5 486.167,694.5 485.5,696.5C 486.167,698.5 486.833,700.5 487.5,702.5C 486.205,705.379 485.538,708.379 485.5,711.5C 486.5,711.5 487.5,711.5 488.5,711.5C 488.5,713.5 488.5,715.5 488.5,717.5C 487.5,717.5 486.5,717.5 485.5,717.5C 485.5,719.5 485.5,721.5 485.5,723.5C 486.5,723.5 487.5,723.5 488.5,723.5C 488.5,724.5 488.5,725.5 488.5,726.5C 487.5,726.5 486.5,726.5 485.5,726.5C 485.663,728.857 485.497,731.19 485,733.5C 484.517,732.552 484.351,731.552 484.5,730.5C 484.551,728.43 483.885,726.597 482.5,725C 484.88,721.577 484.88,718.077 482.5,714.5C 483.167,712.5 483.833,710.5 484.5,708.5C 483.833,706.5 483.167,704.5 482.5,702.5C 483.795,699.621 484.462,696.621 484.5,693.5C 483.5,693.5 482.5,693.5 481.5,693.5C 481.5,691.5 481.5,689.5 481.5,687.5C 482.5,687.5 483.5,687.5 484.5,687.5C 484.5,685.5 484.5,683.5 484.5,681.5C 483.5,681.5 482.5,681.5 481.5,681.5C 481.5,679.5 481.5,677.5 481.5,675.5C 482.5,675.5 483.5,675.5 484.5,675.5C 484.5,673.5 484.5,671.5 484.5,669.5C 483.5,669.5 482.5,669.5 481.5,669.5C 481.5,667.5 481.5,665.5 481.5,663.5C 482.5,663.5 483.5,663.5 484.5,663.5C 484.5,661.5 484.5,659.5 484.5,657.5C 483.5,657.5 482.5,657.5 481.5,657.5C 481.5,655.5 481.5,653.5 481.5,651.5C 482.5,651.5 483.5,651.5 484.5,651.5C 484.5,649.5 484.5,647.5 484.5,645.5C 483.5,645.5 482.5,645.5 481.5,645.5C 481.5,643.5 481.5,641.5 481.5,639.5C 482.5,639.5 483.5,639.5 484.5,639.5C 484.5,637.5 484.5,635.5 484.5,633.5C 483.5,633.5 482.5,633.5 481.5,633.5C 481.5,631.5 481.5,629.5 481.5,627.5C 482.5,627.5 483.5,627.5 484.5,627.5C 484.5,625.5 484.5,623.5 484.5,621.5C 483.5,621.5 482.5,621.5 481.5,621.5C 481.5,619.5 481.5,617.5 481.5,615.5C 482.5,615.5 483.5,615.5 484.5,615.5C 484.5,613.5 484.5,611.5 484.5,609.5C 483.5,609.5 482.5,609.5 481.5,609.5C 481.5,607.5 481.5,605.5 481.5,603.5C 482.5,603.5 483.5,603.5 484.5,603.5C 484.5,601.5 484.5,599.5 484.5,597.5C 483.167,597.5 481.833,597.5 480.5,597.5C 480.5,595.5 480.5,593.5 480.5,591.5C 481.833,591.5 483.167,591.5 484.5,591.5C 484.5,589.5 484.5,587.5 484.5,585.5C 483.167,585.5 481.833,585.5 480.5,585.5C 480.5,583.5 480.5,581.5 480.5,579.5C 481.833,579.5 483.167,579.5 484.5,579.5C 484.5,577.5 484.5,575.5 484.5,573.5C 483.167,573.5 481.833,573.5 480.5,573.5C 480.5,571.5 480.5,569.5 480.5,567.5C 481.833,567.5 483.167,567.5 484.5,567.5C 484.5,565.5 484.5,563.5 484.5,561.5C 483.167,561.5 481.833,561.5 480.5,561.5C 480.5,559.5 480.5,557.5 480.5,555.5C 481.833,555.5 483.167,555.5 484.5,555.5C 484.5,553.5 484.5,551.5 484.5,549.5C 483.167,549.5 481.833,549.5 480.5,549.5C 480.5,547.5 480.5,545.5 480.5,543.5C 481.833,543.5 483.167,543.5 484.5,543.5C 484.5,541.5 484.5,539.5 484.5,537.5C 483.167,537.5 481.833,537.5 480.5,537.5C 480.5,535.5 480.5,533.5 480.5,531.5C 481.833,531.5 483.167,531.5 484.5,531.5C 484.5,529.5 484.5,527.5 484.5,525.5C 483.167,525.5 481.833,525.5 480.5,525.5C 480.5,523.5 480.5,521.5 480.5,519.5C 481.833,519.5 483.167,519.5 484.5,519.5C 484.5,517.5 484.5,515.5 484.5,513.5C 482.833,513.5 481.167,513.5 479.5,513.5C 479.5,511.5 479.5,509.5 479.5,507.5C 481.167,507.5 482.833,507.5 484.5,507.5C 484.5,505.5 484.5,503.5 484.5,501.5C 482.833,501.5 481.167,501.5 479.5,501.5C 479.5,499.5 479.5,497.5 479.5,495.5C 481.167,495.5 482.833,495.5 484.5,495.5C 484.5,493.5 484.5,491.5 484.5,489.5C 482.833,489.5 481.167,489.5 479.5,489.5C 479.5,487.5 479.5,485.5 479.5,483.5C 481.167,483.5 482.833,483.5 484.5,483.5C 484.5,481.5 484.5,479.5 484.5,477.5C 482.833,477.5 481.167,477.5 479.5,477.5C 479.5,475.5 479.5,473.5 479.5,471.5C 481.167,471.5 482.833,471.5 484.5,471.5C 484.5,469.5 484.5,467.5 484.5,465.5C 482.833,465.5 481.167,465.5 479.5,465.5C 479.5,463.5 479.5,461.5 479.5,459.5C 481.167,459.5 482.833,459.5 484.5,459.5C 484.5,457.5 484.5,455.5 484.5,453.5C 482.833,453.5 481.167,453.5 479.5,453.5C 479.5,451.5 479.5,449.5 479.5,447.5C 481.167,447.5 482.833,447.5 484.5,447.5 Z"/></g>
<g><path style="opacity:1" fill="#f6e14d" d="M 338.5,534.5 C 338.331,539.181 337.998,543.848 337.5,548.5C 336.658,553.051 337.992,556.717 341.5,559.5C 338.881,559.768 336.381,559.435 334,558.5C 333.344,551.379 333.844,544.379 335.5,537.5C 336.41,535.981 337.243,534.315 338,532.5C 338.464,533.094 338.631,533.761 338.5,534.5 Z"/></g>
<g><path style="opacity:1" fill="#fbef49" d="M 167.5,527.5 C 172.463,528.254 177.463,528.587 182.5,528.5C 183.873,549.291 185.207,569.958 186.5,590.5C 187.833,593.833 189.167,597.167 190.5,600.5C 191.447,603.934 192.614,607.267 194,610.5C 195.896,612.53 198.063,614.197 200.5,615.5C 201.456,617.075 202.123,618.742 202.5,620.5C 201.761,620.631 201.094,620.464 200.5,620C 198.333,616.5 195.5,613.667 192,611.5C 189.047,606.214 185.047,601.88 180,598.5C 178.712,577.551 178.046,556.551 178,535.5C 177.691,534.234 177.191,533.067 176.5,532C 173.177,530.96 170.177,529.46 167.5,527.5 Z"/></g>
<g><path style="opacity:1" fill="#fbf8c7" d="M 237.5,555.5 C 239.353,562.949 240.687,570.615 241.5,578.5C 238.906,571.18 237.572,563.514 237.5,555.5 Z"/></g>
<g><path style="opacity:1" fill="#f7f190" d="M 182.5,528.5 C 183.15,528.804 183.817,529.137 184.5,529.5C 185.97,549.806 186.636,570.14 186.5,590.5C 185.207,569.958 183.873,549.291 182.5,528.5 Z"/></g>
<g><path style="opacity:1" fill="#f2c850" d="M 329.5,536.5 C 329.663,538.857 329.497,541.19 329,543.5C 325.038,546.129 322.704,549.796 322,554.5C 320.282,556.819 318.782,559.319 317.5,562C 318.54,564.277 320.374,565.444 323,565.5C 325.163,565.505 326.663,564.505 327.5,562.5C 329.111,563.32 329.778,564.654 329.5,566.5C 328.448,566.351 327.448,566.517 326.5,567C 328,568.115 329.667,568.948 331.5,569.5C 332.657,572.784 332.824,576.118 332,579.5C 328.609,584.055 324.775,588.055 320.5,591.5C 324.026,585.622 327.693,579.789 331.5,574C 331.355,573.228 331.022,572.561 330.5,572C 324.973,570.444 319.64,568.278 314.5,565.5C 314.167,564.667 313.833,563.833 313.5,563C 318.206,553.75 323.539,544.916 329.5,536.5 Z"/></g>
<g><path style="opacity:1" fill="#f8c430" d="M 335.5,537.5 C 333.844,544.379 333.344,551.379 334,558.5C 336.381,559.435 338.881,559.768 341.5,559.5C 341.281,560.675 341.614,561.675 342.5,562.5C 345.673,564.171 348.839,565.838 352,567.5C 352.175,570.157 352.008,572.824 351.5,575.5C 349.692,575.491 348.025,575.991 346.5,577C 343.073,580.353 339.406,583.186 335.5,585.5C 333.627,588.566 331.461,591.566 329,594.5C 327.989,595.337 326.822,595.67 325.5,595.5C 325.719,596.675 325.386,597.675 324.5,598.5C 321.797,600.706 319.297,603.039 317,605.5C 315.989,604.663 314.822,604.33 313.5,604.5C 313.5,606.167 313.5,607.833 313.5,609.5C 312.5,609.5 311.5,609.5 310.5,609.5C 310.34,607.801 310.506,606.134 311,604.5C 314.55,603.024 316.383,600.357 316.5,596.5C 317.08,594.251 318.413,592.585 320.5,591.5C 324.775,588.055 328.609,584.055 332,579.5C 332.824,576.118 332.657,572.784 331.5,569.5C 329.667,568.948 328,568.115 326.5,567C 327.448,566.517 328.448,566.351 329.5,566.5C 329.778,564.654 329.111,563.32 327.5,562.5C 326.663,564.505 325.163,565.505 323,565.5C 320.374,565.444 318.54,564.277 317.5,562C 318.782,559.319 320.282,556.819 322,554.5C 322.704,549.796 325.038,546.129 329,543.5C 329.497,541.19 329.663,538.857 329.5,536.5C 330.496,536.586 331.329,536.252 332,535.5C 335.973,527.672 337.14,528.339 335.5,537.5 Z"/></g>
<g><path style="opacity:1" fill="#f8e975" d="M 341.5,559.5 C 347.005,562.752 352.339,566.252 357.5,570C 356.138,572.517 354.138,574.35 351.5,575.5C 352.008,572.824 352.175,570.157 352,567.5C 348.839,565.838 345.673,564.171 342.5,562.5C 341.614,561.675 341.281,560.675 341.5,559.5 Z"/></g>
<g><path style="opacity:1" fill="#f5e848" d="M 235.5,523.5 C 237.613,529.953 238.613,536.62 238.5,543.5C 238.237,548.221 239.903,551.887 243.5,554.5C 243.5,557.5 243.5,560.5 243.5,563.5C 243.8,571.534 244.467,579.534 245.5,587.5C 245.36,593.536 245.693,599.536 246.5,605.5C 245.655,604.329 244.989,602.995 244.5,601.5C 244.344,594.578 243.344,587.911 241.5,581.5C 241.5,580.5 241.5,579.5 241.5,578.5C 240.687,570.615 239.353,562.949 237.5,555.5C 236.041,542.413 234.041,529.413 231.5,516.5C 231.337,514.143 231.503,511.81 232,509.5C 232.942,514.347 234.108,519.014 235.5,523.5 Z"/></g>
<g><path style="opacity:1" fill="#efc650" d="M 211.5,579.5 C 211.5,581.167 211.5,582.833 211.5,584.5C 210.5,584.5 209.5,584.5 208.5,584.5C 205.3,581.098 204.133,577.098 205,572.5C 206.11,570.963 207.61,570.297 209.5,570.5C 209.756,573.598 210.422,576.598 211.5,579.5 Z"/></g>
<g><path style="opacity:1" fill="#eac96d" d="M 211.5,579.5 C 213.885,585.13 216.385,590.796 219,596.5C 219.667,598.167 219.667,599.833 219,601.5C 215.244,595.928 211.744,590.261 208.5,584.5C 209.5,584.5 210.5,584.5 211.5,584.5C 211.5,582.833 211.5,581.167 211.5,579.5 Z"/></g>
<g><path style="opacity:1" fill="#fcf9c8" d="M 241.5,581.5 C 243.344,587.911 244.344,594.578 244.5,601.5C 242.656,595.089 241.656,588.422 241.5,581.5 Z"/></g>
<g><path style="opacity:1" fill="#f0c751" d="M 152.5,542.5 C 153.833,542.5 155.167,542.5 156.5,542.5C 156.144,545.564 156.977,548.231 159,550.5C 159.707,561.526 160.707,572.526 162,583.5C 164.402,589.207 166.236,595.041 167.5,601C 166.866,603.075 166.532,605.241 166.5,607.5C 167.262,614.163 167.928,620.83 168.5,627.5C 170.92,627.292 173.253,627.626 175.5,628.5C 176.386,629.325 176.719,630.325 176.5,631.5C 181.04,632.82 185.706,633.653 190.5,634C 194.21,634.916 197.21,636.75 199.5,639.5C 191.214,637.24 182.881,635.073 174.5,633C 171.982,631.498 169.482,629.998 167,628.5C 163.425,601.81 159.759,575.144 156,548.5C 154.606,546.612 153.44,544.612 152.5,542.5 Z"/></g>
<g><path style="opacity:1" fill="#f3eb57" d="M 246.5,608.5 C 248.443,610.971 249.443,613.971 249.5,617.5C 250.5,617.5 251.5,617.5 252.5,617.5C 252.666,621.514 252.499,625.514 252,629.5C 251.586,629.957 251.086,630.291 250.5,630.5C 249.824,629.398 249.158,628.398 248.5,627.5C 247.979,621.148 247.313,614.815 246.5,608.5 Z"/></g>
<g><path style="opacity:1" fill="#f3cf54" d="M 351.5,575.5 C 335.133,591.202 318.467,606.535 301.5,621.5C 300.711,621.217 300.044,620.717 299.5,620C 300.582,618.67 301.249,617.17 301.5,615.5C 306.15,608.855 311.15,602.522 316.5,596.5C 316.383,600.357 314.55,603.024 311,604.5C 310.506,606.134 310.34,607.801 310.5,609.5C 311.5,609.5 312.5,609.5 313.5,609.5C 313.5,607.833 313.5,606.167 313.5,604.5C 314.822,604.33 315.989,604.663 317,605.5C 319.297,603.039 321.797,600.706 324.5,598.5C 325.386,597.675 325.719,596.675 325.5,595.5C 326.822,595.67 327.989,595.337 329,594.5C 331.461,591.566 333.627,588.566 335.5,585.5C 339.406,583.186 343.073,580.353 346.5,577C 348.025,575.991 349.692,575.491 351.5,575.5 Z"/></g>
<g><path style="opacity:1" fill="#f9ef75" d="M 190.5,600.5 C 198.324,608.993 204.99,618.326 210.5,628.5C 209.527,628.013 208.527,627.513 207.5,627C 206.418,624.313 204.751,622.146 202.5,620.5C 202.123,618.742 201.456,617.075 200.5,615.5C 198.063,614.197 195.896,612.53 194,610.5C 192.614,607.267 191.447,603.934 190.5,600.5 Z"/></g>
<g><path style="opacity:1" fill="#e9d17a" d="M 301.5,615.5 C 301.249,617.17 300.582,618.67 299.5,620C 300.044,620.717 300.711,621.217 301.5,621.5C 296.076,626.787 290.743,632.287 285.5,638C 284.517,638.591 283.85,638.257 283.5,637C 289.157,629.503 295.157,622.336 301.5,615.5 Z"/></g>
<g><path style="opacity:1" fill="#f9f5cd" d="M 253.5,615.5 C 253.666,621.509 253.499,627.509 253,633.5C 252,634.833 251,634.833 250,633.5C 248.872,631.655 248.372,629.655 248.5,627.5C 249.158,628.398 249.824,629.398 250.5,630.5C 251.086,630.291 251.586,629.957 252,629.5C 252.499,625.514 252.666,621.514 252.5,617.5C 252.328,616.508 252.662,615.842 253.5,615.5 Z"/></g>
<g><path style="opacity:1" fill="#f4ca2d" d="M 132.5,511.5 C 144.365,516.602 156.032,521.936 167.5,527.5C 170.177,529.46 173.177,530.96 176.5,532C 177.191,533.067 177.691,534.234 178,535.5C 178.046,556.551 178.712,577.551 180,598.5C 185.047,601.88 189.047,606.214 192,611.5C 195.5,613.667 198.333,616.5 200.5,620C 201.094,620.464 201.761,620.631 202.5,620.5C 204.751,622.146 206.418,624.313 207.5,627C 208.527,627.513 209.527,628.013 210.5,628.5C 210.5,629.833 210.5,631.167 210.5,632.5C 209.626,634.69 207.959,635.69 205.5,635.5C 205.813,632.753 205.48,630.086 204.5,627.5C 202.364,626.528 201.197,624.861 201,622.5C 199.412,619.691 197.245,619.025 194.5,620.5C 192.146,615.721 189.313,611.388 186,607.5C 181.459,605.129 178.626,601.462 177.5,596.5C 175.876,596.64 174.71,595.973 174,594.5C 173.605,574.207 173.105,554.207 172.5,534.5C 169.813,533.902 167.646,532.569 166,530.5C 165.586,530.957 165.086,531.291 164.5,531.5C 163.738,530.372 163.071,529.205 162.5,528C 159.5,526.833 156.5,525.667 153.5,524.5C 152.833,524.833 152.167,525.167 151.5,525.5C 148.362,520.213 143.695,517.046 137.5,516C 135.382,514.951 133.716,513.451 132.5,511.5 Z"/></g>
<g><path style="opacity:1" fill="#efcd60" d="M 210.5,628.5 C 215.056,633.918 219.389,639.585 223.5,645.5C 221.579,646.641 219.579,646.808 217.5,646C 211.391,643.817 205.391,641.651 199.5,639.5C 206.212,639.547 212.545,640.88 218.5,643.5C 216.562,639.286 213.896,635.619 210.5,632.5C 210.5,631.167 210.5,629.833 210.5,628.5 Z"/></g>
<g><path style="opacity:1" fill="#f6f194" d="M 326.5,644.5 C 326.5,643.167 326.5,641.833 326.5,640.5C 321.818,640.338 317.485,641.505 313.5,644C 312.62,645.356 312.286,646.856 312.5,648.5C 314.5,648.5 316.5,648.5 318.5,648.5C 316.372,649.629 314.039,649.796 311.5,649C 309.941,648.02 308.274,647.187 306.5,646.5C 306.667,646.167 306.833,645.833 307,645.5C 314.063,641.535 321.563,638.868 329.5,637.5C 329.5,639.833 329.5,642.167 329.5,644.5C 328.5,644.5 327.5,644.5 326.5,644.5 Z"/></g>
<g><path style="opacity:1" fill="#f7f15f" d="M 326.5,644.5 C 324.12,646.405 321.453,647.738 318.5,648.5C 316.5,648.5 314.5,648.5 312.5,648.5C 312.286,646.856 312.62,645.356 313.5,644C 317.485,641.505 321.818,640.338 326.5,640.5C 326.5,641.833 326.5,643.167 326.5,644.5 Z"/></g>
<g><path style="opacity:1" fill="#fff3da" d="M 13.5,677.5 C 14.1667,677.5 14.8333,677.5 15.5,677.5C 16.9354,678.096 18.602,678.096 20.5,677.5C 21.7942,678.29 22.9609,679.29 24,680.5C 25.2434,688.777 23.5767,696.444 19,703.5C 17.0624,704.86 15.3957,704.527 14,702.5C 10.1154,695.629 8.7821,688.295 10,680.5C 10.4224,678.574 11.5891,677.574 13.5,677.5 Z"/></g>
<g><path style="opacity:1" fill="#fff3da" d="M 500.5,676.5 C 500.369,677.376 500.702,678.043 501.5,678.5C 502.736,677.754 504.07,677.421 505.5,677.5C 506.794,678.29 507.961,679.29 509,680.5C 510.243,688.777 508.577,696.444 504,703.5C 503.439,704.022 502.772,704.355 502,704.5C 500.233,703.66 498.899,702.327 498,700.5C 494.907,694.151 493.907,687.485 495,680.5C 496.147,678.181 497.981,676.848 500.5,676.5 Z"/></g>
<g><path style="opacity:1" fill="#ffbf34" d="M 14.5,680.5 C 16.4672,680.261 18.3005,680.594 20,681.5C 21.0341,687.527 20.0341,693.194 17,698.5C 12.8824,692.77 12.0491,686.77 14.5,680.5 Z"/></g>
<g><path style="opacity:1" fill="#ffc035" d="M 499.5,680.5 C 501.467,680.261 503.301,680.594 505,681.5C 506.162,687.557 505.162,693.223 502,698.5C 497.882,692.77 497.049,686.77 499.5,680.5 Z"/></g>
</svg>
