<?xml version="1.0" encoding="utf-8"?>
<!-- Generator: Adobe Illustrator 23.0.5, SVG Export Plug-In . SVG Version: 6.00 Build 0)  -->
<svg version="1.1" id="Capa_1" xmlns="http://www.w3.org/2000/svg" xmlns:xlink="http://www.w3.org/1999/xlink" x="0px" y="0px"
	 viewBox="0 0 560 288" style="enable-background:new 0 0 560 288;" xml:space="preserve">
<style type="text/css">
	.st0{fill:#FEFEFE;}
	.st1{fill:#5CE0E5;}
	.st2{fill:#FCFCFC;}
	.st3{fill:#5BDFE4;}
</style>
<g>
	<g>
		<path class="st0" d="M282.15,270.06c-70.17,0-140.34,0-210.5,0.02c-0.79,0-0.97-0.18-0.97-0.97c0.02-75.41,0.02-150.82,0-226.23
			c0-0.79,0.18-0.97,0.97-0.97c140.41,0.02,280.81,0.02,421.22,0c0.79,0,0.97,0.18,0.97,0.97c-0.02,75.41-0.02,150.82,0,226.23
			c0,0.79-0.18,0.97-0.97,0.97C422.63,270.06,352.39,270.06,282.15,270.06z"/>
		<path class="st1" d="M251.98,183.78c-3.93-0.28-7.3-1.82-10-4.67c-1.98-2.1-3.5-4.53-4.13-7.41c-0.09-0.4-0.05-0.83-0.06-1.25
			c-0.11-1.19-0.1-2.37,0-3.56c0.23-3.2,1.83-5.75,3.84-8.1c2.56-2.99,5.93-4.4,9.71-5.03c0.35-0.16,0.75,0.04,1.09-0.16
			c5.48,0.01,10.95,0.02,16.43,0.02c9.62,0,19.24-0.01,28.86-0.02c0.34,0.2,0.74,0,1.09,0.16c2.77,0.43,5.33,1.39,7.58,3.08
			c3.29,2.48,5.35,5.74,5.98,9.85c0.16,0.34-0.05,0.74,0.16,1.08c0,0.68,0,1.36,0,2.04c-0.21,0.34,0,0.74-0.16,1.08
			c-0.43,2.02-0.94,4.03-2.13,5.75c-2.87,4.14-6.79,6.61-11.85,7.18c-0.31,0.11-0.63,0.06-0.94,0.06c-14.84,0-29.68,0-44.52,0
			C252.61,183.85,252.29,183.9,251.98,183.78z"/>
		<path class="st2" d="M251.98,183.78c9.07,0,18.14-0.01,27.21-0.01c6.4,0,12.8,0.01,19.19,0.02c-0.33,0.29-0.74,0.17-1.11,0.17
			c-14.73,0.01-29.45,0.01-44.18,0C252.72,183.96,252.31,184.09,251.98,183.78z"/>
		<path class="st2" d="M237.8,166.88c0,1.19,0,2.37,0,3.56C237.51,169.26,237.51,168.07,237.8,166.88z"/>
		<path class="st2" d="M252.44,153.59c-0.34,0.22-0.72,0.16-1.09,0.16C251.68,153.44,252.07,153.61,252.44,153.59z"/>
		<path class="st2" d="M298.81,153.75c-0.37,0-0.75,0.07-1.09-0.16C298.09,153.61,298.48,153.45,298.81,153.75z"/>
		<path class="st2" d="M312.53,167.75c-0.23-0.33-0.17-0.71-0.16-1.08C312.66,166.99,312.5,167.39,312.53,167.75z"/>
		<path class="st2" d="M312.37,170.86c-0.01-0.37-0.07-0.75,0.16-1.08C312.5,170.15,312.66,170.54,312.37,170.86z"/>
		<path d="M263.98,175.97c-2.36,0-4.71,0.01-7.07-0.01c-0.34,0-0.86,0.24-0.95-0.35c-0.1-0.63,0.44-0.49,0.79-0.54
			c1-0.14,1.07-0.91,1.08-1.66c0.02-2.25,0.01-4.5,0.01-6.75c0-0.63,0-1.27-0.02-1.9c-0.03-0.84-0.35-1.43-1.3-1.45
			c-0.3-0.01-0.58-0.02-0.58-0.43c0-0.46,0.33-0.46,0.66-0.46c3.02,0.01,6.05,0.03,9.07,0.03c0.58,0,0.83,0.25,0.83,0.82
			c0,0.81,0.01,1.62,0.04,2.43c0.01,0.38-0.14,0.63-0.5,0.67c-0.39,0.05-0.66-0.12-0.77-0.55c-0.21-0.82-0.14-1.76-1.13-2.21
			c-1.19-0.54-2.42-0.23-3.64-0.29c-0.36-0.02-0.34,0.29-0.34,0.53c0,1.44,0.01,2.88-0.01,4.33c-0.01,0.48,0.19,0.59,0.63,0.58
			c0.95-0.02,1.9,0.01,2.85-0.02c0.43-0.01,0.76,0.17,0.74,0.54c-0.02,0.31-0.42,0.37-0.76,0.37c-0.91-0.02-1.83,0.01-2.74-0.01
			c-0.46-0.01-0.73,0.07-0.71,0.62c0.03,1.19,0.02,2.39,0.02,3.59c0,0.83,0.43,1.22,1.24,1.24c0.53,0.01,1.05,0.01,1.58,0.01
			c2.12,0,2.21-0.07,2.96-2.07c0.16-0.42,0.32-0.8,0.88-0.68c0.61,0.13,0.51,0.56,0.41,0.99c-0.05,0.24-0.11,0.49-0.09,0.73
			c0.03,0.34-0.44,0.8,0.08,0.99c0.5,0.18,0.97-0.11,1.24-0.58c0.49-0.87,1-1.74,1.41-2.65c1.01-2.28,1.96-4.58,2.92-6.88
			c0.46-1.11,0.37-1.3-0.77-1.66c-0.31-0.1-0.68-0.12-0.61-0.56c0.07-0.44,0.47-0.35,0.76-0.36c2.08-0.09,2.92,0.44,3.73,2.39
			c0.87,2.11,1.76,4.21,2.56,6.34c0.42,1.11,1.06,2.1,1.56,3.17c0.22,0.47,0.57,0.8,1.13,0.82c0.33,0.01,0.55,0.13,0.51,0.5
			c-0.03,0.31-0.26,0.39-0.53,0.39c-1.62,0-3.24,0-4.85,0c-0.26,0-0.49-0.05-0.52-0.38c-0.03-0.36,0.16-0.45,0.5-0.51
			c1.32-0.24,1.39-0.37,0.93-1.63c-0.63-1.76-0.63-1.76-2.47-1.76c-0.77,0-1.55-0.03-2.32,0.01c-0.5,0.03-1.16-0.3-1.47,0.22
			c-0.46,0.78-0.86,1.65-0.84,2.57c0.01,0.71,0.69,0.54,1.14,0.6c0.35,0.05,0.87-0.13,0.81,0.51c-0.05,0.53-0.51,0.37-0.83,0.37
			C268.82,175.97,266.4,175.97,263.98,175.97z"/>
		<path d="M288.33,172.86c1.3-2.86,2.32-5.7,3.27-8.57c0.24-0.71-0.12-0.97-0.78-0.98c-0.3-0.01-0.68,0.07-0.68-0.42
			c0-0.55,0.42-0.46,0.76-0.45c4.5,0.01,9,0.03,13.5,0.02c0.7,0,1.05,0.18,1.02,0.95c-0.03,0.74,0.03,1.48,0.06,2.21
			c0.02,0.4-0.09,0.72-0.53,0.77c-0.44,0.04-0.86-0.01-0.95-0.58c-0.04-0.24-0.08-0.48-0.14-0.72c-0.32-1.35-0.81-1.74-2.21-1.76
			c-0.67-0.01-1.34,0.03-2-0.01c-0.56-0.03-0.83,0.09-0.81,0.74c0.05,1.33,0.04,2.67,0,4.01c-0.01,0.55,0.14,0.75,0.71,0.72
			c0.98-0.04,1.97-0.01,2.95-0.01c0.36,0,0.76-0.01,0.73,0.51c-0.03,0.47-0.43,0.38-0.73,0.38c-0.98,0.01-1.97,0.02-2.95,0
			c-0.45-0.01-0.73,0.06-0.71,0.62c0.03,1.16,0.01,2.32,0.02,3.48c0.01,0.92,0.5,1.33,1.39,1.34c0.42,0.01,0.85-0.04,1.26,0.02
			c1.8,0.24,2.95-0.49,3.44-2.24c0.11-0.4,0.36-0.58,0.78-0.52c0.47,0.07,0.53,0.39,0.48,0.78c-0.01,0.07-0.01,0.14-0.02,0.21
			c-0.6,3.18,0.13,2.56-2.91,2.61c-2.53,0.04-5.06,0.03-7.59,0.03c-0.33,0-0.78,0.13-0.83-0.39c-0.06-0.54,0.39-0.46,0.73-0.5
			c0.76-0.08,1.12-0.52,1.12-1.26c0-3.06,0-6.12,0-9.18c0-0.94-0.52-1.3-1.4-1.34c-1.78-0.08-2.32,0.25-2.93,1.91
			c-0.68,1.84-1.37,3.68-2.01,5.54c-0.57,1.68-1.54,3.2-1.99,4.92c-0.09,0.36-0.29,0.5-0.67,0.49c-0.38,0-0.57-0.15-0.69-0.49
			c-0.27-0.8-0.6-1.57-0.85-2.38c-0.9-2.87-2.32-5.53-3.29-8.37c-0.28-0.82-0.74-1.53-1.71-1.66c-0.27-0.04-0.48-0.17-0.45-0.48
			c0.03-0.39,0.34-0.38,0.62-0.4c1.64-0.11,3.43,0.72,4.03,2.51C286.27,167.55,287.32,170.16,288.33,172.86z"/>
		<path d="M249.76,175.97c-1.51,0-3.02,0.01-4.53,0c-0.32,0-0.77,0.17-0.84-0.36c-0.07-0.54,0.36-0.49,0.7-0.52
			c0.77-0.06,1.15-0.52,1.15-1.25c0.02-3.09,0.02-6.18,0-9.28c0-0.8-0.48-1.21-1.27-1.25c-0.35-0.01-0.65-0.05-0.59-0.52
			c0.05-0.39,0.35-0.37,0.64-0.37c1.58,0,3.16,0,4.74,0c0.31,0,0.67-0.06,0.72,0.4c0.05,0.47-0.31,0.48-0.63,0.48
			c-1.14,0.01-1.49,0.66-1.48,1.71c0.03,2.85,0,5.69,0.01,8.54c0.01,1.2,0.3,1.48,1.49,1.53c0.53,0.02,1.06-0.03,1.58,0.01
			c1.34,0.12,2.28-0.34,2.58-1.73c0.07-0.34,0.38-0.47,0.51-0.77c0.15-0.36,0.52-0.33,0.82-0.22c0.31,0.11,0.4,0.37,0.33,0.68
			c-0.01,0.07-0.03,0.14-0.04,0.21c-0.37,2.67-0.37,2.67-3.06,2.67c-0.95,0-1.9,0-2.85,0C249.76,175.95,249.76,175.96,249.76,175.97
			z"/>
		<path class="st3" d="M273.63,165.37c1.06,1.52,1.55,3.11,2.18,4.64c0.19,0.47,0.28,0.77-0.43,0.75c-1.09-0.04-2.17-0.03-3.26,0
			c-0.55,0.01-0.69-0.13-0.46-0.66C272.32,168.55,272.95,167,273.63,165.37z"/>
	</g>
</g>
</svg>
