<?xml version="1.0" encoding="utf-8"?>
<!-- Generator: Adobe Illustrator 23.0.5, SVG Export Plug-In . SVG Version: 6.00 Build 0)  -->
<svg version="1.1" id="Capa_1" xmlns="http://www.w3.org/2000/svg" xmlns:xlink="http://www.w3.org/1999/xlink" x="0px" y="0px"
	 viewBox="0 0 560 288" style="enable-background:new 0 0 560 288;" xml:space="preserve">
<style type="text/css">
	.st0{fill:#FEFEFE;}
	.st1{fill:#FEA7AC;}
	.st2{fill:#FCFCFC;}
</style>
<g>
	<g>
		<path class="st0" d="M287.94,278.39c-76.56,0-153.12,0-229.68,0.02c-0.9,0-1.1-0.2-1.1-1.1c0.02-86.33,0.02-172.66,0-258.99
			c0-0.9,0.2-1.1,1.1-1.1c153.12,0.02,306.24,0.02,459.35,0c0.9,0,1.1,0.2,1.1,1.1c-0.02,86.33-0.02,172.66,0,258.99
			c0,0.9-0.2,1.1-1.1,1.1C441.06,278.39,364.5,278.39,287.94,278.39z"/>
		<path class="st1" d="M361.37,171.47c-0.96,6.34-4.08,11.27-9.31,15.05c-3.04,2.2-6.31,3.37-9.96,3.74
			c-0.43,0.16-0.87,0.08-1.31,0.08c-35.4,0-70.8,0-106.19,0c-0.44,0-0.88,0.08-1.31-0.08c-2.89-0.2-5.65-0.92-8.12-2.44
			c-5.64-3.47-9.48-8.3-10.84-14.91c-0.08-0.39-0.05-0.79-0.07-1.19c-0.23-0.46,0.07-1-0.2-1.46c0-2.7,0-5.41,0-8.11
			c0.27-0.46-0.03-0.99,0.2-1.46c0.33-3.98,2.07-7.37,4.41-10.49c3.83-5.1,9.06-7.58,15.33-8.05c0.43-0.16,0.87-0.08,1.31-0.08
			c34.75,0,69.51,0,104.26,0c0.44,0,0.88-0.08,1.31,0.08c10.93,0.43,18.86,8.28,20.47,18.79c0.23,0.55-0.08,1.15,0.2,1.69
			c0,2.39,0,4.77,0,7.16C361.28,170.31,361.6,170.92,361.37,171.47z"/>
		<path class="st2" d="M233.29,190.25c0.6-0.01,1.2-0.03,1.8-0.03c35.31,0,70.62,0,105.93,0c0.36,0,0.72,0.02,1.08,0.03
			c-0.37,0.36-0.84,0.2-1.26,0.2c-35.43,0.01-70.86,0.01-106.29,0C234.13,190.45,233.67,190.6,233.29,190.25z"/>
		<path class="st2" d="M340.9,142.14c-0.32,0.01-0.64,0.03-0.96,0.03c-34.99,0-69.98,0-104.96,0c-0.32,0-0.64-0.02-0.96-0.03
			c0.37-0.35,0.84-0.2,1.26-0.2c34.79-0.01,69.57-0.01,104.36,0C340.06,141.94,340.52,141.78,340.9,142.14z"/>
		<path class="st2" d="M361.56,162.62c-0.36-0.53-0.16-1.13-0.2-1.69C361.77,161.45,361.5,162.05,361.56,162.62z"/>
		<path class="st2" d="M361.37,171.47c0.03-0.57-0.17-1.16,0.2-1.69C361.5,170.34,361.77,170.94,361.37,171.47z"/>
		<path class="st2" d="M214.27,160.68c-0.02,0.49,0.15,1.01-0.2,1.46C214.13,161.65,213.88,161.12,214.27,160.68z"/>
		<path class="st2" d="M214.07,170.25c0.34,0.45,0.18,0.96,0.2,1.46C213.88,171.27,214.13,170.74,214.07,170.25z"/>
		<path d="M227.19,166.91c0.06-5.91,4.54-10.61,10.03-10.52c5.62,0.1,9.81,4.52,9.75,10.29c-0.06,5.78-4.56,10.48-10.01,10.47
			C231.37,177.13,227.13,172.7,227.19,166.91z"/>
		<path d="M311.94,166.78c-0.2,6.94-6.28,11.73-12.7,9.99c-4.42-1.2-7.31-5.46-7.08-10.45c0.31-6.73,6.55-11.34,12.86-9.5
			C309.26,158.06,312.07,162.11,311.94,166.78z"/>
		<path d="M329.3,171.22c0-3.9,0.02-7.6-0.01-11.3c-0.01-1.1-0.68-1.66-1.79-1.65c-0.49,0.01-0.92-0.06-0.89-0.68
			c0.03-0.59,0.45-0.67,0.95-0.63c1.72,0.12,3.44,0.11,5.16,0c0.45-0.03,0.79,0.09,0.81,0.63c0.02,0.54-0.3,0.63-0.76,0.69
			c-1.58,0.19-1.91,0.55-1.92,2.28c-0.03,4.8-0.02,9.6-0.06,14.4c0,0.53,0.37,1.29-0.41,1.58c-0.86,0.31-1.29-0.36-1.73-0.95
			c-3.68-4.93-7.37-9.85-11.06-14.8c-0.36,0.28-0.19,0.62-0.19,0.91c0,3.68,0,7.36,0.04,11.04c0.02,2.01,0.15,2.16,2.15,2.56
			c0.38,0.08,0.59,0.24,0.6,0.6c0.01,0.42-0.2,0.68-0.65,0.68c-1.88,0-3.76,0-5.64,0c-0.45,0-0.65-0.24-0.64-0.68
			c0.01-0.38,0.19-0.53,0.58-0.6c1.95-0.39,2.09-0.55,2.1-2.48c0.03-4.04,0.04-8.08,0.04-12.12c0-1.77-0.23-2.03-1.92-2.49
			c-0.41-0.11-0.94-0.13-0.88-0.76c0.06-0.6,0.53-0.59,0.99-0.61c2.7-0.12,4.88,0.75,6.53,3.03c2.51,3.46,5.16,6.83,7.75,10.23
			C328.68,170.43,328.94,170.75,329.3,171.22z"/>
		<path d="M340.77,177.18c-1.37-0.12-2.72-0.26-3.96-0.9c-1.57-0.81-2.35-2.23-2.15-3.93c0.18-1.58,2-2.7,3.39-2.05
			c0.41,0.19,1.04,0.39,0.35,1.1c-1.26,1.3-0.79,3.45,0.89,4.15c1.15,0.48,2.36,0.47,3.53,0.13c1.37-0.39,2.32-1.28,2.61-2.71
			c0.29-1.4-0.33-2.49-1.41-3.35c-0.82-0.65-1.78-1.05-2.72-1.51c-1.22-0.6-2.47-1.15-3.63-1.85c-2.11-1.27-2.95-3.17-2.55-5.61
			c0.37-2.29,1.93-3.41,4.01-3.93c2.28-0.57,4.53-0.48,6.64,0.68c1.43,0.79,2.04,2.2,1.65,3.64c-0.36,1.31-2.02,2.2-3.24,1.71
			c-0.3-0.12-0.59-0.29-0.7-0.61c-0.12-0.33,0.22-0.36,0.38-0.49c1.43-1.1,1.25-2.82-0.38-3.61c-1.62-0.79-4.12-0.28-5.05,1.02
			c-0.86,1.2-0.66,2.87,0.47,3.91c0.84,0.77,1.87,1.22,2.87,1.72c1.07,0.53,2.18,1.01,3.22,1.58c2.69,1.49,3.88,3.64,3.44,6.13
			c-0.4,2.29-2.57,4.15-5.4,4.58C342.29,177.1,341.53,177.12,340.77,177.18z"/>
		<path d="M264.78,162.42c0.13,3.47-3.11,5.99-6.44,6.42c-1.2,0.16-2.4,0.15-3.57-0.17c-0.51-0.14-0.83-0.16-0.81,0.54
			c0.05,1.4,0.01,2.8,0.05,4.2c0.04,1.17,0.62,1.87,1.86,1.88c0.46,0,0.95,0.02,0.92,0.65c-0.03,0.69-0.57,0.64-1.06,0.63
			c-2.16-0.01-4.32-0.01-6.48,0c-0.49,0-1.02,0.08-1.06-0.63c-0.04-0.65,0.45-0.64,0.91-0.65c1.23-0.03,1.83-0.7,1.84-1.89
			c0.03-2.8,0.05-5.6,0.05-8.4c0-1.68-0.04-3.36-0.08-5.04c-0.03-1.11-0.64-1.67-1.75-1.7c-0.49-0.01-1.04,0.02-0.96-0.71
			c0.07-0.7,0.61-0.6,1.09-0.59c2.68,0.03,5.36,0.06,8.04,0.08c1.75,0.01,3.41,0.4,4.98,1.14c1.23,0.58,2.07,1.48,2.23,2.89
			C264.86,161.48,265,161.92,264.78,162.42z"/>
		<path d="M264.78,162.42c-0.24-0.42-0.31-0.87-0.25-1.34c0.52-0.88,0.24-1.85,0.29-2.78c0.05-0.88,0.31-1.28,1.28-1.28
			c4.76,0.04,9.52,0.03,14.28,0c0.84,0,1.26,0.23,1.24,1.15c-0.02,1.16,0.06,2.32,0.12,3.48c0.03,0.54-0.08,1-0.69,1.05
			c-0.6,0.05-1.13-0.09-1.19-0.85c-0.01-0.16-0.05-0.31-0.09-0.47c-0.62-2.87-1.38-3.42-4.31-3.21c-0.52,0.04-0.68,0.19-0.68,0.7
			c0.02,4.84,0,9.68,0.04,14.52c0.01,1.33,0.46,1.75,1.8,1.9c0.46,0.05,0.91,0.02,0.89,0.67c-0.02,0.64-0.48,0.62-0.94,0.62
			c-2.24,0-4.48,0-6.72,0c-0.42,0-0.83,0-0.88-0.56c-0.06-0.61,0.31-0.68,0.82-0.74c1.46-0.15,1.88-0.59,1.89-2.08
			c0.03-4.76,0.01-9.52,0.03-14.28c0-0.56-0.14-0.81-0.73-0.76c-0.52,0.05-1.04,0.02-1.56,0.03c-1.31,0.01-2.07,0.71-2.42,1.92
			c-0.12,0.42-0.23,0.85-0.31,1.28C266.45,162.77,266.07,162.98,264.78,162.42z"/>
		<path d="M288.09,166.67c0,2.04-0.02,4.08,0.01,6.13c0.02,1.66,0.36,2.53,2.12,2.51c0.43-0.01,0.7,0.18,0.69,0.63
			c-0.01,0.43-0.26,0.65-0.69,0.65c-2.4,0-4.8,0-7.2,0c-0.41,0-0.7-0.16-0.72-0.62c-0.02-0.45,0.23-0.59,0.65-0.67
			c1.84-0.33,2.11-0.57,2.13-2.37c0.04-4.12,0.05-8.25-0.01-12.37c-0.02-1.74-0.35-2.02-2.08-2.28c-0.41-0.06-0.7-0.15-0.7-0.63
			c0-0.52,0.3-0.72,0.77-0.69c2.36,0.13,4.72,0.12,7.08,0c0.47-0.02,0.78,0.2,0.76,0.71c-0.01,0.46-0.32,0.55-0.73,0.61
			c-1.76,0.26-2.05,0.58-2.08,2.4C288.07,162.67,288.09,164.67,288.09,166.67z"/>
		<path class="st1" d="M230.8,166.39c-0.01-1.59,0.29-3.52,1.15-5.32c0.95-1.99,2.43-3.21,4.73-3.32c2.38-0.11,4.1,0.94,5.23,2.96
			c1.54,2.75,1.63,5.72,1.11,8.75c-0.22,1.27-0.61,2.48-1.3,3.59c-2.33,3.74-7.18,3.72-9.47-0.04
			C231.1,171.09,230.79,168.97,230.8,166.39z"/>
		<path class="st1" d="M308.28,166.19c-0.02,2.62-0.35,4.69-1.42,6.6c-1.05,1.89-2.61,2.99-4.83,3c-2.22,0.01-3.9-1.01-4.85-2.95
			c-2.08-4.23-2.04-8.54,0.29-12.64c1.69-2.97,5.87-3.36,8.3-0.95C307.82,161.29,308.24,163.92,308.28,166.19z"/>
		<path class="st1" d="M254,163.3c0-1.16-0.02-2.32,0.01-3.48c0.03-1.1,0.58-1.71,1.74-1.63c0.32,0.02,0.64,0.02,0.96,0.04
			c3.03,0.22,4.53,1.56,4.65,4.13c0.13,2.8-1.42,4.65-4.29,5.11c-0.51,0.08-1.03,0.07-1.55,0.08c-1.17,0.02-1.74-0.45-1.56-1.73
			c0.12-0.82,0.02-1.68,0.02-2.52C253.99,163.3,254,163.3,254,163.3z"/>
	</g>
</g>
</svg>
