<?xml version="1.0" encoding="utf-8"?>
<!-- Generator: Adobe Illustrator 23.0.5, SVG Export Plug-In . SVG Version: 6.00 Build 0)  -->
<svg version="1.1" id="Capa_1" xmlns="http://www.w3.org/2000/svg" xmlns:xlink="http://www.w3.org/1999/xlink" x="0px" y="0px"
	 viewBox="0 0 560 288" style="enable-background:new 0 0 560 288;" xml:space="preserve">
<style type="text/css">
	.st0{fill:#FEFEFE;}
	.st1{fill:#85BBE3;}
	.st2{fill:#FCFCFC;}
	.st3{fill:#000001;}
	.st4{fill:#85BBE2;}
</style>
<g>
	<g>
		<path class="st0" d="M286.95,297.9c-90.12,0-180.23,0-270.35,0.03c-1.18,0-1.36-0.28-1.36-1.39c0.03-101.47,0.03-202.95,0-304.42
			c0-1.13,0.2-1.39,1.36-1.39c180.18,0.03,360.37,0.03,540.55,0c1.24,0,1.43,0.31,1.43,1.46c-0.03,101.47-0.03,202.95,0,304.42
			c0,1.04-0.2,1.31-1.29,1.31C467.18,297.9,377.06,297.9,286.95,297.9z"/>
		<path class="st1" d="M369.12,166.09c-0.82,5.95-3.2,11.19-7.48,15.41c-5.02,4.95-10.97,7.83-18.21,7.82
			c-46.42-0.04-92.84-0.03-139.26,0c-4.7,0-9.15-0.91-13.06-3.49c-6.44-4.25-10.97-9.98-12.3-17.77c-1.34-7.82,0.28-15.01,5.3-21.24
			c4.35-5.4,10.09-8.48,17-9.32c0.55-0.25,1.18,0.08,1.72-0.22c0.38,0.01,0.75,0.03,1.13,0.03c46.54,0,93.09,0,139.63,0
			c0.38,0,0.75-0.02,1.13-0.03c0.54,0.31,1.17-0.02,1.72,0.22c10.44,1.64,17.58,7.39,21.42,17.24c0.68,1.75,0.89,3.62,1.27,5.45
			C369.27,162.15,369.26,164.12,369.12,166.09z"/>
		<path class="st2" d="M369.12,166.09c0-1.97-0.01-3.94-0.01-5.91C369.52,162.15,369.51,164.12,369.12,166.09z"/>
		<path class="st2" d="M202.82,137.28c-0.54,0.38-1.14,0.22-1.72,0.22C201.62,137.06,202.24,137.33,202.82,137.28z"/>
		<path class="st2" d="M346.43,137.5c-0.58,0-1.18,0.16-1.72-0.22C345.28,137.33,345.9,137.06,346.43,137.5z"/>
		<path d="M242.5,168.76c1.99-4.9,3.9-9.51,5.73-14.15c0.33-0.84,0.72-1.18,1.63-1.13c1.22,0.06,2.45-0.02,3.67-0.06
			c0.54-0.02,1.13-0.06,1.17,0.66c0.04,0.65-0.5,0.69-0.99,0.7c-1.25,0.04-1.74,0.78-1.74,1.94c0,4.43,0,8.86,0,13.29
			c0,1.2,0.58,1.84,1.78,1.93c0.48,0.04,1.03,0.03,0.95,0.73c-0.08,0.67-0.64,0.56-1.1,0.56c-2.17,0-4.34,0-6.5,0
			c-0.48,0-1,0.04-1.02-0.65c-0.02-0.63,0.49-0.61,0.9-0.63c1.58-0.09,1.89-1.14,1.89-2.45c0-3.96,0-7.92,0-11.99
			c-0.55,0.33-0.6,0.87-0.77,1.3c-1.82,4.44-3.61,8.89-5.41,13.33c-0.2,0.49-0.24,1.19-1.02,1.15c-0.66-0.03-0.75-0.64-0.95-1.09
			c-2.08-4.69-4.15-9.38-6.23-14.06c-0.09-0.2-0.21-0.39-0.39-0.7c0,4.4-0.01,8.65,0.01,12.9c0,1.14,0.76,1.52,1.76,1.61
			c0.41,0.04,0.9-0.01,0.88,0.63c-0.01,0.71-0.53,0.65-1.01,0.65c-4.33,0-8.67,0-13,0c-0.48,0-0.99,0.04-1-0.66
			c-0.01-0.64,0.49-0.56,0.9-0.63c1.72-0.3,1.86-0.56,1.29-2.24c-0.94-2.75-0.94-2.75-3.88-2.75c-1.18,0-2.37,0.11-3.53-0.03
			c-1.19-0.14-1.72,0.37-1.98,1.41c-0.1,0.41-0.3,0.79-0.43,1.19c-0.65,2.05-0.55,2.21,1.6,2.42c0.45,0.05,1.02-0.07,0.98,0.67
			c-0.04,0.72-0.59,0.6-1.05,0.6c-1.79,0.01-3.58,0-5.37,0c-0.48,0-0.99,0.07-1.01-0.65c-0.02-0.64,0.46-0.61,0.88-0.63
			c1.05-0.05,1.6-0.71,1.97-1.58c1.93-4.55,3.85-9.1,5.78-13.64c0.46-1.09,0.1-1.69-1.02-1.97c-0.49-0.12-1.29-0.05-1.09-0.93
			c0.16-0.73,0.83-0.44,1.3-0.47c2.38-0.14,3.9,0.98,4.77,3.18c1.79,4.5,3.63,8.98,5.49,13.45c0.77,1.84,1.74,2.28,3.68,1.91
			c0.93-0.18,1.43-0.71,1.44-1.63c0.03-4.57,0.05-9.14,0.05-13.71c0-1.15-0.73-1.64-1.78-1.84c-0.42-0.08-1.06-0.07-1.01-0.74
			c0.05-0.77,0.7-0.61,1.19-0.62c3.76-0.09,5.09,0.76,6.63,4.24C239.16,161.24,240.78,164.89,242.5,168.76z"/>
		<path d="M284.05,153.42c1.98,0.09,3.97-0.05,5.91,0.36c5.08,1.06,8.19,4.9,8.08,9.91c-0.11,4.74-3.42,8.35-8.52,9.21
			c-3.46,0.59-6.96,0.12-10.43,0.33c-0.39,0.02-0.76-0.03-0.82-0.55c-0.07-0.6,0.31-0.72,0.78-0.72c1.56-0.03,1.98-1.03,1.99-2.35
			c0.01-4.19,0.02-8.38-0.01-12.57c-0.01-1.32-0.43-2.34-2.03-2.26c-0.44,0.02-0.74-0.15-0.73-0.64c0.01-0.56,0.35-0.71,0.84-0.7
			C280.75,153.43,282.4,153.42,284.05,153.42z"/>
		<path d="M340.53,162.81c1.19-0.42,1.95-1.13,2.7-1.81c1.57-1.43,2.96-3.04,4.31-4.67c0.46-0.56,1.19-1.25-0.26-1.57
			c-0.38-0.08-0.42-0.48-0.34-0.82c0.09-0.38,0.36-0.51,0.74-0.51c1.93,0,3.86,0,5.79-0.01c0.46,0,0.73,0.24,0.76,0.66
			c0.04,0.54-0.3,0.73-0.81,0.71c-1.96-0.05-3.38,0.98-4.66,2.31c-1.4,1.46-2.79,2.94-4.22,4.38c-0.51,0.51-0.52,0.86-0.04,1.4
			c2.48,2.78,5.13,5.4,7.76,8.03c0.58,0.59,1.29,0.94,2.11,1.04c0.42,0.06,0.73,0.22,0.7,0.7c-0.04,0.49-0.38,0.59-0.8,0.58
			c-1.27-0.02-2.54-0.07-3.82-0.04c-0.64,0.01-0.9-0.43-1.24-0.8c-2.13-2.39-4.24-4.8-6.37-7.2c-0.59-0.67-1.17-1.35-2.26-1.54
			c0,2.3-0.05,4.53,0.02,6.76c0.03,1.1,0.86,1.48,1.86,1.54c0.44,0.03,0.89,0.06,0.84,0.68c-0.05,0.58-0.49,0.6-0.93,0.6
			c-2.26,0-4.52-0.01-6.78,0c-0.46,0-0.88-0.05-0.92-0.61c-0.04-0.61,0.43-0.65,0.86-0.67c1.46-0.07,1.91-0.94,1.9-2.27
			c-0.02-4.24-0.01-8.48-0.01-12.72c0-1.32-0.45-2.21-1.94-2.19c-0.5,0.01-0.87-0.17-0.82-0.72c0.04-0.52,0.43-0.65,0.92-0.64
			c2.26,0.01,4.52,0.01,6.78,0c0.46,0,0.88,0.07,0.94,0.61c0.07,0.68-0.43,0.74-0.93,0.75c-1.34,0.01-1.81,0.83-1.83,2.02
			C340.51,158.73,340.53,160.66,340.53,162.81z"/>
		<path d="M202.29,173.77c-1.63,0.02-3.12-0.17-4.48-0.89c-1.51-0.8-2.27-2.22-2.1-3.84c0.18-1.65,2.01-2.82,3.41-2.14
			c0.56,0.27,0.94,0.5,0.28,1.21c-1.23,1.32-0.6,3.53,1.12,4.15c1.28,0.46,2.59,0.46,3.86-0.09c2.57-1.1,3.03-4.01,0.91-5.82
			c-1.05-0.9-2.35-1.36-3.57-1.97c-1.1-0.54-2.23-1.04-3.24-1.72c-1.89-1.27-2.67-3.07-2.32-5.37c0.34-2.26,1.79-3.45,3.85-4.02
			c2.45-0.68,4.86-0.56,7.1,0.75c1.33,0.78,1.91,2.35,1.42,3.65c-0.45,1.21-1.38,1.73-2.65,1.7c-0.5-0.01-0.99-0.12-1.21-0.58
			c-0.29-0.61,0.42-0.59,0.67-0.83c0.84-0.8,0.81-2.17-0.12-2.99c-1.45-1.29-4.63-0.94-5.74,0.64c-0.88,1.24-0.61,3.01,0.65,4.05
			c1.1,0.91,2.42,1.43,3.7,2.04c1.19,0.57,2.4,1.1,3.46,1.9c3.47,2.58,3.09,7.3-0.75,9.26
			C205.19,173.54,203.73,173.84,202.29,173.77z"/>
		<path d="M306.83,173.23c-2.17,0-4.33,0-6.5,0c-0.49,0-1,0.01-1.02-0.65c-0.02-0.61,0.48-0.61,0.91-0.63c1.48-0.08,1.86-1,1.86-2.3
			c-0.02-4.19-0.01-8.39,0-12.58c0-1.36-0.4-2.33-1.99-2.29c-0.43,0.01-0.77-0.14-0.78-0.61c-0.01-0.52,0.3-0.75,0.81-0.74
			c4.33,0.04,8.67,0.07,13,0.1c0.7,0.01,1.02,0.37,1.02,1.06c0.01,1.22,0.02,2.45,0.06,3.67c0.02,0.58-0.25,0.91-0.78,0.97
			c-0.52,0.06-0.92-0.15-1.05-0.72c-0.02-0.09-0.05-0.18-0.07-0.27c-0.25-1.19-0.27-2.58-1.57-3.13c-1.65-0.7-3.44-0.24-5.17-0.3
			c-0.5-0.02-0.4,0.43-0.4,0.74c-0.01,2.12,0.01,4.24-0.02,6.36c-0.01,0.62,0.21,0.82,0.82,0.8c1.41-0.03,2.83-0.01,4.24-0.01
			c0.49,0,1.01-0.01,1.03,0.65c0.01,0.65-0.49,0.7-0.99,0.7c-1.37,0-2.73,0.03-4.1-0.01c-0.69-0.02-1.03,0.12-1,0.92
			c0.06,1.65-0.01,3.3,0.03,4.95c0.04,1.53,0.53,1.99,2.08,2.06c0.61,0.03,1.22,0.01,1.84,0.01c2.99,0,3.26-0.18,4.26-3.03
			c0.22-0.62,0.44-1.2,1.24-1.03c0.83,0.17,0.76,0.79,0.67,1.44c-0.58,3.84-0.58,3.85-4.47,3.85c-1.32,0-2.64,0-3.96,0
			C306.83,173.19,306.83,173.21,306.83,173.23z"/>
		<path class="st3" d="M263.52,173.22c-2.17,0-4.33,0-6.5,0c-0.44,0-1,0.16-1.09-0.54c-0.09-0.73,0.45-0.71,0.92-0.73
			c1.21-0.07,1.79-0.77,1.8-1.92c0.02-4.42,0.03-8.85,0.01-13.27c-0.01-1.18-0.52-2-1.87-1.97c-0.45,0.01-0.88-0.06-0.86-0.66
			c0.01-0.67,0.48-0.7,0.99-0.7c4.19,0.03,8.38,0.07,12.57,0.08c0.9,0,1.26,0.36,1.23,1.27c-0.04,1.08,0.02,2.17,0.06,3.25
			c0.02,0.62-0.07,1.18-0.83,1.21c-0.69,0.03-0.95-0.41-1.05-1.07c-0.09-0.65-0.29-1.28-0.51-1.9c-0.29-0.82-0.92-1.36-1.78-1.42
			c-1.41-0.09-2.82-0.04-4.23-0.07c-0.53-0.01-0.6,0.3-0.6,0.73c0.01,2.12,0.02,4.24-0.01,6.36c-0.01,0.72,0.31,0.86,0.94,0.85
			c1.36-0.03,2.73-0.01,4.1-0.01c0.48,0,1-0.04,1.02,0.65c0.02,0.69-0.51,0.69-0.99,0.69c-1.37,0.01-2.73,0.02-4.1,0
			c-0.58-0.01-1,0.04-0.97,0.81c0.05,1.79,0.05,3.58,0.05,5.37c0,1.2,0.7,1.67,1.78,1.73c0.66,0.04,1.32,0.02,1.98,0.02
			c3.1,0,3.32-0.14,4.38-3.06c0.23-0.63,0.45-1.18,1.26-1c0.86,0.2,0.7,0.85,0.6,1.47c-0.81,4.68,0.14,3.7-4.19,3.81
			c-1.36,0.03-2.73,0.01-4.1,0.01C263.52,173.19,263.52,173.21,263.52,173.22z"/>
		<path d="M320.11,162.8c-0.01,2.97,0.58,5.3,2.28,7.25c2.71,3.1,6.97,2.99,9.5-0.24c0.41-0.52,0.76-1.04,1.46-0.48
			c0.78,0.63,0.07,1.05-0.26,1.51c-2.98,4.13-9.88,3.42-12.92,1c-5.34-4.25-4.93-13.97,0.91-17.48c3.34-2.01,6.91-1.99,10.41-0.32
			c1.59,0.76,2.27,2.3,1.92,4.02c-0.28,1.37-1.11,2.25-2.52,2.53c-0.53,0.11-1.05,0.08-1.51-0.18c-0.58-0.33-1.09-0.71-0.21-1.32
			c1.05-0.73,1.18-1.79,0.84-2.9c-0.36-1.21-1.31-1.79-2.52-1.97c-2.6-0.39-4.9,0.83-6.17,3.28
			C320.38,159.3,320.08,161.24,320.11,162.8z"/>
		<path class="st4" d="M215.68,165.59c1.13-2.73,2.19-5.31,3.34-8.09c1.01,2.56,1.93,4.91,2.87,7.25c0.23,0.58,0.16,0.86-0.55,0.85
			C219.52,165.57,217.7,165.59,215.68,165.59z"/>
		<path class="st1" d="M284.12,162.81c0-2.35,0.04-4.7-0.02-7.05c-0.02-0.88,0.29-1.09,1.12-1.14c5.37-0.29,8.66,2.6,8.98,7.98
			c0.12,1.94-0.01,3.85-0.8,5.67c-1.3,3-4.9,4.57-8.01,3.53c-0.99-0.33-1.27-1.03-1.27-1.94
			C284.12,167.51,284.12,165.16,284.12,162.81C284.12,162.81,284.12,162.81,284.12,162.81z"/>
	</g>
</g>
</svg>
