<?xml version="1.0" encoding="utf-8"?>
<!-- Generator: Adobe Illustrator 23.0.5, SVG Export Plug-In . SVG Version: 6.00 Build 0)  -->
<svg version="1.1" id="Capa_1" xmlns="http://www.w3.org/2000/svg" xmlns:xlink="http://www.w3.org/1999/xlink" x="0px" y="0px"
	 viewBox="0 0 560 288" style="enable-background:new 0 0 560 288;" xml:space="preserve">
<style type="text/css">
	.st0{fill:#FCFCFC;}
	.st1{fill:#6FAB4F;}
	.st2{fill:#FCFDE8;}
	.st3{fill:#6BA54C;}
	.st4{fill:#6CA64D;}
	.st5{fill:#6BA54D;}
	.st6{fill:#6DA94E;}
</style>
<g>
	<g>
		<path class="st0" d="M295,257c-63.02,0-126.04,0-189.07,0.02c-0.74,0-0.91-0.17-0.91-0.91c0.02-77.63,0.02-155.26,0-232.9
			c0-0.74,0.17-0.91,0.91-0.91c126.11,0.02,252.22,0.02,378.33,0c0.74,0,0.91,0.17,0.91,0.91c-0.02,77.63-0.02,155.26,0,232.9
			c0,0.74-0.17,0.91-0.91,0.91C421.18,257,358.09,257,295,257z"/>
		<path class="st1" d="M298.33,171.78c5.11,0,10.22-0.02,15.33,0.01c1.94,0.01,3.91,0.05,5.74,0.8c3.82,1.56,6.78,4.08,8.74,7.77
			c2.28,4.29,2.84,8.79,1.7,13.48c-0.75,3.08-2.15,5.81-4.4,8.12c-2.33,2.41-5.07,3.9-8.35,4.64c-1.28,0.29-2.51,0.32-3.77,0.33
			c-10.58,0.02-21.16,0.1-31.74-0.06c-2.6-0.04-5.18-0.85-7.39-2.51c-1.05-0.79-2.11-1.5-3.02-2.48c-3.75-4.08-5.19-8.9-4.77-14.34
			c0.3-3.84,1.73-7.28,4.2-10.21c1.18-1.39,2.63-2.52,4.2-3.51c2.63-1.66,5.5-2.03,8.48-2.03
			C288.31,171.77,293.32,171.78,298.33,171.78z"/>
		<path class="st2" d="M304.92,196.77c-0.2-1.07,0.82-0.55,1.17-0.9c-0.02-0.42,0.15-0.83,0.05-1.27c-0.43-1.9-0.58-2.03-2.57-2.03
			c-0.43,0-0.86-0.02-1.28,0.01c-0.57,0.04-1.31-0.24-1.65,0.36c-0.43,0.76-0.74,1.6-0.72,2.51c0,0.16,0.1,0.31,0.21,0.44
			c0.25,0.19,0.56,0.13,0.84,0.15c0.31,0.02,0.61,0.03,0.58,0.46c-0.03,0.42-0.35,0.4-0.64,0.4c-0.45,0-0.9,0-1.35,0
			c-0.35,0.32-0.79,0.28-1.21,0.29c-2.69,0.01-5.38,0.01-8.08,0c-0.42,0-0.86,0.03-1.21-0.29c-0.56,0-1.12,0-1.68-0.01
			c-0.26,0-0.45-0.11-0.47-0.4c-0.02-0.29,0.13-0.43,0.41-0.44c1.16-0.03,1.39-0.81,1.4-1.74c0.01-3.1-0.01-6.2,0.01-9.3
			c0-0.95-0.24-1.64-1.36-1.62c-0.26,0-0.45-0.1-0.45-0.4c-0.01-0.34,0.21-0.49,0.5-0.47c1.58,0.08,3.16,0.09,4.74-0.01
			c0.25-0.02,0.45,0.09,0.48,0.38c0.04,0.33-0.11,0.5-0.44,0.5c-1.1,0.01-1.37,0.67-1.37,1.63c0.01,3.13-0.01,6.27,0.01,9.4
			c0.01,1.27,0.36,1.59,1.59,1.61c0.3,0,0.59,0,0.89,0c1.84,0,2.42-0.44,2.89-2.23c0.12-0.46,0.17-0.99,0.83-0.86
			c0.71,0.14,0.54,0.71,0.46,1.19c-0.06,0.39-0.14,0.78-0.18,1.17c-0.03,0.23-0.26,0.56,0.13,0.65c0.25,0.06,0.43-0.18,0.6-0.41
			c0.9-1.26,1.21-2.77,1.81-4.15c0.88-2.05,1.61-4.17,2.42-6.25c0.46-1.18,0.38-1.37-0.81-1.78c-0.26-0.09-0.53-0.13-0.52-0.48
			c0.02-0.4,0.32-0.43,0.63-0.46c1.68-0.16,2.77,0.54,3.35,2.12c1.16,3.15,2.31,6.3,3.53,9.42c0.34,0.86,0.49,1.98,1.77,2.11
			c0.25,0.02,0.26,0.26,0.24,0.47c-0.02,0.24-0.19,0.34-0.41,0.34c-0.53,0.01-1.05,0.01-1.58,0.01
			C307.27,197.28,306.08,197.44,304.92,196.77z"/>
		<path class="st2" d="M279.41,194.86c0.11,0.74,0.5,1.18,1.3,1.18c0.26,0,0.45,0.09,0.46,0.39c0.01,0.35-0.2,0.45-0.51,0.45
			c-0.62,0-1.25,0-1.87,0c-0.4,0.3-0.8,0.3-1.2,0c-0.53,0-1.05,0-1.58,0c-0.27,0-0.54-0.03-0.58-0.38
			c-0.04-0.36,0.19-0.46,0.49-0.47c1.04-0.03,1.32-0.73,1.32-1.6c0.01-3.19-0.01-6.38,0.01-9.58c0-0.9-0.31-1.47-1.29-1.47
			c-0.29,0-0.53-0.07-0.52-0.43c0.01-0.34,0.24-0.46,0.53-0.45c2.24,0.04,4.49-0.07,6.7,0.17c3.11,0.34,3.88,1.4,3.88,4.66
			c0.15,1.54-0.81,2.44-1.92,3.17c-1.2,0.79-2.55,1.23-4.02,1.05c-0.61-0.08-0.9-0.01-1,0.75
			C279.49,193.16,279.55,194.02,279.41,194.86z"/>
		<path class="st2" d="M315.37,196.88c-0.62,0-1.24,0-1.86,0c-0.28,0-0.53-0.05-0.55-0.41c-0.01-0.35,0.21-0.43,0.5-0.45
			c0.53-0.02,0.95-0.19,1.08-0.78c-0.03-0.11-0.03-0.21,0.01-0.32c0.06-1.29,0.07-2.58-0.13-3.86c-0.84-2.21-1.79-4.36-2.95-6.42
			c-0.41-0.74-1.25-0.79-1.8-1.29c-0.46-0.6-0.26-0.94,0.45-0.92c1.6,0.05,3.27,0.28,4.07,2.28c0.33,0.82,0.73,1.61,1.1,2.41
			c0.36,0.76,0.73,1.52,1.15,2.37c0.8-1.72,1.58-3.36,2.33-5.01c0.32-0.7,0.15-1.14-0.72-1.12c-0.32,0.01-0.72,0.06-0.69-0.45
			c0.03-0.48,0.4-0.42,0.74-0.41c1.18,0.01,2.37,0.03,3.55,0c0.68-0.02,0.96,0.18,0.63,0.86c-1.9,0.42-2.54,1.97-3.19,3.53
			c-0.4,0.97-0.99,1.85-1.4,2.82c-0.25,0.61-0.49,1.22-0.59,1.87c-0.21,0.94-0.09,1.89,0.01,2.83c0.03,0.23,0,0.44-0.14,0.62
			c0.13,0.62,0.51,0.95,1.16,0.96c0.28,0.01,0.55,0.07,0.54,0.42c-0.01,0.4-0.32,0.43-0.64,0.43c-0.56,0-1.11,0-1.67,0
			C316.05,197.14,315.71,197.14,315.37,196.88z"/>
		<path class="st3" d="M289.06,196.88c3.5,0,7,0,10.5,0c0.38,0.3,0.83,0.11,1.24,0.16c0.27,0.04,0.67-0.12,0.67,0.34
			c0,0.33-0.16,0.66-0.51,0.78c-0.24,0.08-0.52,0.06-0.78,0.06c-3.94,0-7.87,0-11.81,0c-0.26,0-0.53,0-0.78-0.07
			c-0.38-0.1-0.67-0.37-0.65-0.77c0.03-0.52,0.48-0.29,0.77-0.34C288.16,196.98,288.64,197.19,289.06,196.88z"/>
		<path class="st3" d="M300.14,195.88c-0.5,0.03-0.45-0.38-0.52-0.67c-0.03-0.11,0.04-0.25,0.07-0.38c0.52-2.52,0.52-2.52,3.06-2.52
			c0.26,0,0.53,0,0.79,0c2.39,0,2.39,0,2.93,2.35c0.12,0.5-0.01,0.88-0.38,1.21c-0.06-0.08-0.16-0.15-0.17-0.23
			c-0.36-1.95-0.36-1.95-2.4-1.95c-0.36,0-0.72,0.02-1.08,0C300.91,193.6,300.37,193.54,300.14,195.88z"/>
		<path class="st4" d="M316.99,195.06c-0.02-0.18-0.03-0.36-0.05-0.54c-0.13-1.02-0.13-2.04,0-3.06c-0.12-1.1,0.63-1.9,1.01-2.81
			c0.53-1.29,1.29-2.49,1.85-3.77c0.5-1.13,1.34-1.53,2.49-1.49c0.72,0.53,0.25,1.02-0.21,1.17c-2.1,0.67-2.42,2.68-3.33,4.25
			c-0.11,0.2-0.16,0.43-0.27,0.63c-0.8,1.48-1.45,2.99-1.14,4.74C317.4,194.49,317.53,194.94,316.99,195.06z"/>
		<path class="st3" d="M279.41,194.86c0-1.28,0-2.55,0-3.92c1.75,0.91,3.32,0.24,4.87-0.52c1.28-0.62,1.88-1.77,2.25-3.07
			c0.79,0.6,0.18,1.3-0.01,1.82c-0.8,2.11-3.48,3.64-5.72,3.29c-0.95-0.15-1.14,0.34-1.23,1.06
			C279.51,193.96,279.71,194.44,279.41,194.86z"/>
		<path class="st4" d="M314.6,195.09c0.02,0.07,0,0.12-0.05,0.17c-0.4-0.94-0.01-1.94-0.23-2.91c-0.41-1.81-1.32-3.4-2.06-5.07
			c-0.51-1.16-1.19-2.05-2.36-2.6c-0.54-0.25-0.66-0.78-0.22-1.31c0.95,0.06,1.63,0.47,2.12,1.34c1.11,1.98,2.01,4.04,2.8,6.16
			C314.73,192.27,314.75,193.68,314.6,195.09z"/>
		<path class="st5" d="M304.92,196.77c1.17,0.28,2.37-0.05,3.54,0.12c0.38,0.3,0.82,0.11,1.23,0.16c0.27,0.04,0.64-0.1,0.71,0.33
			c0.07,0.42-0.2,0.77-0.56,0.8c-1.43,0.09-2.87,0.19-4.29-0.05C304.89,198.01,304.86,197.35,304.92,196.77z"/>
		<path class="st5" d="M277.58,196.88c0.4,0,0.8,0,1.2,0c0.51,0.33,1.09,0.09,1.63,0.16c0.28,0.04,0.73-0.09,0.76,0.24
			c0.04,0.36-0.22,0.86-0.62,0.88c-1.53,0.07-3.07,0.21-4.59-0.08c-0.33-0.06-0.59-0.31-0.52-0.71c0.07-0.42,0.43-0.3,0.71-0.33
			C276.63,196.98,277.14,197.2,277.58,196.88z"/>
		<path class="st5" d="M315.37,196.88c0.34,0,0.67,0,1.01,0c0.52,0.33,1.09,0.09,1.64,0.16c0.25,0.03,0.6-0.1,0.67,0.25
			c0.07,0.35-0.14,0.65-0.47,0.78c-0.24,0.09-0.51,0.14-0.76,0.15c-1.12,0.02-2.24,0-3.36,0.01c-0.34,0-0.66-0.03-0.89-0.32
			c-0.15-0.18-0.32-0.38-0.25-0.61c0.08-0.26,0.36-0.23,0.59-0.26C314.15,196.97,314.79,197.22,315.37,196.88z"/>
		<path class="st6" d="M303.13,185.44c0.7,1.92,1.31,3.59,1.92,5.25c0.16,0.44,0.07,0.69-0.46,0.69c-1.02-0.01-2.04,0-3.06,0
			c-0.31,0-0.66,0-0.48-0.48C301.71,189.15,302.38,187.42,303.13,185.44z"/>
		<path class="st1" d="M284.09,187.74c-0.67,2.13-2.72,3.08-4.67,2.17c0.13-1.05,0.05-2.1,0.06-3.14c0.02-1.76,0.29-2.19,1.48-2.26
			c1.6-0.09,2.86,0.8,3.06,2.17C284.07,187.02,283.93,187.39,284.09,187.74z"/>
		<path class="st5" d="M284.09,187.74c-0.25-0.22-0.23-0.56-0.26-0.82c-0.19-1.59-1.55-2.31-3.2-2.14c-0.94,0.1-0.98,0.88-1.04,1.53
			c-0.08,0.88-0.01,1.77-0.03,2.65c0,0.32,0.1,0.66-0.15,0.94c-0.15-1.87-0.06-3.74-0.04-5.61c0-0.39,0.16-0.7,0.55-0.86
			c1.69-0.7,4.01,0.67,4.22,2.49c0.14,0.43,0.12,0.85,0.01,1.28C284.12,187.39,284.1,187.56,284.09,187.74z"/>
		<path class="st1" d="M284.14,187.21c0-0.43,0-0.85-0.01-1.28C284.33,186.36,284.33,186.78,284.14,187.21z"/>
		<path class="st1" d="M314.6,195.09c0-1.41,0.01-2.81,0.01-4.22C314.9,192.27,314.91,193.68,314.6,195.09z"/>
		<path class="st1" d="M316.95,191.46c0,1.02,0,2.04,0,3.06C316.74,193.51,316.74,192.48,316.95,191.46z"/>
	</g>
</g>
</svg>
