<?xml version="1.0" encoding="utf-8"?>
<!-- Generator: Adobe Illustrator 23.0.5, SVG Export Plug-In . SVG Version: 6.00 Build 0)  -->
<svg version="1.1" id="Capa_1" xmlns="http://www.w3.org/2000/svg" xmlns:xlink="http://www.w3.org/1999/xlink" x="0px" y="0px"
	 viewBox="0 0 560 288" style="enable-background:new 0 0 560 288;" xml:space="preserve">
<style type="text/css">
	.st0{fill:#FEFEFE;}
	.st1{fill:#96C4E7;}
	.st2{fill:#FCFCFC;}
	.st3{fill:#29353E;}
	.st4{fill:#27333C;}
	.st5{fill:#67869E;}
	.st6{fill:#26323B;}
	.st7{fill:#2E3C46;}
</style>
<g>
	<g>
		<path class="st0" d="M273.5,257.44c-72.15,0-144.3,0-216.46,0.02c-0.78,0-0.96-0.18-0.96-0.96c0.02-74.8,0.02-149.61,0-224.41
			c0-0.78,0.18-0.96,0.96-0.96c144.3,0.02,288.61,0.02,432.91,0c0.78,0,0.96,0.18,0.96,0.96c-0.02,74.8-0.02,149.61,0,224.41
			c0,0.78-0.18,0.96-0.96,0.96C417.8,257.44,345.65,257.44,273.5,257.44z"/>
		<path class="st1" d="M347.91,139.76c3.06,0.42,5.53,1.9,7.46,4.27c0.86,1.06,1.29,2.37,1.54,3.71c0.19,1.06,0.22,2.13,0.21,3.21
			c-0.01,6.06,0.01,12.12-0.01,18.17c-0.01,2.17-0.55,4.24-1.95,5.9c-1.72,2.04-3.9,3.48-6.62,3.92c-0.48,0.21-1.01-0.07-1.48,0.18
			c-0.56-0.01-1.12-0.01-1.67-0.01c-48.13,0-96.26,0-144.39,0c-0.35,0-0.7,0.01-1.05,0.02c-0.54-0.25-1.14,0.04-1.69-0.17
			c-2.76-0.43-4.88-1.82-6.65-3.98c-1.56-1.91-1.96-4.01-1.95-6.36c0.05-6.62-0.04-13.25,0.06-19.87c0.04-3.13,1.76-5.38,4.26-7.17
			c1.5-1.07,3.14-1.56,4.91-1.82c0.37-0.14,0.76-0.07,1.14-0.07c48.92,0,97.83,0,146.75,0
			C347.15,139.69,347.54,139.62,347.91,139.76z"/>
		<path class="st2" d="M347.91,139.76c-0.87,0-1.74,0.01-2.62,0.01c-48.63,0-97.26,0.01-145.89,0.01c-0.17,0-0.35-0.01-0.52-0.02
			c0.32-0.31,0.73-0.18,1.1-0.18c48.94-0.01,97.89-0.01,146.83,0C347.18,139.58,347.59,139.45,347.91,139.76z"/>
		<path class="st2" d="M198.25,178.96c0.57,0.03,1.15-0.15,1.69,0.17C199.38,179.07,198.79,179.33,198.25,178.96z"/>
		<path class="st2" d="M347.05,179.13c0.46-0.31,0.99-0.15,1.48-0.18C348.08,179.32,347.55,179.08,347.05,179.13z"/>
		<path d="M221.86,165.97c0.13,0.76,0.65,1.03,1.35,1.04c1.05,0.01,2.09-0.01,3.14,0c1.21,0.01,1.97-0.56,2.28-1.73
			c0.09-0.34,0.24-0.65,0.34-0.99c0.18-0.63,0.65-0.66,1.16-0.55c0.51,0.12,0.62,0.48,0.53,0.96c-0.13,0.74-0.24,1.49-0.36,2.26
			c0.81,0.07,1.15-0.43,1.43-0.96c0.6-1.16,1.24-2.31,1.72-3.52c1.01-2.58,2.39-4.99,3.43-7.55c0.57-1.39,0.42-1.66-1.03-2.04
			c-0.32-0.08-0.86,0.05-0.8-0.58c0.05-0.65,0.6-0.53,0.96-0.51c2.65,0.11,3.4,0.34,4.61,2.91c1.06,2.26,1.9,4.61,3,6.83
			c0.66,1.33,1.2,2.7,1.81,4.05c0.36,0.81,0.8,1.48,1.83,1.43c0.36-0.02,0.61,0.15,0.59,0.55c-0.01,0.41-0.28,0.52-0.63,0.52
			c-2.06,0-4.12,0-6.17,0c-0.41,0-0.7-0.14-0.67-0.59c0.02-0.4,0.32-0.46,0.66-0.5c1.79-0.2,1.88-0.37,1.24-2.06
			c-0.75-1.99-0.75-1.99-2.91-1.99c-1.36,0-2.72,0.03-4.08-0.01c-0.59-0.02-0.89,0.18-1.05,0.74c-0.22,0.73-0.52,1.44-0.75,2.17
			c-0.22,0.69,0.07,1.08,0.79,1.13c0.42,0.03,0.84,0.03,1.26,0.04c0.33,0,0.54,0.17,0.55,0.49c0.02,0.38-0.2,0.57-0.58,0.58
			c-0.14,0-0.28,0-0.42,0c-5.86,0-11.72,0-17.58-0.01c-0.36,0-0.83,0.14-0.89-0.44c-0.07-0.63,0.4-0.59,0.83-0.64
			c0.98-0.11,1.6-0.6,1.6-1.65c0-3.56,0.02-7.12-0.01-10.67c-0.01-1.08-0.53-1.57-1.66-1.69c-0.41-0.04-0.8-0.03-0.76-0.59
			c0.04-0.57,0.48-0.48,0.86-0.48c1.92,0,3.84,0,5.76,0c0.39,0,0.82-0.06,0.84,0.51c0.02,0.56-0.39,0.56-0.79,0.57
			c-0.7,0.02-1.2,0.32-1.39,1.03c-0.21,0.27-0.19,0.59-0.19,0.9c0,3.38,0,6.76,0,10.14C221.69,165.37,221.67,165.69,221.86,165.97z"
			/>
		<path d="M319.21,152.09c0.17-0.26,0.43-0.18,0.66-0.19c1.95,0,3.9,0,5.86,0c0.38,0,0.82-0.09,0.85,0.49
			c0.04,0.57-0.38,0.54-0.78,0.59c-1.3,0.15-1.71,0.57-1.72,1.88c-0.02,3.42-0.02,6.83,0,10.25c0.01,1.37,0.37,1.72,1.8,1.9
			c0.38,0.05,0.71,0.08,0.7,0.56c-0.01,0.49-0.35,0.52-0.73,0.52c-4.39,0-8.78,0-13.18,0c-0.4,0-0.71-0.08-0.73-0.54
			c-0.01-0.32,0.18-0.49,0.51-0.54c0.59-0.08,1.42,0.23,1.66-0.52c0.28-0.84-0.29-1.61-0.62-2.37c-0.42-0.97-1.18-1.3-2.27-1.2
			c-1.35,0.12-2.72,0.1-4.08,0c-0.88-0.06-1.22,0.29-1.5,1.04c-0.23,0.64-0.34,1.32-0.78,1.9c-0.3,0.39-0.06,0.75,0.41,0.96
			c0.54,0.24,1.1,0.14,1.65,0.19c0.34,0.03,0.51,0.22,0.51,0.54c-0.01,0.31-0.17,0.53-0.52,0.53c-1.85,0-3.69,0-5.54,0
			c-0.35,0-0.51-0.23-0.5-0.54c0-0.31,0.18-0.55,0.52-0.52c1.44,0.15,1.88-0.88,2.35-1.93c1.26-2.88,2.69-5.69,3.87-8.61
			c0.28-0.68,0.75-1.29,1.02-2c0.31-0.8,0.08-1.28-0.76-1.46c-0.27-0.06-0.54-0.13-0.82-0.18c-0.34-0.06-0.46-0.26-0.43-0.59
			c0.03-0.3,0.25-0.38,0.5-0.45c1.77-0.45,3.98,0.54,4.74,2.21c1.02,2.23,2.04,4.46,2.95,6.74c0.69,1.73,1.61,3.35,2.33,5.07
			c0.5,1.17,2.51,1.66,3.58,0.95c0.42-0.27,0.59-0.69,0.59-1.16c0.01-3.73,0.02-7.46,0-11.19c0-0.91-0.52-1.4-1.44-1.45
			c-0.23-0.01-0.5,0.07-0.67-0.17C319.06,152.57,319.06,152.33,319.21,152.09z"/>
		<path d="M298.5,161.26c0.91,0,1.81,0.01,2.72,0c0.38,0,0.73,0.05,0.75,0.52c0.02,0.46-0.31,0.59-0.7,0.58
			c-1.14-0.05-1.43,0.64-1.43,1.6c0,0.63-0.09,1.27,0.01,1.88c0.18,1.12-0.26,1.67-1.33,1.98c-3.49,1.02-6.92,1.18-10.24-0.57
			c-0.15-0.08-0.3-0.18-0.43-0.3c-2.98-2.6-3.89-6.23-2.49-9.92c1.3-3.42,4.13-5.19,7.78-5.5c2.34-0.2,4.59,0,6.47,1.66
			c0.85,0.74,1.01,2.57,0.25,3.55c-0.82,1.05-2.64,1.39-3.56,0.67c-0.37-0.29-0.39-0.6,0.03-0.81c0.89-0.46,1.25-1.17,1.09-2.14
			c-0.19-1.15-1.13-1.6-2.06-1.81c-2.12-0.48-4.07,0.01-5.46,1.74c-1.9,2.37-2.39,5.17-1.61,8.06c1.06,3.93,4.51,5.7,8.55,4.63
			c0.48-0.13,0.6-0.36,0.59-0.8c-0.02-0.8-0.03-1.6-0.01-2.41c0.02-0.96-0.33-1.53-1.39-1.5c-0.42,0.01-1.04,0.11-1-0.58
			c0.04-0.65,0.62-0.5,1.06-0.5c0.8,0.01,1.6,0,2.41,0C298.5,161.27,298.5,161.27,298.5,161.26z"/>
		<path d="M329.95,154.01c-0.21-0.77-0.84-0.94-1.51-1.09c-0.36-0.08-0.83-0.11-0.72-0.68c0.08-0.45,0.47-0.45,0.83-0.46
			c2.37-0.03,4.38,0.59,5.9,2.64c2.02,2.72,4.24,5.29,6.4,7.9c0.32,0.39,0.75,0.7,1.15,1.07c0.24-0.06,0.14-0.31,0.14-0.49
			c-0.01-2.72-0.02-5.44-0.06-8.16c-0.02-1.39-0.26-1.63-1.62-1.77c-0.4-0.04-0.82-0.01-0.8-0.56c0.02-0.54,0.43-0.52,0.84-0.52
			c1.5,0.01,3,0.01,4.5,0c0.42,0,0.8,0.02,0.8,0.56c0,0.49-0.38,0.48-0.74,0.52c-1.43,0.18-1.69,0.46-1.7,1.95
			c-0.03,4.01-0.02,8.02-0.05,12.03c0,0.38,0.24,0.9-0.33,1.09c-0.52,0.17-0.9-0.09-1.25-0.51c-1.94-2.3-3.75-4.7-5.69-6.99
			c-1.51-1.79-2.72-3.84-4.56-5.38c-0.23,0.16-0.07,0.46-0.07,0.71c0,2.93,0.01,5.86,0.03,8.79c0.01,1.94,0.07,2.01,1.92,2.35
			c0.37,0.07,0.57,0.21,0.55,0.6c-0.02,0.36-0.26,0.47-0.57,0.47c-1.67,0-3.35,0-5.02,0c-0.33,0-0.52-0.16-0.53-0.5
			c-0.01-0.4,0.19-0.57,0.57-0.57c0.88,0.02,1.49-0.3,1.59-1.27c0.2-0.28,0.17-0.59,0.17-0.91c0-3.31,0-6.62,0-9.93
			C330.13,154.61,330.15,154.29,329.95,154.01z"/>
		<path d="M215.87,157.18c-0.36,2.59-2.78,4.13-5.67,4.54c-1.25,0.18-2.49,0.04-3.79-0.27c0,1.37-0.01,2.69,0,4.01
			c0.01,1,0.49,1.55,1.54,1.55c0.4,0,0.94-0.1,0.93,0.53c-0.01,0.71-0.59,0.54-1.02,0.54c-1.92,0.01-3.83,0.01-5.75,0
			c-0.4,0-0.92,0.13-0.94-0.51c-0.03-0.65,0.5-0.53,0.9-0.57c1.16-0.09,1.56-0.44,1.58-1.63c0.03-3.59,0.03-7.18,0-10.77
			c-0.01-1.23-0.36-1.5-1.79-1.63c-0.38-0.04-0.72-0.06-0.7-0.56c0.02-0.4,0.27-0.54,0.63-0.52c3.1,0.15,6.21-0.18,9.29,0.23
			c0.89,0.12,1.77,0.38,2.61,0.7c1.28,0.49,1.96,1.51,2.15,2.85C216.11,156.18,216.1,156.68,215.87,157.18z"/>
		<path d="M274.26,153.59c-0.31-0.57-0.91-0.57-1.44-0.73c-0.29-0.08-0.51-0.19-0.49-0.55c0.03-0.37,0.27-0.44,0.56-0.5
			c1.86-0.39,3.97,0.64,4.76,2.37c0.38,0.82,0.7,1.67,1.03,2.51c1.18,2.92,2.62,5.72,3.76,8.65c0.31,0.81,0.85,1.69,1.99,1.69
			c0.35,0,0.48,0.22,0.48,0.55c0,0.42-0.26,0.52-0.62,0.52c-1.99,0-3.97,0-5.96,0c-0.35,0-0.64-0.08-0.66-0.48
			c-0.03-0.45,0.23-0.56,0.65-0.61c1.49-0.17,1.62-0.42,1.11-1.87c-0.77-2.18-0.77-2.18-3.1-2.18c-1.32,0-2.65,0.01-3.97-0.01
			c-0.55-0.01-0.91,0.16-1.07,0.73c-0.21,0.73-0.48,1.45-0.73,2.17c-0.24,0.72,0.08,1.07,0.78,1.13c0.45,0.04,0.91,0.02,1.36,0.05
			c0.29,0.02,0.44,0.2,0.45,0.48c0.02,0.33-0.13,0.56-0.47,0.57c-1.88,0.01-3.76,0.01-5.64,0c-0.29,0-0.42-0.22-0.42-0.49
			c0-0.32,0.12-0.56,0.47-0.56c1.42,0.03,1.98-1.02,2.4-2.06c1.46-3.63,3.38-7.06,4.75-10.73
			C274.46,154.03,274.46,153.81,274.26,153.59z"/>
		<path d="M255.79,159.65c0.07-0.04,0.15-0.05,0.17-0.1c0.77-1.74,1.9-3.28,2.75-4.98c0.67-1.33,0.55-1.52-0.92-1.6
			c-0.1-0.01-0.21-0.01-0.31,0c-0.34,0.01-0.53-0.18-0.54-0.5c-0.01-0.37,0.19-0.57,0.58-0.57c1.88,0,3.76,0.01,5.65,0.01
			c0.37,0,0.61,0.13,0.61,0.53c0,0.41-0.24,0.53-0.61,0.53c-1.7-0.01-2.72,0.94-3.45,2.38c-0.83,1.63-1.73,3.22-2.71,4.77
			c-1.17,1.84-0.79,3.9-0.59,5.9c0.08,0.81,0.76,0.99,1.48,1c0.42,0,0.9-0.05,0.85,0.6c-0.04,0.59-0.5,0.47-0.87,0.47
			c-1.99,0.01-3.97,0-5.96,0.01c-0.39,0-0.83,0.04-0.86-0.5c-0.03-0.54,0.39-0.55,0.79-0.58c1.35-0.13,1.65-0.41,1.66-1.74
			c0.02-1.86,0.34-3.79-0.81-5.47c-1.07-1.58-1.73-3.38-2.77-4.97c-0.65-1-1.59-1.7-2.84-1.93c-0.28-0.05-0.76,0.01-0.73-0.53
			c0.03-0.6,0.54-0.5,0.86-0.5c2.7-0.04,4.56,0.47,6.01,3.35C254.02,156.73,254.7,158.3,255.79,159.65z"/>
		<path class="st3" d="M221.86,165.97c-0.51-0.09-0.4-0.5-0.4-0.82c-0.01-3.4-0.01-6.8,0-10.2c0-0.35-0.13-0.8,0.41-0.93
			C221.87,158,221.86,161.99,221.86,165.97z"/>
		<path class="st4" d="M329.95,154.01c0.51,0.09,0.41,0.49,0.41,0.82c0,3.36-0.01,6.73-0.02,10.09c0,0.33,0.1,0.73-0.39,0.83
			C329.95,161.84,329.95,157.93,329.95,154.01z"/>
		<path class="st5" d="M215.87,157.18c0-0.5-0.01-1-0.01-1.5C216.48,156.18,216.51,156.68,215.87,157.18z"/>
		<path class="st6" d="M319.21,152.09c0,0.24,0.01,0.47,0.01,0.71c-0.24,0.01-0.4-0.07-0.4-0.35
			C318.81,152.18,318.97,152.1,319.21,152.09z"/>
		<path class="st7" d="M274.26,153.59c0.17,0.03,0.34,0.05,0.37,0.27c0.03,0.27-0.16,0.34-0.37,0.38
			C274.26,154.03,274.26,153.81,274.26,153.59z"/>
		<path class="st1" d="M237.91,161.84c-0.76,0-1.53-0.02-2.29,0.01c-0.57,0.02-0.58-0.26-0.34-0.62c1.08-1.63,1.56-3.52,2.36-5.26
			c0.08-0.18,0.19-0.36,0.28-0.54c0.16,0.17,0.42,0.19,0.53,0.46c0.71,1.84,1.43,3.68,2.16,5.52c0.19,0.48-0.13,0.43-0.4,0.44
			C239.44,161.84,238.68,161.84,237.91,161.84z"/>
		<path class="st1" d="M306.66,161.79c0.77-2.31,2.11-4.2,2.85-6.57c0.98,2.3,2.14,4.29,2.79,6.57
			C310.42,161.79,308.6,161.79,306.66,161.79z"/>
		<path class="st1" d="M206.4,157.01c0-0.8-0.01-1.6,0-2.41c0.03-1.41,0.32-1.68,1.76-1.69c0.85-0.01,1.67,0.15,2.47,0.38
			c1.54,0.45,2.24,1.48,2.26,3.24c0.02,1.77-0.9,3.29-2.33,3.73c-1.07,0.32-2.16,0.51-3.3,0.34c-0.63-0.09-0.92-0.28-0.87-0.98
			C206.44,158.75,206.39,157.88,206.4,157.01z"/>
		<path class="st1" d="M275.34,155.34c0.77,2.06,1.53,3.94,2.46,5.75c0.31,0.6,0.13,0.77-0.51,0.76c-1.6-0.03-3.2-0.01-4.95-0.01
			C273.25,159.61,274.03,157.46,275.34,155.34z"/>
	</g>
</g>
</svg>
