<?xml version="1.0" encoding="UTF-8"?>
<!DOCTYPE svg PUBLIC "-//W3C//DTD SVG 1.1//EN" "http://www.w3.org/Graphics/SVG/1.1/DTD/svg11.dtd">
<svg xmlns="http://www.w3.org/2000/svg" version="1.1" width="525px" height="778px" style="shape-rendering:geometricPrecision; text-rendering:geometricPrecision; image-rendering:optimizeQuality; fill-rule:evenodd; clip-rule:evenodd" xmlns:xlink="http://www.w3.org/1999/xlink">
<g><path style="opacity:1" fill="#f3f3f3" d="M -0.5,-0.5 C 3.5,-0.5 7.5,-0.5 11.5,-0.5C 5.85894,1.8077 1.85894,5.8077 -0.5,11.5C -0.5,7.5 -0.5,3.5 -0.5,-0.5 Z"/></g>
<g><path style="opacity:1" fill="#000000" d="M 11.5,-0.5 C 178.5,-0.5 345.5,-0.5 512.5,-0.5C 517.419,1.25039 520.919,4.58373 523,9.5C 523.5,261.166 523.667,512.833 523.5,764.5C 522.153,770.017 518.82,773.85 513.5,776C 345.833,776.667 178.167,776.667 10.5,776C 5.22618,773.563 1.55952,769.729 -0.5,764.5C -0.5,513.5 -0.5,262.5 -0.5,11.5C 1.85894,5.8077 5.85894,1.8077 11.5,-0.5 Z"/></g>
<g><path style="opacity:1" fill="#d2d2d2" d="M 512.5,-0.5 C 516.5,-0.5 520.5,-0.5 524.5,-0.5C 524.5,254.5 524.5,509.5 524.5,764.5C 524.167,764.5 523.833,764.5 523.5,764.5C 523.667,512.833 523.5,261.166 523,9.5C 520.919,4.58373 517.419,1.25039 512.5,-0.5 Z"/></g>
<g><path style="opacity:1" fill="#e6b75c" d="M 209.5,17.5 C 209.833,18.8333 210.167,20.1667 210.5,21.5C 187.994,21.8308 165.66,21.4974 143.5,20.5C 145.359,19.4058 147.359,18.5725 149.5,18C 169.497,17.5 189.497,17.3334 209.5,17.5 Z"/></g>
<g><path style="opacity:1" fill="#d39b3c" d="M 209.5,17.5 C 225.833,17.5 242.167,17.5 258.5,17.5C 258.5,18.8333 258.5,20.1667 258.5,21.5C 242.5,21.5 226.5,21.5 210.5,21.5C 210.167,20.1667 209.833,18.8333 209.5,17.5 Z"/></g>
<g><path style="opacity:1" fill="#ecc16a" d="M 258.5,17.5 C 282.167,17.5 305.833,17.5 329.5,17.5C 329.5,18.8333 329.5,20.1667 329.5,21.5C 305.833,21.5 282.167,21.5 258.5,21.5C 258.5,20.1667 258.5,18.8333 258.5,17.5 Z"/></g>
<g><path style="opacity:1" fill="#c3893a" d="M 329.5,17.5 C 343.5,17.5 357.5,17.5 371.5,17.5C 371.5,18.8333 371.5,20.1667 371.5,21.5C 357.5,21.5 343.5,21.5 329.5,21.5C 329.5,20.1667 329.5,18.8333 329.5,17.5 Z"/></g>
<g><path style="opacity:1" fill="#6f5528" d="M 143.5,20.5 C 165.66,21.4974 187.994,21.8308 210.5,21.5C 226.5,21.5 242.5,21.5 258.5,21.5C 282.167,21.5 305.833,21.5 329.5,21.5C 343.5,21.5 357.5,21.5 371.5,21.5C 295.001,22.6656 218.334,22.8322 141.5,22C 142.044,21.2828 142.711,20.7828 143.5,20.5 Z"/></g>
<g><path style="opacity:1" fill="#d0a252" d="M 114.5,37.5 C 115.552,37.3505 116.552,37.5172 117.5,38C 116.926,39.7621 116.593,41.5954 116.5,43.5C 107.285,45.6063 98.6184,49.1063 90.5,54C 102.895,57.398 114.895,56.2313 126.5,50.5C 127.354,52.035 127.354,53.3684 126.5,54.5C 126.265,53.9033 125.765,53.5699 125,53.5C 115.905,57.4188 106.405,59.0855 96.5,58.5C 92.2892,55.3504 87.9559,55.017 83.5,57.5C 77.0821,60.1045 70.4155,61.7711 63.5,62.5C 63.5,62.1667 63.5,61.8333 63.5,61.5C 71.3387,60.4106 78.672,57.9106 85.5,54C 84.0445,52.3743 82.3779,51.2076 80.5,50.5C 82.3079,49.0821 82.9746,47.0821 82.5,44.5C 83.9934,47.4595 85.9934,50.1262 88.5,52.5C 91.6884,51.0748 94.6884,49.4081 97.5,47.5C 102.236,45.7627 105.236,42.4294 106.5,37.5C 108.149,32.5757 109.649,27.5757 111,22.5C 112.667,19.8333 114.333,19.8333 116,22.5C 116.96,27.4819 116.127,32.1486 113.5,36.5C 113.624,37.1067 113.957,37.44 114.5,37.5 Z"/></g>
<g><path style="opacity:1" fill="#bb8832" d="M 59.5,26.5 C 58.5084,26.3284 57.8417,26.6618 57.5,27.5C 49.5267,23.3869 43.6934,25.3869 40,33.5C 38.3927,40.9311 41.226,45.2645 48.5,46.5C 49.9187,47.4511 51.5853,47.7845 53.5,47.5C 48.5734,49.1266 43.9067,48.2933 39.5,45C 33.0463,36.2381 34.713,29.2381 44.5,24C 49.9597,22.871 54.9597,23.7044 59.5,26.5 Z"/></g>
<g><path style="opacity:1" fill="#0e0903" d="M 94.5,26.5 C 100.605,29.9845 102.438,34.9845 100,41.5C 95.467,45.9904 91.967,45.3237 89.5,39.5C 92.1191,39.0244 94.1191,37.6911 95.5,35.5C 92.9233,31.9213 89.9233,31.588 86.5,34.5C 83.6917,39.1163 84.6917,42.9497 89.5,46C 92.3647,46.1829 95.0314,46.6829 97.5,47.5C 94.6884,49.4081 91.6884,51.0748 88.5,52.5C 85.9934,50.1262 83.9934,47.4595 82.5,44.5C 80.8639,36.9555 83.1973,31.1222 89.5,27C 91.1341,26.5065 92.8008,26.3398 94.5,26.5 Z"/></g>
<g><path style="opacity:1" fill="#d9ab58" d="M 125.5,21.5 C 129.138,20.7366 130.638,22.0699 130,25.5C 115.466,37.1578 113.966,35.8245 125.5,21.5 Z"/></g>
<g><path style="opacity:1" fill="#c89238" d="M 94.5,24.5 C 101.311,26.3088 105.311,30.6421 106.5,37.5C 105.236,42.4294 102.236,45.7627 97.5,47.5C 95.0314,46.6829 92.3647,46.1829 89.5,46C 84.6917,42.9497 83.6917,39.1163 86.5,34.5C 89.9233,31.588 92.9233,31.9213 95.5,35.5C 94.1191,37.6911 92.1191,39.0244 89.5,39.5C 91.967,45.3237 95.467,45.9904 100,41.5C 102.438,34.9845 100.605,29.9845 94.5,26.5C 94.5,25.8333 94.5,25.1667 94.5,24.5 Z"/></g>
<g><path style="opacity:1" fill="#cc9d48" d="M 53.5,47.5 C 51.5853,47.7845 49.9187,47.4511 48.5,46.5C 55.5512,44.0819 57.2178,39.5819 53.5,33C 49.8651,32.1282 48.8651,33.2949 50.5,36.5C 49.3655,40.0387 47.5321,40.372 45,37.5C 44.8292,31.6868 47.6625,29.5202 53.5,31C 59.3682,34.0402 60.8682,38.5402 58,44.5C 56.871,46.1412 55.371,47.1412 53.5,47.5 Z"/></g>
<g><path style="opacity:1" fill="#be883c" d="M 114.5,37.5 C 118.981,36.3516 123.648,36.1849 128.5,37C 131.857,38.5125 133.857,41.0125 134.5,44.5C 128.509,44.0343 122.509,43.701 116.5,43.5C 116.593,41.5954 116.926,39.7621 117.5,38C 116.552,37.5172 115.552,37.3505 114.5,37.5 Z"/></g>
<g><path style="opacity:1" fill="#d5a44d" d="M 11.5,33.5 C 18.8798,33.043 21.7131,36.3763 20,43.5C 16.049,48.8184 12.049,48.8184 8,43.5C 6.75625,39.191 7.92292,35.8577 11.5,33.5 Z"/></g>
<g><path style="opacity:1" fill="#dbb360" d="M 94.5,24.5 C 94.5,25.1667 94.5,25.8333 94.5,26.5C 92.8008,26.3398 91.1341,26.5065 89.5,27C 83.1973,31.1222 80.8639,36.9555 82.5,44.5C 82.9746,47.0821 82.3079,49.0821 80.5,50.5C 78.4068,49.9553 76.4068,49.122 74.5,48C 68.9341,41.0038 63.2674,34.1705 57.5,27.5C 57.8417,26.6618 58.5084,26.3284 59.5,26.5C 66.0598,33.2791 72.3931,40.2791 78.5,47.5C 75.1495,38.1151 77.8161,30.6151 86.5,25C 89.146,24.5026 91.8127,24.3359 94.5,24.5 Z"/></g>
<g><path style="opacity:1" fill="#4e3914" d="M 23.5,51.5 C 21.4559,50.9688 19.7893,49.8022 18.5,48C 20.7715,48.0768 22.4382,49.2435 23.5,51.5 Z"/></g>
<g><path style="opacity:1" fill="#5a4620" d="M 23.5,51.5 C 28.0004,53.5826 32.3338,55.9159 36.5,58.5C 33.646,58.0761 30.9793,57.0761 28.5,55.5C 27.914,55.7093 27.414,56.0426 27,56.5C 25.1978,55.2107 24.0312,53.5441 23.5,51.5 Z"/></g>
<g><path style="opacity:1" fill="#dab160" d="M 174.5,33.5 C 170.833,34.1667 167.167,34.8333 163.5,35.5C 160.353,35.7366 157.353,36.5699 154.5,38C 147.663,42.2529 140.663,46.2529 133.5,50C 127.124,57.8156 125.957,66.3156 130,75.5C 138.572,81.2112 143.739,79.0445 145.5,69C 145.188,65.3583 143.354,62.8583 140,61.5C 138.72,61.6135 137.887,62.2801 137.5,63.5C 141.097,69.073 139.764,71.9063 133.5,72C 130.58,67.5186 131.247,63.5186 135.5,60C 146.471,57.6938 150.971,62.1938 149,73.5C 145.289,79.8106 139.789,82.3106 132.5,81C 126.061,78.5594 122.727,73.8927 122.5,67C 122.836,62.4785 124.17,58.3118 126.5,54.5C 127.354,53.3684 127.354,52.035 126.5,50.5C 136.044,45.1272 145.711,39.9605 155.5,35C 161.725,32.6219 168.058,32.1219 174.5,33.5 Z"/></g>
<g><path style="opacity:1" fill="#d8ac5d" d="M 163.5,52.5 C 164.833,52.5 165.5,53.1667 165.5,54.5C 158.537,61.7585 157.704,69.7585 163,78.5C 165.128,80.8077 167.628,82.4744 170.5,83.5C 170.5,84.1667 170.167,84.5 169.5,84.5C 157.362,81.5823 152.862,73.9157 156,61.5C 157.588,57.6086 160.088,54.6086 163.5,52.5 Z"/></g>
<g><path style="opacity:1" fill="#57411f" d="M 96.5,58.5 C 97.925,59.922 98.925,61.5887 99.5,63.5C 93.4092,56.3377 87.0759,56.0044 80.5,62.5C 81.075,60.5887 82.075,58.922 83.5,57.5C 87.9559,55.017 92.2892,55.3504 96.5,58.5 Z"/></g>
<g><path style="opacity:1" fill="#866932" d="M 36.5,58.5 C 45.2897,61.0971 54.2897,62.0971 63.5,61.5C 63.5,61.8333 63.5,62.1667 63.5,62.5C 53.9759,64.3005 44.9759,62.9672 36.5,58.5 Z"/></g>
<g><path style="opacity:1" fill="#c39247" d="M 165.5,54.5 C 165.5,53.1667 164.833,52.5 163.5,52.5C 173.203,48.8482 179.87,52.0148 183.5,62C 182.869,65.5973 181.202,68.5973 178.5,71C 173.504,71.6643 171.67,69.4977 173,64.5C 174.264,62.393 176.097,61.393 178.5,61.5C 177.27,53.7666 172.937,51.4333 165.5,54.5 Z"/></g>
<g><path style="opacity:1" fill="#7b5f31" d="M 36.5,71.5 C 34.8253,69.8212 33.992,67.8212 34,65.5C 35.6625,67.1579 36.4959,69.1579 36.5,71.5 Z"/></g>
<g><path style="opacity:1" fill="#5a4a28" d="M 80.5,62.5 C 80.5,64.5 80.5,66.5 80.5,68.5C 79.8333,68.5 79.5,68.8333 79.5,69.5C 78.1326,66.9882 78.466,64.6548 80.5,62.5 Z"/></g>
<g><path style="opacity:1" fill="#cc9f53" d="M 79.5,69.5 C 79.5,68.8333 79.8333,68.5 80.5,68.5C 82.63,73.8323 86.13,74.8323 91,71.5C 92.4612,67.5635 91.2946,65.0635 87.5,64C 93.5191,63.4621 95.6858,66.2955 94,72.5C 91.0913,75.3939 87.5913,76.2272 83.5,75C 81.5359,73.549 80.2026,71.7157 79.5,69.5 Z"/></g>
<g><path style="opacity:1" fill="#ad7932" d="M 174.5,33.5 C 196.315,40.1306 203.481,54.1306 196,75.5C 189.383,85.1655 180.55,88.1655 169.5,84.5C 170.167,84.5 170.5,84.1667 170.5,83.5C 188.827,83.2456 196.66,73.9123 194,55.5C 189.266,40.6064 179.1,33.9398 163.5,35.5C 167.167,34.8333 170.833,34.1667 174.5,33.5 Z"/></g>
<g><path style="opacity:1" fill="#785b27" d="M 53.5,75.5 C 53.5,75.8333 53.5,76.1667 53.5,76.5C 52.8333,76.5 52.5,76.8333 52.5,77.5C 49.7029,75.205 47.0362,72.705 44.5,70C 47.7115,71.2823 50.7115,73.1156 53.5,75.5 Z"/></g>
<g><path style="opacity:1" fill="#b58d46" d="M 99.5,63.5 C 103.571,70.223 102.571,76.3896 96.5,82C 90.1191,86.2159 83.1191,87.5492 75.5,86C 67.744,83.6966 60.4107,80.5299 53.5,76.5C 53.5,76.1667 53.5,75.8333 53.5,75.5C 59.8265,78.8266 66.4931,81.3266 73.5,83C 79.9017,83.8176 86.235,83.4842 92.5,82C 99.8456,77.8034 102.179,71.6368 99.5,63.5 Z"/></g>
<g><path style="opacity:1" fill="#dcae58" d="M 62.5,84.5 C 70.8396,87.4185 78.3396,91.7519 85,97.5C 85.5853,105.298 82.4186,107.131 75.5,103C 69.7936,97.7379 65.4603,91.5712 62.5,84.5 Z"/></g>
<g><path style="opacity:1" fill="#cd9f4b" d="M 37.5,108.5 C 37.9805,111.078 38.9805,113.412 40.5,115.5C 40.8333,116.833 41.1667,118.167 41.5,119.5C 41.2322,121.099 41.5655,122.432 42.5,123.5C 42.8671,131.764 42.2004,139.931 40.5,148C 40.8333,148.5 41.1667,149 41.5,149.5C 47.8842,144.494 54.8842,143.328 62.5,146C 68.6956,151.663 70.1956,158.497 67,166.5C 64.6425,169.091 61.8092,170.758 58.5,171.5C 59.2341,170.292 59.5674,168.959 59.5,167.5C 57.5853,167.784 55.9187,167.451 54.5,166.5C 63.7325,167.438 67.5658,163.438 66,154.5C 60.7534,149.204 54.5867,148.038 47.5,151C 43.7257,152.302 40.559,154.469 38,157.5C 32.4386,167.944 28.6052,178.944 26.5,190.5C 27.7007,203.873 34.7007,212.707 47.5,217C 56.1376,218.044 63.8043,215.877 70.5,210.5C 72.1765,211.183 72.8432,212.517 72.5,214.5C 57.3653,225.139 43.532,223.472 31,209.5C 24.9653,201.086 22.9653,191.752 25,181.5C 26.8176,175.035 29.3176,168.868 32.5,163C 31.5842,162.722 30.9175,162.222 30.5,161.5C 31.5,161.5 32.5,161.5 33.5,161.5C 33.5,160.167 33.5,158.833 33.5,157.5C 39.3076,146.673 41.4743,135.006 40,122.5C 39.6397,120.579 38.8064,118.912 37.5,117.5C 36.3395,119.875 35.3395,122.208 34.5,124.5C 34.7373,123.209 34.404,122.209 33.5,121.5C 37.5754,114.303 35.5754,109.803 27.5,108C 19.7244,106.222 13.8911,108.722 10,115.5C 9.86632,124.548 14.3663,128.048 23.5,126C 26.9907,124.179 28.1574,121.346 27,117.5C 25.3221,115.447 23.4888,115.113 21.5,116.5C 20.9569,116.44 20.6236,116.107 20.5,115.5C 21.325,114.614 22.325,114.281 23.5,114.5C 23.5,113.167 23.5,111.833 23.5,110.5C 26.1122,111.277 27.9455,112.944 29,115.5C 31.8333,128 27,132.833 14.5,130C 5.96615,122.661 5.29948,114.661 12.5,106C 18.2598,102.195 24.2598,101.529 30.5,104C 28.461,101.626 26.1277,99.6255 23.5,98C 13.8614,95.0121 6.69469,89.1788 2,80.5C 0.184738,67.6538 5.68474,61.4871 18.5,62C 26.3806,67.2492 28.2139,74.0825 24,82.5C 17.5888,87.145 12.5888,85.8117 9,78.5C 7.86762,70.9444 10.5343,68.9444 17,72.5C 17.3076,76.3665 15.6409,77.3665 12,75.5C 11.3076,76.0253 10.8076,76.6919 10.5,77.5C 14.5754,82.7856 18.7421,82.7856 23,77.5C 25.4126,67.9101 21.5792,64.0768 11.5,66C 3.65364,69.2243 1.48698,74.7243 5,82.5C 11.0254,88.1048 17.8588,92.6048 25.5,96C 29.1938,98.6867 31.6938,102.187 33,106.5C 34.3333,107.833 35.6667,109.167 37,110.5C 37.4643,109.906 37.631,109.239 37.5,108.5 Z"/></g>
<g><path style="opacity:1" fill="#835c26" d="M 36.5,71.5 C 41.0984,80.5438 42.5984,90.2105 41,100.5C 40.5,103 40,105.5 39.5,108C 40.1595,110.462 40.4928,112.962 40.5,115.5C 38.9805,113.412 37.9805,111.078 37.5,108.5C 40.3839,96.0776 40.0505,83.7442 36.5,71.5 Z"/></g>
<g><path style="opacity:1" fill="#b18540" d="M 52.5,77.5 C 63.5289,87.7471 68.3623,100.414 67,115.5C 61.1137,126.78 52.947,129.447 42.5,123.5C 41.5655,122.432 41.2322,121.099 41.5,119.5C 45.8243,124.182 51.1576,125.682 57.5,124C 63.3973,120.578 66.064,115.411 65.5,108.5C 65.3934,105.433 64.8934,102.433 64,99.5C 60.9209,91.6716 57.0876,84.3382 52.5,77.5 Z"/></g>
<g><path style="opacity:1" fill="#5e4923" d="M 52.5,104.5 C 51.5084,104.328 50.8417,104.662 50.5,105.5C 41.4289,106.883 41.2623,106.216 50,103.5C 51.0698,103.528 51.9032,103.861 52.5,104.5 Z"/></g>
<g><path style="opacity:1" fill="#ebc36d" d="M 23.5,110.5 C 23.5,111.833 23.5,113.167 23.5,114.5C 22.325,114.281 21.325,114.614 20.5,115.5C 20.6236,116.107 20.9569,116.44 21.5,116.5C 21.5923,120.071 19.9257,121.238 16.5,120C 14.3665,113.626 16.6998,110.459 23.5,110.5 Z"/></g>
<g><path style="opacity:1" fill="#c39a4d" d="M 50.5,105.5 C 50.8417,104.662 51.5084,104.328 52.5,104.5C 59.0442,107.718 60.0442,112.218 55.5,118C 49.5575,120.619 46.3909,118.785 46,112.5C 47.3339,116.104 49.8339,117.271 53.5,116C 56.8323,111.13 55.8323,107.63 50.5,105.5 Z"/></g>
<g><path style="opacity:1" fill="#070502" d="M 33.5,157.5 C 30.6313,146.4 30.9647,135.4 34.5,124.5C 35.3395,122.208 36.3395,119.875 37.5,117.5C 38.8064,118.912 39.6397,120.579 40,122.5C 41.4743,135.006 39.3076,146.673 33.5,157.5 Z"/></g>
<g><path style="opacity:1" fill="#e8c06c" d="M 33.5,121.5 C 34.404,122.209 34.7373,123.209 34.5,124.5C 30.9647,135.4 30.6313,146.4 33.5,157.5C 33.5,158.833 33.5,160.167 33.5,161.5C 32.5,161.5 31.5,161.5 30.5,161.5C 29.1667,160.833 28.1667,159.833 27.5,158.5C 27.5,149.833 27.5,141.167 27.5,132.5C 29.754,128.993 31.754,125.327 33.5,121.5 Z"/></g>
<g><path style="opacity:1" fill="#d9aa52" d="M 27.5,132.5 C 27.5,141.167 27.5,149.833 27.5,158.5C 26.4415,157.4 25.6082,156.066 25,154.5C 24.8253,150.789 24.3253,147.122 23.5,143.5C 19.0649,147.014 14.0649,148.181 8.5,147C 7.27297,145.413 7.6063,144.079 9.5,143C 16.0199,140.245 22.0199,136.745 27.5,132.5 Z"/></g>
<g><path style="opacity:1" fill="#d6a855" d="M 11.5,160.5 C 11.5,159.5 11.5,158.5 11.5,157.5C 13.8894,152.529 17.2227,149.696 21.5,149C 20.2287,153.039 18.562,156.872 16.5,160.5C 14.7015,161.788 13.0348,161.788 11.5,160.5 Z"/></g>
<g><path style="opacity:1" fill="#69461b" d="M 11.5,157.5 C 11.5,158.5 11.5,159.5 11.5,160.5C 10.8333,235.5 10.1667,310.5 9.5,385.5C 9.8326,309.332 9.49926,233.332 8.5,157.5C 9.52785,154.902 10.5278,154.902 11.5,157.5 Z"/></g>
<g><path style="opacity:1" fill="#d7a953" d="M 8.5,157.5 C 9.49926,233.332 9.8326,309.332 9.5,385.5C 8.16667,385.5 6.83333,385.5 5.5,385.5C 5.33334,311.499 5.5,237.499 6,163.5C 6.57251,161.359 7.40585,159.359 8.5,157.5 Z"/></g>
<g><path style="opacity:1" fill="#e5bd6b" d="M 54.5,166.5 C 55.9187,167.451 57.5853,167.784 59.5,167.5C 59.5674,168.959 59.2341,170.292 58.5,171.5C 48.837,170.712 45.6704,165.712 49,156.5C 52.469,153.084 56.1356,152.75 60,155.5C 60.7112,157.367 60.2112,158.867 58.5,160C 55.5321,160.17 52.6988,160.336 50,160.5C 49.686,163.705 51.186,165.705 54.5,166.5 Z"/></g>
<g><path style="opacity:1" fill="#c7974a" d="M 55.5,177.5 C 62.9462,174.879 68.9462,176.879 73.5,183.5C 73.5,184.5 73.5,185.5 73.5,186.5C 69.2945,182.654 64.2945,180.987 58.5,181.5C 59.5676,180.566 60.901,180.232 62.5,180.5C 62.5,179.5 62.5,178.5 62.5,177.5C 60.1667,177.5 57.8333,177.5 55.5,177.5 Z"/></g>
<g><path style="opacity:1" fill="#e2b966" d="M 55.5,177.5 C 57.8333,177.5 60.1667,177.5 62.5,177.5C 62.5,178.5 62.5,179.5 62.5,180.5C 60.901,180.232 59.5676,180.566 58.5,181.5C 48.8593,182.634 44.6927,187.967 46,197.5C 48.3046,199.93 51.1379,200.93 54.5,200.5C 54.8898,195.466 57.5564,193.633 62.5,195C 64.1244,198.206 63.4578,200.872 60.5,203C 49.4505,207.121 43.4505,203.121 42.5,191C 43.6138,183.386 47.9472,178.886 55.5,177.5 Z"/></g>
<g><path style="opacity:1" fill="#ac7630" d="M 73.5,183.5 C 80.3568,194.072 80.0235,204.405 72.5,214.5C 72.8432,212.517 72.1765,211.183 70.5,210.5C 77.1135,203.205 78.1135,195.205 73.5,186.5C 73.5,185.5 73.5,184.5 73.5,183.5 Z"/></g>
<g><path style="opacity:1" fill="#b5923f" d="M 261.5,368.5 C 261.837,374.348 263.337,380.015 266,385.5C 268.724,386.892 271.557,388.058 274.5,389C 270.841,388.963 267.674,390.129 265,392.5C 263.189,396.976 262.189,401.643 262,406.5C 263.383,395.903 258.883,390.07 248.5,389C 252.827,388.562 256.327,386.729 259,383.5C 260.482,378.607 261.315,373.607 261.5,368.5 Z"/></g>
<g><path style="opacity:1" fill="#b89440" d="M 156.5,385.5 C 185.5,385.5 214.5,385.5 243.5,385.5C 243.5,387.833 243.5,390.167 243.5,392.5C 165.801,393.1 88.1339,391.934 10.5,389C 23.8273,388.212 37.1606,387.546 50.5,387C 86.0024,386.833 121.336,386.333 156.5,385.5 Z"/></g>
<g><path style="opacity:1" fill="#bc9742" d="M 280.5,385.5 C 357.848,385.889 435.182,387.056 512.5,389C 435.202,392.062 357.869,393.228 280.5,392.5C 280.5,390.167 280.5,387.833 280.5,385.5 Z"/></g>
<g><path style="opacity:1" fill="#37250d" d="M 506.5,400.5 C 506.167,477.002 506.501,553.335 507.5,629.5C 506.377,630.757 505.711,630.424 505.5,628.5C 505.567,627.041 505.234,625.708 504.5,624.5C 505.167,549.833 505.833,475.167 506.5,400.5 Z"/></g>
<g><path style="opacity:1" fill="#cc9333" d="M 510.5,622.5 C 510.068,623.71 509.401,624.71 508.5,625.5C 508.333,550.833 508.5,476.166 509,401.5C 509.167,475.334 509.667,549.001 510.5,622.5 Z"/></g>
<g><path style="opacity:1" fill="#dfb059" d="M 506.5,400.5 C 507.833,400.5 509.167,400.5 510.5,400.5C 510.5,474.5 510.5,548.5 510.5,622.5C 509.667,549.001 509.167,475.334 509,401.5C 508.5,476.166 508.333,550.833 508.5,625.5C 508.167,626.833 507.833,628.167 507.5,629.5C 506.501,553.335 506.167,477.002 506.5,400.5 Z"/></g>
<g><path style="opacity:1" fill="#ddb15d" d="M 478.5,569.5 C 478.443,570.609 478.11,571.609 477.5,572.5C 473.29,570.763 468.957,569.43 464.5,568.5C 458.916,568.949 453.583,570.282 448.5,572.5C 447.566,571.432 447.232,570.099 447.5,568.5C 458.032,562.895 468.365,563.229 478.5,569.5 Z"/></g>
<g><path style="opacity:1" fill="#ad7a35" d="M 447.5,568.5 C 447.232,570.099 447.566,571.432 448.5,572.5C 445.447,575.39 442.947,578.724 441,582.5C 437.801,593.777 441.635,601.111 452.5,604.5C 452.5,605.833 452.5,607.167 452.5,608.5C 454.833,608.5 457.167,608.5 459.5,608.5C 454.573,610.127 449.907,609.293 445.5,606C 436.819,596.502 435.319,586.002 441,574.5C 443.037,572.294 445.203,570.294 447.5,568.5 Z"/></g>
<g><path style="opacity:1" fill="#d9b05e" d="M 459.5,608.5 C 457.167,608.5 454.833,608.5 452.5,608.5C 452.5,607.167 452.5,605.833 452.5,604.5C 460.126,605.486 465.959,602.82 470,596.5C 472.156,588.833 469.322,585.166 461.5,585.5C 461.496,590.989 458.829,592.822 453.5,591C 452.357,584.941 455.023,581.441 461.5,580.5C 473.09,584.024 476.257,591.358 471,602.5C 467.957,606.049 464.124,608.049 459.5,608.5 Z"/></g>
<g><path style="opacity:1" fill="#bd8b36" d="M 478.5,569.5 C 489.264,578.282 493.431,589.616 491,603.5C 489.108,610.277 486.941,616.944 484.5,623.5C 482.896,624.287 482.229,625.62 482.5,627.5C 480.975,630.079 479.641,632.746 478.5,635.5C 477.833,633.833 477.167,632.167 476.5,630.5C 482.89,619.836 487.224,608.336 489.5,596C 489.381,591.692 488.548,587.525 487,583.5C 483.998,579.666 480.831,576 477.5,572.5C 478.11,571.609 478.443,570.609 478.5,569.5 Z"/></g>
<g><path style="opacity:1" fill="#e2bb69" d="M 457.5,614.5 C 466.508,615.01 470.008,619.677 468,628.5C 464.552,632.791 460.552,633.458 456,630.5C 455.289,628.633 455.789,627.133 457.5,626C 460.468,625.83 463.301,625.664 466,625.5C 466.287,622.273 464.787,620.273 461.5,619.5C 460.081,618.549 458.415,618.216 456.5,618.5C 456.433,617.041 456.766,615.708 457.5,614.5 Z"/></g>
<g><path style="opacity:1" fill="#eac16c" d="M 484.5,623.5 C 487.661,624.812 489.661,627.145 490.5,630.5C 490.5,637.5 490.5,644.5 490.5,651.5C 487.772,654.899 485.439,658.566 483.5,662.5C 482.566,661.432 482.232,660.099 482.5,658.5C 486.306,648.134 486.306,637.801 482.5,627.5C 482.229,625.62 482.896,624.287 484.5,623.5 Z"/></g>
<g><path style="opacity:1" fill="#ce9e4a" d="M 504.5,624.5 C 505.234,625.708 505.567,627.041 505.5,628.5C 502.528,632.304 499.028,635.637 495,638.5C 494.925,632.233 497.425,627.233 502.5,623.5C 503.183,623.863 503.85,624.196 504.5,624.5 Z"/></g>
<g><path style="opacity:1" fill="#100c06" d="M 482.5,627.5 C 486.306,637.801 486.306,648.134 482.5,658.5C 481.167,662.167 479.833,665.833 478.5,669.5C 474.626,658.22 474.626,646.887 478.5,635.5C 479.641,632.746 480.975,630.079 482.5,627.5 Z"/></g>
<g><path style="opacity:1" fill="#cfa253" d="M 457.5,614.5 C 456.766,615.708 456.433,617.041 456.5,618.5C 458.415,618.216 460.081,618.549 461.5,619.5C 449.867,619.267 446.867,624.1 452.5,634C 461.167,637.67 469.167,636.503 476.5,630.5C 477.167,632.167 477.833,633.833 478.5,635.5C 474.626,646.887 474.626,658.22 478.5,669.5C 477.662,669.842 477.328,670.508 477.5,671.5C 476.833,670.833 476.167,670.167 475.5,669.5C 474.937,666.705 473.604,664.372 471.5,662.5C 472.818,654.004 474.485,645.337 476.5,636.5C 476.167,636.167 475.833,635.833 475.5,635.5C 468.537,641.808 460.87,642.975 452.5,639C 447.31,633.348 446.143,626.848 449,619.5C 451.03,616.437 453.864,614.771 457.5,614.5 Z"/></g>
<g><path style="opacity:1" fill="#d3a249" d="M 490.5,630.5 C 491.325,634.647 491.825,638.981 492,643.5C 496.928,638.314 502.428,637.314 508.5,640.5C 502.809,644.679 496.809,648.345 490.5,651.5C 490.5,644.5 490.5,637.5 490.5,630.5 Z"/></g>
<g><path style="opacity:1" fill="#d4a751" d="M 495.5,682.5 C 494.167,682.5 492.833,682.5 491.5,682.5C 491.5,681.5 491.5,680.5 491.5,679.5C 492.791,679.737 493.791,679.404 494.5,678.5C 504.513,676.712 507.846,671.212 504.5,662C 500.445,659.66 496.111,658.993 491.5,660C 488.903,662.317 488.07,665.15 489,668.5C 490.444,670.155 492.278,670.822 494.5,670.5C 494.232,668.901 494.566,667.568 495.5,666.5C 495.072,669.564 494.406,672.564 493.5,675.5C 489.814,674.645 487.647,672.312 487,668.5C 485.649,657.185 490.483,653.018 501.5,656C 507.97,660.126 510.137,665.959 508,673.5C 505.857,679.321 501.69,682.321 495.5,682.5 Z"/></g>
<g><path style="opacity:1" fill="#070502" d="M 471.5,662.5 C 473.604,664.372 474.937,666.705 475.5,669.5C 475.599,672.237 475.265,674.904 474.5,677.5C 475.396,676.494 476.062,676.494 476.5,677.5C 475.908,680.127 475.575,682.794 475.5,685.5C 473.716,697.127 475.716,708.127 481.5,718.5C 484.5,722.5 487.5,726.5 490.5,730.5C 489.833,730.833 489.167,731.167 488.5,731.5C 485.515,730.674 482.849,729.341 480.5,727.5C 476.509,725.394 472.176,724.061 467.5,723.5C 465.735,722.539 463.735,722.205 461.5,722.5C 452.653,722.233 444.319,723.9 436.5,727.5C 433.406,728.213 430.406,729.213 427.5,730.5C 427.881,729.069 428.881,728.236 430.5,728C 427.12,727.661 423.787,727.161 420.5,726.5C 418.5,726.5 417.5,725.5 417.5,723.5C 413.465,713.07 416.798,706.237 427.5,703C 431.821,702.501 436.154,702.334 440.5,702.5C 442.5,702.833 444.5,703.167 446.5,703.5C 453.804,705.983 460.804,709.316 467.5,713.5C 467.833,713.333 468.167,713.167 468.5,713C 466.498,710.14 464.165,707.64 461.5,705.5C 457.288,699.056 454.122,692.056 452,684.5C 448.141,674.066 450.974,666.233 460.5,661C 464.31,660.413 467.977,660.913 471.5,662.5 Z"/></g>
<g><path style="opacity:1" fill="#ebc36d" d="M 493.5,675.5 C 494.406,672.564 495.072,669.564 495.5,666.5C 496.427,664.524 497.76,664.191 499.5,665.5C 501.549,671.416 499.549,674.749 493.5,675.5 Z"/></g>
<g><path style="opacity:1" fill="#cda352" d="M 465.5,680.5 C 465.5,681.167 465.167,681.5 464.5,681.5C 458.869,679.461 457.036,675.461 459,669.5C 462.746,665.607 466.412,665.607 470,669.5C 470.551,673.193 470.051,673.36 468.5,670C 461.435,668.945 459.268,671.778 462,678.5C 462.816,679.823 463.983,680.489 465.5,680.5 Z"/></g>
<g><path style="opacity:1" fill="#b88a42" d="M 471.5,662.5 C 467.977,660.913 464.31,660.413 460.5,661C 450.974,666.233 448.141,674.066 452,684.5C 454.122,692.056 457.288,699.056 461.5,705.5C 450.332,694.491 446.832,681.491 451,666.5C 456.863,659.007 463.697,657.673 471.5,662.5 Z"/></g>
<g><path style="opacity:1" fill="#423014" d="M 475.5,669.5 C 476.167,670.167 476.833,670.833 477.5,671.5C 477.795,673.735 477.461,675.735 476.5,677.5C 476.062,676.494 475.396,676.494 474.5,677.5C 475.265,674.904 475.599,672.237 475.5,669.5 Z"/></g>
<g><path style="opacity:1" fill="#755c2d" d="M 474.5,677.5 C 474.426,679.411 473.426,680.578 471.5,681C 469.645,681.422 467.811,681.922 466,682.5C 465.235,682.43 464.735,682.097 464.5,681.5C 465.167,681.5 465.5,681.167 465.5,680.5C 469.003,680.871 472.003,679.871 474.5,677.5 Z"/></g>
<g><path style="opacity:1" fill="#dcaf5a" d="M 433.5,680.5 C 435.655,680.372 437.655,680.872 439.5,682C 445.375,687.095 450.042,693.095 453.5,700C 447.166,698.845 441.166,696.511 435.5,693C 430.017,689.306 429.35,685.139 433.5,680.5 Z"/></g>
<g><path style="opacity:1" fill="#be8c39" d="M 482.5,658.5 C 482.232,660.099 482.566,661.432 483.5,662.5C 478.122,673.507 481.789,678.841 494.5,678.5C 493.791,679.404 492.791,679.737 491.5,679.5C 491.5,680.5 491.5,681.5 491.5,682.5C 492.833,682.5 494.167,682.5 495.5,682.5C 492.653,683.71 489.819,683.377 487,681.5C 486.333,682.167 486.333,682.833 487,683.5C 488.812,685.3 490.645,686.967 492.5,688.5C 491.508,688.328 490.842,688.662 490.5,689.5C 486.604,685.383 482.937,681.05 479.5,676.5C 477.611,680.608 476.611,684.941 476.5,689.5C 475.566,688.432 475.232,687.099 475.5,685.5C 475.575,682.794 475.908,680.127 476.5,677.5C 477.461,675.735 477.795,673.735 477.5,671.5C 477.328,670.508 477.662,669.842 478.5,669.5C 479.833,665.833 481.167,662.167 482.5,658.5 Z"/></g>
<g><path style="opacity:1" fill="#e4ba65" d="M 490.5,689.5 C 490.842,688.662 491.508,688.328 492.5,688.5C 496.29,689.895 499.957,691.562 503.5,693.5C 503.672,694.492 503.338,695.158 502.5,695.5C 498.259,694.046 494.259,692.046 490.5,689.5 Z"/></g>
<g><path style="opacity:1" fill="#deb059" d="M 431.5,699.5 C 437.289,699.858 442.955,700.858 448.5,702.5C 448.158,703.338 447.492,703.672 446.5,703.5C 444.5,703.167 442.5,702.833 440.5,702.5C 437.023,701.677 433.356,701.177 429.5,701C 430.416,700.722 431.082,700.222 431.5,699.5 Z"/></g>
<g><path style="opacity:1" fill="#b38434" d="M 503.5,693.5 C 514.693,699.576 517.526,708.243 512,719.5C 510.362,721.734 508.195,723.067 505.5,723.5C 505.715,721.821 505.048,720.821 503.5,720.5C 512.769,716.737 514.936,710.404 510,701.5C 507.312,699.636 504.812,697.636 502.5,695.5C 503.338,695.158 503.672,694.492 503.5,693.5 Z"/></g>
<g><path style="opacity:1" fill="#7a5625" d="M 475.5,685.5 C 475.232,687.099 475.566,688.432 476.5,689.5C 476.12,699.553 477.786,709.219 481.5,718.5C 475.716,708.127 473.716,697.127 475.5,685.5 Z"/></g>
<g><path style="opacity:1" fill="#d6ac5a" d="M 503.5,720.5 C 505.048,720.821 505.715,721.821 505.5,723.5C 496.031,725.063 491.031,720.896 490.5,711C 491.329,701.494 495.995,698.827 504.5,703C 507.769,706.453 508.269,710.286 506,714.5C 501.701,716.36 499.701,715.026 500,710.5C 501.699,709.594 503.533,709.261 505.5,709.5C 502.095,703.296 497.928,702.963 493,708.5C 491.293,716.963 494.793,720.963 503.5,720.5 Z"/></g>
<g><path style="opacity:1" fill="#a67837" d="M 431.5,699.5 C 431.082,700.222 430.416,700.722 429.5,701C 433.356,701.177 437.023,701.677 440.5,702.5C 436.154,702.334 431.821,702.501 427.5,703C 416.798,706.237 413.465,713.07 417.5,723.5C 416.21,722.942 415.377,721.942 415,720.5C 413.306,707.899 418.806,700.899 431.5,699.5 Z"/></g>
<g><path style="opacity:1" fill="#d9ad5d" d="M 352.5,703.5 C 360.192,707.949 362.692,714.615 360,723.5C 357.819,732.015 352.319,735.681 343.5,734.5C 344.5,733.833 345.5,733.167 346.5,732.5C 351.955,730.874 355.122,727.207 356,721.5C 357.26,714.78 355.426,709.113 350.5,704.5C 350.842,703.662 351.508,703.328 352.5,703.5 Z"/></g>
<g><path style="opacity:1" fill="#b37d35" d="M 352.5,703.5 C 351.508,703.328 350.842,703.662 350.5,704.5C 337.833,699.075 328.667,702.742 323,715.5C 319.123,731.913 324.956,743.413 340.5,750C 345.885,750.733 351.218,750.567 356.5,749.5C 354.969,750.925 355.302,751.591 357.5,751.5C 337.325,755.661 323.825,747.994 317,728.5C 316.055,707.114 326.222,697.948 347.5,701C 349.315,701.757 350.981,702.59 352.5,703.5 Z"/></g>
<g><path style="opacity:1" fill="#947132" d="M 448.5,702.5 C 453.182,703.728 457.516,705.728 461.5,708.5C 462.087,707.767 462.087,706.767 461.5,705.5C 464.165,707.64 466.498,710.14 468.5,713C 468.167,713.167 467.833,713.333 467.5,713.5C 460.804,709.316 453.804,705.983 446.5,703.5C 447.492,703.672 448.158,703.338 448.5,702.5 Z"/></g>
<g><path style="opacity:1" fill="#e6be6b" d="M 375.5,705.5 C 375.5,706.167 375.833,706.5 376.5,706.5C 371.809,709.944 370.309,714.61 372,720.5C 373.817,725.001 376.317,725.501 379.5,722C 377.556,719.847 377.056,717.347 378,714.5C 383.689,713.201 385.689,715.534 384,721.5C 383.215,723.286 382.049,724.786 380.5,726C 370.053,727.553 365.553,723.053 367,712.5C 368.805,708.857 371.638,706.524 375.5,705.5 Z"/></g>
<g><path style="opacity:1" fill="#b9924d" d="M 426.5,709.5 C 435.86,710.02 439.027,714.687 436,723.5C 435.667,720.833 435.333,718.167 435,715.5C 432.029,711.908 428.696,711.575 425,714.5C 423.788,717.834 424.621,720.334 427.5,722C 422.937,721.758 421.104,719.258 422,714.5C 423.025,712.313 424.525,710.646 426.5,709.5 Z"/></g>
<g><path style="opacity:1" fill="#c19045" d="M 346.5,732.5 C 345.5,733.167 344.5,733.833 343.5,734.5C 332.713,730.696 330.713,724.196 337.5,715C 341.095,713.927 343.095,715.261 343.5,719C 342.446,721.891 340.78,724.391 338.5,726.5C 339.299,730.907 341.966,732.907 346.5,732.5 Z"/></g>
<g><path style="opacity:1" fill="#544221" d="M 461.5,722.5 C 463.735,722.205 465.735,722.539 467.5,723.5C 466.833,723.5 466.5,723.833 466.5,724.5C 462.5,724.5 458.5,724.5 454.5,724.5C 456.833,723.833 459.167,723.167 461.5,722.5 Z"/></g>
<g><path style="opacity:1" fill="#947941" d="M 466.5,724.5 C 466.5,723.833 466.833,723.5 467.5,723.5C 472.176,724.061 476.509,725.394 480.5,727.5C 475.827,726.497 471.161,725.497 466.5,724.5 Z"/></g>
<g><path style="opacity:1" fill="#a07833" d="M 461.5,722.5 C 459.167,723.167 456.833,723.833 454.5,724.5C 448.612,725.076 442.945,726.41 437.5,728.5C 437.5,727.833 437.167,727.5 436.5,727.5C 444.319,723.9 452.653,722.233 461.5,722.5 Z"/></g>
<g><path style="opacity:1" fill="#5c4722" d="M 420.5,726.5 C 423.787,727.161 427.12,727.661 430.5,728C 428.881,728.236 427.881,729.069 427.5,730.5C 424.449,729.368 421.449,728.368 418.5,727.5C 419.492,727.672 420.158,727.338 420.5,726.5 Z"/></g>
<g><path style="opacity:1" fill="#6a4f21" d="M 490.5,730.5 C 491.625,732.129 492.959,733.629 494.5,735C 493.833,735.667 493.167,735.667 492.5,735C 490.907,734.051 489.574,732.885 488.5,731.5C 489.167,731.167 489.833,730.833 490.5,730.5 Z"/></g>
<g><path style="opacity:1" fill="#100b05" d="M 427.5,758.5 C 417.546,759.355 413.713,754.689 416,744.5C 421.158,739.896 424.658,740.896 426.5,747.5C 422.971,746.889 421.138,748.223 421,751.5C 423.243,753.787 425.743,753.953 428.5,752C 432.254,748.541 432.254,744.875 428.5,741C 425.091,740.004 421.758,739.171 418.5,738.5C 421.312,736.592 424.312,734.925 427.5,733.5C 436.815,741.912 436.815,750.246 427.5,758.5 Z"/></g>
<g><path style="opacity:1" fill="#dbab56" d="M 499.5,738.5 C 506.484,738.317 509.317,741.65 508,748.5C 504.049,753.818 500.049,753.818 496,748.5C 495.333,746.5 495.333,744.5 496,742.5C 497.376,741.295 498.542,739.962 499.5,738.5 Z"/></g>
<g><path style="opacity:1" fill="#cb9a4c" d="M 407.5,740.5 C 406.203,745.267 406.203,749.934 407.5,754.5C 406.516,757.812 405.516,761.145 404.5,764.5C 403.635,765.583 402.635,765.749 401.5,765C 398.794,759.703 399.127,754.537 402.5,749.5C 397.622,749.475 392.622,749.308 387.5,749C 383.993,747.67 382.327,745.17 382.5,741.5C 390.94,743.158 399.273,742.824 407.5,740.5 Z"/></g>
<g><path style="opacity:1" fill="#c3913a" d="M 456.5,759.5 C 456.5,758.833 456.5,758.167 456.5,757.5C 469.405,763.8 475.905,759.8 476,745.5C 473.523,739.55 469.357,738.05 463.5,741C 459.201,745.821 459.701,749.987 465,753.5C 465.5,753.167 466,752.833 466.5,752.5C 464.543,748.672 465.543,746.838 469.5,747C 472.677,751.817 471.343,754.651 465.5,755.5C 457.993,753.485 455.493,748.818 458,741.5C 465.497,735.776 472.497,736.443 479,743.5C 481.858,757.646 476.025,763.812 461.5,762C 459.807,761.153 458.14,760.32 456.5,759.5 Z"/></g>
<g><path style="opacity:1" fill="#c69137" d="M 418.5,738.5 C 421.758,739.171 425.091,740.004 428.5,741C 432.254,744.875 432.254,748.541 428.5,752C 425.743,753.953 423.243,753.787 421,751.5C 421.138,748.223 422.971,746.889 426.5,747.5C 424.658,740.896 421.158,739.896 416,744.5C 413.713,754.689 417.546,759.355 427.5,758.5C 426.34,760.203 427.007,760.869 429.5,760.5C 419.156,762.85 412.49,758.85 409.5,748.5C 411.105,743.896 414.105,740.562 418.5,738.5 Z"/></g>
<g><path style="opacity:1" fill="#d9ae5b" d="M 418.5,727.5 C 421.449,728.368 424.449,729.368 427.5,730.5C 430.406,729.213 433.406,728.213 436.5,727.5C 437.167,727.5 437.5,727.833 437.5,728.5C 435.193,729.653 432.86,730.82 430.5,732C 436.786,734.725 442.286,738.558 447,743.5C 449.929,748.369 453.096,753.035 456.5,757.5C 456.5,758.167 456.5,758.833 456.5,759.5C 450.772,754.267 445.939,748.267 442,741.5C 440.622,739.787 438.955,738.453 437,737.5C 438.378,741.978 438.711,746.644 438,751.5C 436.341,755.658 433.508,758.658 429.5,760.5C 427.007,760.869 426.34,760.203 427.5,758.5C 436.815,750.246 436.815,741.912 427.5,733.5C 424.312,734.925 421.312,736.592 418.5,738.5C 414.105,740.562 411.105,743.896 409.5,748.5C 408.833,750.5 408.167,752.5 407.5,754.5C 406.203,749.934 406.203,745.267 407.5,740.5C 413.595,737.954 419.595,735.12 425.5,732C 413.499,728.306 401.833,729.306 390.5,735C 382.005,739.413 373.672,744.08 365.5,749C 362.904,750.136 360.237,750.969 357.5,751.5C 355.302,751.591 354.969,750.925 356.5,749.5C 365.27,745.281 373.937,740.781 382.5,736C 387.388,729.28 389.221,721.78 388,713.5C 385.805,708.489 381.971,706.156 376.5,706.5C 375.833,706.5 375.5,706.167 375.5,705.5C 381.351,703.608 386.518,704.941 391,709.5C 394.445,717.021 393.945,724.354 389.5,731.5C 389.833,731.833 390.167,732.167 390.5,732.5C 399.376,728.281 408.709,726.615 418.5,727.5 Z"/></g>
<g><path style="opacity:1" fill="#d8ab58" d="M 396.5,752.5 C 397.376,752.369 398.043,752.702 398.5,753.5C 396.469,758.523 393.136,762.19 388.5,764.5C 386.364,763.883 385.53,762.549 386,760.5C 388.94,756.963 392.44,754.297 396.5,752.5 Z"/></g>
<g><path style="opacity:1" fill="#755b2d" d="M 372.5,765.5 C 364.35,764.507 356.017,764.174 347.5,764.5C 332.833,764.5 318.167,764.5 303.5,764.5C 289.833,764.5 276.167,764.5 262.5,764.5C 223.5,764.5 184.5,764.5 145.5,764.5C 145.5,765.5 145.5,766.5 145.5,767.5C 184.5,767.5 223.5,767.5 262.5,767.5C 276.167,767.5 289.833,767.5 303.5,767.5C 318.167,767.5 332.833,767.5 347.5,767.5C 353.833,767.5 360.167,767.5 366.5,767.5C 292.669,768.499 218.669,768.833 144.5,768.5C 144.5,766.833 144.5,765.167 144.5,763.5C 221.167,763.333 297.834,763.5 374.5,764C 373.956,764.717 373.289,765.217 372.5,765.5 Z"/></g>
<g><path style="opacity:1" fill="#fdfdfd" d="M -0.5,764.5 C 1.55952,769.729 5.22618,773.563 10.5,776C 178.167,776.667 345.833,776.667 513.5,776C 518.82,773.85 522.153,770.017 523.5,764.5C 523.833,764.5 524.167,764.5 524.5,764.5C 524.5,768.833 524.5,773.167 524.5,777.5C 349.5,777.5 174.5,777.5 -0.5,777.5C -0.5,773.167 -0.5,768.833 -0.5,764.5 Z"/></g>
<g><path style="opacity:1" fill="#d39c3f" d="M 347.5,764.5 C 356.017,764.174 364.35,764.507 372.5,765.5C 370.5,766.167 368.5,766.833 366.5,767.5C 360.167,767.5 353.833,767.5 347.5,767.5C 347.5,766.5 347.5,765.5 347.5,764.5 Z"/></g>
<g><path style="opacity:1" fill="#edc268" d="M 303.5,764.5 C 318.167,764.5 332.833,764.5 347.5,764.5C 347.5,765.5 347.5,766.5 347.5,767.5C 332.833,767.5 318.167,767.5 303.5,767.5C 303.5,766.5 303.5,765.5 303.5,764.5 Z"/></g>
<g><path style="opacity:1" fill="#d29a3b" d="M 262.5,764.5 C 276.167,764.5 289.833,764.5 303.5,764.5C 303.5,765.5 303.5,766.5 303.5,767.5C 289.833,767.5 276.167,767.5 262.5,767.5C 263.833,766.5 263.833,765.5 262.5,764.5 Z"/></g>
<g><path style="opacity:1" fill="#e3b35c" d="M 262.5,764.5 C 263.833,765.5 263.833,766.5 262.5,767.5C 223.5,767.5 184.5,767.5 145.5,767.5C 145.5,766.5 145.5,765.5 145.5,764.5C 184.5,764.5 223.5,764.5 262.5,764.5 Z"/></g>
</svg>
